<svg width="428" height="490" viewBox="0 0 428 490" fill="none" xmlns="http://www.w3.org/2000/svg">
<path d="M396.678 435.37C396.678 435.37 414.458 443.89 433.618 452.15C433.628 452.19 433.658 452.2 433.688 452.18C453.768 460.88 475.318 469.36 479.278 467.43C483.808 465.26 494.738 418.3 521.208 366.85C547.678 315.4 584.398 296.98 583.868 288.83C583.658 285.63 580.118 278.62 575.418 271.07C577.668 275.17 573.268 276.49 563.398 282.54C553.128 288.82 533.968 310.02 533.968 310.02C548.218 284.79 569.718 264.55 567.518 259.28C567.478 259.23 567.468 259.2 567.438 259.13C567.428 259.09 567.398 259.08 567.388 259.05C562.078 251.7 556.778 245.48 553.858 243.72H553.838L487.938 238.1L397.558 433.47L396.668 435.37H396.678Z" fill="url(#paint0_linear_1495_2124)"/>
<path d="M339.546 368.68C338.826 371.44 338.216 374.11 337.686 376.66C337.656 376.73 337.646 376.82 337.636 376.9C335.086 389.04 334.606 398.41 336.936 403.46C340.476 411.15 411.546 444.45 433.616 452.15C433.626 452.19 433.656 452.2 433.686 452.18C436.496 453.18 438.516 453.74 439.466 453.78C440.166 453.79 440.946 453.35 441.786 452.43C451.366 442.3 471.256 377.4 504.076 322.78C539.866 263.28 551.986 254.91 555.146 246.51C555.396 245.88 554.926 244.95 553.856 243.71H553.836C541.266 229.47 445.976 179.28 428.636 184.24C422.816 185.88 410.496 204.57 396.696 230.5C396.636 230.56 396.596 230.66 396.566 230.74C393.796 235.92 390.986 241.37 388.146 247.04L388.016 247.34L387.966 247.38C368.486 286.45 348.076 335.25 339.546 368.69V368.68Z" fill="url(#paint1_linear_1495_2124)"/>
<path d="M510.537 284.001C513.767 292.091 454.597 407.541 451.087 413.001C447.577 418.461 433.567 413.621 406.577 427.821C391.047 435.991 360.087 415.231 362.177 397.821C364.267 380.401 351.687 363.831 351.917 350.651C352.147 337.471 404.437 234.581 411.207 230.561C417.967 226.551 439.717 222.581 451.987 202.231C459.157 190.341 518.417 224.301 518.867 228.331C519.317 232.361 496.247 248.201 510.527 283.991L510.537 284.001Z" fill="#D8EC38"/>
<path d="M469.607 251.48C509.987 274.36 454.957 397.64 401.287 383.63C347.617 369.61 405.277 215.04 469.607 251.48Z" fill="url(#paint2_linear_1495_2124)"/>
<path d="M438.195 311.31C445.635 307.73 443.105 301.7 438.815 298.36C434.545 295.03 412.356 303.43 409.526 302.27C409.526 302.27 409.695 287.96 411.835 284.49C413.455 281.86 425.435 274.4 438.085 272.73C441.535 265.23 443.995 260.35 444.605 260.11C447.415 259.01 461.376 265.8 464.016 267.69C464.576 268.07 462.535 272.87 458.955 280.15C466.005 291.42 464.066 312.68 454.026 322.51C441.086 335.18 419.856 318.14 414.666 320.63C409.486 323.11 414.166 337.06 420.016 339.17C420.436 339.25 420.846 339.35 421.266 339.42C427.006 339.82 434.326 330.28 437.906 330.33C441.756 330.38 448.475 337.62 447.705 343.11C447.025 347.95 430.336 351.38 418.906 351.22C415.926 355.9 413.866 358.74 413.296 358.72C413.296 358.72 404.545 356.84 404.095 354.75C404.015 354.37 405.245 350.95 407.315 345.67C401.225 337.04 398.166 320.24 399.026 312.57C400.186 302.28 430.795 314.88 438.195 311.32V311.31Z" fill="#D8EC38"/>
<g style="mix-blend-mode:soft-light" opacity="0.3">
<path d="M550.007 244.741C554.707 248.701 511.477 300.831 492.437 320.141C473.397 339.451 388.557 280.091 386.447 267.461C384.337 254.831 417.787 197.891 429.907 189.271C442.027 180.651 529.317 227.331 550.007 244.751V244.741Z" fill="white"/>
</g>
<path d="M540.857 342.391C540.857 342.391 544.027 346.471 544.257 347.641C544.487 348.811 534.087 360.251 523.887 379.251C513.687 398.251 511.857 410.421 510.397 413.751C508.927 417.091 472.527 403.211 465.767 400.661C459.007 398.101 346.017 346.901 346.017 346.901C346.017 346.901 342.297 344.431 342.277 341.331C342.257 338.221 371.097 267.081 372.687 263.891C374.277 260.701 380.767 262.241 380.767 262.241L378.337 267.481C378.337 267.481 488.557 326.261 499.287 331.031C510.017 335.801 538.527 345.121 538.527 345.121L540.867 342.391H540.857Z" fill="url(#paint3_linear_1495_2124)"/>
<path d="M526.915 374.621C526.915 374.621 494.585 363.651 486.275 360.891C477.965 358.121 360.135 294.471 360.135 294.471L354.695 308.111C354.695 308.111 473.105 366.181 481.915 370.421C490.715 374.651 517.845 388.631 517.845 388.631L526.915 374.631V374.621Z" fill="url(#paint4_linear_1495_2124)"/>
<g style="mix-blend-mode:multiply" opacity="0.5">
<path d="M499.276 331.029C500.876 334.649 496.176 339.259 484.146 365.459C472.126 391.659 471.576 398.569 469.076 399.769C466.566 400.969 354.426 350.959 342.266 341.319C342.266 341.319 341.666 344.929 346.006 346.889L344.766 350.689C344.766 350.689 448.256 402.659 462.766 407.739C477.276 412.819 501.786 416.549 501.786 416.549L503.196 413.339C503.196 413.339 509.806 415.409 510.386 413.749C510.966 412.089 513.696 397.639 521.856 383.139C530.016 368.639 543.716 349.169 543.976 348.399C544.246 347.629 540.846 342.379 540.846 342.379L538.996 344.539C538.996 344.539 513.806 338.339 499.266 331.029H499.276Z" fill="#A42E89"/>
</g>
<path d="M509.137 335.88C511.207 336.76 465.157 323.19 433.387 304.88C401.617 286.56 372.137 265.1 372.137 265.1L378.317 267.48C378.317 267.48 461.217 315.51 509.127 335.88H509.137Z" fill="white"/>
<g style="mix-blend-mode:multiply" opacity="0.2">
<path d="M491.875 331.619C496.065 336.709 470.215 359.709 457.965 360.619C445.715 361.539 397.685 346.909 381.385 331.319C365.085 315.739 372.715 273.419 373.715 269.749C374.705 266.079 410.255 293.159 435.245 305.349C460.235 317.539 489.245 328.419 491.875 331.619Z" fill="#F0AE89"/>
</g>
<g style="mix-blend-mode:multiply" opacity="0.3">
<path d="M428.647 184.24C422.827 185.88 410.507 204.57 396.707 230.5C406.627 213.33 423.967 189.28 443.207 189.55C473.077 189.98 553.847 243.7 553.847 243.7C541.277 229.47 445.987 179.28 428.647 184.24Z" fill="#911D3D"/>
</g>
<g style="mix-blend-mode:multiply" opacity="0.3">
<path d="M387.977 247.37V247.41C387.977 247.41 387.997 247.39 388.027 247.34C388.017 247.36 387.977 247.38 387.977 247.38V247.37Z" fill="#911D3D"/>
</g>
<g style="mix-blend-mode:soft-light" opacity="0.5">
<path d="M472.485 197.931C502.405 215.261 464.725 231.431 437.665 233.581C410.605 235.731 417.905 203.091 430.025 193.001C442.145 182.911 472.485 197.941 472.485 197.941V197.931Z" fill="white"/>
</g>
<g style="mix-blend-mode:multiply" opacity="0.3">
<path d="M337.636 376.91C335.086 389.05 334.606 398.42 336.936 403.47C340.476 411.16 411.546 444.46 433.616 452.16C433.626 452.2 433.656 452.21 433.686 452.19C453.766 460.89 475.316 469.37 479.276 467.44C479.276 467.44 458.026 462.8 441.786 452.44C433.836 447.37 415.946 440.83 397.566 433.48C378.376 425.84 358.616 417.34 349.056 408.74C337.376 398.21 336.586 385.2 337.636 376.92V376.91Z" fill="#911D3D"/>
</g>
<path style="mix-blend-mode:multiply" opacity="0.3" d="M587.175 299.259C586.995 298.179 584.225 296.009 581.195 293.919C582.975 291.859 583.955 290.199 583.875 288.829C583.695 286.119 581.135 280.699 577.515 274.539C577.305 273.179 576.715 271.899 575.425 271.069L565.825 264.899C567.325 262.359 568.015 260.449 567.535 259.269L567.615 259.349C567.555 259.249 567.485 259.179 567.445 259.129C567.445 259.089 567.405 259.079 567.395 259.039C562.095 251.689 556.785 245.459 553.865 243.709H553.835C541.265 229.469 445.975 179.269 428.635 184.239C422.815 185.879 410.495 204.579 396.695 230.509C396.635 230.569 396.595 230.669 396.565 230.739C393.795 235.919 390.975 241.369 388.135 247.039L388.005 247.329L387.955 247.369C385.555 252.189 383.135 257.159 380.725 262.229C380.555 262.189 374.225 260.739 372.655 263.889C372.565 264.069 372.385 264.489 372.115 265.089C369.985 270.069 362.515 288.379 355.575 305.819C348.645 323.259 342.245 339.829 342.245 341.319C342.245 341.319 341.645 344.919 345.995 346.889L345.665 347.889C345.535 348.299 345.405 348.699 345.275 349.099L344.755 350.689C342.725 357.039 340.955 363.079 339.525 368.679C338.805 371.439 338.195 374.099 337.655 376.659C337.625 376.729 337.615 376.819 337.605 376.899C335.055 389.029 334.575 398.409 336.905 403.449C338.095 406.039 346.895 411.509 358.905 417.929C373.895 425.939 393.885 435.429 410.275 442.639C419.845 446.839 428.185 450.259 433.585 452.139C433.605 452.179 433.625 452.189 433.665 452.169C438.515 454.279 443.455 456.369 448.205 458.289H448.185C448.185 458.289 448.765 458.519 449.795 458.929C452.025 459.829 454.205 460.689 456.315 461.499C456.585 461.609 456.865 461.709 457.145 461.819C457.195 461.839 457.245 461.849 457.295 461.869C468.195 465.989 476.875 468.569 479.245 467.419C479.245 467.419 484.545 470.179 485.435 467.529C485.905 466.129 492.075 443.079 501.755 416.519L503.165 413.329C503.165 413.329 509.775 415.399 510.365 413.739C511.735 410.629 513.415 399.869 521.865 383.079C523.385 380.369 525.105 377.489 526.885 374.599C529.995 369.549 533.305 364.459 536.175 360.119C539.045 355.779 541.485 352.189 542.825 350.169C543.495 349.149 543.905 348.529 543.945 348.399C543.945 348.379 543.945 348.349 543.945 348.319C544.135 347.989 544.225 347.749 544.205 347.629C543.975 346.469 540.815 342.389 540.805 342.379C565.585 314.029 585.595 309.119 586.835 307.489C588.155 305.739 587.235 302.779 587.115 299.249L587.175 299.259Z" fill="url(#paint5_radial_1495_2124)"/>
<path d="M190.917 479.518C175.597 495.918 153.687 499.718 140.367 489.738C139.647 489.198 138.967 488.638 138.327 488.038C137.627 487.408 136.987 486.738 136.367 486.048C126.757 475.178 126.237 456.018 136.997 439.128C149.067 420.178 170.977 410.518 187.797 417.378C189.927 418.238 191.947 419.368 193.827 420.778C209.917 432.838 208.537 458.448 193.107 477.018C193.107 477.018 193.107 477.018 193.067 477.058C192.387 477.898 191.657 478.718 190.907 479.518H190.917Z" fill="url(#paint6_linear_1495_2124)"/>
<path d="M131.707 483.257C131.707 483.257 139.627 491.097 145.927 492.947L199.297 426.797C199.297 426.797 198.147 422.077 181.807 411.807L131.707 483.257Z" fill="url(#paint7_linear_1495_2124)"/>
<path d="M181.227 472.267C168.047 487.337 149.507 492.217 136.367 486.047C134.737 485.287 133.177 484.357 131.697 483.247C122.717 476.517 118.727 464.557 120.357 451.737C120.387 451.497 120.407 451.277 120.427 451.097C120.487 450.637 120.537 450.377 120.537 450.377C121.487 444.297 123.697 437.967 127.307 431.877C140.327 409.887 165.977 399.917 182.847 412.557C184.727 413.957 186.377 415.577 187.797 417.387C199.117 431.607 196.017 455.347 181.227 472.267Z" fill="url(#paint8_linear_1495_2124)"/>
<path d="M169.625 463.568C160.735 474.588 147.245 477.938 138.375 472.148C138.065 471.958 137.755 471.738 137.455 471.518C128.585 464.868 127.265 450.128 135.075 437.698C143.555 424.198 159.355 418.628 169.675 426.358C170.025 426.618 170.365 426.898 170.675 427.188C179.955 435.268 179.245 451.638 169.615 463.578L169.625 463.568Z" fill="url(#paint9_linear_1495_2124)"/>
<path d="M169.625 463.566C160.735 474.586 147.245 477.936 138.375 472.146C130.305 465.256 129.365 451.096 136.995 439.136C145.265 426.166 160.345 420.586 170.685 427.186C179.965 435.266 179.255 451.636 169.625 463.576V463.566Z" fill="url(#paint10_linear_1495_2124)"/>
<g style="mix-blend-mode:multiply" opacity="0.5">
<path d="M144.588 427.677C144.588 427.677 144.418 430.167 145.678 429.797C146.948 429.427 156.698 422.607 167.378 428.907C178.138 435.257 175.708 452.327 175.708 452.327C175.708 452.327 181.178 434.047 169.298 426.077C157.468 418.137 144.578 427.667 144.578 427.667L144.588 427.677Z" fill="#F12200"/>
</g>
<g style="mix-blend-mode:soft-light">
<path d="M140.545 418.247C136.835 422.947 142.655 425.797 143.505 426.097C144.355 426.397 154.675 420.377 165.425 422.647C176.435 424.967 178.615 437.447 178.635 442.867C178.645 448.167 190.365 447.717 193.055 445.287C195.795 442.817 194.475 417.347 176.115 410.037C158.205 402.907 140.545 418.247 140.545 418.247Z" fill="#FEF4EE"/>
</g>
<g style="mix-blend-mode:multiply" opacity="0.2">
<path d="M138.305 420.796C136.055 419.286 128.815 429.876 126.715 434.346C124.665 438.696 130.065 440.326 131.825 439.606C133.595 438.886 142.115 428.306 142.855 427.576C143.605 426.846 141.945 425.996 140.015 424.276C138.085 422.556 138.835 421.156 138.295 420.796H138.305Z" fill="#FE0E00"/>
</g>
<g style="mix-blend-mode:multiply" opacity="0.2">
<path d="M180.015 446.948C178.095 446.548 174.555 456.178 172.225 462.168C169.965 467.958 179.965 465.568 181.805 467.438C183.645 469.298 193.135 451.508 192.725 449.068C192.315 446.608 185.745 449.328 180.015 446.948Z" fill="#FE0E00"/>
</g>
<g style="mix-blend-mode:soft-light">
<path d="M124.155 472.248C123.965 462.918 133.005 472.718 141.865 474.768C150.925 476.858 157.225 474.278 160.195 474.058C163.195 473.828 164.565 483.028 162.245 484.928C159.975 486.798 136.815 495.268 124.155 472.258V472.248Z" fill="#FFA049"/>
</g>
<g style="mix-blend-mode:multiply" opacity="0.5">
<path d="M196.176 436.558C195.146 435.788 196.076 438.718 195.296 445.198C194.536 451.498 192.006 457.828 192.256 459.648C192.506 461.458 200.156 464.878 200.156 464.878C200.156 464.878 207.476 452.398 204.166 441.358C203.486 439.108 196.176 436.558 196.176 436.558Z" fill="#E14500"/>
</g>
<g style="mix-blend-mode:multiply" opacity="0.5">
<path d="M148.777 489.407C146.457 489.727 152.617 493.957 153.487 494.217C154.357 494.487 165.787 496.127 172.277 492.437C179.027 488.587 172.737 483.607 171.547 482.697C170.347 481.777 164.267 485.877 156.587 487.687C149.177 489.437 148.787 489.407 148.787 489.407H148.777Z" fill="#E14500"/>
</g>
<g style="mix-blend-mode:soft-light">
<path d="M190.767 460.087C189.707 459.337 185.267 467.937 180.897 473.997C176.707 479.817 186.417 483.837 187.067 483.257C187.717 482.667 193.717 475.937 195.997 472.407C198.327 468.797 201.217 466.787 198.557 464.757C195.897 462.717 190.757 460.087 190.757 460.087H190.767Z" fill="#FEF4EE"/>
</g>
<path d="M130.207 458.748C131.837 453.978 130.347 459.698 134.037 466.568C137.657 473.308 146.547 475.948 152.097 474.618C152.097 474.618 144.757 476.598 138.077 471.978C130.507 466.728 130.207 458.748 130.207 458.748Z" fill="#FFCFE8"/>
<g style="mix-blend-mode:soft-light">
<path d="M179.988 411.898C174.078 408.208 164.708 420.518 169.028 423.898C173.348 427.278 177.538 430.948 178.618 442.028C179.658 452.658 192.518 445.438 193.918 443.138C195.338 440.808 196.918 421.228 179.988 411.898Z" fill="#FEF4EE"/>
</g>
<path d="M120.266 462.197C119.316 450.937 127.696 455.277 128.746 456.627C129.796 457.967 129.776 465.107 136.256 471.047C142.706 476.957 131.876 482.217 129.096 480.457C126.326 478.697 120.906 469.767 120.266 462.197Z" fill="#FEF4EE"/>
<path d="M188.826 419.558C186.146 417.748 183.186 429.268 184.046 434.758C184.896 440.148 193.236 439.598 194.226 437.908C195.226 436.198 192.706 425.038 188.826 419.558Z" fill="#FEF4EE"/>
<path d="M122.968 463.838C123.648 460.588 126.788 468.558 125.168 469.308C123.568 470.058 122.298 467.028 122.968 463.838Z" fill="#FEF4EE"/>
<g style="mix-blend-mode:soft-light">
<path d="M170.627 466.297C168.627 466.137 164.827 471.217 153.287 475.277C142.387 479.117 145.817 486.147 146.947 487.117C148.077 488.087 159.387 488.827 171.167 480.087C181.127 472.697 180.117 469.657 179.547 468.607C178.977 467.547 172.277 466.427 170.617 466.297H170.627Z" fill="#FEF4EE"/>
</g>
<g style="mix-blend-mode:soft-light">
<path d="M192.596 422.377C188.826 419.557 194.636 430.967 196.646 434.977C198.636 438.947 204.406 438.827 204.406 438.827C204.406 438.827 204.746 429.677 192.596 422.377Z" fill="#FEF4EE"/>
</g>
<g style="mix-blend-mode:soft-light">
<path d="M135.767 436.648C137.097 434.298 141.617 430.958 142.397 430.658C143.177 430.358 136.387 442.158 134.467 443.858C132.577 445.528 134.977 438.038 135.767 436.648Z" fill="#FEF4EE"/>
</g>
<path d="M194.567 437.508C194.567 437.508 195.307 460.078 173.707 479.138C173.707 479.138 197.817 462.868 194.567 437.508Z" fill="#FFCB7A"/>
<g style="mix-blend-mode:multiply" opacity="0.8">
<path d="M128.855 480.797C128.855 480.797 132.305 484.687 136.805 487.497C141.325 490.307 153.456 488.337 153.456 488.337C153.456 488.337 140.595 491.587 128.855 480.797Z" fill="#F12200"/>
</g>
<g style="mix-blend-mode:multiply" opacity="0.8">
<path d="M131.697 483.258C122.717 476.528 118.727 464.568 120.357 451.748C119.847 456.578 119.437 469.958 131.697 483.258Z" fill="#F12200"/>
</g>
<g style="mix-blend-mode:multiply" opacity="0.5">
<path d="M120.437 451.098C120.407 451.308 120.387 451.528 120.367 451.738C120.397 451.498 120.417 451.278 120.437 451.098Z" fill="#FC5900"/>
</g>
<g style="mix-blend-mode:multiply" opacity="0.8">
<path d="M190.918 479.517C175.598 495.917 153.688 499.717 140.368 489.737C139.648 489.197 138.968 488.637 138.328 488.037C150.638 495.397 162.658 494.277 169.868 492.827C178.418 491.097 192.208 477.907 193.078 477.057C192.398 477.897 191.668 478.717 190.918 479.517Z" fill="#F12200"/>
</g>
<g style="mix-blend-mode:multiply" opacity="0.8">
<path d="M139.418 417.587C139.418 417.587 148.678 409.827 160.468 408.737C172.738 407.597 187.318 415.897 187.318 415.897L193.608 420.257C193.608 420.257 184.338 413.067 181.448 411.497C178.568 409.927 161.658 399.417 139.418 417.577V417.587Z" fill="#F12200"/>
</g>
<path d="M137.485 456.347C138.345 454.847 139.295 453.697 140.355 452.917C141.565 453.157 142.315 453.387 142.605 453.587C143.135 453.967 143.825 454.777 144.665 456.017C144.535 456.517 144.255 457.187 143.825 458.017C144.185 459.337 144.785 460.447 145.625 461.347C147.585 457.657 149.115 454.847 150.175 452.977C149.205 451.997 148.425 451.087 147.845 450.257C147.265 449.437 146.775 448.447 146.375 447.307C145.975 446.167 145.895 444.917 146.125 443.557C146.355 442.197 146.915 440.737 147.805 439.157C149.725 435.797 152.265 433.337 155.485 431.807C158.815 430.217 161.835 429.987 164.515 431.177L167.625 426.297C167.985 426.077 169.975 427.757 169.975 427.757L167.235 433.037C168.175 433.877 169.045 435.087 169.835 436.657C170.735 435.617 171.565 434.977 172.325 434.757C173.155 434.677 174.025 434.867 174.935 435.327C176.395 436.077 176.465 436.957 176.585 437.957C176.315 438.757 175.995 440.557 174.175 443.297C172.965 445.127 171.985 446.337 171.235 446.937C170.485 447.537 169.695 447.707 168.855 447.467C168.235 447.357 167.685 447.157 167.215 446.877C166.165 446.257 165.495 445.477 165.185 444.537C165.365 443.887 165.665 443.227 166.095 442.557C165.605 441.667 164.785 440.797 163.635 439.947C161.865 443.277 160.025 446.507 158.115 449.637C160.865 452.017 162.585 454.277 163.225 456.367C163.865 458.477 163.285 460.907 161.485 463.617C159.355 466.837 156.645 468.957 153.425 469.987C150.315 470.987 147.455 470.647 144.855 469.037L141.795 473.167C141.405 473.147 139.485 472.247 138.675 471.697L142.555 467.347C141.475 466.177 140.755 464.837 140.405 463.307C139.965 464.047 139.545 464.507 139.115 464.687C138.565 464.677 137.855 464.327 137.005 463.637C136.095 462.907 135.605 462.207 135.535 461.517C135.745 460.007 136.395 458.287 137.505 456.347H137.485ZM153.495 441.257C152.235 443.377 152.375 445.167 153.925 446.657C155.135 444.717 157.025 441.847 159.635 438.007C157.155 437.417 155.115 438.517 153.495 441.247V441.257ZM148.925 463.337C150.045 463.517 151.165 463.397 152.275 462.977C153.405 462.547 154.265 461.877 154.855 460.947C155.875 459.337 155.555 457.707 153.895 456.097C152.255 458.567 150.595 460.977 148.915 463.337H148.925Z" fill="url(#paint11_linear_1495_2124)"/>
<path d="M159.526 462.338C161.316 459.628 161.876 457.178 161.236 455.088C161.116 454.678 160.936 454.258 160.726 453.848C159.876 452.088 158.316 450.258 156.126 448.348C156.156 448.308 156.196 448.258 156.206 448.208C156.426 447.848 156.636 447.498 156.846 447.128C158.476 444.368 160.056 441.528 161.566 438.618C162.716 439.478 163.536 440.348 164.026 441.228C163.606 441.898 163.326 442.568 163.146 443.218C163.446 444.158 164.126 444.948 165.176 445.558C165.636 445.838 166.186 446.038 166.816 446.148C167.646 446.368 168.446 446.208 169.186 445.598C169.926 444.998 170.906 443.798 172.086 441.948C173.896 439.188 174.936 437.398 175.196 436.578C175.076 435.588 174.286 434.698 172.826 433.948C171.906 433.488 171.046 433.288 170.196 433.378C169.456 433.608 168.636 434.248 167.726 435.298C166.946 433.718 166.066 432.498 165.116 431.658L167.836 426.368C166.406 425.938 165.526 425.828 165.176 426.048L162.406 429.808C159.726 428.628 156.726 428.858 153.396 430.458C150.206 432.008 147.696 434.468 145.786 437.838C145.746 437.888 145.726 437.958 145.696 438.008C144.866 439.518 144.346 440.928 144.136 442.248C143.916 443.608 144.006 444.868 144.406 445.988C144.806 447.148 145.306 448.128 145.886 448.948C146.476 449.778 147.256 450.688 148.216 451.668C147.736 452.538 147.136 453.638 146.446 454.928C145.656 456.378 144.746 458.098 143.716 460.068C142.876 459.188 142.286 458.068 141.916 456.748C142.326 455.908 142.616 455.238 142.736 454.728C141.886 453.488 141.216 452.688 140.686 452.308C140.396 452.088 139.646 451.888 138.436 451.638C137.386 452.428 136.436 453.568 135.586 455.088C134.496 457.038 133.846 458.768 133.656 460.278C133.726 460.968 134.226 461.678 135.126 462.408C135.976 463.078 136.686 463.438 137.226 463.448C137.646 463.268 138.066 462.798 138.516 462.068C138.866 463.598 139.576 464.948 140.666 466.118L138.126 471.098C138.926 471.648 139.546 471.938 139.926 471.948L142.956 467.798C145.566 469.418 148.406 469.758 151.496 468.748C154.706 467.698 157.386 465.568 159.506 462.328L159.526 462.338ZM151.266 444.508C150.396 443.208 150.476 441.688 151.506 439.928C153.106 437.198 155.136 436.078 157.616 436.678C155.166 440.318 153.366 443.088 152.166 445.018L152.086 445.138C152.056 445.218 152.006 445.278 151.966 445.348C151.686 445.078 151.456 444.808 151.276 444.508H151.266ZM150.396 461.728C149.286 462.148 148.166 462.268 147.056 462.088C148.286 460.328 149.506 458.528 150.726 456.708C151.136 456.078 151.566 455.458 151.986 454.818C152.696 455.508 153.166 456.208 153.376 456.918C153.676 457.818 153.526 458.738 152.956 459.668C152.366 460.608 151.516 461.288 150.396 461.728Z" fill="url(#paint12_linear_1495_2124)"/>
<g style="mix-blend-mode:soft-light">
<path d="M169.185 445.609C168.445 446.219 167.645 446.389 166.815 446.159C166.185 446.039 165.635 445.849 165.175 445.569C164.135 444.959 163.445 444.169 163.145 443.229C163.325 442.579 163.605 441.899 164.025 441.239C163.535 440.359 162.715 439.489 161.565 438.629C160.055 441.529 158.465 444.369 156.845 447.139C155.185 446.549 153.615 445.849 152.165 445.039C153.365 443.109 155.155 440.339 157.615 436.699C155.135 436.099 153.105 437.219 151.505 439.949C150.475 441.699 150.395 443.229 151.265 444.529C148.485 442.789 146.385 440.609 145.715 438.059C145.755 438.009 145.775 437.939 145.805 437.889C147.715 434.509 150.225 432.059 153.415 430.509C156.745 428.909 159.745 428.679 162.425 429.859L165.195 426.099C165.535 425.879 166.425 425.989 167.855 426.419L165.135 431.709C166.075 432.549 166.965 433.769 167.745 435.349C168.655 434.299 169.475 433.659 170.215 433.429C171.065 433.339 171.925 433.539 172.845 433.999C174.295 434.749 175.095 435.639 175.215 436.629C174.955 437.449 173.915 439.239 172.105 441.999C170.915 443.849 169.935 445.049 169.205 445.649L169.185 445.609Z" fill="#FEF4EE"/>
</g>
<g style="mix-blend-mode:multiply" opacity="0.2">
<path d="M157.057 456.327C155.857 456.697 154.607 456.887 153.367 456.927C153.167 456.217 152.687 455.507 151.977 454.827C151.557 455.467 151.137 456.087 150.717 456.717C149.167 456.427 147.697 455.847 146.447 454.967C147.137 453.677 147.737 452.587 148.217 451.707C147.247 450.727 146.477 449.817 145.887 448.987C145.307 448.167 144.807 447.187 144.407 446.027C144.007 444.897 143.917 443.647 144.137 442.287C144.347 440.967 144.867 439.557 145.697 438.047C145.737 437.997 145.757 437.927 145.787 437.877C145.787 437.877 144.957 439.557 151.247 444.527C151.517 444.747 151.787 444.957 152.067 445.157C153.447 446.217 154.897 447.257 156.187 448.217C156.177 448.267 156.137 448.317 156.107 448.357C158.307 450.267 159.857 452.097 160.707 453.857C160.477 454.797 159.357 455.627 157.047 456.337L157.057 456.327Z" fill="#FE0E00"/>
</g>
<path d="M141.935 456.768C142.175 456.268 143.735 460.088 143.735 460.088C143.735 460.088 141.295 458.218 141.935 456.768Z" fill="#FEF4EE"/>
<path d="M172.158 433.668C171.008 432.998 169.448 439.758 169.978 441.738C170.508 443.708 174.978 437.958 175.188 436.598C175.398 435.228 172.148 433.678 172.148 433.678L172.158 433.668Z" fill="#FEF4EE"/>
<g style="mix-blend-mode:soft-light">
<path d="M166.888 426.118C165.198 426.058 166.028 429.618 166.028 429.618C166.028 429.618 167.958 426.788 167.618 426.308C167.278 425.828 166.888 426.118 166.888 426.118Z" fill="#FEF4EE"/>
</g>
<path d="M192.216 455.847C194.056 451.577 189.076 458.507 187.106 462.777C185.176 466.947 186.406 466.347 186.406 466.347C186.406 466.347 191.766 459.407 192.226 455.847H192.216Z" fill="#FEF4EE"/>
<g style="mix-blend-mode:soft-light" opacity="0.5">
<path d="M137.648 488.087C133.408 484.837 143.018 488.837 145.578 489.107C148.158 489.377 151.918 494.247 151.918 494.247C151.918 494.247 145.268 494.297 137.638 488.097L137.648 488.087Z" fill="#FEF4EE"/>
</g>
<path d="M173.706 479.137C171.826 477.297 164.386 482.697 164.446 485.037C164.506 487.347 170.346 485.257 171.906 484.297C173.486 483.327 173.706 479.137 173.706 479.137Z" fill="#CC3600"/>
<path d="M153.466 488.338C152.126 486.958 157.776 486.858 158.526 487.238C159.286 487.618 157.946 488.898 156.586 489.548C155.246 490.198 153.966 488.848 153.456 488.328L153.466 488.338Z" fill="#CC3600"/>
<path d="M154.338 487.268C153.318 487.768 153.767 488.868 155.207 489.498C155.628 489.678 156.417 489.628 156.417 489.628C156.417 489.628 154.277 489.968 153.017 489.158C151.757 488.338 152.928 487.468 154.338 487.278V487.268Z" fill="#FF9802"/>
<path d="M166.558 481.918C166.558 481.918 166.268 482.498 167.288 483.818C168.648 485.588 171.728 484.398 171.728 484.398C171.728 484.398 167.198 487.088 164.638 486.378C162.088 485.668 165.368 482.878 166.558 481.908V481.918Z" fill="#FF9802"/>
<g style="mix-blend-mode:multiply" opacity="0.5">
<path d="M168.936 480.147C165.646 482.917 170.616 482.717 171.536 482.697C172.466 482.667 172.446 483.806 172.446 483.806C172.446 483.806 174.406 480.097 173.706 479.147C173.006 478.187 168.936 480.156 168.936 480.156V480.147Z" fill="#B22800"/>
</g>
<g style="mix-blend-mode:multiply" opacity="0.5">
<path d="M156.157 487.057C154.847 487.917 155.667 489.167 156.707 489.277C157.747 489.387 158.867 487.327 158.527 487.237C158.187 487.137 156.157 487.057 156.157 487.057Z" fill="#B22800"/>
</g>
<path d="M165.396 486.497C164.436 486.007 166.356 486.027 167.636 485.887C168.916 485.747 166.416 486.687 165.396 486.497Z" fill="#FEF4EE"/>
<path d="M153.135 489.217C153.055 489.037 154.935 489.387 155.045 489.667C154.635 490.017 153.135 489.217 153.135 489.217Z" fill="#FEF4EE"/>
<path d="M363.428 411.571C361.358 430.571 348.367 444.341 334.197 444.341C333.437 444.341 332.677 444.301 331.937 444.221C331.137 444.151 330.367 444.021 329.587 443.861C317.487 441.361 307.357 428.571 306.067 411.571C304.627 392.491 314.617 374.731 329.587 370.821C331.477 370.321 333.438 370.061 335.428 370.061C352.548 370.061 364.677 388.231 363.647 408.751C363.647 408.751 363.647 408.761 363.647 408.801C363.607 409.721 363.537 410.651 363.437 411.581L363.428 411.571Z" fill="url(#paint13_linear_1495_2124)"/>
<path style="mix-blend-mode:multiply" opacity="0.3" d="M374.929 416.85C358.539 409.64 338.559 400.15 323.559 392.14C330.259 381 341.089 373.75 352.299 374.2C354.249 374.28 356.199 374.599 358.109 375.179C373.469 379.879 379.969 398.599 374.929 416.859V416.85Z" fill="url(#paint14_radial_1495_2124)"/>
<path d="M324.99 444.34C324.99 444.34 334.39 445.64 339.63 443.69L342.23 371.37C342.23 371.37 339.04 368.74 322.66 370.08L324.99 444.34Z" fill="url(#paint15_linear_1495_2124)"/>
<path d="M353.128 411.57C351.838 428.57 341.688 441.36 329.598 443.86C328.098 444.18 326.558 444.34 324.988 444.34C315.428 444.34 306.608 438.23 301.178 428.65C301.068 428.47 300.978 428.31 300.898 428.18C300.708 427.84 300.598 427.64 300.598 427.64C298.138 423.01 296.418 417.57 295.768 411.58C293.408 389.95 305.808 370.07 323.748 370.07C325.748 370.07 327.698 370.33 329.588 370.83C344.558 374.74 354.568 392.5 353.118 411.58L353.128 411.57Z" fill="url(#paint16_linear_1495_2124)"/>
<path d="M340.78 411.57C340.35 423.62 332.86 432.79 323.87 433.36C323.56 433.39 323.24 433.4 322.92 433.4C313.48 433.4 305.06 424.02 304.03 411.57C302.92 398.05 310.839 386.18 321.819 386.18C322.189 386.18 322.57 386.19 322.92 386.23C333.37 387 341.24 398.52 340.77 411.57H340.78Z" fill="url(#paint17_linear_1495_2124)"/>
<path d="M340.777 411.57C340.347 423.62 332.857 432.79 323.867 433.36C314.847 432.79 306.987 423.61 306.077 411.57C305.087 398.51 312.517 387.01 322.937 386.23C333.387 387 341.257 398.52 340.787 411.57H340.777Z" fill="url(#paint18_linear_1495_2124)"/>
<g style="mix-blend-mode:multiply" opacity="0.5">
<path d="M305.398 399.89C305.398 399.89 306.548 401.68 307.228 400.78C307.908 399.88 311.068 390.26 321.568 389.1C332.138 387.93 339.198 400.8 339.198 400.8C339.198 400.8 333.588 385.55 321.428 386.19C309.308 386.82 305.398 399.89 305.398 399.89Z" fill="#F12200"/>
</g>
<g style="mix-blend-mode:soft-light">
<path d="M297.827 395.52C297.697 400.62 303.117 399.59 303.847 399.36C304.587 399.13 308.537 389.77 317.017 385.82C325.707 381.78 333.557 389.17 336.337 392.86C339.047 396.46 346.807 390.18 347.407 387.15C348.007 384.07 334.107 367.38 317.877 371.77C302.037 376.05 297.827 395.52 297.827 395.52Z" fill="#FEF4EE"/>
</g>
<g style="mix-blend-mode:multiply" opacity="0.2">
<path d="M297.607 398.399C295.307 398.519 295.777 409.429 296.617 413.549C297.437 417.559 301.957 415.909 302.787 414.529C303.627 413.129 304.027 401.569 304.167 400.699C304.307 399.819 302.737 400.089 300.547 399.899C298.357 399.709 298.157 398.369 297.597 398.399H297.607Z" fill="#FE0E00"/>
</g>
<g style="mix-blend-mode:multiply" opacity="0.2">
<path d="M339.367 394.93C337.847 395.64 340.357 404.01 341.827 409.28C343.247 414.38 348.837 407.65 351.047 407.98C353.257 408.31 350.637 391.34 349.117 389.89C347.577 388.42 344.497 393.63 339.367 394.93Z" fill="#FE0E00"/>
</g>
<g style="mix-blend-mode:soft-light">
<path d="M314.229 440.68C309.339 434.42 320.499 436.48 327.589 433.35C334.829 430.15 337.809 425.17 339.709 423.51C341.639 421.83 347.259 427.39 346.659 429.87C346.069 432.31 334.609 449.9 314.229 440.68Z" fill="#FFA049"/>
</g>
<g style="mix-blend-mode:multiply" opacity="0.5">
<path d="M345.08 379.61C343.99 379.61 346.12 381.13 348.89 385.94C351.59 390.62 353.1 396.23 354.2 397.34C355.29 398.44 362.25 396.87 362.25 396.87C362.25 396.87 360.86 384.63 352.98 378.8C351.37 377.61 345.09 379.61 345.09 379.61H345.08Z" fill="#E14500"/>
</g>
<g style="mix-blend-mode:multiply" opacity="0.5">
<path d="M339.757 439.809C338.337 441.209 344.697 440.949 345.417 440.689C346.147 440.429 354.777 435.709 357.307 429.889C359.947 423.819 353.117 423.639 351.837 423.629C350.557 423.619 348.497 429.509 344.187 434.669C340.037 439.649 339.747 439.819 339.747 439.819L339.757 439.809Z" fill="#E14500"/>
</g>
<g style="mix-blend-mode:soft-light">
<path d="M353.408 398.4C352.298 398.43 353.668 406.56 353.788 412.92C353.898 419.03 362.578 416.81 362.718 416.08C362.868 415.35 363.518 407.7 363.268 404.13C363.018 400.48 363.958 397.64 361.108 397.61C358.258 397.58 353.408 398.41 353.408 398.41V398.4Z" fill="#FEF4EE"/>
</g>
<path d="M311.457 428.399C310.127 424.319 312.037 428.969 318.057 431.769C323.967 434.519 331.367 431.769 334.467 428.039C334.467 428.039 330.477 433.139 323.567 433.399C315.727 433.689 311.447 428.399 311.447 428.399H311.457Z" fill="#FFCFE8"/>
<g style="mix-blend-mode:soft-light">
<path d="M321.468 371.07C315.558 371.57 315.458 384.74 320.128 384.84C324.798 384.94 329.518 385.3 335.918 392.3C342.048 399.01 347.128 387.53 346.908 385.25C346.688 382.94 337.768 368.79 321.468 371.07Z" fill="#FEF4EE"/>
</g>
<path d="M306.44 435.82C300.05 428.63 307.97 427.31 309.37 427.69C310.77 428.07 314.4 432.95 321.85 433.69C329.26 434.43 324.57 443.54 321.78 443.76C318.99 443.97 310.74 440.66 306.44 435.82Z" fill="#FEF4EE"/>
<path d="M331.397 371.77C328.647 371.91 332.507 381.26 335.897 384.57C339.227 387.81 344.627 383.18 344.437 381.52C344.247 379.85 336.827 373.52 331.387 371.77H331.397Z" fill="#FEF4EE"/>
<path d="M309.119 435.56C307.919 433 314.129 436.82 313.409 438.17C312.699 439.5 310.289 438.08 309.119 435.56Z" fill="#FEF4EE"/>
<g style="mix-blend-mode:soft-light">
<path d="M342.847 412.92C341.407 413.83 341.407 419.23 335.617 427.89C330.147 436.07 336.067 439.11 337.347 439.19C338.617 439.27 346.697 434 350.267 422.03C353.277 411.91 351.047 410.36 350.117 409.93C349.187 409.5 344.047 412.16 342.857 412.91L342.847 412.92Z" fill="#FEF4EE"/>
</g>
<g style="mix-blend-mode:soft-light">
<path d="M335.409 371.77C331.399 371.77 341.189 376.58 344.599 378.29C347.979 379.98 351.859 376.95 351.859 376.95C351.859 376.95 347.419 370.54 335.419 371.77H335.409Z" fill="#FEF4EE"/>
</g>
<g style="mix-blend-mode:soft-light">
<path d="M303.958 410.5C303.668 408.22 305.038 403.64 305.418 403.04C305.798 402.44 307.198 413.94 306.748 416.08C306.318 418.19 304.128 411.85 303.958 410.5Z" fill="#FEF4EE"/>
</g>
<path d="M344.469 381.07C344.469 381.07 356.489 396.07 351.499 420.09C351.499 420.09 359.619 396.7 344.469 381.07Z" fill="#FFCB7A"/>
<g style="mix-blend-mode:multiply" opacity="0.8">
<path d="M321.789 444.109C321.789 444.109 326.129 444.999 330.629 444.609C335.149 444.219 342.409 436.689 342.409 436.689C342.409 436.689 335.309 445.469 321.789 444.109Z" fill="#F12200"/>
</g>
<g style="mix-blend-mode:multiply" opacity="0.8">
<path d="M324.978 444.34C315.418 444.34 306.598 438.23 301.168 428.65C303.288 432.2 309.838 441.53 324.978 444.34Z" fill="#F12200"/>
</g>
<g style="mix-blend-mode:multiply" opacity="0.5">
<path d="M300.887 428.18C300.977 428.34 301.077 428.49 301.167 428.65C301.057 428.47 300.967 428.31 300.887 428.18Z" fill="#FC5900"/>
</g>
<g style="mix-blend-mode:multiply" opacity="0.8">
<path d="M363.428 411.569C361.358 430.569 348.368 444.339 334.198 444.339C333.438 444.339 332.678 444.299 331.938 444.219C344.078 442.949 351.698 436.059 355.868 431.379C360.808 425.839 363.478 409.809 363.638 408.789C363.598 409.709 363.528 410.639 363.428 411.569Z" fill="#F12200"/>
</g>
<g style="mix-blend-mode:multiply" opacity="0.8">
<path d="M296.727 395.65C296.727 395.65 299.077 385.64 306.557 378.88C314.337 371.84 328.507 370.06 328.507 370.06L335.017 369.82C335.017 369.82 325.027 369.65 322.257 370.06C319.497 370.46 302.607 371.93 296.727 395.65Z" fill="#F12200"/>
</g>
<path d="M315.196 423.049C315.016 421.589 315.076 420.319 315.396 419.249C316.346 418.799 316.976 418.569 317.276 418.559C317.836 418.549 318.716 418.749 319.916 419.169C320.076 419.579 320.226 420.179 320.366 420.959C321.286 421.669 322.266 422.129 323.296 422.309C322.746 418.789 322.356 416.099 322.126 414.279C320.966 414.109 319.976 413.889 319.146 413.619C318.326 413.359 317.496 412.929 316.636 412.359C315.786 411.779 315.086 410.979 314.546 409.939C314.006 408.899 313.636 407.609 313.446 406.079C313.036 402.809 313.516 399.839 314.926 397.149C316.386 394.369 318.326 392.669 320.756 392.109L320.386 387.199C320.516 386.859 322.726 386.999 322.726 386.999L323.546 391.999C324.616 392.089 325.826 392.469 327.166 393.139C327.246 391.969 327.486 391.109 327.886 390.569C328.406 390.089 329.106 389.769 329.956 389.629C331.336 389.389 331.826 389.959 332.426 390.579C332.656 391.269 333.346 392.649 333.516 395.449C333.626 397.319 333.576 398.639 333.366 399.429C333.156 400.219 332.706 400.739 332.016 401.009C331.536 401.249 331.056 401.399 330.596 401.449C329.566 401.559 328.706 401.379 328.016 400.889C327.806 400.349 327.676 399.749 327.616 399.079C326.826 398.719 325.826 398.549 324.606 398.549C325.096 401.719 325.496 404.859 325.786 407.969C328.866 408.189 331.196 408.849 332.696 409.949C334.206 411.059 335.056 413.009 335.206 415.769C335.396 419.049 334.636 421.879 332.966 424.229C331.356 426.499 329.236 427.729 326.636 427.959L326.656 432.329C326.386 432.519 324.616 432.879 323.776 432.919L324.206 427.969C322.876 427.729 321.706 427.179 320.686 426.309C320.766 427.029 320.706 427.569 320.516 427.899C320.136 428.169 319.476 428.289 318.546 428.259C317.556 428.229 316.866 427.999 316.456 427.559C315.826 426.419 315.396 424.919 315.156 423.029L315.196 423.049ZM318.406 404.589C318.636 406.679 319.646 407.819 321.456 408.049C321.286 406.109 321.116 403.189 320.936 399.239C318.946 400.099 318.116 401.889 318.406 404.579V404.589ZM326.566 421.969C327.426 421.519 328.126 420.869 328.666 420.009C329.216 419.149 329.456 418.239 329.386 417.309C329.266 415.689 328.206 414.749 326.256 414.499C326.396 417.019 326.496 419.509 326.556 421.969H326.566Z" fill="url(#paint19_linear_1495_2124)"/>
<path d="M333.267 415.879C333.107 413.119 332.237 411.159 330.727 410.069C330.437 409.849 330.097 409.659 329.747 409.479C328.267 408.709 326.277 408.259 323.807 408.079C323.807 408.039 323.807 407.979 323.787 407.939C323.747 407.579 323.717 407.239 323.677 406.879C323.377 404.169 323.007 401.419 322.557 398.669C323.777 398.669 324.787 398.839 325.567 399.189C325.627 399.859 325.777 400.469 325.987 400.999C326.667 401.489 327.537 401.669 328.567 401.559C329.027 401.519 329.497 401.369 329.987 401.129C330.667 400.859 331.127 400.339 331.317 399.539C331.507 398.749 331.567 397.439 331.437 395.569C331.257 392.759 331.057 391.009 330.817 390.329C330.227 389.709 329.237 389.509 327.857 389.749C326.997 389.899 326.307 390.209 325.777 390.699C325.397 391.239 325.157 392.089 325.077 393.269C323.737 392.589 322.517 392.209 321.447 392.119L320.597 387.119C319.407 387.559 318.747 387.929 318.627 388.259L318.657 392.239C316.227 392.799 314.307 394.489 312.847 397.279C311.467 399.969 311.007 402.919 311.427 406.199C311.427 406.259 311.447 406.309 311.457 406.369C311.667 407.819 312.027 409.049 312.557 410.049C313.107 411.089 313.807 411.899 314.657 412.459C315.517 413.049 316.357 413.459 317.177 413.729C318.007 413.999 318.997 414.219 320.157 414.389C320.277 415.229 320.427 416.279 320.617 417.519C320.817 418.909 321.077 420.539 321.377 422.409C320.357 422.229 319.377 421.779 318.457 421.059C318.307 420.269 318.167 419.679 317.987 419.269C316.777 418.859 315.907 418.649 315.357 418.669C315.047 418.669 314.427 418.909 313.487 419.359C313.177 420.429 313.107 421.689 313.307 423.159C313.557 425.039 313.997 426.549 314.637 427.679C315.037 428.109 315.737 428.339 316.727 428.379C317.657 428.399 318.307 428.279 318.697 428.019C318.887 427.679 318.937 427.149 318.867 426.419C319.887 427.279 321.057 427.839 322.397 428.079L323.207 432.769C324.027 432.729 324.597 432.619 324.867 432.429L324.807 428.059C327.407 427.829 329.517 426.619 331.117 424.349C332.767 421.989 333.507 419.179 333.297 415.889L333.267 415.879ZM318.537 407.949C317.287 407.509 316.557 406.429 316.367 404.709C316.067 402.029 316.877 400.229 318.877 399.379C319.067 403.109 319.247 405.909 319.417 407.839V407.959C319.437 408.029 319.437 408.099 319.447 408.169C319.117 408.129 318.827 408.059 318.547 407.949H318.537ZM326.727 420.129C326.187 420.979 325.487 421.639 324.637 422.079C324.577 420.249 324.487 418.409 324.397 416.539C324.357 415.899 324.327 415.259 324.287 414.609C325.117 414.719 325.807 414.949 326.307 415.329C326.977 415.789 327.337 416.489 327.427 417.419C327.507 418.359 327.277 419.259 326.737 420.129H326.727Z" fill="url(#paint20_linear_1495_2124)"/>
<g style="mix-blend-mode:soft-light">
<path d="M331.308 399.549C331.118 400.349 330.658 400.869 329.978 401.139C329.488 401.379 329.018 401.529 328.558 401.569C327.538 401.679 326.668 401.499 325.978 401.009C325.768 400.479 325.618 399.869 325.558 399.199C324.778 398.849 323.768 398.679 322.548 398.679C322.998 401.429 323.368 404.169 323.668 406.889C322.238 407.329 320.808 407.659 319.408 407.839C319.238 405.909 319.048 403.109 318.868 399.379C316.868 400.229 316.058 402.029 316.358 404.709C316.558 406.429 317.278 407.509 318.528 407.949C315.738 408.179 313.208 407.769 311.438 406.369C311.438 406.309 311.418 406.259 311.408 406.199C310.988 402.919 311.448 399.969 312.828 397.279C314.278 394.489 316.208 392.799 318.638 392.239L318.608 388.259C318.728 387.929 319.388 387.559 320.578 387.119L321.428 392.119C322.498 392.209 323.728 392.589 325.058 393.269C325.138 392.089 325.368 391.239 325.758 390.699C326.288 390.209 326.978 389.899 327.838 389.749C329.208 389.519 330.208 389.719 330.798 390.329C331.038 391.019 331.238 392.769 331.418 395.569C331.548 397.429 331.498 398.749 331.298 399.539L331.308 399.549Z" fill="#FEF4EE"/>
</g>
<g style="mix-blend-mode:multiply" opacity="0.2">
<path d="M328.516 413.039C327.886 413.899 327.136 414.669 326.306 415.329C325.806 414.949 325.116 414.709 324.286 414.609C324.326 415.259 324.356 415.899 324.396 416.539C323.196 417.139 321.896 417.489 320.596 417.529C320.406 416.299 320.256 415.249 320.136 414.399C318.976 414.229 317.986 413.999 317.156 413.739C316.336 413.469 315.506 413.059 314.636 412.469C313.786 411.909 313.086 411.099 312.536 410.059C312.006 409.049 311.646 407.829 311.436 406.379C311.436 406.319 311.416 406.269 311.406 406.209C311.406 406.209 311.696 407.779 318.516 407.949C318.806 407.959 319.106 407.959 319.396 407.959C320.876 407.969 322.396 407.949 323.766 407.949C323.786 407.989 323.786 408.049 323.786 408.089C326.256 408.269 328.246 408.719 329.726 409.489C330.046 410.249 329.706 411.389 328.496 413.049L328.516 413.039Z" fill="#FE0E00"/>
</g>
<path d="M318.439 421.059C318.349 420.599 321.36 422.409 321.36 422.409C321.36 422.409 318.739 422.379 318.439 421.059Z" fill="#FEF4EE"/>
<path d="M327.236 389.889C326.116 390.019 328.496 395.419 329.866 396.499C331.226 397.569 331.346 391.369 330.796 390.329C330.236 389.289 327.236 389.889 327.236 389.889Z" fill="#FEF4EE"/>
<g style="mix-blend-mode:soft-light">
<path d="M319.797 387.44C318.617 388.26 320.997 390.26 320.997 390.26C320.997 390.26 320.867 387.35 320.397 387.19C319.927 387.03 319.797 387.43 319.797 387.43V387.44Z" fill="#FEF4EE"/>
</g>
<path d="M352.227 394.769C351.297 390.919 351.447 398.189 352.277 402.099C353.087 405.929 353.627 404.889 353.627 404.889C353.627 404.889 353.727 397.419 352.227 394.759V394.769Z" fill="#FEF4EE"/>
<g style="mix-blend-mode:soft-light" opacity="0.5">
<path d="M331.508 444.59C326.958 444.54 335.548 442.36 337.438 441.23C339.338 440.09 344.378 441.49 344.378 441.49C344.378 441.49 339.868 444.92 331.508 444.59Z" fill="#FEF4EE"/>
</g>
<path d="M351.51 420.09C349.29 419.8 346.97 427.27 348.21 428.83C349.43 430.38 352.34 425.97 352.92 424.52C353.5 423.06 351.51 420.09 351.51 420.09Z" fill="#CC3600"/>
<path d="M342.41 436.689C340.79 436.439 344.59 433.479 345.3 433.359C346.01 433.229 345.75 434.789 345.16 435.929C344.57 437.059 343.02 436.789 342.41 436.699V436.689Z" fill="#CC3600"/>
<path d="M342.46 435.52C342.02 436.38 342.89 436.9 344.19 436.59C344.57 436.5 345.08 436.06 345.08 436.06C345.08 436.06 343.8 437.38 342.52 437.47C341.24 437.56 341.6 436.36 342.46 435.52Z" fill="#FF9802"/>
<path d="M348.049 425.629C348.049 425.629 348.138 426.169 349.518 426.559C351.348 427.069 352.838 424.689 352.838 424.689C352.838 424.689 351.128 428.839 349.018 429.659C346.918 430.479 347.729 426.909 348.049 425.639V425.629Z" fill="#FF9802"/>
<g style="mix-blend-mode:multiply" opacity="0.5">
<path d="M348.77 423.21C347.94 426.78 351.23 424.11 351.84 423.62C352.46 423.13 353.02 423.91 353.02 423.91C353.02 423.91 352.46 420.38 351.5 420.09C350.53 419.8 348.76 423.21 348.76 423.21H348.77Z" fill="#B22800"/>
</g>
<g style="mix-blend-mode:multiply" opacity="0.5">
<path d="M343.59 434.45C343.14 435.71 344.34 436.13 345.1 435.68C345.87 435.23 345.58 433.25 345.3 433.36C345.02 433.47 343.59 434.45 343.59 434.45Z" fill="#B22800"/>
</g>
<path d="M349.599 429.34C348.699 429.5 350.019 428.53 350.809 427.78C351.609 427.03 350.389 428.95 349.599 429.34Z" fill="#FEF4EE"/>
<path d="M342.638 437.459C342.498 437.379 343.948 436.659 344.168 436.789C344.068 437.229 342.638 437.459 342.638 437.459Z" fill="#FEF4EE"/>
<path d="M365.416 58.1817C362.546 84.5717 344.496 103.712 324.806 103.712C323.746 103.712 322.696 103.662 321.666 103.552C320.556 103.452 319.476 103.272 318.396 103.052C301.586 99.5717 287.506 81.8117 285.716 58.1917C283.706 31.6817 297.596 7.01172 318.396 1.57172C321.026 0.871719 323.736 0.511719 326.516 0.511719C350.306 0.511719 367.156 25.7517 365.716 54.2717C365.716 54.2717 365.716 54.2917 365.716 54.3317C365.666 55.6117 365.556 56.9117 365.416 58.1917V58.1817Z" fill="url(#paint21_linear_1495_2124)"/>
<path d="M312 103.712C312 103.712 325.06 105.512 332.34 102.802L335.96 2.32205C335.96 2.32205 331.52 -1.33795 308.77 0.532054L312.01 103.712H312Z" fill="url(#paint22_linear_1495_2124)"/>
<path d="M351.098 58.1822C349.308 81.8022 335.208 99.5722 318.398 103.042C316.318 103.482 314.178 103.702 311.998 103.702C298.718 103.702 286.458 95.2122 278.918 81.9122C278.768 81.6622 278.638 81.4422 278.528 81.2522C278.268 80.7722 278.118 80.4922 278.118 80.4922C274.698 74.0622 272.308 66.5022 271.398 58.1722C268.128 28.1222 285.348 0.492188 310.278 0.492188C313.048 0.492188 315.768 0.852187 318.398 1.55219C339.198 6.98219 353.108 31.6622 351.098 58.1722V58.1822Z" fill="url(#paint23_linear_1495_2124)"/>
<path d="M333.94 58.1821C333.34 74.9221 322.94 87.6621 310.44 88.4621C310.01 88.5021 309.57 88.5121 309.12 88.5121C296 88.5121 284.3 75.4821 282.88 58.1821C281.33 39.3921 292.34 22.9121 307.6 22.9121C308.12 22.9121 308.64 22.9321 309.13 22.9821C323.65 24.0621 334.58 40.0521 333.93 58.1821H333.94Z" fill="url(#paint24_linear_1495_2124)"/>
<path d="M333.94 58.1824C333.34 74.9224 322.94 87.6624 310.44 88.4624C297.91 87.6624 286.99 74.9224 285.72 58.1824C284.35 40.0324 294.67 24.0624 309.14 22.9824C323.66 24.0624 334.59 40.0524 333.94 58.1824Z" fill="url(#paint25_linear_1495_2124)"/>
<g style="mix-blend-mode:multiply" opacity="0.5">
<path d="M284.789 41.9512C284.789 41.9512 286.389 44.4312 287.329 43.1912C288.269 41.9412 292.669 28.5712 307.249 26.9612C321.939 25.3412 331.749 43.2212 331.749 43.2212C331.749 43.2212 323.959 22.0412 307.059 22.9212C290.219 23.7912 284.789 41.9612 284.789 41.9612V41.9512Z" fill="#D42F55"/>
</g>
<g style="mix-blend-mode:soft-light">
<path d="M274.268 35.8928C274.088 42.9828 281.618 41.5528 282.638 41.2328C283.658 40.9128 289.158 27.9028 300.938 22.4128C313.008 16.7928 323.928 27.0728 327.778 32.1928C331.548 37.2028 342.328 28.4628 343.148 24.2628C343.988 19.9828 324.678 -3.19719 302.118 2.90281C280.108 8.85281 274.258 35.9028 274.258 35.9028L274.268 35.8928Z" fill="white"/>
</g>
<g style="mix-blend-mode:multiply" opacity="0.2">
<path d="M273.96 39.8913C270.76 40.0613 271.42 55.2113 272.59 60.9313C273.73 66.5013 280 64.2213 281.16 62.2913C282.33 60.3513 282.88 44.2913 283.08 43.0813C283.27 41.8613 281.1 42.2313 278.06 41.9713C275.01 41.7013 274.73 39.8513 273.96 39.8913Z" fill="#DA0553"/>
</g>
<g style="mix-blend-mode:multiply" opacity="0.2">
<path d="M331.987 35.0725C329.877 36.0525 333.367 47.6825 335.407 55.0125C337.377 62.1025 345.147 52.7425 348.217 53.2025C351.287 53.6625 347.647 30.0925 345.537 28.0625C343.397 26.0225 339.117 33.2525 331.997 35.0625L331.987 35.0725Z" fill="#DA0553"/>
</g>
<g style="mix-blend-mode:soft-light">
<path d="M297.05 98.6411C290.25 89.9411 305.76 92.8111 315.61 88.4611C325.67 84.0211 329.81 77.1011 332.45 74.7911C335.13 72.4511 342.94 80.1811 342.1 83.6311C341.28 87.0211 325.36 111.461 297.04 98.6511L297.05 98.6411Z" fill="#FF973B"/>
</g>
<g style="mix-blend-mode:multiply" opacity="0.3">
<path d="M327.598 2.89142C326.078 2.89142 341.358 15.8914 345.218 22.5814C348.968 29.0814 351.068 36.8714 352.588 38.4114C354.108 39.9414 363.778 37.7614 363.778 37.7614C363.778 37.7614 361.788 23.2114 352.618 13.1314C343.048 2.60142 327.598 2.89142 327.598 2.89142Z" fill="#B30053"/>
</g>
<g style="mix-blend-mode:multiply" opacity="0.3">
<path d="M332.528 97.4217C330.558 99.3717 339.388 99.0017 340.398 98.6417C341.408 98.2817 353.398 91.7217 356.918 83.6317C360.588 75.2017 351.098 74.9517 349.318 74.9317C347.538 74.9117 344.678 83.1017 338.698 90.2717C332.928 97.1817 332.538 97.4317 332.538 97.4317L332.528 97.4217Z" fill="#B30053"/>
</g>
<g style="mix-blend-mode:soft-light">
<path d="M351.489 39.8923C349.949 39.9423 351.849 51.2323 352.009 60.0623C352.169 68.5423 364.219 65.4623 364.419 64.4523C364.619 63.4323 365.529 52.8023 365.179 47.8423C364.829 42.7723 366.139 38.8223 362.179 38.7823C358.219 38.7423 351.479 39.8923 351.479 39.8923H351.489Z" fill="white"/>
</g>
<path d="M293.209 81.5627C291.369 75.8927 294.009 82.3627 302.379 86.2527C310.589 90.0727 320.869 86.2627 325.179 81.0727C325.179 81.0727 319.629 88.1627 310.039 88.5127C299.149 88.9227 293.199 81.5627 293.199 81.5627H293.209Z" fill="#FFE016"/>
<g style="mix-blend-mode:soft-light">
<path d="M307.109 1.91273C298.899 2.61273 298.759 20.9127 305.249 21.0527C311.739 21.1927 318.299 21.6927 327.179 31.4227C335.699 40.7527 342.759 24.7927 342.449 21.6227C342.139 18.4127 329.749 -1.24727 307.109 1.92273V1.91273Z" fill="white"/>
</g>
<g style="mix-blend-mode:soft-light">
<path d="M286.237 91.8724C277.357 81.8824 288.367 80.0524 290.317 80.5824C292.257 81.1124 297.307 87.8924 307.657 88.9124C317.947 89.9324 311.437 102.602 307.557 102.902C303.687 103.202 292.217 98.5924 286.247 91.8724H286.237Z" fill="white"/>
</g>
<path d="M320.909 2.89258C317.089 3.08258 322.449 16.0826 327.169 20.6726C331.789 25.1726 339.309 18.7426 339.039 16.4426C338.769 14.1226 328.469 5.33258 320.909 2.89258Z" fill="white"/>
<path d="M289.959 91.5216C288.299 87.9616 296.919 93.2816 295.919 95.1416C294.929 96.9916 291.589 95.0216 289.959 91.5216Z" fill="white"/>
<g style="mix-blend-mode:soft-light">
<path d="M336.818 60.0515C334.808 61.3215 334.818 68.8215 326.778 80.8515C319.178 92.2115 327.408 96.4416 329.178 96.5516C330.948 96.6716 342.578 85.7015 347.128 72.7115C351.978 58.8615 348.208 56.4915 346.918 55.8915C345.628 55.2915 338.488 58.9915 336.828 60.0415L336.818 60.0515Z" fill="white"/>
</g>
<g style="mix-blend-mode:soft-light">
<path d="M326.478 2.89163C320.908 2.89163 334.498 9.58163 339.238 11.9516C343.928 14.3016 349.318 10.0916 349.318 10.0916C349.318 10.0916 343.148 1.19163 326.468 2.89163H326.478Z" fill="white"/>
</g>
<g style="mix-blend-mode:soft-light">
<path d="M282.789 56.702C282.389 53.532 284.289 47.172 284.819 46.332C285.349 45.502 287.289 61.482 286.669 64.442C286.069 67.372 283.029 58.562 282.789 56.692V56.702Z" fill="white"/>
</g>
<path d="M339.066 15.8125C339.066 15.8125 355.776 36.6525 348.836 70.0225C348.836 70.0225 360.116 37.5225 339.066 15.8125Z" fill="#FFE016"/>
<g style="mix-blend-mode:multiply" opacity="0.5">
<path d="M307.566 103.402C307.566 103.402 313.586 104.642 319.846 104.102C326.126 103.562 336.206 93.0918 336.206 93.0918C336.206 93.0918 326.336 105.292 307.566 103.402Z" fill="#D42F55"/>
</g>
<g style="mix-blend-mode:multiply" opacity="0.8">
<path d="M311.998 103.712C298.718 103.712 286.458 95.2219 278.918 81.9219C281.868 86.8519 290.958 99.8119 311.998 103.712Z" fill="#D42F55"/>
</g>
<g style="mix-blend-mode:multiply" opacity="0.5">
<path d="M278.527 81.252C278.647 81.472 278.787 81.692 278.917 81.912C278.767 81.662 278.637 81.442 278.527 81.252Z" fill="#D42F55"/>
</g>
<g style="mix-blend-mode:multiply" opacity="0.5">
<path d="M365.418 58.182C362.548 84.572 344.498 103.712 324.808 103.712C323.748 103.712 322.698 103.662 321.668 103.552C338.538 101.792 349.128 92.212 354.918 85.722C361.788 78.022 365.488 55.752 365.708 54.332C365.658 55.612 365.548 56.912 365.408 58.192L365.418 58.182Z" fill="#D42F55"/>
</g>
<g style="mix-blend-mode:multiply" opacity="0.8">
<path d="M272.737 36.0618C272.737 36.0618 276.007 22.1518 286.387 12.7618C297.197 2.99178 316.887 0.501778 316.887 0.501778L325.937 0.171778C325.937 0.171778 312.057 -0.0582218 308.207 0.501778C304.367 1.06178 280.907 3.10178 272.727 36.0618H272.737Z" fill="#D42F55"/>
</g>
<path d="M298.395 74.1316C298.135 72.1016 298.225 70.3416 298.675 68.8516C299.995 68.2216 300.865 67.9016 301.285 67.8916C302.055 67.8716 303.285 68.1516 304.955 68.7416C305.185 69.3116 305.395 70.1417 305.575 71.2317C306.855 72.2217 308.215 72.8517 309.645 73.1116C308.885 68.2216 308.335 64.4816 308.015 61.9616C306.395 61.7216 305.025 61.4116 303.875 61.0416C302.735 60.6716 301.575 60.0916 300.385 59.2916C299.205 58.4916 298.235 57.3716 297.485 55.9216C296.735 54.4716 296.225 52.6916 295.965 50.5616C295.395 46.0216 296.065 41.8916 298.025 38.1616C300.055 34.2916 302.745 31.9316 306.125 31.1616L305.615 24.3316C305.795 23.8616 308.875 24.0516 308.875 24.0516L310.025 31.0016C311.515 31.1316 313.195 31.6616 315.055 32.5916C315.175 30.9616 315.505 29.7716 316.055 29.0216C316.785 28.3516 317.745 27.9116 318.935 27.7116C320.855 27.3816 321.535 28.1716 322.365 29.0316C322.675 29.9816 323.645 31.9116 323.875 35.8016C324.025 38.3916 323.955 40.2316 323.675 41.3316C323.385 42.4316 322.765 43.1616 321.795 43.5316C321.125 43.8716 320.465 44.0716 319.825 44.1416C318.395 44.3016 317.205 44.0416 316.245 43.3716C315.955 42.6216 315.765 41.7816 315.695 40.8516C314.605 40.3616 313.205 40.1116 311.515 40.1216C312.205 44.5216 312.745 48.8916 313.155 53.2116C317.445 53.5116 320.675 54.4316 322.765 55.9616C324.865 57.5016 326.035 60.2216 326.255 64.0517C326.515 68.6117 325.455 72.5317 323.145 75.8017C320.905 78.9617 317.965 80.6617 314.355 80.9817L314.385 87.0616C314.005 87.3216 311.545 87.8216 310.385 87.8816L310.975 81.0117C309.125 80.6716 307.495 79.9116 306.085 78.7116C306.195 79.7216 306.115 80.4616 305.845 80.9316C305.315 81.3116 304.395 81.4817 303.105 81.4417C301.735 81.4016 300.765 81.0716 300.205 80.4716C299.335 78.8916 298.735 76.8016 298.405 74.1816L298.395 74.1316ZM302.855 48.4816C303.165 51.3816 304.575 52.9716 307.095 53.2916C306.865 50.5916 306.625 46.5416 306.375 41.0616C303.605 42.2616 302.455 44.7416 302.865 48.4916L302.855 48.4816ZM314.185 72.6217C315.375 71.9916 316.345 71.0916 317.105 69.9016C317.865 68.7016 318.205 67.4417 318.105 66.1516C317.935 63.9016 316.475 62.5916 313.765 62.2416C313.955 65.7416 314.095 69.2017 314.185 72.6217Z" fill="url(#paint26_linear_1495_2124)"/>
<path d="M323.507 64.1707C323.277 60.3407 322.077 57.6207 319.977 56.0907C319.577 55.7907 319.107 55.5207 318.617 55.2807C316.567 54.2207 313.797 53.5907 310.357 53.3407C310.357 53.2807 310.357 53.2107 310.337 53.1507C310.287 52.6507 310.237 52.1707 310.177 51.6707C309.757 47.9007 309.247 44.0907 308.617 40.2707C310.317 40.2707 311.717 40.5107 312.797 41.0007C312.877 41.9307 313.087 42.7707 313.377 43.5107C314.327 44.1907 315.537 44.4507 316.957 44.2907C317.587 44.2307 318.247 44.0307 318.927 43.6907C319.867 43.3107 320.507 42.5907 320.777 41.4807C321.047 40.3907 321.127 38.5607 320.937 35.9707C320.687 32.0707 320.407 29.6407 320.067 28.6807C319.257 27.8207 317.867 27.5507 315.957 27.8707C314.757 28.0807 313.807 28.5107 313.067 29.1907C312.537 29.9307 312.207 31.1207 312.097 32.7607C310.237 31.8107 308.537 31.2907 307.047 31.1607L305.867 24.2207C304.217 24.8307 303.297 25.3507 303.127 25.8007L303.177 31.3307C299.807 32.1107 297.127 34.4507 295.107 38.3307C293.187 42.0607 292.547 46.1707 293.137 50.7207C293.137 50.8007 293.167 50.8707 293.167 50.9507C293.457 52.9707 293.957 54.6707 294.697 56.0707C295.457 57.5207 296.427 58.6407 297.607 59.4207C298.807 60.2407 299.977 60.8107 301.107 61.1807C302.257 61.5507 303.637 61.8607 305.247 62.1007C305.407 63.2707 305.617 64.7307 305.877 66.4407C306.157 68.3707 306.517 70.6407 306.937 73.2407C305.517 73.0007 304.167 72.3707 302.877 71.3707C302.667 70.2807 302.477 69.4507 302.227 68.8807C300.547 68.3107 299.337 68.0207 298.567 68.0407C298.127 68.0407 297.277 68.3807 295.967 69.0007C295.527 70.4907 295.447 72.2407 295.717 74.2807C296.067 76.9007 296.677 78.9907 297.567 80.5607C298.117 81.1607 299.097 81.4807 300.467 81.5307C301.757 81.5607 302.667 81.4007 303.197 81.0307C303.457 80.5607 303.537 79.8207 303.437 78.8007C304.847 80.0007 306.487 80.7707 308.337 81.1107L309.467 87.6207C310.617 87.5707 311.397 87.4107 311.767 87.1507L311.687 81.0707C315.297 80.7507 318.237 79.0707 320.447 75.9107C322.737 72.6407 323.777 68.7207 323.477 64.1607L323.507 64.1707ZM303.037 53.1507C301.297 52.5407 300.287 51.0407 300.017 48.6507C299.597 44.9307 300.727 42.4307 303.497 41.2407C303.757 46.4307 304.017 50.3207 304.257 53.0007V53.1707C304.287 53.2707 304.287 53.3607 304.297 53.4607C303.847 53.4007 303.437 53.3107 303.047 53.1507H303.037ZM314.417 70.0707C313.667 71.2507 312.697 72.1607 311.507 72.7707C311.427 70.2207 311.297 67.6607 311.167 65.0707C311.107 64.1807 311.077 63.2907 311.017 62.3907C312.177 62.5407 313.127 62.8707 313.817 63.4007C314.747 64.0407 315.257 65.0207 315.367 66.3007C315.477 67.6107 315.157 68.8607 314.407 70.0607L314.417 70.0707Z" fill="url(#paint27_linear_1495_2124)"/>
<g style="mix-blend-mode:soft-light">
<path d="M320.789 41.4824C320.519 42.5924 319.879 43.3124 318.939 43.6924C318.259 44.0324 317.599 44.2324 316.969 44.2924C315.549 44.4524 314.339 44.1924 313.389 43.5124C313.099 42.7724 312.889 41.9324 312.809 41.0024C311.719 40.5124 310.329 40.2724 308.629 40.2724C309.259 44.0924 309.769 47.9024 310.189 51.6724C308.199 52.2924 306.209 52.7524 304.269 53.0024C304.029 50.3224 303.769 46.4324 303.509 41.2424C300.739 42.4324 299.609 44.9224 300.029 48.6524C300.299 51.0424 301.309 52.5424 303.049 53.1524C299.179 53.4724 295.649 52.9024 293.199 50.9624C293.199 50.8824 293.169 50.8124 293.169 50.7324C292.579 46.1824 293.219 42.0724 295.139 38.3424C297.159 34.4624 299.839 32.1224 303.209 31.3424L303.159 25.8124C303.329 25.3624 304.249 24.8424 305.899 24.2324L307.079 31.1724C308.569 31.3024 310.269 31.8224 312.129 32.7724C312.239 31.1324 312.569 29.9424 313.099 29.2024C313.839 28.5224 314.789 28.0924 315.989 27.8824C317.899 27.5624 319.279 27.8424 320.099 28.6924C320.439 29.6524 320.719 32.0824 320.969 35.9824C321.159 38.5724 321.079 40.4024 320.809 41.4924L320.789 41.4824Z" fill="white"/>
</g>
<g style="mix-blend-mode:multiply" opacity="0.2">
<path d="M316.908 60.2324C316.028 61.4324 314.988 62.5024 313.838 63.4124C313.138 62.8824 312.188 62.5524 311.038 62.4024C311.098 63.3024 311.128 64.1924 311.188 65.0824C309.518 65.9124 307.718 66.4024 305.908 66.4524C305.648 64.7324 305.438 63.2824 305.278 62.1124C303.668 61.8724 302.298 61.5624 301.138 61.1924C300.008 60.8224 298.838 60.2524 297.638 59.4324C296.458 58.6524 295.488 57.5324 294.728 56.0824C293.988 54.6824 293.488 52.9824 293.198 50.9624C293.198 50.8824 293.168 50.8124 293.168 50.7324C293.168 50.7324 293.568 52.9124 303.048 53.1524C303.458 53.1724 303.868 53.1724 304.268 53.1724C306.328 53.1924 308.428 53.1524 310.338 53.1524C310.358 53.2124 310.358 53.2824 310.358 53.3424C313.788 53.5924 316.558 54.2224 318.618 55.2824C319.068 56.3424 318.598 57.9224 316.908 60.2224V60.2324Z" fill="#DA0553"/>
</g>
<path d="M302.897 71.372C302.767 70.732 306.957 73.242 306.957 73.242C306.957 73.242 303.317 73.202 302.897 71.372Z" fill="white"/>
<path d="M315.136 28.0721C313.576 28.2521 316.886 35.7521 318.796 37.2521C320.686 38.7421 320.856 30.1221 320.086 28.6821C319.316 27.2321 315.136 28.0721 315.136 28.0721Z" fill="white"/>
<g style="mix-blend-mode:soft-light">
<path d="M304.788 24.6607C303.148 25.8007 306.458 28.5807 306.458 28.5807C306.458 28.5807 306.278 24.5407 305.618 24.3207C304.958 24.1007 304.788 24.6607 304.788 24.6607Z" fill="white"/>
</g>
<path d="M349.86 34.8519C348.57 29.5019 348.78 39.5919 349.93 45.0419C351.06 50.3619 351.8 48.9219 351.8 48.9219C351.8 48.9219 351.95 38.5519 349.86 34.8519Z" fill="white"/>
<g style="mix-blend-mode:soft-light">
<path d="M321.057 104.073C314.737 104.013 326.677 100.973 329.287 99.4126C331.927 97.8326 338.937 99.7726 338.937 99.7726C338.937 99.7726 332.677 104.533 321.057 104.073Z" fill="white"/>
</g>
<path d="M348.846 70.0216C345.756 69.6116 342.546 80.0016 344.266 82.1716C345.966 84.3216 350.006 78.1916 350.806 76.1816C351.616 74.1516 348.846 70.0216 348.846 70.0216Z" fill="#ED4800"/>
<path d="M336.209 93.0926C333.959 92.7426 339.239 88.6326 340.229 88.4626C341.219 88.2926 340.859 90.4526 340.039 92.0326C339.229 93.5926 337.059 93.2326 336.219 93.1026L336.209 93.0926Z" fill="#ED4800"/>
<path d="M336.278 91.4514C335.668 92.6514 336.868 93.3714 338.678 92.9414C339.208 92.8114 339.918 92.2014 339.918 92.2014C339.918 92.2014 338.138 94.0414 336.358 94.1614C334.588 94.2814 335.078 92.6214 336.278 91.4414V91.4514Z" fill="#FFBA00"/>
<path d="M344.048 77.7319C344.048 77.7319 344.108 79.0219 346.088 79.0219C348.608 79.0219 350.708 76.4219 350.708 76.4219C350.708 76.4219 348.328 82.1819 345.398 83.3219C342.488 84.4519 343.608 79.4919 344.048 77.7319Z" fill="#FFBA00"/>
<g style="mix-blend-mode:multiply" opacity="0.5">
<path d="M345.048 74.3612C343.898 79.3212 348.458 75.6112 349.318 74.9212C350.178 74.2412 350.958 75.3312 350.958 75.3312C350.958 75.3312 350.188 70.4212 348.848 70.0212C347.508 69.6112 345.048 74.3612 345.048 74.3612Z" fill="#D42F55"/>
</g>
<g style="mix-blend-mode:multiply" opacity="0.5">
<path d="M337.849 89.973C337.219 91.713 338.889 92.313 339.949 91.683C341.019 91.053 340.619 88.313 340.219 88.463C339.829 88.613 337.849 89.973 337.849 89.973Z" fill="#D42F55"/>
</g>
<path d="M346.198 82.8826C344.948 83.1026 346.778 81.7626 347.888 80.7226C348.998 79.6826 347.298 82.3526 346.198 82.8826Z" fill="white"/>
<path d="M336.518 94.1529C336.318 94.0429 338.348 93.0329 338.648 93.2229C338.508 93.8329 336.518 94.1529 336.518 94.1529Z" fill="white"/>
<path d="M-29.45 405.755C-25.41 442.845 -0.0499821 469.725 27.62 469.725C29.11 469.725 30.5801 469.655 32.0301 469.495C33.5901 469.355 35.1 469.105 36.62 468.795C60.24 463.905 80.0301 438.945 82.5401 405.755C85.3601 368.515 65.84 333.835 36.62 326.195C32.92 325.215 29.11 324.705 25.21 324.705C-8.20995 324.705 -31.9 360.175 -29.88 400.245C-29.88 400.245 -29.88 400.265 -29.88 400.335C-29.81 402.135 -29.6599 403.955 -29.4599 405.755H-29.45Z" fill="url(#paint28_linear_1495_2124)"/>
<path d="M45.6014 469.734C45.6014 469.734 27.2514 472.264 17.0214 468.454L11.9414 327.264C11.9414 327.264 18.1714 322.124 50.1514 324.744L45.6014 469.734Z" fill="url(#paint29_linear_1495_2124)"/>
<path d="M-9.33167 405.755C-6.82167 438.945 12.9983 463.905 36.6083 468.795C39.5283 469.415 42.5383 469.725 45.6083 469.725C64.2683 469.725 81.4983 457.785 92.0983 439.105C92.3083 438.765 92.4883 438.445 92.6383 438.175C93.0083 437.505 93.2183 437.115 93.2183 437.115C98.0183 428.075 101.378 417.465 102.658 405.755C107.258 363.525 83.0583 324.705 48.0283 324.705C44.1283 324.705 40.3183 325.215 36.6183 326.195C7.39828 333.835 -12.1517 368.505 -9.33167 405.755Z" fill="url(#paint30_linear_1495_2124)"/>
<path d="M14.7719 405.753C15.6219 429.273 30.2319 447.173 47.7919 448.303C48.3919 448.363 49.0219 448.383 49.6419 448.383C68.0719 448.383 84.5119 430.073 86.5119 405.763C88.6819 379.363 73.2119 356.193 51.7719 356.193C51.0419 356.193 50.3119 356.223 49.6119 356.293C29.2119 357.803 13.8419 380.283 14.7619 405.753H14.7719Z" fill="url(#paint31_linear_1495_2124)"/>
<path d="M14.7697 405.755C15.6197 429.275 30.2297 447.175 47.7897 448.305C65.3997 447.185 80.7497 429.275 82.5297 405.755C84.4597 380.255 69.9597 357.805 49.6197 356.295C29.2197 357.805 13.8497 380.285 14.7697 405.755Z" fill="url(#paint32_linear_1495_2124)"/>
<g style="mix-blend-mode:multiply" opacity="0.5">
<path d="M83.8416 382.955C83.8416 382.955 81.5915 386.445 80.2715 384.695C78.9515 382.935 72.7716 364.145 52.2816 361.885C31.6416 359.605 17.8516 384.735 17.8516 384.735C17.8516 384.735 28.7916 354.975 52.5416 356.205C76.2016 357.435 83.8315 382.955 83.8315 382.955H83.8416Z" fill="#D42F55"/>
</g>
<g style="mix-blend-mode:soft-light">
<path d="M98.6183 374.424C98.8683 384.384 88.2883 382.374 86.8583 381.924C85.4183 381.474 77.6983 363.194 61.1384 355.484C44.1784 347.584 28.8384 362.024 23.4184 369.224C18.1184 376.264 2.96834 363.984 1.81834 358.074C0.638343 352.054 27.7784 319.484 59.4784 328.054C90.3984 336.414 98.6283 374.424 98.6283 374.424H98.6183Z" fill="white"/>
</g>
<g style="mix-blend-mode:multiply" opacity="0.2">
<path d="M99.0609 380.044C103.551 380.274 102.631 401.574 100.981 409.614C99.371 417.444 90.5609 414.234 88.9409 411.524C87.3009 408.794 86.5209 386.234 86.2509 384.524C85.9809 382.814 89.0409 383.334 93.3109 382.964C97.5909 382.594 97.9909 379.984 99.0709 380.044H99.0609Z" fill="#DA0553"/>
</g>
<g style="mix-blend-mode:multiply" opacity="0.2">
<path d="M17.5098 373.274C20.4698 374.654 15.5698 390.994 12.7098 401.294C9.93978 411.254 -0.970222 398.114 -5.29022 398.754C-9.60022 399.394 -4.4902 366.274 -1.5202 363.434C1.4798 360.564 7.49977 370.724 17.5098 373.274Z" fill="#DA0553"/>
</g>
<g style="mix-blend-mode:soft-light">
<path d="M66.6099 462.594C76.1599 450.374 54.3599 454.404 40.5299 448.294C26.3899 442.044 20.5799 432.334 16.8599 429.084C13.0999 425.794 2.11992 436.664 3.28992 441.504C4.44992 446.264 26.8099 480.604 66.5999 462.604L66.6099 462.594Z" fill="#FF973B"/>
</g>
<g style="mix-blend-mode:multiply" opacity="0.3">
<path d="M23.6915 328.054C25.8215 328.054 4.35152 346.324 -1.06848 355.724C-6.33848 364.864 -9.27847 375.804 -11.4285 377.974C-13.5585 380.124 -27.1484 377.064 -27.1484 377.064C-27.1484 377.064 -24.3584 356.624 -11.4684 342.454C1.98156 327.664 23.6915 328.054 23.6915 328.054Z" fill="#B30053"/>
</g>
<g style="mix-blend-mode:multiply" opacity="0.3">
<path d="M16.7592 460.883C19.5292 463.623 7.11922 463.103 5.69922 462.593C4.27922 462.083 -12.5708 452.873 -17.5108 441.503C-22.6608 429.653 -9.33074 429.303 -6.83074 429.273C-4.33074 429.243 -0.310751 440.763 8.09925 450.823C16.2092 460.543 16.7592 460.883 16.7592 460.883Z" fill="#B30053"/>
</g>
<path d="M72.0081 438.605C74.5981 430.635 70.8781 439.725 59.1181 445.195C47.5781 450.555 33.1281 445.215 27.0781 437.915C27.0781 437.915 34.8681 447.875 48.3481 448.375C63.6481 448.945 72.0081 438.615 72.0081 438.615V438.605Z" fill="#FFE016"/>
<g style="mix-blend-mode:soft-light">
<path d="M52.4804 326.684C64.0204 327.664 64.2204 353.374 55.0904 353.574C45.9704 353.774 36.7504 354.474 24.2704 368.144C12.3004 381.254 2.38035 358.824 2.81035 354.374C3.25035 349.864 20.6504 322.234 52.4704 326.684H52.4804Z" fill="white"/>
</g>
<g style="mix-blend-mode:soft-light">
<path d="M81.8019 453.094C94.2819 439.054 78.8119 436.484 76.0719 437.224C73.3419 437.974 66.2519 447.484 51.7119 448.934C37.2519 450.374 46.4019 468.164 51.8619 468.584C57.3019 469.004 73.4219 462.524 81.8019 453.084V453.094Z" fill="white"/>
</g>
<path d="M33.0889 328.055C38.4589 328.325 30.9188 346.585 24.2988 353.035C17.8088 359.355 7.24884 350.325 7.61884 347.085C7.99884 343.815 22.4689 331.475 33.0889 328.055Z" fill="white"/>
<path d="M76.5712 452.605C78.9012 447.605 66.7912 455.075 68.1912 457.695C69.5812 460.285 74.2712 457.525 76.5712 452.605Z" fill="white"/>
<g style="mix-blend-mode:soft-light">
<path d="M10.7182 408.384C13.5382 410.164 13.5282 420.714 24.8282 437.614C35.5082 453.574 23.9382 459.514 21.4582 459.684C18.9782 459.854 2.62818 444.434 -3.76182 426.194C-10.5818 406.734 -5.28177 403.404 -3.46177 402.564C-1.64177 401.724 8.38822 406.914 10.7182 408.394V408.384Z" fill="white"/>
</g>
<g style="mix-blend-mode:soft-light">
<path d="M25.2584 328.054C33.0884 328.054 13.9784 337.444 7.31842 340.774C0.718421 344.074 -6.85156 338.164 -6.85156 338.164C-6.85156 338.164 1.81841 325.654 25.2484 328.044L25.2584 328.054Z" fill="white"/>
</g>
<g style="mix-blend-mode:soft-light">
<path d="M86.6492 403.665C87.2192 399.215 84.5392 390.265 83.7992 389.095C83.0592 387.925 80.3292 410.375 81.1892 414.545C82.0392 418.655 86.3092 406.285 86.6392 403.655L86.6492 403.665Z" fill="white"/>
</g>
<path d="M7.56121 346.215C7.56121 346.215 -15.9088 375.495 -6.16877 422.395C-6.16877 422.395 -22.0288 376.725 7.56121 346.215Z" fill="#FFE016"/>
<g style="mix-blend-mode:multiply" opacity="0.5">
<path d="M51.8398 469.295C51.8398 469.295 43.3798 471.045 34.5798 470.275C25.7598 469.505 11.5898 454.805 11.5898 454.805C11.5898 454.805 25.4498 471.945 51.8398 469.295Z" fill="#D42F55"/>
</g>
<g style="mix-blend-mode:multiply" opacity="0.8">
<path d="M45.6094 469.724C64.2694 469.724 81.4994 457.784 92.0994 439.104C87.9594 446.034 75.1794 464.244 45.6094 469.724Z" fill="#D42F55"/>
</g>
<g style="mix-blend-mode:multiply" opacity="0.5">
<path d="M92.6415 438.174C92.4715 438.494 92.2716 438.784 92.1016 439.104C92.3116 438.764 92.4915 438.444 92.6415 438.174Z" fill="#D42F55"/>
</g>
<g style="mix-blend-mode:multiply" opacity="0.5">
<path d="M-29.4494 405.754C-25.4094 442.844 -0.0493946 469.724 27.6206 469.724C29.1106 469.724 30.5806 469.654 32.0306 469.494C8.32064 467.024 -6.54939 453.554 -14.6894 444.434C-24.3394 433.614 -29.5394 402.324 -29.8594 400.324C-29.7894 402.124 -29.6394 403.944 -29.4394 405.744L-29.4494 405.754Z" fill="#D42F55"/>
</g>
<g style="mix-blend-mode:multiply" opacity="0.8">
<path d="M100.78 374.664C100.78 374.664 96.1895 355.114 81.5995 341.924C66.4095 328.184 38.7395 324.694 38.7395 324.694L26.0195 324.234C26.0195 324.234 45.5195 323.904 50.9295 324.694C56.3295 325.484 89.2895 328.344 100.78 374.664Z" fill="#D42F55"/>
</g>
<path d="M26.2305 425.035C26.3705 422.165 26.9305 419.745 27.9005 417.795C29.8805 417.245 31.1604 417.015 31.7404 417.105C32.8104 417.275 34.4404 417.955 36.6104 419.175C36.7904 420.015 36.8704 421.215 36.8604 422.765C38.3904 424.455 40.1105 425.655 42.0305 426.355C42.1705 419.405 42.3304 414.105 42.5004 410.525C40.3204 409.795 38.4904 409.035 37.0004 408.245C35.5204 407.465 34.0505 406.365 32.6005 404.965C31.1605 403.565 30.1005 401.785 29.4105 399.595C28.7205 397.405 28.4604 394.815 28.6104 391.815C28.9304 385.385 30.8605 379.845 34.4805 375.155C38.2305 370.305 42.5405 367.695 47.4005 367.455L48.1505 359.965C48.5205 359.355 55.2205 357.885 55.2205 357.885L52.8205 368.175C54.8505 368.715 57.0405 369.855 59.3905 371.595C59.9505 369.365 60.7005 367.805 61.6505 366.905C62.8205 366.155 64.2605 365.785 65.9605 365.795C68.6905 365.805 69.4505 367.065 70.3805 368.455C70.5805 369.845 71.4505 372.755 70.8205 378.185C70.4005 381.815 69.8604 384.335 69.1904 385.795C68.5205 387.245 67.4804 388.095 66.0604 388.375C65.0504 388.675 64.0905 388.795 63.1904 388.735C61.1704 388.605 59.5905 387.955 58.4205 386.795C58.2005 385.695 58.1505 384.485 58.2805 383.175C56.8905 382.225 55.0104 381.545 52.6804 381.145C52.5604 387.405 52.2505 393.575 51.7605 399.655C57.6205 401.125 61.8605 403.175 64.3805 405.795C66.9205 408.435 67.8704 412.485 67.2404 417.845C66.4904 424.225 64.0705 429.395 60.0705 433.345C56.2005 437.165 51.7205 438.805 46.6405 438.365L45.2005 446.785C44.6105 447.055 43.7205 446.785 42.1005 446.575L41.9605 437.575C39.4805 436.655 37.4104 435.195 35.7504 433.195C35.6604 434.615 35.3605 435.615 34.8805 436.205C34.0505 436.605 32.7405 436.605 30.9605 436.235C29.0705 435.835 27.8204 435.155 27.1804 434.195C26.3604 431.795 26.0405 428.755 26.2205 425.045L26.2305 425.035ZM38.6605 390.635C38.3905 394.725 39.9405 397.275 43.3505 398.325C43.6805 394.535 44.3405 388.875 45.3305 381.215C41.2105 382.205 39.0105 385.355 38.6505 390.635H38.6605ZM48.4505 426.815C50.2505 426.235 51.8205 425.225 53.1605 423.765C54.5105 422.285 55.2805 420.635 55.4605 418.815C55.7705 415.665 54.0705 413.495 50.4005 412.345C49.8205 417.235 49.1605 422.055 48.4505 426.815Z" fill="url(#paint33_linear_1495_2124)"/>
<path d="M70.2721 417.384C70.8921 412.024 69.8921 407.964 67.3621 405.344C66.8721 404.824 66.2921 404.344 65.6721 403.884C63.0921 401.914 59.4121 400.364 54.7221 399.184C54.7321 399.104 54.7521 398.994 54.7321 398.914C54.7821 398.214 54.8221 397.534 54.8721 396.834C55.2121 391.514 55.4321 386.114 55.4921 380.674C57.8421 381.094 59.7221 381.764 61.1021 382.704C60.9821 384.004 61.0621 385.224 61.2921 386.324C62.4421 387.494 64.0421 388.144 66.0521 388.274C66.9421 388.344 67.9021 388.234 68.9221 387.924C70.3221 387.624 71.3821 386.784 72.0221 385.324C72.6621 383.884 73.2221 381.364 73.5921 377.734C74.2021 372.284 74.4021 368.844 74.1721 367.444C73.2521 366.064 71.4021 365.334 68.6921 365.314C66.9821 365.314 65.5621 365.674 64.3721 366.444C63.4521 367.344 62.7121 368.904 62.1621 371.144C59.8221 369.384 57.6021 368.234 55.5621 367.704L55.6221 357.814C53.1921 358.254 51.7921 358.744 51.4421 359.334L50.1621 366.994C45.3121 367.254 41.0321 369.834 37.2921 374.714C33.7221 379.414 31.8321 384.934 31.5421 391.384C31.5321 391.494 31.5421 391.604 31.5421 391.714C31.4521 394.584 31.7321 397.054 32.4121 399.174C33.1121 401.364 34.1821 403.154 35.6221 404.524C37.0821 405.944 38.5521 407.024 40.0321 407.814C41.5321 408.604 43.3721 409.374 45.5321 410.094C45.4721 411.754 45.4121 413.824 45.3521 416.254C45.2721 419.004 45.2121 422.224 45.1621 425.914C43.2521 425.234 41.5421 424.034 40.0021 422.334C39.9821 420.774 39.9121 419.574 39.7121 418.724C37.5321 417.524 35.9121 416.834 34.8521 416.674C34.2521 416.564 32.9821 416.824 31.0121 417.374C30.0421 419.324 29.4921 421.734 29.3821 424.624C29.2221 428.334 29.5621 431.374 30.4121 433.764C31.0321 434.734 32.3121 435.414 34.1821 435.814C35.9521 436.174 37.2621 436.164 38.0821 435.784C38.5621 435.194 38.8421 434.194 38.9621 432.764C40.6221 434.774 42.6921 436.234 45.1821 437.154L45.1521 446.444C46.7521 446.654 47.8821 446.624 48.4521 446.354L49.8221 437.924C54.9021 438.364 59.3721 436.744 63.2121 432.924C67.1821 428.954 69.5721 423.794 70.2721 417.394V417.384ZM44.6321 397.134C42.3721 395.864 41.3421 393.534 41.5521 390.164C41.8821 384.914 44.0521 381.734 48.1821 380.764C47.2721 388.004 46.6821 393.454 46.3621 397.214L46.3321 397.454C46.3421 397.594 46.3321 397.724 46.3021 397.854C45.6921 397.664 45.1421 397.434 44.6421 397.124L44.6321 397.134ZM56.2621 423.324C54.9321 424.774 53.3621 425.804 51.5821 426.354C52.0921 422.814 52.5421 419.234 52.9921 415.624C53.1321 414.384 53.3021 413.134 53.4321 411.884C55.0021 412.374 56.2321 413.054 57.0721 413.964C58.2021 415.074 58.6621 416.554 58.5121 418.354C58.3521 420.194 57.6021 421.844 56.2621 423.324Z" fill="url(#paint34_linear_1495_2124)"/>
<g style="mix-blend-mode:soft-light">
<path d="M72.0408 385.325C71.4008 386.795 70.3408 387.635 68.9408 387.925C67.9208 388.225 66.9608 388.345 66.0708 388.275C64.0608 388.145 62.4608 387.495 61.3108 386.325C61.0808 385.225 61.0008 384.005 61.1208 382.705C59.7308 381.765 57.8608 381.095 55.5108 380.675C55.4508 386.115 55.2308 391.515 54.8908 396.835C51.9908 397.205 49.1308 397.355 46.3708 397.225C46.6908 393.465 47.2908 388.015 48.1908 380.775C44.0608 381.745 41.8908 384.925 41.5608 390.175C41.3508 393.545 42.3808 395.875 44.6408 397.145C39.2108 396.655 34.4708 394.995 31.5508 391.705C31.5608 391.595 31.5508 391.485 31.5508 391.375C31.8508 384.925 33.7308 379.405 37.3008 374.705C41.0408 369.835 45.3208 367.245 50.1708 366.985L51.4508 359.325C51.7908 358.735 53.1908 358.245 55.6308 357.805L55.5708 367.695C57.6008 368.235 59.8208 369.375 62.1708 371.135C62.7308 368.895 63.4608 367.335 64.3808 366.435C65.5708 365.675 66.9908 365.315 68.7008 365.305C71.4208 365.325 73.2708 366.045 74.1808 367.435C74.4108 368.845 74.2108 372.275 73.6008 377.725C73.2208 381.355 72.6708 383.865 72.0308 385.315L72.0408 385.325Z" fill="white"/>
</g>
<g style="mix-blend-mode:multiply" opacity="0.2">
<path d="M62.1016 410.315C60.5916 411.765 58.8815 412.985 57.0815 413.965C56.2415 413.065 55.0115 412.375 53.4415 411.885C53.3015 413.135 53.1315 414.385 53.0015 415.625C50.4815 416.365 47.8715 416.595 45.3615 416.235C45.4215 413.795 45.4816 411.735 45.5416 410.075C43.3816 409.355 41.5416 408.585 40.0416 407.795C38.5616 407.005 37.0915 405.935 35.6315 404.505C34.1915 403.135 33.1216 401.345 32.4216 399.155C31.7416 397.035 31.4615 394.565 31.5515 391.695C31.5615 391.585 31.5515 391.475 31.5515 391.365C31.5515 391.365 31.5815 394.475 44.6315 397.135C45.1915 397.265 45.7515 397.365 46.3215 397.465C49.1715 397.995 52.0916 398.455 54.7316 398.925C54.7516 399.005 54.7316 399.115 54.7216 399.195C59.4116 400.375 63.0916 401.925 65.6716 403.895C66.0316 405.465 65.0016 407.535 62.0916 410.315H62.1016Z" fill="#DA0553"/>
</g>
<path d="M40.0001 422.325C39.9801 421.405 45.1601 425.905 45.1601 425.905C45.1601 425.905 40.1301 424.965 40.0001 422.325Z" fill="white"/>
<path d="M67.499 365.375C65.299 365.245 68.049 376.435 70.319 378.975C72.579 381.495 74.899 369.615 74.189 367.435C73.469 365.245 67.489 365.375 67.489 365.375H67.499Z" fill="white"/>
<g style="mix-blend-mode:soft-light">
<path d="M54.0095 358.145C51.4595 359.325 55.3595 363.975 55.3595 363.975C55.3595 363.975 56.0995 358.335 55.2395 357.875C54.3795 357.415 54.0095 358.145 54.0095 358.145Z" fill="white"/>
</g>
<g style="mix-blend-mode:soft-light">
<path d="M32.8683 470.234C41.7483 470.144 24.9783 465.884 21.2983 463.684C17.5983 461.464 7.73828 464.194 7.73828 464.194C7.73828 464.194 16.5383 470.884 32.8683 470.234Z" fill="white"/>
</g>
<path d="M-6.16868 422.383C-1.82868 421.813 2.68132 436.403 0.271324 439.453C-2.11868 442.473 -7.79868 433.863 -8.91868 431.033C-10.0487 428.173 -6.16868 422.383 -6.16868 422.383Z" fill="#ED4800"/>
<path d="M11.5888 454.804C14.7488 454.304 7.33878 448.544 5.94878 448.294C4.55878 448.044 5.0688 451.094 6.2188 453.304C7.3588 455.504 10.3988 454.984 11.5888 454.804Z" fill="#ED4800"/>
<path d="M11.4794 452.504C12.3394 454.184 10.6394 455.194 8.09943 454.594C7.34943 454.414 6.35938 453.554 6.35938 453.554C6.35938 453.554 8.85938 456.134 11.3594 456.314C13.8494 456.484 13.1694 454.154 11.4794 452.494V452.504Z" fill="#FFBA00"/>
<path d="M0.568726 433.215C0.568726 433.215 0.48874 435.025 -2.29126 435.025C-5.83126 435.025 -8.78125 431.375 -8.78125 431.375C-8.78125 431.375 -5.44124 439.465 -1.33124 441.075C2.75876 442.665 1.18873 435.695 0.568726 433.225V433.215Z" fill="#FFBA00"/>
<g style="mix-blend-mode:multiply" opacity="0.5">
<path d="M-0.830566 428.484C0.789433 435.454 -5.63057 430.234 -6.83057 429.274C-8.04057 428.314 -9.14062 429.854 -9.14062 429.854C-9.14062 429.854 -8.05059 422.964 -6.17059 422.394C-4.28059 421.824 -0.830566 428.494 -0.830566 428.494V428.484Z" fill="#D42F55"/>
</g>
<g style="mix-blend-mode:multiply" opacity="0.5">
<path d="M9.28116 450.413C10.1612 452.863 7.82114 453.703 6.33114 452.823C4.83114 451.933 5.39114 448.083 5.95114 448.293C6.51114 448.503 9.28116 450.413 9.28116 450.413Z" fill="#D42F55"/>
</g>
<path d="M11.1384 456.295C11.4184 456.135 8.56844 454.725 8.14844 454.985C8.34844 455.845 11.1384 456.295 11.1384 456.295Z" fill="white"/>
<defs>
<linearGradient id="paint0_linear_1495_2124" x1="447.917" y1="458.3" x2="544.156" y2="239.271" gradientUnits="userSpaceOnUse">
<stop stop-color="#427038"/>
<stop offset="0.99" stop-color="#636F00"/>
</linearGradient>
<linearGradient id="paint1_linear_1495_2124" x1="388.933" y1="433.094" x2="489.435" y2="204.36" gradientUnits="userSpaceOnUse">
<stop stop-color="#84A61D"/>
<stop offset="1" stop-color="#AEC200"/>
</linearGradient>
<linearGradient id="paint2_linear_1495_2124" x1="400.607" y1="383.534" x2="460.569" y2="247.066" gradientUnits="userSpaceOnUse">
<stop stop-color="#84A61D"/>
<stop offset="1" stop-color="#AEC200"/>
</linearGradient>
<linearGradient id="paint3_linear_1495_2124" x1="530.51" y1="378.44" x2="355.783" y2="301.667" gradientUnits="userSpaceOnUse">
<stop stop-color="#F8D5E0"/>
<stop offset="1" stop-color="#FFE4EC"/>
</linearGradient>
<linearGradient id="paint4_linear_1495_2124" x1="524.689" y1="379.029" x2="355.382" y2="304.637" gradientUnits="userSpaceOnUse">
<stop stop-color="#DE0086"/>
<stop offset="1" stop-color="#FF003B"/>
</linearGradient>
<radialGradient id="paint5_radial_1495_2124" cx="0" cy="0" r="1" gradientUnits="userSpaceOnUse" gradientTransform="translate(347.175 287.439) scale(171.59 171.59)">
<stop offset="0.26" stop-color="white"/>
<stop offset="1" stop-color="#0C3349"/>
</radialGradient>
<linearGradient id="paint6_linear_1495_2124" x1="141.056" y1="490.145" x2="193.358" y2="420.309" gradientUnits="userSpaceOnUse">
<stop stop-color="#FF00D0"/>
<stop offset="0.3" stop-color="#FF3C00"/>
<stop offset="0.57" stop-color="#FFC987"/>
<stop offset="0.85" stop-color="#FF5000"/>
<stop offset="1" stop-color="#E66F00"/>
</linearGradient>
<linearGradient id="paint7_linear_1495_2124" x1="138.524" y1="488.872" x2="191.376" y2="418.299" gradientUnits="userSpaceOnUse">
<stop stop-color="#FF00D0"/>
<stop offset="0.3" stop-color="#FF3C00"/>
<stop offset="0.57" stop-color="#FFC987"/>
<stop offset="0.85" stop-color="#FF5000"/>
<stop offset="1" stop-color="#E66F00"/>
</linearGradient>
<linearGradient id="paint8_linear_1495_2124" x1="145.003" y1="488.878" x2="169.83" y2="406.799" gradientUnits="userSpaceOnUse">
<stop stop-color="#FFCC64"/>
<stop offset="0.14" stop-color="#FFC960"/>
<stop offset="0.26" stop-color="#FFC055"/>
<stop offset="0.38" stop-color="#FFB243"/>
<stop offset="0.5" stop-color="#FF9E29"/>
<stop offset="0.61" stop-color="#FF8508"/>
<stop offset="0.63" stop-color="#FF7F00"/>
<stop offset="0.7" stop-color="#FFB100"/>
<stop offset="1" stop-color="#FF9079"/>
</linearGradient>
<linearGradient id="paint9_linear_1495_2124" x1="145.784" y1="475.022" x2="161.596" y2="422.747" gradientUnits="userSpaceOnUse">
<stop stop-color="#FFFF8B"/>
<stop offset="0.21" stop-color="#FF7700"/>
<stop offset="1" stop-color="#C23200"/>
</linearGradient>
<linearGradient id="paint10_linear_1495_2124" x1="138.04" y1="471.782" x2="171.225" y2="427.471" gradientUnits="userSpaceOnUse">
<stop stop-color="#FF8D00"/>
<stop offset="0.99" stop-color="#D83C00"/>
</linearGradient>
<linearGradient id="paint11_linear_1495_2124" x1="139.192" y1="471.996" x2="171.544" y2="428.797" gradientUnits="userSpaceOnUse">
<stop stop-color="#E35E00"/>
<stop offset="1" stop-color="#7F0800"/>
</linearGradient>
<linearGradient id="paint12_linear_1495_2124" x1="138.869" y1="471.604" x2="168.155" y2="426.593" gradientUnits="userSpaceOnUse">
<stop stop-color="#FFCC64"/>
<stop offset="0.63" stop-color="#FF7F00"/>
<stop offset="0.7" stop-color="#FFB100"/>
<stop offset="1" stop-color="#FF9079"/>
</linearGradient>
<linearGradient id="paint13_linear_1495_2124" x1="334.817" y1="444.341" x2="334.817" y2="370.051" gradientUnits="userSpaceOnUse">
<stop stop-color="#FF00D0"/>
<stop offset="0.3" stop-color="#FF3C00"/>
<stop offset="0.57" stop-color="#FFC987"/>
<stop offset="0.85" stop-color="#FF5000"/>
<stop offset="1" stop-color="#E66F00"/>
</linearGradient>
<radialGradient id="paint14_radial_1495_2124" cx="0" cy="0" r="1" gradientUnits="userSpaceOnUse" gradientTransform="translate(321.249 406.069) scale(57.76 57.76)">
<stop offset="0.26" stop-color="#FEF4EE"/>
<stop offset="1"/>
</radialGradient>
<linearGradient id="paint15_linear_1495_2124" x1="332.44" y1="444.76" x2="332.44" y2="369.69" gradientUnits="userSpaceOnUse">
<stop stop-color="#FF00D0"/>
<stop offset="0.3" stop-color="#FF3C00"/>
<stop offset="0.57" stop-color="#FFC987"/>
<stop offset="0.85" stop-color="#FF5000"/>
<stop offset="1" stop-color="#E66F00"/>
</linearGradient>
<linearGradient id="paint16_linear_1495_2124" x1="336.858" y1="441.46" x2="311.888" y2="372.85" gradientUnits="userSpaceOnUse">
<stop stop-color="#FFCC64"/>
<stop offset="0.14" stop-color="#FFC960"/>
<stop offset="0.26" stop-color="#FFC055"/>
<stop offset="0.38" stop-color="#FFB243"/>
<stop offset="0.5" stop-color="#FF9E29"/>
<stop offset="0.61" stop-color="#FF8508"/>
<stop offset="0.63" stop-color="#FF7F00"/>
<stop offset="0.7" stop-color="#FFB100"/>
<stop offset="1" stop-color="#FF9079"/>
</linearGradient>
<linearGradient id="paint17_linear_1495_2124" x1="330.32" y1="431.62" x2="314.42" y2="387.92" gradientUnits="userSpaceOnUse">
<stop stop-color="#FFFF8B"/>
<stop offset="0.21" stop-color="#FF7700"/>
<stop offset="1" stop-color="#C23200"/>
</linearGradient>
<linearGradient id="paint18_linear_1495_2124" x1="323.387" y1="433.36" x2="323.387" y2="386.23" gradientUnits="userSpaceOnUse">
<stop stop-color="#FF8D00"/>
<stop offset="0.99" stop-color="#D83C00"/>
</linearGradient>
<linearGradient id="paint19_linear_1495_2124" x1="325.811" y1="432.769" x2="322.779" y2="386.87" gradientUnits="userSpaceOnUse">
<stop stop-color="#E35E00"/>
<stop offset="1" stop-color="#7F0800"/>
</linearGradient>
<linearGradient id="paint20_linear_1495_2124" x1="323.794" y1="432.712" x2="320.781" y2="387.102" gradientUnits="userSpaceOnUse">
<stop stop-color="#FFCC64"/>
<stop offset="0.63" stop-color="#FF7F00"/>
<stop offset="0.7" stop-color="#FFB100"/>
<stop offset="1" stop-color="#FF9079"/>
</linearGradient>
<linearGradient id="paint21_linear_1495_2124" x1="325.666" y1="103.712" x2="325.666" y2="0.501716" gradientUnits="userSpaceOnUse">
<stop stop-color="#FF5900"/>
<stop offset="0.23" stop-color="#FE6800"/>
<stop offset="0.66" stop-color="#FA9300"/>
<stop offset="0.85" stop-color="#F66A00"/>
<stop offset="1" stop-color="#F63F00"/>
</linearGradient>
<linearGradient id="paint22_linear_1495_2124" x1="322.36" y1="104.302" x2="322.36" y2="0.00205153" gradientUnits="userSpaceOnUse">
<stop stop-color="#FF5900"/>
<stop offset="0.23" stop-color="#FE6800"/>
<stop offset="0.66" stop-color="#FA9300"/>
<stop offset="0.85" stop-color="#F66A00"/>
<stop offset="1" stop-color="#F63F00"/>
</linearGradient>
<linearGradient id="paint23_linear_1495_2124" x1="328.498" y1="99.7122" x2="293.808" y2="4.39218" gradientUnits="userSpaceOnUse">
<stop stop-color="#FFEA34"/>
<stop offset="0.63" stop-color="#FF8100"/>
<stop offset="0.7" stop-color="#FFA400"/>
<stop offset="1" stop-color="#FFBA00"/>
</linearGradient>
<linearGradient id="paint24_linear_1495_2124" x1="319.41" y1="86.0421" x2="297.32" y2="25.3221" gradientUnits="userSpaceOnUse">
<stop stop-color="#FFBA00"/>
<stop offset="0.21" stop-color="#FE6800"/>
<stop offset="1" stop-color="#D41B00"/>
</linearGradient>
<linearGradient id="paint25_linear_1495_2124" x1="309.78" y1="88.4624" x2="309.78" y2="22.9824" gradientUnits="userSpaceOnUse">
<stop offset="0.04" stop-color="#EF6300"/>
<stop offset="1" stop-color="#E13E00"/>
</linearGradient>
<linearGradient id="paint26_linear_1495_2124" x1="313.121" y1="87.6437" x2="308.907" y2="23.8628" gradientUnits="userSpaceOnUse">
<stop stop-color="#C82400"/>
<stop offset="0.51" stop-color="#D84400"/>
<stop offset="1" stop-color="#D42F00"/>
</linearGradient>
<linearGradient id="paint27_linear_1495_2124" x1="310.321" y1="87.5673" x2="306.134" y2="24.1854" gradientUnits="userSpaceOnUse">
<stop stop-color="#FFAB00"/>
<stop offset="0.49" stop-color="#FFBA00"/>
<stop offset="1" stop-color="#EF6C00"/>
</linearGradient>
<linearGradient id="paint28_linear_1495_2124" x1="26.4" y1="469.725" x2="26.4" y2="324.705" gradientUnits="userSpaceOnUse">
<stop stop-color="#FF5900"/>
<stop offset="0.23" stop-color="#FE6800"/>
<stop offset="0.66" stop-color="#FA9300"/>
<stop offset="0.85" stop-color="#F66A00"/>
<stop offset="1" stop-color="#F63F00"/>
</linearGradient>
<linearGradient id="paint29_linear_1495_2124" x1="31.0514" y1="470.554" x2="31.0514" y2="323.994" gradientUnits="userSpaceOnUse">
<stop stop-color="#FF5900"/>
<stop offset="0.23" stop-color="#FE6800"/>
<stop offset="0.66" stop-color="#FA9300"/>
<stop offset="0.85" stop-color="#F66A00"/>
<stop offset="1" stop-color="#F63F00"/>
</linearGradient>
<linearGradient id="paint30_linear_1495_2124" x1="22.4183" y1="464.115" x2="71.1683" y2="330.175" gradientUnits="userSpaceOnUse">
<stop stop-color="#FFEA34"/>
<stop offset="0.63" stop-color="#FF8100"/>
<stop offset="0.7" stop-color="#FFA400"/>
<stop offset="1" stop-color="#FFBA00"/>
</linearGradient>
<linearGradient id="paint31_linear_1495_2124" x1="35.1919" y1="444.893" x2="66.2419" y2="359.583" gradientUnits="userSpaceOnUse">
<stop stop-color="#FFBA00"/>
<stop offset="0.21" stop-color="#FE6800"/>
<stop offset="1" stop-color="#D41B00"/>
</linearGradient>
<linearGradient id="paint32_linear_1495_2124" x1="48.7197" y1="448.295" x2="48.7197" y2="356.285" gradientUnits="userSpaceOnUse">
<stop offset="0.04" stop-color="#EF6300"/>
<stop offset="1" stop-color="#E13E00"/>
</linearGradient>
<linearGradient id="paint33_linear_1495_2124" x1="43.3651" y1="446.752" x2="53.0795" y2="357.62" gradientUnits="userSpaceOnUse">
<stop stop-color="#C82400"/>
<stop offset="0.51" stop-color="#D84400"/>
<stop offset="1" stop-color="#D42F00"/>
</linearGradient>
<linearGradient id="paint34_linear_1495_2124" x1="46.3171" y1="446.54" x2="55.987" y2="357.815" gradientUnits="userSpaceOnUse">
<stop stop-color="#FFAB00"/>
<stop offset="0.49" stop-color="#FFBA00"/>
<stop offset="1" stop-color="#EF6C00"/>
</linearGradient>
</defs>
</svg>
