<svg width="180" height="25" viewBox="0 0 180 25" fill="none" xmlns="http://www.w3.org/2000/svg">
<g clip-path="url(#clip0_904_14)">
<path d="M25.8643 24.3994H43.1326V19.8454H31.083V14.2599H41.0734V9.70213H31.083V4.55982H43.2052V0.00585938H25.8643V24.3994Z" fill="white"/>
<path d="M63.9235 15.3602L52.6112 0.00585938H44.8213L47.2473 3.09277V24.4758H52.4622V8.45667L64.1451 24.3994H69.1422V0.00585938H63.9235V15.3602Z" fill="white"/>
<path d="M18.0019 11.8492C20.2942 11.4099 22.2044 9.27807 22.2044 6.26756C22.1891 3.01637 19.8395 0.00585938 15.1366 0.00585938H0L2.34957 3.01637V24.4108H15.6638C20.3706 24.4108 22.7927 21.4729 22.7927 17.7976C22.7049 14.7757 20.6304 12.2045 18.0019 11.8492ZM7.56829 4.59039H14.1089C15.8739 4.59039 16.9742 5.6219 16.9742 7.16154C16.9742 8.70118 15.8739 9.7327 14.1089 9.7327H7.56829V4.59039ZM14.3266 19.8721H7.56829V14.2599H14.3266C16.3133 14.2599 17.4136 15.5092 17.4136 17.0527C17.4136 18.8139 16.2369 19.8454 14.3266 19.8454V19.8721Z" fill="white"/>
<path d="M145.486 15.3602H148.206V18.2294C146.799 19.3942 145.036 20.0415 143.209 20.0632C138.873 20.0632 135.79 16.7585 135.79 12.2771C135.79 7.79573 138.873 4.48723 143.209 4.48723C144.323 4.49646 145.418 4.7836 146.393 5.32263C147.369 5.86166 148.194 6.63554 148.795 7.57415L152.909 5.28189C151.148 2.50443 148.057 0.00585938 143.137 0.00585938C136.229 0.00585938 130.499 4.78141 130.499 12.2045C130.499 19.6276 136.157 24.3994 143.137 24.3994C145.022 24.4306 146.891 24.0527 148.616 23.2915C150.34 22.5304 151.88 21.4042 153.127 19.9906V10.9552H141.96L145.486 15.3602Z" fill="white"/>
<path d="M121.975 15.3602L110.659 0.00585938H102.869L105.295 3.09277V24.4758H110.514V8.45667L122.197 24.3994H127.19V0.00585938H121.975V15.3602Z" fill="white"/>
<path d="M170.392 0.00585938H160.329L162.751 3.09277L162.311 4.26565L154.521 24.4758H160.401L161.929 20.3573H172.455L173.983 24.4758H179.859L170.392 0.00585938ZM163.27 15.7308L167.091 5.22076L170.911 15.7308H163.27Z" fill="white"/>
<path d="M99.8589 0.00585938H94.6401V24.4758H99.8589V0.00585938Z" fill="white"/>
<path d="M90.4526 4.19306V0.00585938H72.0801V4.55982H83.6178L72.0801 20.2122V24.3994H90.6742V19.8454H78.8423L90.4526 4.19306Z" fill="white"/>
</g>
<defs>
<clipPath id="clip0_904_14">
<rect width="180" height="24.3935" fill="white" transform="translate(0 0.00585938)"/>
</clipPath>
</defs>
</svg>
