<svg width="47" height="47" viewBox="0 0 47 47" fill="none" xmlns="http://www.w3.org/2000/svg">
<g clip-path="url(#clip0_742_32)">
<path d="M23.0244 13.5C17.4244 13.5 12.9244 18.1 12.9244 23.8C12.9244 25.5 13.3244 27.2 14.1244 28.6L20.0244 19.2C20.7244 18.1 21.4244 18.1 21.9244 18.2C22.6244 18.4 23.0244 19.1 23.1244 20.3V25.5L25.7244 21.2C26.1244 20.5 27.2244 18.7 28.7244 19.1C29.6244 19.4 30.1244 20.3 30.1244 21.6V24.4C30.1244 25.3 30.4244 26 30.9244 26.2C31.1244 26.3 31.4244 26.4 31.6244 26.3C31.8244 26.3 32.1244 26.2 32.3244 26.1C33.0244 25.7 33.3244 24.8 33.3244 23.7C33.2244 18.2 28.6244 13.5 23.0244 13.5Z" fill="#AFFFF5"/>
<path d="M22.9244 1C10.2244 1 0.0243835 11.2 0.0243835 23.9C0.0243835 36.5 10.2244 46.8 22.9244 46.8C35.5244 46.8 45.8244 36.6 45.8244 23.9C45.7244 11.2 35.5244 1 22.9244 1ZM35.4244 23.9C35.5244 25.8 34.7244 27.4 33.4244 28.3C32.9244 28.6 32.2244 28.8 31.6244 28.9C31.0244 29 30.3244 28.8 29.8244 28.5C28.6244 27.8 27.9244 26.4 27.9244 24.6V22.2C27.8244 22.3 27.7244 22.4 27.6244 22.6L24.7244 27.3C23.7244 28.9 22.8244 29 22.2244 28.8C21.6244 28.6 20.9244 28 20.9244 26.1V22.2L15.6244 30.7C16.5244 31.7 17.6244 32.5 18.8244 33.1C20.0244 33.7 21.3244 34 22.7244 34.1C24.1244 34.2 25.4244 34 26.7244 33.5C28.0244 33 29.1244 32.3 30.1244 31.4C30.2244 31.3 30.3244 31.2 30.5244 31.2C30.6244 31.2 30.8244 31.1 30.9244 31.1C31.0244 31.1 31.2244 31.1 31.3244 31.2C31.4244 31.3 31.6244 31.4 31.7244 31.5C31.9244 31.7 32.0244 32 32.0244 32.3C32.0244 32.6 31.9244 32.9 31.6244 33.1C29.3244 35.3 26.3244 36.5 23.2244 36.5C16.4244 36.5 10.8244 30.8 10.8244 23.9C10.8244 17 16.4244 11.3 23.2244 11.3C30.0244 11.3 35.4244 16.9 35.4244 23.9Z" fill="#AFFFF5"/>
</g>
<defs>
<clipPath id="clip0_742_32">
<rect width="46" height="47" fill="white" transform="translate(0.0243835)"/>
</clipPath>
</defs>
</svg>
