<svg width="178" height="43" viewBox="0 0 178 43" fill="none" xmlns="http://www.w3.org/2000/svg">
<g clip-path="url(#clip0_904_5)">
<path d="M25.8397 30.6828L18.423 33.9164V33.5901C16.999 33.9461 15.397 34.1538 13.9137 34.2428C6.91233 34.1834 1.39433 30.5048 1.30533 26.1734V24.5714C3.58967 27.8941 8.277 30.1488 13.9137 30.0598C15.8123 30.1488 17.7703 29.8521 19.402 29.4071L20.0547 27.8051C18.1263 28.3984 15.9903 28.7841 13.9137 28.7841C6.91233 28.7841 1.39433 25.1351 1.30533 20.7148V19.4094C3.58967 22.4948 8.277 24.7198 13.9137 24.5714C16.465 24.7198 18.9273 24.1858 21.0337 23.2661L21.36 21.6641C19.313 22.7321 16.6727 23.3551 13.9433 23.2661C6.942 23.3551 1.424 19.7061 1.335 15.1968V13.8914C3.61933 17.0361 8.30667 19.2908 13.9433 19.3798C17.1473 19.2908 20.1733 18.4304 22.6653 17.1251L22.9917 15.1968C20.737 16.8581 17.444 17.9558 13.9433 18.1041C6.942 17.9558 1.424 14.2771 1.335 9.70843C1.39433 5.34743 6.942 1.69844 13.9433 1.6391C18.0967 1.69844 21.983 3.15211 24.2673 5.52544L24.5047 5.9111H26.1363L25.899 5.52544C23.6147 2.41044 19.0163 0.363436 13.9433 0.363436C6.17067 0.333769 0 4.57611 0 9.67877V10.0051V26.4701C0.267 31.4541 6.28933 35.5184 13.884 35.5184C18.8977 35.5481 23.4367 33.5604 25.8397 30.6828Z" fill="white"/>
<path d="M22.8137 42.0451L25.4244 30.9497L17.9187 34.2131L22.4874 14.9891H13.7061L15.9904 5.52539H44.0254L41.7411 14.9891H32.6037L30.6457 20.2104L40.7621 15.9681L22.8137 42.0451ZM27.3824 28.6951L26.0771 35.2217L36.8461 18.9347L28.0351 22.8507L31.9511 13.7134H40.7621L42.3937 6.86039H16.9397L15.3081 13.7134H24.1191L19.8767 31.9584L27.3824 28.6951Z" fill="#FABF2C"/>
<path d="M62.6262 11.9039C62.6558 12.9422 62.3295 13.7432 61.6768 14.3365C61.0242 14.9299 60.1342 15.2265 58.9772 15.2265C57.8202 15.2265 56.8708 14.8409 56.1588 14.0992C55.4468 13.3576 55.0908 12.3785 55.0908 11.1919V9.26355C55.0908 8.07688 55.4468 7.09788 56.1292 6.35622C56.8412 5.61455 57.7608 5.22889 58.8882 5.22889C60.0748 5.22889 60.9945 5.52555 61.6768 6.08922C62.3592 6.68255 62.6855 7.48355 62.6558 8.52188V8.55155H60.7572C60.7572 7.92855 60.6088 7.45389 60.3122 7.15722C60.0155 6.86055 59.5408 6.71222 58.9178 6.71222C58.3245 6.71222 57.8795 6.94955 57.5532 7.42422C57.2268 7.89889 57.0488 8.49222 57.0488 9.23389V11.1919C57.0488 11.9335 57.2268 12.5566 57.5532 13.0312C57.9092 13.5059 58.3838 13.7432 59.0068 13.7432C59.6002 13.7432 60.0155 13.5949 60.3122 13.2982C60.6088 13.0015 60.7572 12.5269 60.7572 11.9039H62.6262ZM73.3655 11.1029C73.3655 12.2896 72.9798 13.2982 72.2382 14.0696C71.4965 14.8409 70.5175 15.2265 69.3012 15.2265C68.0848 15.2265 67.1355 14.8409 66.3642 14.0696C65.6225 13.2982 65.2368 12.2896 65.2368 11.1029V9.35255C65.2368 8.16589 65.6225 7.18689 66.3642 6.38589C67.1058 5.61455 68.0848 5.19922 69.2715 5.19922C70.4878 5.19922 71.4668 5.58489 72.2085 6.38589C72.9798 7.15722 73.3358 8.16589 73.3358 9.35255V11.1029H73.3655ZM71.4075 9.32288C71.4075 8.55155 71.2295 7.95822 70.8438 7.45389C70.4582 6.97922 69.9538 6.71222 69.2715 6.71222C68.6188 6.71222 68.0848 6.94955 67.7288 7.45389C67.3728 7.92855 67.1652 8.55155 67.1652 9.32288V11.0732C67.1652 11.8445 67.3432 12.4675 67.7288 12.9719C68.0848 13.4465 68.6188 13.7135 69.2715 13.7135C69.9538 13.7135 70.4582 13.4762 70.8438 12.9719C71.2295 12.4972 71.4075 11.8445 71.4075 11.0732V9.32288ZM78.4088 15.0782H76.4508V5.34755H78.4088V15.0782ZM89.6525 15.0782H87.6945L83.7785 8.52188H83.7488V15.0782H81.7908V5.34755H83.7488L87.6648 11.9039H87.6945V5.34755H89.6525V15.0782ZM99.4722 6.86055H96.6835V15.0782H94.7255V6.86055H91.9962V5.34755H99.4722V6.86055ZM107.541 10.8062H103.922V13.5949H108.224V15.0782H101.994V5.34755H108.224V6.86055H103.952V9.29322H107.571V10.8062H107.541ZM112.97 13.5949H117.331V15.0782H111.012V5.34755H112.97V13.5949ZM125.638 10.8062H122.019V13.5949H126.32V15.0782H120.09V5.34755H126.32V6.86055H122.048V9.29322H125.668V10.8062H125.638ZM136.585 13.7729C136.288 14.1586 135.843 14.5146 135.22 14.8112C134.627 15.1079 133.856 15.2562 132.906 15.2562C131.72 15.2562 130.77 14.9002 130.029 14.1585C129.287 13.4169 128.901 12.4676 128.901 11.2809V9.23389C128.901 8.04722 129.257 7.09788 129.999 6.35622C130.711 5.61455 131.66 5.22889 132.788 5.22889C133.974 5.22889 134.894 5.52555 135.517 6.08922C136.14 6.65289 136.466 7.39455 136.437 8.34389V8.37355H134.597C134.597 7.86921 134.449 7.45389 134.152 7.15722C133.856 6.86055 133.411 6.71222 132.847 6.71222C132.254 6.71222 131.779 6.94955 131.393 7.39455C131.037 7.86922 130.859 8.46255 130.859 9.17455V11.2215C130.859 11.9632 131.037 12.5566 131.423 13.0312C131.809 13.5059 132.313 13.7135 132.936 13.7135C133.411 13.7135 133.767 13.6542 134.034 13.5652C134.301 13.4762 134.508 13.3576 134.657 13.2092V11.3106H132.788V9.94589H136.615V13.7729H136.585ZM141.628 11.1919V15.0782H139.67V5.34755H143.052C144.15 5.34755 145.04 5.61455 145.663 6.11889C146.286 6.62322 146.612 7.33521 146.612 8.22521C146.612 8.72955 146.494 9.14489 146.227 9.53055C145.96 9.88655 145.574 10.1832 145.07 10.4206C145.633 10.5986 146.049 10.8656 146.316 11.2809C146.553 11.6666 146.701 12.1709 146.701 12.7642V13.4762C146.701 13.7432 146.731 14.0399 146.82 14.3365C146.879 14.6332 147.028 14.8409 147.206 14.9892V15.1376H145.188C145.01 14.9892 144.892 14.7519 144.832 14.4256C144.773 14.0992 144.743 13.7729 144.743 13.4762V12.7939C144.743 12.3192 144.625 11.9335 144.358 11.6665C144.091 11.3995 143.705 11.2512 143.23 11.2512H141.628V11.1919ZM141.628 9.70855H143.023C143.557 9.70855 143.972 9.58989 144.239 9.35255C144.506 9.11522 144.654 8.78889 144.654 8.31422C144.654 7.86922 144.506 7.51322 144.239 7.24622C143.972 6.97922 143.586 6.86055 143.052 6.86055H141.628V9.70855ZM154.889 13.0015H151.745L151.092 15.1079H149.045L152.338 5.37722H154.326L157.589 15.1079H155.542L154.889 13.0015ZM152.219 11.4589H154.415L153.347 8.01755H153.317L152.219 11.4589ZM161.92 11.5479V15.0782H159.962V5.34755H163.7C164.828 5.34755 165.688 5.64422 166.341 6.20788C166.993 6.77155 167.29 7.54289 167.29 8.46255C167.29 9.38222 166.964 10.1536 166.341 10.7172C165.688 11.2809 164.828 11.5776 163.7 11.5776H161.92V11.5479ZM161.92 10.0646H163.7C164.234 10.0646 164.65 9.91622 164.946 9.61955C165.213 9.32288 165.362 8.93722 165.362 8.49222C165.362 8.01755 165.213 7.63188 164.946 7.33521C164.679 7.03855 164.264 6.89021 163.7 6.89021H161.92V10.0646ZM178 15.0782H176.042V11.0435H172.066V15.0782H170.108V5.34755H172.066V9.53055H176.042V5.34755H178V15.0782Z" fill="white"/>
<path d="M58.6509 30.9803H57.4346V24.5723H55.2393V23.534H60.8463V24.5723H58.6509V30.9803ZM66.8093 30.9803H65.5929V27.5093C65.5929 27.0643 65.5039 26.738 65.3259 26.5303C65.1479 26.3227 64.8809 26.204 64.4953 26.204C63.9909 26.204 63.6349 26.3523 63.3976 26.649C63.1603 26.9457 63.0416 27.45 63.0416 28.162V30.9507H61.8549V23.0297H63.0416V25.047C63.0416 25.3733 63.0119 25.6997 62.9823 26.0853H63.0713C63.2196 25.8183 63.4569 25.6107 63.7536 25.4623C64.0503 25.314 64.3766 25.225 64.7623 25.225C66.1269 25.225 66.8093 25.9073 66.8093 27.3017V30.9803ZM70.9329 31.0693C70.0429 31.0693 69.3606 30.8023 68.8859 30.298C68.3816 29.7937 68.1443 29.0817 68.1443 28.1917C68.1443 27.272 68.3816 26.56 68.8266 26.026C69.2716 25.492 69.9243 25.225 70.7253 25.225C71.4669 25.225 72.0603 25.4623 72.4756 25.9073C72.9206 26.3523 73.1283 26.9753 73.1283 27.7763V28.429H69.3606C69.3903 28.963 69.5386 29.408 69.8056 29.675C70.0726 29.9717 70.4879 30.12 70.9923 30.12C71.3186 30.12 71.6449 30.0903 71.9119 30.031C72.2086 29.9717 72.5053 29.853 72.8316 29.7047V30.6837C72.5349 30.832 72.2383 30.921 71.9416 30.9803C71.6746 31.0397 71.3186 31.0693 70.9329 31.0693ZM70.7253 26.1447C70.3396 26.1447 70.0429 26.2633 69.8056 26.5007C69.5683 26.738 69.4496 27.094 69.3903 27.5687H71.9416C71.9416 27.094 71.8229 26.738 71.6153 26.5007C71.4076 26.2633 71.1109 26.1447 70.7253 26.1447ZM80.0109 26.2337H78.6463V30.9803H77.4299V26.2337H76.5103V25.67L77.4299 25.314V24.958C77.4299 24.3053 77.5783 23.801 77.9046 23.4747C78.2309 23.1483 78.7056 23 79.3286 23C79.7439 23 80.1593 23.0593 80.5746 23.2077L80.2483 24.1273C79.9516 24.0383 79.6846 23.979 79.3879 23.979C79.1209 23.979 78.9133 24.068 78.7946 24.2163C78.6759 24.3943 78.6166 24.6317 78.6166 24.958V25.314H79.9813V26.2337H80.0109ZM84.9653 30.9803L84.7873 30.2387H84.7279C84.5499 30.5057 84.3126 30.7133 84.0159 30.8617C83.7193 31.01 83.3633 31.099 82.9776 31.099C82.2953 31.099 81.7909 30.921 81.4349 30.5947C81.0789 30.2683 80.9306 29.7343 80.9306 29.052V25.3437H82.1469V28.8147C82.1469 29.2597 82.2359 29.5563 82.4139 29.7937C82.5919 30.0013 82.8589 30.12 83.2446 30.12C83.7489 30.12 84.1049 29.9717 84.3423 29.675C84.5796 29.3783 84.6983 28.874 84.6983 28.162V25.3437H85.9146V30.9803H84.9653ZM89.7119 30.0903C90.0086 30.0903 90.3053 30.031 90.6019 29.942V30.832C90.4833 30.8913 90.3053 30.9507 90.0976 30.9803C89.8899 31.01 89.6823 31.0397 89.4449 31.0397C88.3176 31.0397 87.7539 30.4463 87.7539 29.2597V26.2337H86.9826V25.6997L87.8133 25.2547L88.2286 24.068H88.9703V25.314H90.5723V26.2337H88.9703V29.2597C88.9703 29.5563 89.0296 29.764 89.1779 29.9123C89.2669 30.031 89.4746 30.0903 89.7119 30.0903ZM95.6749 30.9803L95.4969 30.2387H95.4376C95.2596 30.5057 95.0223 30.7133 94.7256 30.8617C94.4289 31.01 94.0729 31.099 93.6873 31.099C93.0049 31.099 92.5006 30.921 92.1446 30.5947C91.8183 30.2683 91.6403 29.7343 91.6403 29.052V25.3437H92.8566V28.8147C92.8566 29.2597 92.9456 29.5563 93.1236 29.7937C93.3016 30.0013 93.5686 30.12 93.9543 30.12C94.4586 30.12 94.8146 29.9717 95.0519 29.675C95.2893 29.3783 95.4079 28.874 95.4079 28.162V25.3437H96.6243V30.9803H95.6749ZM101.193 25.225C101.43 25.225 101.638 25.2547 101.786 25.2843L101.668 26.4117C101.49 26.382 101.312 26.3523 101.134 26.3523C100.659 26.3523 100.273 26.5007 99.9766 26.827C99.6799 27.1533 99.5316 27.539 99.5316 28.0433V30.9803H98.3449V25.3437H99.2943L99.4426 26.3227H99.5019C99.6799 25.9963 99.9469 25.7293 100.244 25.5217C100.511 25.3437 100.837 25.225 101.193 25.225ZM105.079 31.0693C104.189 31.0693 103.507 30.8023 103.032 30.298C102.528 29.7937 102.291 29.0817 102.291 28.1917C102.291 27.272 102.528 26.56 102.973 26.026C103.418 25.492 104.071 25.225 104.872 25.225C105.613 25.225 106.207 25.4623 106.622 25.9073C107.067 26.3523 107.275 26.9753 107.275 27.7763V28.429H103.507C103.537 28.963 103.685 29.408 103.952 29.675C104.219 29.9717 104.634 30.12 105.139 30.12C105.465 30.12 105.791 30.0903 106.058 30.031C106.355 29.9717 106.652 29.853 106.978 29.7047V30.6837C106.681 30.832 106.385 30.921 106.088 30.9803C105.791 31.0397 105.465 31.0693 105.079 31.0693ZM104.872 26.1447C104.486 26.1447 104.189 26.2633 103.952 26.5007C103.715 26.738 103.596 27.094 103.537 27.5687H106.088C106.088 27.094 105.969 26.738 105.762 26.5007C105.524 26.2633 105.228 26.1447 104.872 26.1447ZM116.323 28.1323C116.323 29.052 116.086 29.764 115.611 30.298C115.136 30.8023 114.484 31.0693 113.653 31.0693C113.119 31.0693 112.674 30.9507 112.259 30.7133C111.843 30.476 111.547 30.12 111.339 29.675C111.131 29.23 111.013 28.7257 111.013 28.1323C111.013 27.2127 111.25 26.5007 111.725 25.9963C112.199 25.492 112.852 25.225 113.712 25.225C114.513 25.225 115.166 25.492 115.641 26.026C116.115 26.56 116.323 27.2423 116.323 28.1323ZM112.229 28.1323C112.229 29.4377 112.704 30.0903 113.683 30.0903C114.632 30.0903 115.107 29.4377 115.107 28.1323C115.107 26.8567 114.632 26.204 113.683 26.204C113.178 26.204 112.822 26.382 112.585 26.7083C112.348 27.0347 112.229 27.5093 112.229 28.1323ZM120.536 26.2337H119.171V30.9803H117.955V26.2337H117.035V25.67L117.955 25.314V24.958C117.955 24.3053 118.103 23.801 118.429 23.4747C118.756 23.1483 119.23 23 119.853 23C120.269 23 120.684 23.0593 121.099 23.2077L120.773 24.1273C120.476 24.0383 120.209 23.979 119.913 23.979C119.646 23.979 119.438 24.068 119.319 24.2163C119.201 24.3647 119.141 24.6317 119.141 24.958V25.314H120.506V26.2337H120.536ZM128.961 30.9803H127.745V27.5093C127.745 27.0643 127.656 26.7677 127.507 26.5303C127.359 26.3227 127.092 26.204 126.736 26.204C126.261 26.204 125.935 26.3523 125.727 26.649C125.52 26.9457 125.401 27.45 125.401 28.162V30.9803H124.214V25.3437H125.164L125.342 26.0853H125.401C125.549 25.8183 125.787 25.6107 126.083 25.4623C126.38 25.314 126.706 25.2547 127.062 25.2547C127.923 25.2547 128.516 25.5513 128.783 26.1447H128.872C129.05 25.8777 129.287 25.6403 129.584 25.492C129.881 25.3437 130.237 25.2547 130.622 25.2547C131.305 25.2547 131.779 25.4327 132.106 25.759C132.402 26.0853 132.58 26.6193 132.58 27.3017V30.9803H131.394V27.5093C131.394 27.0643 131.305 26.7677 131.156 26.5303C130.978 26.3227 130.741 26.204 130.385 26.204C129.91 26.204 129.584 26.3523 129.376 26.649C129.169 26.9457 129.05 27.3907 129.05 27.984V30.9803H128.961ZM139.166 28.1323C139.166 29.052 138.929 29.764 138.454 30.298C137.98 30.8023 137.327 31.0693 136.496 31.0693C135.962 31.0693 135.517 30.9507 135.102 30.7133C134.687 30.476 134.39 30.12 134.182 29.675C133.975 29.23 133.856 28.7257 133.856 28.1323C133.856 27.2127 134.093 26.5007 134.568 25.9963C135.043 25.492 135.695 25.225 136.556 25.225C137.357 25.225 138.009 25.492 138.484 26.026C138.929 26.56 139.166 27.2423 139.166 28.1323ZM135.072 28.1323C135.072 29.4377 135.547 30.0903 136.526 30.0903C137.475 30.0903 137.95 29.4377 137.95 28.1323C137.95 26.8567 137.475 26.204 136.526 26.204C136.022 26.204 135.666 26.382 135.428 26.7083C135.191 27.0347 135.072 27.5093 135.072 28.1323ZM145.515 30.9803H144.299V27.5093C144.299 27.0643 144.21 26.738 144.032 26.5303C143.854 26.3227 143.587 26.204 143.201 26.204C142.697 26.204 142.311 26.3523 142.103 26.649C141.896 26.9457 141.747 27.45 141.747 28.162V30.9803H140.561V25.3437H141.51L141.688 26.0853H141.747C141.925 25.8183 142.163 25.6107 142.459 25.4623C142.756 25.314 143.112 25.2547 143.498 25.2547C144.862 25.2547 145.515 25.937 145.515 27.3313V30.9803ZM149.639 31.0693C148.749 31.0693 148.066 30.8023 147.592 30.298C147.087 29.7937 146.85 29.0817 146.85 28.1917C146.85 27.272 147.087 26.56 147.532 26.026C147.977 25.492 148.63 25.225 149.431 25.225C150.173 25.225 150.766 25.4623 151.181 25.9073C151.626 26.3523 151.834 26.9753 151.834 27.7763V28.429H148.066C148.096 28.963 148.244 29.408 148.511 29.675C148.778 29.9717 149.194 30.12 149.698 30.12C150.024 30.12 150.351 30.0903 150.618 30.031C150.885 29.9717 151.211 29.853 151.537 29.7047V30.6837C151.241 30.832 150.944 30.921 150.647 30.9803C150.351 31.0397 150.024 31.0693 149.639 31.0693ZM149.401 26.1447C149.016 26.1447 148.719 26.2633 148.482 26.5007C148.244 26.738 148.126 27.094 148.066 27.5687H150.618C150.618 27.094 150.499 26.738 150.291 26.5007C150.084 26.2633 149.787 26.1447 149.401 26.1447ZM152.131 25.3437H153.436L154.593 28.5477C154.771 28.9927 154.89 29.4377 154.949 29.8233H154.979C155.008 29.6453 155.068 29.408 155.157 29.141C155.246 28.874 155.661 27.5983 156.462 25.3437H157.767L155.364 31.722C154.919 32.879 154.207 33.4723 153.169 33.4723C152.902 33.4723 152.635 33.4427 152.398 33.3833V32.434C152.576 32.4637 152.783 32.4933 153.021 32.4933C153.584 32.4933 154 32.167 154.237 31.4847L154.445 30.9507L152.131 25.3437Z" fill="white"/>
</g>
<defs>
<clipPath id="clip0_904_5">
<rect width="178" height="41.6818" fill="white" transform="translate(0 0.363281)"/>
</clipPath>
</defs>
</svg>
