<svg width="46" height="47" viewBox="0 0 46 47" fill="none" xmlns="http://www.w3.org/2000/svg">
<g clip-path="url(#clip0_362_12301)">
<path d="M28.5 20.7002C26.8 20.7002 25.5 22.2002 25.5 24.1002C25.5 26.0002 26.9 27.5002 28.5 27.5002C30.2 27.5002 31.5 26.0002 31.5 24.1002C31.6 22.2002 30.2 20.7002 28.5 20.7002Z" fill="#AFFFF5"/>
<path d="M17.4004 20.7002C15.7004 20.7002 14.4004 22.2002 14.4004 24.1002C14.4004 26.0002 15.8004 27.5002 17.4004 27.5002C19.1004 27.5002 20.4004 26.0002 20.4004 24.1002C20.4004 22.2002 19.1004 20.7002 17.4004 20.7002Z" fill="#AFFFF5"/>
<path d="M23 0.5C10.3 0.5 0 10.8 0 23.5C0 36.2 10.3 46.5 23 46.5C35.7 46.5 46 36.2 46 23.5C45.9 10.8 35.6 0.5 23 0.5ZM39.5 31.3C37 33.2 34.1 34.6 31.1 35.5H31C30.4 34.6 29.8 33.7 29.3 32.7C29.3 32.6 29.3 32.6 29.4 32.6C30.3 32.3 31.2 31.8 32 31.4C32 31.4 32 31.3 32 31.2C31.8 31.1 31.6 30.9 31.5 30.8H31.4C26 33.3 20 33.3 14.5 30.8H14.4C14.2 30.9 14.1 31.1 13.9 31.2C13.9 31.3 13.9 31.3 13.9 31.3C14.7 31.8 15.6 32.2 16.5 32.5C16.6 32.5 16.6 32.6 16.5 32.6C16 33.6 15.4 34.5 14.8 35.4C14.8 35.4 14.7 35.5 14.7 35.4C11.7 34.5 8.9 33 6.3 31.2C6.3 31.2 6.3 31.2 6.3 31.1C5.7 24.8 6.9 18.5 11.3 12C13.5 11 15.8 10.3 18.1 9.9C18.1 9.9 18.2 9.9 18.2 10C18.5 10.6 18.8 11.1 19.1 11.7C21.6 11.3 24.2 11.3 26.8 11.7C27.1 11.1 27.3 10.5 27.7 10L27.8 9.9C30.2 10.3 32.5 11 34.6 12C38.4 17.7 40.3 24 39.5 31.3C39.6 31.3 39.6 31.3 39.5 31.3Z" fill="#AFFFF5"/>
</g>
<defs>
<clipPath id="clip0_362_12301">
<rect width="46" height="47" fill="white"/>
</clipPath>
</defs>
</svg>
