<svg width="47" height="47" viewBox="0 0 47 47" fill="none" xmlns="http://www.w3.org/2000/svg">
<g clip-path="url(#clip0_742_36)">
<path d="M22.9244 17.3008C21.2244 17.3008 19.6244 18.0008 18.3244 19.2008C17.1244 20.4008 16.4244 22.0008 16.4244 23.8008C16.4244 25.5008 17.1244 27.1008 18.3244 28.4008C19.5244 29.6008 21.1244 30.3008 22.9244 30.3008C24.7244 30.3008 26.2244 29.6008 27.5244 28.4008C28.8244 27.2008 29.4244 25.6008 29.4244 23.8008C29.4244 22.1008 28.7244 20.5008 27.5244 19.2008C26.3244 17.9008 24.6244 17.3008 22.9244 17.3008ZM25.6244 26.5008C24.9244 27.2008 23.9244 27.6008 22.9244 27.6008C21.9244 27.6008 20.9244 27.2008 20.2244 26.5008C19.5244 25.8008 19.1244 24.8008 19.1244 23.8008C19.1244 22.8008 19.5244 21.8008 20.2244 21.1008C20.9244 20.4008 21.9244 20.0008 22.9244 20.0008C23.9244 20.0008 24.9244 20.4008 25.6244 21.1008C26.3244 21.8008 26.7244 22.8008 26.7244 23.8008C26.7244 24.7008 26.3244 25.7008 25.6244 26.5008Z" fill="#AFFFF5"/>
<path d="M29.6244 15.3008C29.2244 15.3008 28.8244 15.5008 28.5244 15.8008C28.2244 16.1008 28.0244 16.5008 28.0244 17.0008C28.0244 17.4008 28.2244 17.8008 28.5244 18.1008C28.8244 18.4008 29.2244 18.6008 29.6244 18.6008C30.0244 18.6008 30.4244 18.4008 30.7244 18.1008C31.0244 17.8008 31.2244 17.4008 31.2244 17.0008C31.2244 16.6008 31.0244 16.2008 30.7244 15.9008C30.4244 15.6008 30.1244 15.3008 29.6244 15.3008Z" fill="#AFFFF5"/>
<path d="M22.9244 0.900391C10.2244 0.900391 0.0243835 11.1004 0.0243835 23.7004C0.0243835 36.3004 10.2244 46.6004 22.9244 46.6004C35.5244 46.6004 45.8244 36.4004 45.8244 23.7004C45.7244 11.1004 35.5244 0.900391 22.9244 0.900391ZM35.7244 29.0004C35.6244 30.4004 35.4244 31.3004 35.1244 32.1004C34.8244 33.0004 34.3244 33.7004 33.6244 34.4004C33.0244 35.1004 32.2244 35.6004 31.3244 35.9004C30.5244 36.2004 29.5244 36.4004 28.2244 36.5004C26.8244 36.6004 26.4244 36.6004 22.9244 36.6004C19.4244 36.6004 19.0244 36.6004 17.6244 36.5004C16.2244 36.4004 15.3244 36.2004 14.5244 35.9004C13.6244 35.6004 12.9244 35.1004 12.2244 34.4004C11.5244 33.8004 11.0244 33.0004 10.7244 32.1004C10.4244 31.3004 10.2244 30.3004 10.1244 29.0004C10.0244 27.7004 10.0244 27.2004 10.0244 23.7004C10.0244 20.2004 10.0244 19.8004 10.1244 18.4004C10.2244 17.0004 10.4244 16.1004 10.7244 15.3004C11.0244 14.4004 11.5244 13.7004 12.2244 13.0004C12.8244 12.3004 13.6244 11.8004 14.5244 11.5004C15.3244 11.2004 16.3244 11.0004 17.6244 10.9004C19.0244 10.8004 19.4244 10.8004 22.9244 10.8004C26.4244 10.8004 26.8244 10.8004 28.2244 10.9004C29.6244 11.0004 30.5244 11.2004 31.3244 11.5004C32.2244 11.8004 32.9244 12.3004 33.6244 13.0004C34.3244 13.6004 34.8244 14.4004 35.1244 15.3004C35.4244 16.1004 35.6244 17.1004 35.7244 18.4004C35.8244 19.8004 35.8244 20.2004 35.8244 23.7004C35.8244 27.2004 35.7244 27.7004 35.7244 29.0004Z" fill="#AFFFF5"/>
</g>
<defs>
<clipPath id="clip0_742_36">
<rect width="46" height="47" fill="white" transform="translate(0.0243835)"/>
</clipPath>
</defs>
</svg>
