<svg width="47" height="47" viewBox="0 0 47 47" fill="none" xmlns="http://www.w3.org/2000/svg">
<g clip-path="url(#clip0_742_41)">
<path d="M22.9244 1C10.2244 1 0.0244141 11.2 0.0244141 23.9C0.0244141 36.5 10.2244 46.8 22.9244 46.8C35.5244 46.8 45.8244 36.6 45.8244 23.9C45.7244 11.2 35.5244 1 22.9244 1ZM25.0244 38.5H21.0244V29.4H25.0244V38.5ZM34.4244 23.8H27.5244L32.4244 28.6L29.7244 31.3L23.0244 24.6L16.3244 31.3L13.6244 28.6L18.5244 23.8H11.6244V20H18.5244L13.6244 15.3L16.3244 12.5L21.0244 17.3V10.5H25.0244V17.3L29.7244 12.5L32.4244 15.3L27.5244 20H34.4244V23.8Z" fill="#AFFFF5"/>
</g>
<defs>
<clipPath id="clip0_742_41">
<rect width="46" height="47" fill="white" transform="translate(0.0244141)"/>
</clipPath>
</defs>
</svg>
