<svg width="33" height="33" viewBox="0 0 33 33" fill="none" xmlns="http://www.w3.org/2000/svg">
<path d="M28.0467 3.63232L17.8656 11.194L19.7483 6.7327L28.0467 3.63232Z" fill="#E2761B" stroke="#E2761B" stroke-linecap="round" stroke-linejoin="round"/>
<path d="M4.54314 3.63232L14.6424 11.2656L12.8517 6.7327L4.54314 3.63232ZM24.3835 21.1602L21.672 25.3145L27.4737 26.9107L29.1415 21.2523L24.3835 21.1602ZM3.46875 21.2523L5.12638 26.9107L10.9281 25.3145L8.21652 21.1602L3.46875 21.2523Z" fill="#E4761B" stroke="#E4761B" stroke-linecap="round" stroke-linejoin="round"/>
<path d="M10.6006 14.1409L8.98389 16.5864L14.7447 16.8422L14.54 10.6517L10.6006 14.1409ZM21.9891 14.1409L17.9985 10.5801L17.8655 16.8422L23.616 16.5864L21.9891 14.1409ZM10.928 25.3145L14.3865 23.6262L11.3987 21.2933L10.928 25.3145ZM18.2032 23.6262L21.6719 25.3145L21.191 21.2933L18.2032 23.6262Z" fill="#E4761B" stroke="#E4761B" stroke-linecap="round" stroke-linejoin="round"/>
<path d="M21.672 25.3148L18.2032 23.6265L18.4795 25.8878L18.4488 26.8394L21.672 25.3148ZM10.9281 25.3148L14.1513 26.8394L14.1308 25.8878L14.3866 23.6265L10.9281 25.3148Z" fill="#D7C1B3" stroke="#D7C1B3" stroke-linecap="round" stroke-linejoin="round"/>
<path d="M14.2024 19.7995L11.3169 18.9502L13.3531 18.019L14.2024 19.7995ZM18.3874 19.7995L19.2367 18.019L21.2831 18.9502L18.3874 19.7995Z" fill="#233447" stroke="#233447" stroke-linecap="round" stroke-linejoin="round"/>
<path d="M10.9281 24.6437L11.4193 20.4894L8.21655 20.5814L10.9281 24.6437ZM21.1808 20.4894L21.672 24.6437L24.3835 20.5814L21.1808 20.4894ZM23.6161 15.9155L17.8656 16.1713L18.3977 19.1285L19.2469 17.348L21.2934 18.2792L23.6161 15.9155ZM11.3169 18.2792L13.3634 17.348L14.2024 19.1285L14.7447 16.1713L8.98397 15.9155L11.3169 18.2792Z" fill="#CD6116" stroke="#CD6116" stroke-linecap="round" stroke-linejoin="round"/>
<path d="M8.98389 16.5864L11.3987 21.2933L11.3168 18.9501L8.98389 16.5864ZM21.2933 18.9501L21.191 21.2933L23.616 16.5864L21.2933 18.9501ZM14.7447 16.8422L14.2023 19.7994L14.8777 23.2886L15.0312 18.6943L14.7447 16.8422ZM17.8655 16.8422L17.5892 18.684L17.712 23.2886L18.3976 19.7994L17.8655 16.8422Z" fill="#E4751F" stroke="#E4751F" stroke-linecap="round" stroke-linejoin="round"/>
<path d="M18.3976 19.7995L17.7121 23.2887L18.2032 23.6263L21.191 21.2934L21.2934 18.9502L18.3976 19.7995ZM11.3169 18.9502L11.3988 21.2934L14.3866 23.6263L14.8777 23.2887L14.2024 19.7995L11.3169 18.9502Z" fill="#F6851B" stroke="#F6851B" stroke-linecap="round" stroke-linejoin="round"/>
<path d="M18.4488 26.8391L18.4795 25.8875L18.2237 25.6624H14.3661L14.1308 25.8875L14.1513 26.8391L10.9281 25.3145L12.0537 26.2354L14.3354 27.8214H18.2544L20.5464 26.2354L21.672 25.3145L18.4488 26.8391Z" fill="#C0AD9E" stroke="#C0AD9E" stroke-linecap="round" stroke-linejoin="round"/>
<path d="M18.2032 23.6262L17.712 23.2886H14.8777L14.3865 23.6262L14.1307 25.8876L14.3661 25.6625H18.2236L18.4795 25.8876L18.2032 23.6262Z" fill="#161616" stroke="#161616" stroke-linecap="round" stroke-linejoin="round"/>
<path d="M28.4764 11.6851L29.3462 7.51035L28.0467 3.63232L18.2032 10.9382L21.9892 14.1409L27.3407 15.7064L28.5276 14.325L28.016 13.9567L28.8346 13.2097L28.2002 12.7186L29.0188 12.0944L28.4764 11.6851ZM3.25391 7.51035L4.12365 11.6851L3.57111 12.0944L4.38969 12.7186L3.76552 13.2097L4.5841 13.9567L4.07249 14.325L5.2492 15.7064L10.6007 14.1409L14.3866 10.9382L4.54317 3.63232L3.25391 7.51035Z" fill="#763D16" stroke="#763D16" stroke-linecap="round" stroke-linejoin="round"/>
<path d="M27.3406 15.7066L21.9892 14.1411L23.6161 16.5866L21.191 21.2934L24.3835 21.2525H29.1415L27.3406 15.7066ZM10.6006 14.1411L5.24916 15.7066L3.46875 21.2525H8.21652L11.3988 21.2934L8.98394 16.5866L10.6006 14.1411ZM17.8656 16.8424L18.2032 10.9384L19.7585 6.73291H12.8517L14.3866 10.9384L14.7447 16.8424L14.8675 18.7047L14.8777 23.2887H17.7121L17.7325 18.7047L17.8656 16.8424Z" fill="#F6851B" stroke="#F6851B" stroke-linecap="round" stroke-linejoin="round"/>
</svg>