<svg width="48" height="47" viewBox="0 0 48 47" fill="none" xmlns="http://www.w3.org/2000/svg">
<g clip-path="url(#clip0_742_21)">
<path d="M28.0683 30.8507C26.7194 31.7392 25.1396 32.2128 23.5244 32.2128C21.9091 32.2128 20.3293 31.7392 18.9804 30.8507C18.9222 30.8095 18.8563 30.7805 18.7867 30.7652C18.717 30.75 18.645 30.7489 18.5749 30.762C18.5048 30.7752 18.4381 30.8022 18.3786 30.8416C18.3192 30.881 18.2683 30.932 18.2289 30.9915C18.1896 31.0509 18.1626 31.1177 18.1495 31.1878C18.1364 31.2579 18.1376 31.3299 18.1529 31.3996C18.1682 31.4692 18.1973 31.5351 18.2385 31.5932C18.2798 31.6514 18.3323 31.7007 18.3929 31.7382C19.9161 32.7419 21.7002 33.2769 23.5244 33.2769C25.3485 33.2769 27.1326 32.7419 28.6558 31.7382C28.7688 31.6583 28.8461 31.5376 28.8716 31.4016C28.8971 31.2656 28.8686 31.1251 28.7922 31.0097C28.7159 30.8944 28.5976 30.8133 28.4625 30.7836C28.3274 30.7539 28.186 30.778 28.0683 30.8507Z" fill="#AFFFF5"/>
<path d="M18.6087 27.89C19.7444 27.89 20.6651 26.9694 20.6651 25.8337C20.6651 24.698 19.7444 23.7773 18.6087 23.7773C17.4731 23.7773 16.5524 24.698 16.5524 25.8337C16.5524 26.9694 17.4731 27.89 18.6087 27.89Z" fill="#AFFFF5"/>
<path d="M28.4401 27.89C29.5758 27.89 30.4964 26.9694 30.4964 25.8337C30.4964 24.698 29.5758 23.7773 28.4401 23.7773C27.3044 23.7773 26.3838 24.698 26.3838 25.8337C26.3838 26.9694 27.3044 27.89 28.4401 27.89Z" fill="#AFFFF5"/>
<path d="M23.5244 0C10.5457 0 0.0243835 10.5213 0.0243835 23.5C0.0243835 36.4787 10.5457 47 23.5244 47C36.5031 47 47.0244 36.4787 47.0244 23.5C47.0244 10.5213 36.5031 0 23.5244 0ZM35.7617 26.4727C35.82 26.809 35.8494 27.1496 35.8496 27.491C35.8496 32.1991 30.3315 36.0159 23.5244 36.0159C16.7173 36.0159 11.1992 32.1991 11.1992 27.491C11.1994 27.1496 11.2288 26.809 11.287 26.4727C10.8728 26.2929 10.5035 26.0236 10.2058 25.6841C9.90809 25.3446 9.68936 24.9433 9.56533 24.5091C9.44131 24.0749 9.41507 23.6186 9.48853 23.1731C9.56198 22.7275 9.73329 22.3038 9.99012 21.9324C10.247 21.561 10.5829 21.2511 10.9739 21.0251C11.3648 20.7992 11.801 20.6626 12.251 20.6254C12.701 20.5882 13.1537 20.6512 13.5765 20.8099C13.9992 20.9686 14.3815 21.219 14.6959 21.5432C16.8127 20.0403 19.7245 19.0758 22.9617 18.9752L24.5077 11.5189C24.5437 11.3452 24.647 11.1928 24.7951 11.0951C24.9431 10.9974 25.1239 10.9623 25.2977 10.9975L30.4909 12.0484C30.7401 11.6191 31.1337 11.2923 31.6015 11.1263C32.0692 10.9603 32.5808 10.9659 33.0448 11.1421C33.5089 11.3182 33.8952 11.6535 34.135 12.0881C34.3747 12.5227 34.4523 13.0284 34.3538 13.5149C34.2553 14.0014 33.9872 14.437 33.5973 14.7442C33.2074 15.0513 32.721 15.2099 32.225 15.1917C31.729 15.1736 31.2555 14.9797 30.8892 14.6448C30.5228 14.31 30.2873 13.8558 30.2247 13.3634L25.6858 12.4449L24.3299 18.9846C27.4698 19.1248 30.2892 20.0779 32.3529 21.5432C32.6673 21.2192 33.0496 20.9689 33.4723 20.8103C33.895 20.6518 34.3476 20.5889 34.7975 20.6262C35.2474 20.6634 35.6835 20.8 36.0743 21.026C36.4651 21.2519 36.801 21.5617 37.0578 21.933C37.3146 22.3044 37.4859 22.728 37.5593 23.1734C37.6328 23.6188 37.6066 24.075 37.4827 24.5091C37.3588 24.9433 37.1402 25.3445 36.8426 25.684C36.545 26.0235 36.1759 26.2929 35.7618 26.4727H35.7617Z" fill="#AFFFF5"/>
</g>
<defs>
<clipPath id="clip0_742_21">
<rect width="47" height="47" fill="white" transform="translate(0.0243835)"/>
</clipPath>
</defs>
</svg>
