<svg width="212" height="182" viewBox="0 0 212 182" fill="none" xmlns="http://www.w3.org/2000/svg">
<path d="M125.428 157.269C122.231 157.3 118.782 156.757 115.184 155.651C114.706 155.507 114.197 155.343 113.627 155.144C113.236 155.011 112.83 154.862 112.393 154.698C110.101 153.838 107.809 152.793 105.562 151.589C103.347 152.834 101.07 153.925 98.7985 154.831C98.3924 154.995 97.9761 155.154 97.5752 155.302C97.0253 155.502 96.5216 155.681 96.0281 155.84C92.4457 157.013 89.0123 157.622 85.8154 157.653C82.1559 157.689 78.8201 156.967 75.9059 155.512L75.875 155.497C71.4445 153.203 69.44 148.937 70.5194 144.097C71.5987 139.227 75.5667 135.268 79.55 135.083C79.5911 135.083 79.6374 135.083 79.6785 135.083C81.1999 135.068 82.454 136.251 82.5208 137.777C82.5568 138.535 82.2946 139.257 81.7807 139.815C81.2667 140.374 80.5677 140.696 79.807 140.727C78.7122 140.773 76.6511 142.632 76.0498 145.326C75.2788 148.803 77.6585 150.068 78.4655 150.488C80.5677 151.533 83.0091 152.05 85.7126 152.025C88.4367 151.999 91.4537 151.426 94.6815 150.319C95.1852 150.15 95.6427 149.986 96.0847 149.812C98.2588 148.983 100.479 147.943 102.689 146.714L102.638 141.357C97.4776 140.789 93.1807 138.848 90.3949 135.8C88.2362 133.439 87.2083 130.561 87.5012 127.693C87.5475 127.207 87.6246 126.751 87.7377 126.305C87.9278 125.542 88.2259 124.83 88.6217 124.19C90.3641 121.358 93.7769 119.96 99.0657 119.904C101.003 119.883 102.854 120.042 104.339 120.17L104.468 120.18C104.75 120.206 105.018 120.226 105.264 120.247C105.511 120.221 105.773 120.196 106.056 120.165L106.205 120.149C107.68 119.996 109.515 119.801 111.447 119.781C116.731 119.73 120.175 121.061 121.974 123.857C122.385 124.497 122.698 125.204 122.904 125.957C123.022 126.382 123.115 126.853 123.171 127.35C123.521 130.203 122.549 133.096 120.437 135.503C117.708 138.602 113.452 140.63 108.307 141.301L108.358 146.658C110.599 147.846 112.83 148.844 115.009 149.623C115.523 149.807 115.986 149.966 116.428 150.104C119.681 151.144 122.709 151.656 125.433 151.63C128.142 151.605 130.573 151.036 132.659 149.946C133.456 149.51 135.805 148.209 134.962 144.742C134.309 142.064 132.212 140.246 131.107 140.22C129.555 140.189 128.311 138.894 128.342 137.337C128.383 135.8 129.611 134.592 131.138 134.576C131.179 134.576 131.22 134.576 131.256 134.576C135.229 134.674 139.279 138.556 140.462 143.411C141.633 148.23 139.721 152.527 135.347 154.908L135.317 154.923C132.418 156.439 129.092 157.228 125.433 157.264L125.428 157.269Z" fill="#80232F"/>
<path d="M75.8802 115.023C75.1658 115.028 74.4565 114.926 73.778 114.721C69.0186 113.261 66.8033 107.105 68.741 100.714C69.0237 99.7818 69.3835 98.8906 69.8101 98.0559L68.8079 94.9114C68.6639 94.4607 67.9958 92.1202 68.9415 90.338C69.3938 89.4878 70.1236 88.8886 71.0488 88.6121L71.0745 88.6018C71.5165 88.4738 71.9842 88.4072 72.4571 88.4072C72.8888 88.4072 73.336 88.4482 73.7935 88.5455C74.6055 88.7145 75.4742 89.0525 76.4302 89.5749C76.9287 89.8514 77.417 90.1536 77.8899 90.4711C78.6094 90.9577 79.3496 91.4442 80.0897 91.9051C81.2873 92.6528 82.382 93.2879 83.338 93.7898C86.1341 95.2647 87.3162 95.4337 87.6143 95.4491L93.3658 95.7666L88.7451 99.1979C88.6114 99.2952 87.7377 99.92 86.3911 100.299C86.5298 102.107 86.3088 104.022 85.7435 105.902C84.1347 111.228 80.0794 114.982 75.8802 115.023Z" fill="#80232F"/>
<path d="M131.323 114.48C127.124 114.521 122.992 110.854 121.28 105.559C120.674 103.689 120.417 101.784 120.519 99.9713C119.162 99.618 118.273 99.0085 118.14 98.9163L113.452 95.5772L119.198 95.1419C119.497 95.1214 120.674 94.9268 123.439 93.4006C124.39 92.8782 125.469 92.2227 126.656 91.4494C127.381 90.9731 128.116 90.4712 128.83 89.9693C129.288 89.6415 129.771 89.3343 130.259 89.0526C131.215 88.5046 132.074 88.1512 132.891 87.9617C133.333 87.8593 133.78 87.803 134.212 87.7979C134.685 87.7979 135.152 87.8491 135.599 87.9669H135.625C136.561 88.2332 137.301 88.817 137.768 89.6569C138.75 91.4238 138.128 93.7745 137.995 94.2303L137.054 97.3953C137.496 98.2249 137.876 99.1058 138.175 100.033C140.236 106.388 138.144 112.585 133.415 114.137C132.742 114.357 132.038 114.475 131.318 114.48H131.323Z" fill="#80232F"/>
<path d="M204.385 117.645C205.937 116.718 207.355 115.453 208.543 113.932L210.187 111.833L207.725 110.757C199.132 107.008 190.713 98.8705 183.933 87.7879C193.699 69.6378 196.356 52.2354 196.86 40.779C197.456 27.0844 195.154 13.7228 190.985 6.74239C188.369 2.36363 185.588 1.46227 183.718 1.48276C175.72 1.55958 165.59 8.84727 152.745 23.7607C147.513 29.8346 142.949 35.9239 139.783 40.3488C128.172 35.5756 116.546 34.1468 108.132 33.8651V33.7678L106.014 33.7883C105.901 33.7883 105.783 33.7883 105.67 33.7934L105.726 39.4576C114.253 39.5498 126.645 40.8097 138.806 46.0847C139.212 46.2588 139.654 46.4534 140.153 46.6839C145.878 49.3111 151.095 52.6656 155.665 56.65C156.019 56.9573 156.394 57.2953 156.811 57.6743C161.555 62.0172 165.672 67.1693 169.054 72.9821L169.131 73.1152C169.326 73.4532 169.527 73.7912 169.722 74.1292L169.943 74.5082C171.269 76.7821 172.605 79.056 174.039 81.4681L174.887 82.8919C176.152 85.007 177.247 86.8251 178.233 88.4486C178.526 88.93 178.814 89.4011 179.097 89.8723C179.559 90.6866 180.053 91.5163 180.608 92.4074L180.618 92.4279C186.642 101.892 193.041 108.739 200.098 113.251C199.908 113.323 199.713 113.379 199.522 113.425L198.844 113.594C197.307 113.979 197.05 115.233 197.143 115.914V115.95L197.153 115.986C197.492 117.989 198.453 119.894 199.928 121.481C200.355 121.947 200.823 122.383 201.326 122.782C200.936 123.448 200.535 124.083 200.17 124.657C195.945 131.063 190.574 137.388 183.404 144.399L183.229 143.923L180.86 146.412C180.531 146.755 180.166 147.134 179.709 147.59C177.714 149.582 175.581 151.508 173.366 153.311C172.981 153.628 172.564 153.956 172.138 154.294C159.437 164.24 143.787 170.723 125.623 173.56C123.495 173.863 121.315 174.114 119.146 174.313C115.081 174.672 111.026 174.882 107.078 174.948L107.135 180.802C113.816 180.659 120.596 180.029 127.319 178.928L127.463 178.984L128.028 178.887C143.853 176.208 158.003 170.774 170.071 162.734C171.829 161.561 173.556 160.327 175.216 159.052C175.586 158.77 176.07 158.391 176.537 158.012C178.66 156.322 180.716 154.524 182.648 152.665C187.346 148.425 191.473 144.343 195.277 140.169C199.384 135.632 202.503 131.698 205.104 127.781C206.214 126.085 207.366 124.242 208.234 122.234L208.759 121.02C208.759 121.02 205.084 119.976 204.39 117.651L204.385 117.645ZM156.744 50.1715C153.151 47.3548 149.245 44.876 145.066 42.766C155.099 28.8769 167.476 14.6754 176.979 9.3338C174.641 12.1762 170.899 18.0606 165.076 30.7308C164.454 32.0829 163.827 33.4657 163.215 34.8484C160.707 40.4922 158.44 45.9669 156.744 50.1715ZM171.953 66.8211C168.869 62.1094 165.307 57.8433 161.324 54.0945C162.156 51.9947 163.22 49.3675 164.459 46.4022C164.582 46.5149 164.716 46.6173 164.86 46.7146C165.446 47.1089 166.129 47.3189 166.844 47.3087C168.494 47.2933 169.948 46.1973 171.814 44.6097C171.598 45.5879 171.418 46.4329 171.315 47.0014C170.698 50.3764 170.57 52.6144 174.014 55.0522C174.091 55.1546 174.415 55.6411 174.574 56.8037C174.769 58.2172 174.815 61.7458 171.953 66.8211ZM176.769 74.8718C176.249 73.991 175.746 73.1306 175.252 72.2907C177.468 69.0489 178.984 65.8173 179.77 62.6574C180.51 59.687 180.438 57.4234 180.253 56.0457C179.904 53.5158 178.886 51.544 177.401 50.4993C176.907 50.151 176.738 49.982 176.681 49.9155C176.65 49.6287 176.81 48.7632 176.948 47.9949C177.185 46.6992 177.966 43.2577 179.097 38.546C179.205 38.08 179.313 37.6447 179.405 37.2555L180.443 32.9023L176.707 34.3209C176.054 34.5667 175.371 34.8945 174.672 35.2889C172.461 36.5333 170.416 38.3002 168.771 39.7188C168.771 39.7188 168.653 39.8213 168.601 39.8622C168.601 38.9506 168.637 37.829 168.715 36.4975C177.226 17.4358 181.189 12.801 182.571 11.6794C182.602 11.7101 182.638 11.746 182.679 11.7869C184.864 14.1172 188.05 23.3356 187.29 38.1619C186.627 51.0626 182.911 63.9582 176.758 74.8718H176.769ZM180.089 80.4695C182.001 77.3813 183.723 74.1292 185.239 70.7543C183.975 74.329 182.479 77.9293 180.721 81.5245C180.51 81.1711 180.3 80.8177 180.089 80.4695Z" fill="#00126A" stroke="#00126A" stroke-width="2" stroke-miterlimit="10"/>
<path d="M4.26747 123.028L4.81743 124.231C5.72717 126.223 6.91446 128.047 8.05549 129.716C10.7333 133.583 13.9303 137.455 18.1243 141.91C22.01 146.002 26.2195 150.007 30.9995 154.155C32.968 155.973 35.0599 157.73 37.2135 159.379C37.6864 159.748 38.1798 160.117 38.555 160.393C40.2357 161.633 41.9884 162.836 43.7719 163.973C55.9994 171.778 70.2469 176.93 86.1237 179.296L86.6942 179.383L86.8381 179.327C93.5866 180.3 100.376 180.792 107.058 180.802L107.001 174.948C103.054 174.958 98.9988 174.825 94.923 174.549C92.7489 174.395 90.5645 174.185 88.4314 173.924C70.216 171.44 54.442 165.269 41.5463 155.574C41.1094 155.246 40.6931 154.924 40.2974 154.616C38.0461 152.86 35.8771 150.975 33.8418 149.024C33.3792 148.578 33.004 148.209 32.6699 147.871L30.2542 145.434L30.0897 145.915C22.781 139.047 17.2865 132.825 12.9331 126.505C12.5528 125.937 12.1416 125.312 11.7356 124.651C12.2341 124.236 12.6916 123.791 13.1079 123.32C14.547 121.701 15.4722 119.781 15.7703 117.768V117.732L15.7806 117.696C15.8577 117.015 15.575 115.766 14.0331 115.412L13.3546 115.259C13.1593 115.213 12.9691 115.161 12.7738 115.095C19.7382 110.445 25.9985 103.474 31.8321 93.8923L31.8424 93.8718C32.377 92.9705 32.8549 92.1306 33.3021 91.3112C33.5797 90.84 33.8572 90.3586 34.1399 89.8721C35.0959 88.2281 36.1547 86.3895 37.3728 84.2488L38.1952 82.8097C39.5778 80.3719 40.8679 78.0673 42.1528 75.7678L42.3687 75.3837C42.5589 75.0457 42.749 74.7026 42.9392 74.3595L43.0163 74.2212C46.2801 68.3419 50.2994 63.1078 54.9509 58.6727C55.3569 58.2835 55.727 57.9404 56.0765 57.628C60.5635 53.5565 65.7136 50.0996 71.3879 47.3597C71.8813 47.1241 72.3182 46.9192 72.7191 46.7348C84.7719 41.2191 97.1331 39.7186 105.66 39.4574L105.603 33.7932C105.49 33.7932 105.372 33.7932 105.259 33.7932L103.147 33.8137V33.911C94.7431 34.3565 83.1477 36.0158 71.6346 41.0143C68.3811 36.6509 63.6937 30.6538 58.3431 24.6874C45.2059 10.0301 34.9366 2.94724 26.9339 3.02406C25.063 3.04454 22.303 3.99711 19.7691 8.42709C15.7395 15.4894 13.699 28.892 14.5676 42.5763C15.2974 54.0174 18.2991 71.3686 28.4245 89.3241C21.8661 100.54 13.6116 108.842 5.08983 112.759L2.64844 113.881L4.33429 115.95C5.55242 117.445 6.9967 118.68 8.56433 119.581C7.15089 122.162 4.26233 123.033 4.26233 123.033L4.26747 123.028ZM48.0841 35.98C47.4417 34.6126 46.7889 33.2401 46.1413 31.9034C40.0661 19.3509 36.2061 13.5382 33.8161 10.7419C43.4223 15.894 56.0816 29.8446 66.3869 43.5391C62.2545 45.7311 58.3945 48.2866 54.8584 51.1751C53.08 47.0012 50.7054 41.5776 48.0841 35.9851V35.98ZM37.1621 58.1606C37.3009 56.9929 37.6144 56.5013 37.6915 56.3989C41.0889 53.8894 40.9141 51.6565 40.2305 48.2969C40.1123 47.7284 39.9222 46.8885 39.6857 45.9154C41.5823 47.4672 43.0626 48.5325 44.7124 48.5171C45.4217 48.512 46.1053 48.2917 46.6861 47.882C46.8249 47.7847 46.9585 47.6772 47.0819 47.5645C48.3771 50.5042 49.4924 53.1109 50.3662 55.1953C46.4548 59.021 42.9752 63.3537 39.989 68.1268C37.0233 63.113 37.0028 59.5843 37.1672 58.1657L37.1621 58.1606ZM24.0659 39.7698C23.0123 24.964 26.0139 15.6841 28.152 13.3129C28.188 13.2719 28.224 13.236 28.2548 13.2053C29.658 14.3013 33.7133 18.8542 42.6051 37.7417C42.7079 39.0733 42.7645 40.1949 42.785 41.1065C42.7336 41.0655 42.6154 40.9682 42.6154 40.9682C40.945 39.5803 38.8582 37.8544 36.6276 36.6509C35.9234 36.2719 35.2347 35.9595 34.5768 35.7239L30.8145 34.377L31.9401 38.7097C32.0429 39.0989 32.1559 39.5342 32.2742 39.9951C33.4974 44.6863 34.3455 48.1125 34.6076 49.4031C34.7618 50.1662 34.9366 51.0317 34.916 51.3185C34.8646 51.385 34.7001 51.5592 34.2119 51.9177C32.7419 52.988 31.7705 54.9802 31.4672 57.5153C31.3027 58.8981 31.2822 61.1617 32.0788 64.1167C32.9269 67.2561 34.51 70.4621 36.7869 73.6578C36.3089 74.5131 35.8257 75.3786 35.3272 76.2697C28.959 65.479 24.9911 52.6603 24.0711 39.7749L24.0659 39.7698ZM31.5032 82.9992C29.6786 79.4347 28.1109 75.8651 26.7746 72.316C28.3576 75.6654 30.1463 78.8816 32.1148 81.9288C31.9144 82.2822 31.7088 82.6356 31.5032 82.9941V82.9992Z" fill="#00126A" stroke="#00126A" stroke-width="2" stroke-miterlimit="10"/>
<path d="M198.92 115.98C198.879 115.781 205.104 112.411 205.001 112.354C195.867 106.869 188.173 100.606 180.71 88.238C180.417 87.7565 180.124 87.2649 179.826 86.7681C178.752 84.9859 177.657 83.1371 176.526 81.2217C176.249 80.7556 175.971 80.2794 175.689 79.798C174.383 77.5702 173.031 75.2502 171.654 72.8534C171.392 72.3925 171.124 71.9315 170.857 71.4655C170.831 71.4194 170.806 71.3733 170.78 71.3323C167.141 64.9972 162.891 59.7939 158.29 55.5278C157.9 55.1642 157.509 54.8108 157.119 54.4677C152.118 50.0582 146.741 46.7089 141.293 44.1789C140.836 43.9638 140.378 43.7589 139.916 43.5592C138.939 43.129 137.963 42.7296 136.986 42.3506C125.452 37.8745 113.985 36.7683 105.561 36.7529C96.4228 36.9527 83.7378 38.5044 71.3458 44.2404C70.8935 44.4503 70.4412 44.6654 69.9838 44.8856C64.587 47.5231 59.2776 50.9749 54.364 55.4817C53.9785 55.8351 53.593 56.1987 53.2127 56.5675C48.6948 60.9206 44.5521 66.211 41.0365 72.6127C41.0108 72.6588 40.9902 72.6997 40.9645 72.7458C40.7024 73.217 40.4454 73.683 40.1936 74.1491C38.8572 76.5766 37.5569 78.9171 36.2925 81.1705C36.0201 81.657 35.7477 82.1333 35.4804 82.6096C34.3908 84.5455 33.3268 86.4147 32.2937 88.2175C32.0059 88.7142 31.7232 89.211 31.4405 89.6975C24.2294 102.209 16.602 108.626 7.86433 114.705C7.77181 114.772 13.8265 117.594 13.7905 117.798C13.5284 119.299 14.2942 123.744 17.6094 130.264C19.6036 134.187 23.8028 141.249 31.1681 148.706C31.5536 149.1 31.9545 149.5 32.3657 149.894C34.3291 151.804 36.5032 153.73 38.9035 155.625C39.3198 155.953 39.7413 156.28 40.173 156.608C51.3007 165.074 67.0233 172.771 88.7697 175.547C94.5057 176.049 100.838 176.341 107.679 176.249C113.965 176.161 119.804 175.767 125.129 175.188C146.813 171.988 162.382 163.978 173.34 155.297C173.761 154.964 174.177 154.626 174.589 154.288C176.948 152.347 179.086 150.375 181.008 148.429C181.409 148.025 181.8 147.62 182.18 147.216C189.396 139.621 193.452 132.471 195.369 128.512C198.55 121.926 199.229 117.466 198.941 115.975L198.92 115.98ZM135.465 152.808C132.848 154.175 129.852 154.877 126.532 154.908C123.556 154.939 120.338 154.432 116.92 153.382C112.274 151.743 106.661 148.819 106.661 148.819C103.762 151.2 96.4948 153.586 96.4948 153.586C93.1025 154.698 89.8902 155.266 86.9142 155.297C83.6042 155.328 80.5923 154.693 77.9607 153.377C74.3629 151.512 72.8107 148.199 73.6793 144.276C74.2344 141.777 75.7198 139.528 77.5084 138.187C78.5364 137.413 79.6671 136.937 80.7773 136.891C81.1782 136.865 81.5329 137.188 81.5534 137.598C81.574 138.007 81.2553 138.356 80.8441 138.371C80.4895 138.386 80.1246 138.463 79.7648 138.596C77.7294 139.344 75.7506 141.818 75.1287 144.593C74.7072 146.483 74.6096 149.966 78.634 152.06C84.257 154.867 90.8616 153.93 96.4794 152.009C96.9831 151.84 97.4765 151.661 97.9596 151.471C100.766 150.401 103.259 149.136 105.176 148.05C105.433 147.907 105.674 147.769 105.911 147.63L105.829 139.139C103.752 139.052 101.794 138.735 100.016 138.207C98.4068 137.731 96.9419 137.08 95.6673 136.271C95.5645 136.205 95.4617 136.138 95.3589 136.071C94.4954 135.493 93.7244 134.837 93.0614 134.115C91.3036 132.195 90.4658 129.885 90.7022 127.611C90.7382 127.227 90.7999 126.868 90.8821 126.53C91.0261 125.952 91.2471 125.445 91.5246 124.994C93.9814 120.994 101.141 121.609 105.279 121.962C105.69 121.998 106.065 122.029 106.399 122.054C106.733 122.024 107.114 121.983 107.52 121.942C111.647 121.506 118.791 120.753 121.33 124.702C121.618 125.148 121.849 125.655 122.004 126.228C122.096 126.566 122.168 126.93 122.209 127.319C122.487 129.578 121.695 131.903 119.978 133.859C117.285 136.916 112.726 138.806 107.309 139.139L107.391 147.63C107.628 147.764 107.874 147.902 108.131 148.04C110.064 149.085 112.582 150.304 115.409 151.318C115.897 151.492 116.396 151.661 116.9 151.825C122.559 153.633 129.184 154.437 134.75 151.517C138.728 149.356 138.554 145.874 138.096 143.989C137.305 140.737 134.632 137.936 132.263 137.874C131.851 137.864 131.528 137.526 131.538 137.116C131.548 136.706 131.892 136.384 132.299 136.394C135.341 136.466 138.59 139.718 139.54 143.636C140.491 147.538 139.001 150.882 135.454 152.813L135.465 152.808Z" fill="#FFAD26"/>
<path d="M199.805 114.829C195.071 115.715 165.466 122.465 141.638 132.666C141.638 132.666 125.977 118.818 108.954 118.844L103.778 118.89C86.7607 119.207 71.3773 133.358 71.3773 133.358C47.3488 123.622 17.8773 117.456 13.1281 116.662C12.9893 117.461 11.6016 120.959 8.16309 123.105C8.75416 125.153 16.4741 134.684 20.2313 139.217C23.0428 142.607 24.7183 143.257 32.0836 150.714C32.4691 151.108 32.87 151.508 33.2812 151.902C35.2446 153.812 36.4884 153.71 38.8887 155.605C39.305 155.933 39.7265 156.26 40.1582 156.588C51.2859 165.054 67.0085 172.751 88.7549 175.527C94.3162 176.095 100.556 176.444 107.361 176.357C113.837 176.275 119.784 175.819 125.114 175.168C146.798 171.968 162.367 163.958 173.325 155.277C173.746 154.944 174.163 154.606 174.574 154.268C176.933 152.327 179.364 152.174 181.286 150.227C181.687 149.823 184.334 146.52 184.715 146.115C191.931 138.52 192.907 138.259 204.683 121.169C200.879 119.284 200.103 116.314 199.81 114.818L199.805 114.829ZM135.465 152.793C132.849 154.161 129.847 154.862 126.532 154.893C123.556 154.924 120.339 154.417 116.921 153.367L106.662 148.737L96.4954 153.572C93.1032 154.683 89.8908 155.251 86.9149 155.282C83.6048 155.313 80.5929 154.678 77.9614 153.362C74.3635 151.498 72.8113 148.184 73.6799 144.261C74.5537 140.323 77.7403 137.009 80.778 136.876C81.1789 136.85 81.5335 137.173 81.5541 137.583C81.5746 137.993 81.256 138.341 80.8448 138.356C78.4753 138.459 75.8592 141.316 75.1345 144.584C74.713 146.473 74.6154 149.956 78.6398 152.051C84.2627 154.857 90.8674 153.92 96.4851 151.999C96.9888 151.83 97.4823 151.651 97.9654 151.462C100.772 150.391 103.265 149.126 105.182 148.041C105.439 147.897 105.68 147.759 105.917 147.621L105.834 139.129C100.412 138.904 95.8118 137.107 93.0672 134.1C91.3094 132.18 90.4716 129.87 90.708 127.596C90.744 127.212 90.8057 126.854 90.8879 126.516C91.0318 125.937 91.2528 125.43 91.5304 124.979C93.9872 120.979 101.147 121.594 105.284 121.947C105.696 121.983 106.071 122.014 106.405 122.039C106.739 122.009 107.119 121.968 107.525 121.927C111.653 121.491 118.797 120.739 121.336 124.687C121.624 125.133 121.855 125.64 122.009 126.213C122.102 126.551 122.174 126.915 122.215 127.304C122.492 129.563 121.701 131.888 119.984 133.844C117.291 136.902 112.732 138.791 107.315 139.124L107.397 147.616C107.633 147.749 107.88 147.887 108.137 148.025C110.07 149.07 112.588 150.289 115.415 151.303C115.903 151.477 116.402 151.646 116.906 151.81C122.564 153.618 129.19 154.422 134.756 151.503C138.734 149.341 138.559 145.859 138.102 143.974C137.31 140.722 134.638 137.921 132.268 137.859C131.857 137.849 131.533 137.511 131.544 137.101C131.554 136.692 131.898 136.369 132.304 136.379C135.347 136.451 138.595 139.703 139.546 143.621C140.497 147.523 139.007 150.868 135.46 152.798L135.465 152.793Z" fill="white"/>
<path d="M183.964 9.76866C187.038 13.0822 189.782 23.7244 189.078 37.6596C188.338 52.2657 183.933 66.544 176.584 78.3949C175.299 76.2029 173.978 73.929 172.626 71.5732C178.285 63.7529 178.269 57.9606 177.966 55.7226C177.704 53.797 176.99 52.2913 176.003 51.5897C174.132 50.2632 174.229 49.6999 174.713 47.0214C175.026 45.2955 176.095 40.6761 176.856 37.4701C177.015 36.7889 177.164 36.1693 177.283 35.6571C176.702 35.8825 176.126 36.1641 175.561 36.4868C173.577 37.6186 171.69 39.2626 170.066 40.6761C168.925 41.6696 167.383 43.0216 166.823 43.1241C166.376 42.3917 166.35 39.1397 166.571 35.3959C172.035 22.9818 178.023 11.177 181.585 9.04654C181.857 8.88266 182.684 8.39101 183.964 9.76866Z" fill="white"/>
<path d="M187.541 7.94057C193.76 18.4752 197.939 52.5118 180.649 85.2526C179.605 83.5062 178.531 81.6984 177.431 79.8342C185.166 67.6403 189.792 52.86 190.558 37.7366C191.283 23.3968 188.338 12.304 185.053 8.76511C183.229 6.79851 181.615 7.3004 180.818 7.77669C177.215 9.93278 171.793 20.2728 166.931 30.9816C166.309 32.349 165.702 33.7164 165.106 35.0735C162.048 42.0437 159.354 48.7424 157.684 53.0034C152.76 48.7271 147.482 45.4494 142.146 42.9451C149.25 32.7894 170.184 4.5656 183.475 4.43756C184.755 4.42732 186.2 5.66669 187.541 7.94057Z" fill="#98ABBB"/>
<path d="M176.491 55.9176C176.763 57.9302 176.768 63.0618 171.808 70.1652C168.03 63.6867 163.626 58.3809 158.866 54.0431C160.603 49.5773 162.706 44.3791 164.952 39.1297C164.926 43.0476 165.43 44.0053 166 44.3894C166.237 44.5481 166.483 44.6198 166.756 44.6198C167.82 44.6096 169.182 43.4266 171.047 41.798C172.271 40.7276 173.648 39.5292 175.077 38.5459C174.363 41.5829 173.53 45.2344 173.252 46.7657C172.718 49.7258 172.6 51.001 175.139 52.7986C175.637 53.152 176.249 54.1558 176.491 55.9227V55.9176Z" fill="white"/>
<path d="M105.151 123.443C105.352 123.458 105.542 123.474 105.727 123.489V123.597C105.943 123.586 106.169 123.566 106.416 123.545C106.662 123.561 106.894 123.576 107.099 123.581V123.474C107.284 123.453 107.48 123.438 107.675 123.412C112.141 122.941 116.849 122.675 119.219 124.585C119.728 124.995 120.129 125.502 120.391 126.132C120.565 126.531 120.684 126.982 120.735 127.484C120.966 129.353 120.319 131.217 118.859 132.876C116.443 135.627 112.28 137.332 107.295 137.65C107.048 137.665 106.801 137.675 106.554 137.685C106.303 137.685 106.056 137.675 105.809 137.665C100.818 137.445 96.6243 135.821 94.1521 133.117C92.6616 131.489 91.978 129.64 92.1733 127.755C92.2195 127.253 92.3223 126.808 92.4868 126.403C92.7335 125.768 93.1241 125.251 93.6227 124.836C95.951 122.88 100.669 123.054 105.141 123.438L105.151 123.443Z" fill="#00126A"/>
<path d="M52.5916 55.0879C48.3308 59.1287 44.3834 63.9632 40.9552 69.7452C40.6211 70.3086 40.2973 70.8771 39.9735 71.4558C39.8655 71.3021 39.7576 71.1536 39.6497 71.0051C39.5212 70.8258 39.3978 70.6517 39.2796 70.4725C34.8645 63.9786 34.7874 59.2311 35.0084 57.3106C35.214 55.5386 35.8102 54.5246 36.2985 54.1609C38.7965 52.3121 38.6577 51.0369 38.0615 48.0921C37.7531 46.566 36.8485 42.9349 36.0775 39.9082C37.5218 40.8659 38.925 42.0387 40.1688 43.0783C42.0654 44.6659 43.448 45.8285 44.5119 45.8183C44.7843 45.8183 45.031 45.7414 45.2623 45.5724C45.8225 45.1781 46.3108 44.2101 46.2029 40.2974C48.5569 45.5007 50.7619 50.6579 52.5865 55.0879H52.5916Z" fill="white"/>
<path d="M44.4243 44.3276C43.8589 44.2354 42.2913 42.9192 41.1297 41.9462C39.4798 40.5634 37.5627 38.9553 35.5581 37.8644C34.9876 37.552 34.4017 37.2806 33.8157 37.0655C33.9494 37.5776 34.1087 38.1922 34.2783 38.8682C35.0956 42.0588 36.2623 46.6578 36.6066 48.3786C37.1412 51.0468 37.2543 51.605 35.4091 52.9673C34.4377 53.6843 33.7541 55.2054 33.5279 57.1361C33.2658 59.3793 33.3634 65.1766 39.1765 72.8792C37.871 75.2606 36.5912 77.5601 35.3525 79.7776C33.5433 76.9814 31.8935 74.0417 30.4286 70.9945C25.7411 61.2742 22.8423 50.4015 22.0559 39.2984C21.6859 34.0132 21.8195 29.1991 22.2923 25.0662C23.0633 18.3162 24.7492 13.4048 26.6149 11.3102C27.8639 9.90693 28.7068 10.3832 28.9844 10.542C32.5925 12.6008 38.8116 24.2877 44.5168 36.5943C44.8149 40.3278 44.8509 43.5799 44.4191 44.3225L44.4243 44.3276Z" fill="white"/>
<path d="M20.5808 39.4066C21.6447 54.5146 26.5686 69.2026 34.5404 81.2378C33.4816 83.1276 32.4434 84.9508 31.4309 86.7177C13.493 54.3251 16.9983 20.2117 23.0016 9.55418C24.2968 7.25469 25.7154 5.97947 26.9952 5.96923C40.2867 5.83607 61.771 33.6399 69.0798 43.6573C63.7909 46.2641 58.5843 49.6442 53.7427 54.0178C51.9849 49.7876 49.158 43.1452 45.9662 36.2365C45.3443 34.8947 44.7069 33.5375 44.0593 32.1855C38.9812 21.574 33.3583 11.3364 29.7142 9.25714C28.9072 8.79622 27.2882 8.32505 25.4995 10.3275C22.282 13.9329 19.558 25.077 20.5705 39.4015L20.5808 39.4066Z" fill="#98ABBB"/>
<path d="M82.5666 86.7896C78.3366 84.4184 76.7946 79.4712 77.1801 78.2728C77.5708 77.0744 82.4535 75.5328 87.7886 78.9642C93.1237 82.4006 92.2654 86.892 91.4739 87.399C90.6772 87.906 85.8869 88.6486 82.5666 86.7896Z" fill="white"/>
<path d="M128.275 86.3385C132.459 83.8854 133.903 78.9074 133.492 77.7192C133.081 76.526 128.167 75.0817 122.899 78.6206C117.635 82.1595 118.576 86.6355 119.383 87.1221C120.19 87.6137 124.996 88.2641 128.275 86.3385Z" fill="white"/>
<path d="M95.6633 136.282L95.1904 136.072L95.3549 136.083C95.4577 136.154 95.5605 136.221 95.6633 136.282Z" fill="#D1D1D1"/>
<path d="M105.824 139.15L105.906 147.641C105.67 147.779 105.428 147.917 105.171 148.061C103.259 149.141 100.766 150.411 97.9548 151.482C97.4716 151.671 96.9782 151.845 96.4745 152.02C90.8567 153.94 84.2521 154.877 78.6292 152.071C74.5996 149.981 74.7024 146.499 75.1238 144.604C75.7406 141.828 77.7246 139.349 79.7599 138.607C78.4853 141.188 74.5379 150.647 84.9768 151.149C97.0759 151.728 104.189 145.172 104.189 145.172L104.138 140.061L100.006 138.223C101.784 138.755 103.742 139.073 105.819 139.155L105.824 139.15Z" fill="#D1D1D1"/>
<path d="M107.376 139.134L107.459 147.625C107.695 147.758 107.942 147.897 108.199 148.035C110.131 149.08 112.65 150.299 115.477 151.313C115.965 151.492 116.458 151.656 116.967 151.82C122.621 153.628 129.246 154.437 134.808 151.518C138.791 149.346 138.621 145.869 138.164 143.984C137.49 141.218 135.46 138.781 133.41 138.079C134.736 140.635 138.868 150.012 128.444 150.719C116.361 151.538 109.114 145.121 109.114 145.121L109.062 140.01L113.159 138.089C111.391 138.653 109.443 139.011 107.366 139.139L107.376 139.134Z" fill="#D1D1D1"/>
<path d="M48.6803 114.972C41.3972 113.369 37.7069 115.709 37.6914 117.871C37.6709 120.032 47.7706 122.823 51.9081 123.888C56.0456 124.953 57.3974 123.448 58.4253 121.466C59.4584 119.489 51.795 115.658 48.6803 114.972Z" fill="#FFCFBD"/>
<path d="M165.127 113.825C172.379 112.078 176.111 114.347 176.172 116.503C176.234 118.664 166.196 121.65 162.079 122.797C157.962 123.944 156.585 122.464 155.516 120.508C154.446 118.552 162.028 114.572 165.127 113.825Z" fill="#FFCFBD"/>
<path d="M101.008 122.188C101.008 122.188 93.1032 121.916 92.4967 124.564C91.8902 127.212 96.6548 129.88 101.46 129.46C106.271 129.04 106.097 123.944 104.478 123.304C102.864 122.664 101.003 122.188 101.003 122.188H101.008Z" fill="white"/>
<path d="M44.4239 44.3276C43.8585 44.2354 42.2909 42.9192 41.1293 41.9462C39.4794 40.5634 37.5623 38.9553 35.5578 37.8644C34.9873 37.552 34.4013 37.2806 33.8154 37.0655C33.949 37.5776 34.1084 38.1922 34.278 38.8682C35.0952 42.0588 36.2619 46.6578 36.6063 48.3786C37.1408 51.0468 37.2539 51.605 35.4087 52.9673C34.4373 53.6843 33.7537 55.2054 33.5276 57.1361C33.2654 59.3793 33.3631 65.1766 39.1762 72.8792C37.8707 75.2606 36.5909 77.5601 35.3522 79.7776C33.543 76.9814 31.8931 74.0417 30.4283 70.9945C31.3894 67.0972 30.2432 63.3022 29.8835 59.7326C29.426 55.1746 32.6744 49.9611 32.5561 47.1238C32.4379 44.2866 32.1707 36.3946 30.3974 32.3231C29.4671 30.1875 25.6791 27.3144 22.292 25.0662C23.063 18.3162 24.7488 13.4048 26.6146 11.3102C27.8635 9.90693 28.7064 10.3832 28.984 10.542C32.5921 12.6008 38.8113 24.2877 44.5164 36.5943C44.8145 40.3278 44.8505 43.5799 44.4188 44.3225L44.4239 44.3276Z" fill="#D1D1D1"/>
<path d="M166.824 43.1241C167.384 43.0216 168.931 41.6747 170.072 40.6761C171.696 39.2626 173.577 37.6186 175.561 36.4868C176.127 36.1641 176.702 35.8773 177.288 35.6571C177.165 36.1693 177.021 36.7889 176.862 37.4701C176.106 40.6761 175.032 45.2955 174.718 47.0265C174.235 49.705 174.132 50.2632 176.003 51.5948C176.99 52.2913 177.704 53.797 177.967 55.7277C178.27 57.9658 178.29 63.7631 172.631 71.5783C173.983 73.9342 175.309 76.208 176.589 78.4C178.342 75.5679 179.935 72.5975 181.338 69.5196C180.3 65.6427 181.369 61.8222 181.662 58.2474C182.027 53.6792 178.676 48.5322 178.743 45.695C178.804 42.8578 178.912 34.9606 180.608 30.8533C181.498 28.6972 185.224 25.7524 188.57 23.4376C187.665 16.703 185.887 11.8274 183.975 9.76866C182.695 8.39101 181.868 8.88266 181.595 9.04654C178.033 11.177 172.046 22.9818 166.582 35.4011C166.361 39.1397 166.387 42.3917 166.834 43.1241H166.824Z" fill="#D1D1D1"/>
<path d="M52.591 55.0882C48.3301 59.1289 44.3828 63.9635 40.9545 69.7455L39.649 71.0002L39.171 71.4611C39.171 71.4611 39.2019 71.0873 39.279 70.4676C39.5103 68.6137 40.1322 64.5627 41.4685 61.8381C43.2469 58.2019 45.5033 52.3431 44.244 49.7363C43.1133 47.3907 37.3824 41.2758 36.2671 40.0979C36.1643 39.9853 36.0975 39.9187 36.082 39.9033C37.5263 40.8559 38.9295 42.0287 40.1733 43.0734C42.0699 44.6611 43.4525 45.8236 44.5164 45.8134C44.7888 45.8134 45.0355 45.7365 45.2668 45.5675C45.8271 45.1732 46.3153 44.2053 46.2074 40.2925C48.5614 45.4958 50.7664 50.6531 52.591 55.083V55.0882Z" fill="#D1D1D1"/>
<path d="M158.867 54.0382C163.205 57.9919 167.25 62.7497 170.797 68.4651L172.128 69.6942L172.616 70.1449C172.616 70.1449 172.58 69.7711 172.488 69.1565C172.22 67.3077 171.516 63.2721 170.128 60.5731C168.278 56.9728 165.909 51.16 167.111 48.5328C168.196 46.1616 173.803 39.9391 174.898 38.7407C175.001 38.6281 175.063 38.5564 175.078 38.541C173.649 39.5243 172.277 40.7227 171.048 41.7931C169.183 43.4217 167.826 44.6047 166.757 44.6149C166.484 44.6149 166.238 44.5484 166.001 44.3845C165.431 44.0004 164.927 43.0427 164.958 39.1249C162.712 44.3742 160.604 49.5724 158.867 54.0382Z" fill="#D1D1D1"/>
<path d="M105.552 36.748C113.976 36.7685 125.443 37.8696 136.976 42.3457C105.917 34.4639 80.6545 44.1433 80.6545 44.1433C83.7846 43.7438 86.4368 44.6196 86.4676 47.4158C86.4933 50.2121 66.1141 59.1335 63.4568 57.51C60.7995 55.8917 63.4003 51.9995 63.4003 51.9995C52.1595 58.227 40.3637 73.9035 40.1787 74.1493C40.4306 73.6833 40.6875 73.2172 40.9497 72.7461C40.9754 72.7 40.9959 72.659 41.0216 72.6129C44.5372 66.2061 48.6799 60.9209 53.1978 56.5677C53.5781 56.199 53.9636 55.8354 54.3491 55.482C59.2576 50.9752 64.5721 47.5183 69.9689 44.8859C70.4212 44.6657 70.8735 44.4454 71.3309 44.2406C83.723 38.5047 96.4131 36.9529 105.546 36.7532L105.552 36.748Z" fill="white"/>
<path d="M188.821 7.18772C192.748 13.8455 194.917 26.7616 194.347 40.0822C193.848 51.5848 191.196 68.8182 181.538 86.7378C181.245 86.2461 180.947 85.7494 180.649 85.2526C197.939 52.5118 193.761 18.4752 187.542 7.94056C186.2 5.66668 184.756 4.42219 183.476 4.43755C170.185 4.57071 149.25 32.7894 142.147 42.9451C141.69 42.73 141.232 42.52 140.77 42.3151C143.55 38.3256 148.572 31.381 154.436 24.4928C166.535 10.2708 176.301 3.02406 183.461 2.95236C185.321 2.93187 187.177 4.39658 188.821 7.18772Z" fill="#00126A"/>
<path d="M185.059 8.76028C188.343 12.2991 191.288 23.3869 190.564 37.7318C189.798 52.8552 185.167 67.6406 177.437 79.8294C177.159 79.3531 176.876 78.8717 176.588 78.3903C183.938 66.5395 188.343 52.2611 189.083 37.655C189.787 23.7198 187.043 13.0776 183.969 9.76407C182.689 8.38642 181.862 8.87807 181.589 9.04196C178.028 11.1724 172.04 22.9772 166.576 35.3913C166.664 33.9522 166.787 32.4414 166.936 30.9767C171.798 20.268 177.221 9.92795 180.824 7.77186C181.62 7.29557 183.234 6.78856 185.059 8.76028Z" fill="#00126A"/>
<path d="M182.16 147.227C182.361 147.78 182.51 148.338 182.612 148.901C182.181 149.347 181.739 149.792 181.281 150.238C181.25 149.639 181.148 149.04 180.988 148.44C181.389 148.036 181.78 147.631 182.16 147.227Z" fill="#00126A"/>
<path d="M180.989 148.439C181.148 149.034 181.246 149.633 181.282 150.237C179.396 152.091 177.324 153.95 175.052 155.783C174.898 155.266 174.734 154.769 174.569 154.298C176.928 152.357 179.067 150.386 180.989 148.439Z" fill="#00126A"/>
<path d="M179.827 86.7688C180.105 86.2618 180.377 85.7548 180.645 85.2529C180.943 85.7548 181.241 86.2465 181.534 86.7381C181.261 87.2349 180.989 87.7368 180.706 88.2387C180.413 87.7573 180.12 87.2656 179.822 86.7688H179.827Z" fill="#00126A"/>
<path d="M180.649 85.2526C180.382 85.7596 180.109 86.2666 179.832 86.7685C178.758 84.9863 177.663 83.1375 176.532 81.2221C176.84 80.7612 177.138 80.3003 177.437 79.8291C178.537 81.6984 179.606 83.5011 180.654 85.2475L180.649 85.2526Z" fill="#00126A"/>
<path d="M177.966 55.7174C178.269 57.9554 178.285 63.7477 172.626 71.568C172.441 71.2453 172.251 70.9227 172.066 70.6C171.978 70.4515 171.896 70.3081 171.809 70.1596C176.768 63.0614 176.763 57.9247 176.491 55.912C176.249 54.1451 175.638 53.1413 175.139 52.7879C172.6 50.9852 172.718 49.7151 173.253 46.755C173.53 45.2237 174.363 41.5773 175.077 38.5352C175.663 38.1306 176.26 37.767 176.856 37.4648C176.1 40.6708 175.026 45.2903 174.713 47.0162C174.229 49.6946 174.127 50.2529 176.003 51.5844C176.989 52.2809 177.699 53.7866 177.966 55.7174Z" fill="#00126A"/>
<path d="M177.282 35.6523C177.159 36.1645 177.015 36.7842 176.856 37.4653C176.259 37.7675 175.663 38.1311 175.077 38.5357C175.247 37.8033 175.411 37.1017 175.56 36.482C176.126 36.1594 176.701 35.8726 177.282 35.6523Z" fill="#00126A"/>
<path d="M176.584 78.3955C176.866 78.8769 177.149 79.3583 177.432 79.8346C177.139 80.3058 176.836 80.7667 176.527 81.2276C176.25 80.7616 175.972 80.2853 175.689 79.8039C175.993 79.3378 176.291 78.8718 176.584 78.3955Z" fill="#00126A"/>
<path d="M176.584 78.3949C176.291 78.8712 175.993 79.3372 175.689 79.8033C174.384 77.5755 173.032 75.2555 171.655 72.8587C171.994 72.4234 172.318 71.9932 172.626 71.5732C173.978 73.9291 175.304 76.203 176.584 78.3949Z" fill="#00126A"/>
<path d="M175.561 36.4817C175.412 37.1065 175.247 37.803 175.077 38.5354C173.649 39.5187 172.271 40.7171 171.048 41.7874C169.182 43.416 167.82 44.5991 166.756 44.6093C166.484 44.6093 166.237 44.5427 166.001 44.3789C165.43 43.9948 164.926 43.0371 164.952 39.1192C165.487 37.8747 166.026 36.6251 166.576 35.3857C166.35 39.1295 166.376 42.3815 166.828 43.1139C167.388 43.0114 168.93 41.6645 170.071 40.6659C171.696 39.2472 173.582 37.6084 175.566 36.4766L175.561 36.4817Z" fill="#00126A"/>
<path d="M174.564 154.299C174.733 154.77 174.893 155.262 175.047 155.784C174.63 156.127 174.204 156.465 173.767 156.803C173.623 156.286 173.469 155.784 173.31 155.313C173.731 154.98 174.147 154.642 174.559 154.304L174.564 154.299Z" fill="#00126A"/>
<path d="M125.109 175.194C146.793 171.993 162.362 163.983 173.32 155.303C173.479 155.774 173.633 156.276 173.777 156.793C172.215 158.007 170.565 159.21 168.812 160.388C157.094 168.29 143.458 173.581 128.095 176.208C127.118 175.839 126.126 175.501 125.114 175.189L125.109 175.194Z" fill="#00126A"/>
<path d="M172.066 70.6008C172.251 70.9235 172.441 71.2461 172.626 71.5688C172.323 71.9887 171.994 72.4189 171.655 72.8542C171.393 72.3933 171.126 71.9324 170.858 71.4663C171.192 71.0208 171.511 70.5855 171.809 70.1553C171.897 70.2987 171.979 70.4472 172.066 70.5957V70.6008Z" fill="#00126A"/>
<path d="M171.809 70.1599C171.511 70.5901 171.192 71.0254 170.858 71.471C170.832 71.4249 170.806 71.3788 170.781 71.3378C167.142 65.0027 162.891 59.7994 158.291 55.5333C158.476 55.0468 158.671 54.55 158.867 54.043C163.626 58.3808 168.031 63.6814 171.809 70.165V70.1599Z" fill="#00126A"/>
<path d="M166.936 30.9768C166.787 32.4415 166.659 33.9574 166.576 35.3914C166.032 36.6308 165.487 37.8804 164.952 39.1249C164.952 38.3669 164.983 37.4963 165.029 36.4976C165.05 36.0162 165.081 35.5348 165.111 35.0636C165.708 33.7065 166.319 32.3391 166.936 30.9717V30.9768Z" fill="#00126A"/>
<path d="M165.029 36.5021C164.983 37.5008 164.957 38.3714 164.952 39.1294C162.706 44.3788 160.599 49.5769 158.866 54.0428C158.476 53.6894 158.085 53.3411 157.689 53.0031C159.36 48.7422 162.053 42.0383 165.111 35.0732C165.086 35.5444 165.055 36.0258 165.029 36.5072V36.5021Z" fill="#00126A"/>
<path d="M158.867 54.0426C158.666 54.5496 158.476 55.0464 158.291 55.5329C157.9 55.1693 157.51 54.8159 157.119 54.4728C157.294 54.0221 157.484 53.5304 157.695 53.0029C158.091 53.3409 158.481 53.6892 158.872 54.0426H158.867Z" fill="#00126A"/>
<path d="M157.114 54.4735C152.113 50.064 146.737 46.7146 141.289 44.1847C141.546 43.8108 141.834 43.396 142.153 42.9453C147.493 45.4497 152.766 48.7273 157.69 53.0037C157.485 53.5312 157.289 54.0228 157.114 54.4735Z" fill="#00126A"/>
<path d="M142.147 42.9402C141.834 43.3909 141.546 43.8057 141.284 44.1796C140.826 43.9645 140.369 43.7597 139.906 43.5599C140.163 43.1861 140.451 42.7712 140.77 42.3154C141.232 42.5203 141.69 42.7303 142.147 42.9454V42.9402Z" fill="#00126A"/>
<path d="M106.698 35.2786C115.96 35.4015 128.475 36.8559 140.775 42.3153C140.461 42.7711 140.173 43.1859 139.911 43.5598C127.406 38.0697 114.69 36.7689 105.552 36.7484C105.948 36.7381 106.333 36.733 106.708 36.7279L106.693 35.2734L106.698 35.2786Z" fill="#00126A"/>
<path d="M139.551 143.631C140.502 147.533 139.012 150.878 135.465 152.808C132.849 154.176 129.853 154.878 126.532 154.908C123.556 154.939 120.339 154.432 116.921 153.382L116.906 151.81C122.564 153.618 129.19 154.422 134.756 151.503C138.734 149.341 138.559 145.859 138.102 143.974C137.31 140.722 134.638 137.921 132.268 137.859C131.857 137.849 131.533 137.511 131.544 137.101C131.554 136.692 131.898 136.369 132.304 136.379C135.347 136.451 138.595 139.703 139.546 143.621L139.551 143.631Z" fill="#00126A"/>
<path d="M122.21 127.32C122.487 129.578 121.696 131.903 119.979 133.859C117.286 136.917 112.727 138.807 107.309 139.14L107.294 137.66C112.28 137.337 116.443 135.637 118.858 132.886C120.313 131.227 120.961 129.363 120.734 127.494C120.678 126.992 120.56 126.541 120.39 126.142C120.93 126.167 121.469 126.198 122.004 126.239C122.097 126.577 122.168 126.941 122.21 127.33V127.32Z" fill="#00126A"/>
<path d="M121.331 124.708C121.619 125.153 121.85 125.66 122.005 126.234C121.47 126.198 120.93 126.167 120.391 126.136C120.128 125.512 119.728 125 119.219 124.59C119.923 124.626 120.627 124.662 121.331 124.703V124.708Z" fill="#00126A"/>
<path d="M107.52 121.947C111.647 121.512 118.792 120.759 121.331 124.708C120.632 124.667 119.928 124.626 119.218 124.595C116.849 122.685 112.141 122.951 107.674 123.422C107.474 123.443 107.284 123.463 107.099 123.484L107.15 122.111C106.929 122.101 106.672 122.086 106.395 122.065C106.729 122.034 107.109 121.994 107.515 121.953L107.52 121.947Z" fill="#00126A"/>
<path d="M116.906 151.815L116.921 153.387C116.428 153.238 115.934 153.074 115.43 152.905L115.415 151.308C115.903 151.482 116.402 151.651 116.906 151.815Z" fill="#00126A"/>
<path d="M115.415 151.308L115.43 152.906C115.039 152.773 114.649 152.629 114.253 152.481C111.591 151.482 109.242 150.335 107.407 149.341L107.396 148.486C107.659 148.327 107.905 148.174 108.131 148.03C110.064 149.075 112.583 150.294 115.409 151.308H115.415Z" fill="#00126A"/>
<path d="M106.697 35.2532V35.2788C106.307 35.2737 105.921 35.2737 105.541 35.2685C105.937 35.2583 106.322 35.2532 106.697 35.248V35.2532Z" fill="#00126A"/>
<path d="M106.698 35.2788L106.713 36.7333C106.333 36.7333 105.947 36.7435 105.557 36.7537C105.161 36.7537 104.775 36.7537 104.4 36.7537L104.385 35.2993C104.775 35.2839 105.161 35.2788 105.541 35.2686C105.922 35.2686 106.307 35.2686 106.698 35.2788Z" fill="#00126A"/>
<path d="M107.397 147.626C107.633 147.759 107.88 147.897 108.137 148.036C107.911 148.174 107.669 148.328 107.402 148.491L107.392 147.631L107.397 147.626Z" fill="#00126A"/>
<path d="M106.4 122.06C106.678 122.08 106.935 122.096 107.156 122.106L107.104 123.478C106.863 123.504 106.631 123.525 106.415 123.545C106.2 123.53 105.968 123.509 105.727 123.489L105.645 122.116C105.866 122.101 106.117 122.08 106.4 122.055V122.06Z" fill="#00126A"/>
<path d="M107.402 148.486L107.412 149.342C107.155 149.203 106.903 149.065 106.667 148.932C106.929 148.778 107.176 148.63 107.407 148.491L107.402 148.486Z" fill="#00126A"/>
<path d="M107.386 146.745L107.397 147.626C107.135 147.477 106.883 147.334 106.651 147.201C106.919 147.042 107.165 146.889 107.391 146.745H107.386Z" fill="#00126A"/>
<path d="M107.38 145.126L105.894 145.141L105.909 146.621L107.394 146.606L107.38 145.126Z" fill="#00126A"/>
<path d="M106.646 147.2C106.883 147.333 107.13 147.477 107.392 147.625L107.402 148.486C107.171 148.624 106.924 148.772 106.662 148.926C106.4 148.778 106.153 148.634 105.917 148.501L105.906 147.641C106.168 147.492 106.415 147.344 106.646 147.2Z" fill="#00126A"/>
<path d="M107.289 139.14V139.176C107.047 139.176 106.811 139.176 106.569 139.176C106.811 139.17 107.047 139.155 107.289 139.14Z" fill="#00126A"/>
<path d="M107.273 137.695C107.032 137.695 106.795 137.695 106.554 137.695C106.8 137.685 107.047 137.675 107.294 137.659L107.309 139.139C107.309 139.139 107.294 139.139 107.289 139.139L107.273 137.695Z" fill="#00126A"/>
<path d="M106.554 137.695C106.79 137.695 107.032 137.7 107.273 137.695L107.289 139.14C107.052 139.155 106.811 139.165 106.569 139.175C106.327 139.175 106.086 139.165 105.849 139.155L105.834 137.711C106.076 137.711 106.317 137.706 106.554 137.695Z" fill="#00126A"/>
<path d="M107.099 123.479V123.586C106.888 123.576 106.657 123.566 106.41 123.55C106.626 123.53 106.857 123.504 107.099 123.484V123.479Z" fill="#00126A"/>
<path d="M105.85 139.155C106.086 139.166 106.328 139.171 106.569 139.176C106.333 139.186 106.091 139.191 105.85 139.191V139.155Z" fill="#00126A"/>
<path d="M105.536 35.2686C105.156 35.2788 104.771 35.2839 104.38 35.2993V35.2737C104.76 35.2737 105.146 35.2737 105.536 35.2737V35.2686Z" fill="#00126A"/>
<path d="M105.727 123.494C105.968 123.515 106.199 123.53 106.415 123.55C106.169 123.571 105.942 123.591 105.732 123.602V123.494H105.727Z" fill="#00126A"/>
<path d="M106.646 147.2C106.415 147.338 106.168 147.487 105.906 147.641L105.896 146.76C106.122 146.898 106.374 147.041 106.641 147.2H106.646Z" fill="#00126A"/>
<path d="M106.4 122.06C106.122 122.086 105.87 122.106 105.644 122.121L105.726 123.494C105.541 123.479 105.351 123.463 105.151 123.448C100.674 123.064 95.9608 122.89 93.6325 124.846C92.9283 124.897 92.2242 124.948 91.5251 125.005C93.982 121.005 101.142 121.619 105.279 121.973C105.69 122.009 106.066 122.039 106.4 122.065V122.06Z" fill="#00126A"/>
<path d="M105.926 149.356L105.916 148.501C106.152 148.639 106.399 148.778 106.661 148.926C106.425 149.064 106.178 149.208 105.921 149.351L105.926 149.356Z" fill="#00126A"/>
<path d="M106.647 147.2C106.379 147.042 106.128 146.893 105.901 146.76V146.627L107.387 146.611V146.744C107.161 146.888 106.914 147.042 106.652 147.2H106.647Z" fill="#00126A"/>
<path d="M105.552 36.7482C96.4132 36.9479 83.7282 38.4997 71.3362 44.2356C71.0689 43.8669 70.776 43.4572 70.4521 43.0065C82.6437 37.3064 95.1231 35.6061 104.385 35.2988L104.4 36.7533C104.781 36.7533 105.166 36.7533 105.557 36.7533L105.552 36.7482Z" fill="#00126A"/>
<path d="M105.834 137.711L105.85 139.155C105.85 139.155 105.834 139.155 105.824 139.155L105.809 137.675C106.055 137.685 106.302 137.695 106.554 137.695C106.317 137.706 106.076 137.711 105.834 137.711Z" fill="#00126A"/>
<path d="M105.85 139.155V139.191C106.091 139.191 106.333 139.186 106.569 139.176C106.806 139.176 107.047 139.181 107.289 139.176V139.14C107.289 139.14 107.304 139.14 107.309 139.14L107.371 145.137L105.886 145.152L105.824 139.155C105.824 139.155 105.839 139.155 105.85 139.155Z" fill="#00126A"/>
<path d="M105.911 147.641L105.922 148.501C105.655 148.347 105.408 148.199 105.182 148.061C105.439 147.917 105.68 147.779 105.917 147.641H105.911Z" fill="#00126A"/>
<path d="M105.825 139.15C100.402 138.925 95.8022 137.127 93.0576 134.121C91.2998 132.2 90.462 129.891 90.6984 127.617C90.7344 127.233 90.7961 126.874 90.8783 126.536C91.4128 126.49 91.9474 126.449 92.4871 126.408C92.3226 126.808 92.2146 127.258 92.1735 127.76C91.9782 129.645 92.6618 131.494 94.1524 133.122C96.6246 135.826 100.819 137.445 105.809 137.67L105.825 139.15Z" fill="#00126A"/>
<path d="M105.177 148.061C105.408 148.199 105.655 148.342 105.917 148.501L105.927 149.356C104.113 150.386 101.785 151.579 99.148 152.629C98.7573 152.788 98.3667 152.936 97.9812 153.079L97.9658 151.482C100.772 150.411 103.265 149.146 105.182 148.061H105.177Z" fill="#00126A"/>
<path d="M97.9607 151.482L97.9761 153.08C97.4776 153.265 96.9842 153.434 96.4959 153.598L96.4805 152.02C96.9842 151.851 97.4776 151.672 97.9607 151.482Z" fill="#00126A"/>
<path d="M96.4804 152.014L96.4958 153.592C93.1036 154.703 89.8912 155.271 86.9152 155.302C83.6052 155.333 80.5933 154.698 77.9617 153.382C74.3639 151.517 72.8117 148.204 73.6803 144.281C74.5541 140.343 77.7407 137.029 80.7783 136.896C81.1792 136.87 81.5339 137.193 81.5544 137.603C81.575 138.012 81.2563 138.361 80.8452 138.376C78.4757 138.478 75.8596 141.336 75.1349 144.604C74.7134 146.493 74.6157 149.976 78.6402 152.071C84.2631 154.877 90.8677 153.94 96.4855 152.019L96.4804 152.014Z" fill="#00126A"/>
<path d="M93.6275 124.841C93.1289 125.256 92.7383 125.773 92.4916 126.408C91.9519 126.444 91.4174 126.49 90.8828 126.536C91.0267 125.957 91.2477 125.45 91.5253 125C92.2243 124.943 92.9284 124.892 93.6326 124.841H93.6275Z" fill="#00126A"/>
<path d="M40.1532 156.619C51.2808 165.085 67.0034 172.782 88.7498 175.558C87.7476 175.886 86.7556 176.244 85.7842 176.633C70.37 174.308 56.6313 169.284 44.7584 161.618C42.9852 160.47 41.3096 159.303 39.7266 158.12C39.8602 157.597 40.0041 157.095 40.1532 156.619Z" fill="#00126A"/>
<path d="M70.447 43.0061C70.7708 43.4568 71.0689 43.8665 71.331 44.2352C70.8787 44.4452 70.4264 44.6603 69.969 44.8805C69.7017 44.5118 69.4036 44.1021 69.085 43.6565C69.5373 43.4312 69.9896 43.211 70.447 43.001V43.0061Z" fill="#00126A"/>
<path d="M56.4361 25.4552C62.4342 32.2256 67.5894 39.0729 70.4471 43.0061C69.9948 43.2161 69.5426 43.4363 69.0851 43.6616C61.7763 33.6442 40.292 5.8455 27.0006 5.97354C25.7156 5.98378 24.297 7.259 23.0069 9.55849C16.9985 20.216 13.4983 54.3294 31.4362 86.722C31.1484 87.2239 30.8605 87.7258 30.5778 88.2226C20.5655 70.4975 17.569 53.3205 16.8443 41.8333C16.0066 28.528 17.9134 15.571 21.7169 8.83638C23.305 6.01451 25.1297 4.51395 26.9903 4.49859C34.1449 4.42689 44.0544 11.479 56.4361 25.4603V25.4552Z" fill="#00126A"/>
<path d="M53.7529 54.0226C58.5946 49.649 63.8012 46.2689 69.09 43.6621C69.4139 44.1077 69.7068 44.5123 69.9741 44.8861C64.5773 47.5236 59.2679 50.9754 54.3543 55.4822C54.1693 55.0366 53.9637 54.5501 53.7529 54.0226Z" fill="#00126A"/>
<path d="M53.7529 54.0225C53.9688 54.55 54.1692 55.0365 54.3542 55.482C53.9688 55.8354 53.5833 56.199 53.2029 56.5678C53.0025 56.0864 52.802 55.5947 52.5964 55.0877C52.9768 54.7241 53.3623 54.3656 53.7529 54.0225Z" fill="#00126A"/>
<path d="M41.0273 72.6132C41.0016 72.6593 40.981 72.7002 40.9553 72.7463C40.6058 72.311 40.282 71.8808 39.9736 71.4557C43.6229 64.9055 47.9249 59.5179 52.5969 55.0879C52.8025 55.5898 53.0081 56.0866 53.2034 56.568C48.6856 60.9211 44.5429 66.2115 41.0273 72.6132Z" fill="#00126A"/>
<path d="M45.9717 36.2412C49.1686 43.1448 51.9904 49.7923 53.7482 54.0226C53.3576 54.3708 52.9721 54.7242 52.5917 55.0878C50.7671 50.6578 48.557 45.5006 46.2081 40.2973C46.1927 39.5394 46.1464 38.6739 46.0796 37.6752C46.0488 37.1938 46.0077 36.7124 45.9717 36.2463V36.2412Z" fill="#00126A"/>
<path d="M46.2078 40.2972C46.3157 44.2099 45.8274 45.1779 45.2672 45.5722C45.0359 45.7361 44.7892 45.8129 44.5168 45.8181C43.4477 45.8283 42.0651 44.6709 40.1736 43.0781C38.9298 42.0334 37.5267 40.8606 36.0772 39.908C35.8922 39.1757 35.7123 38.4843 35.553 37.8646C37.5575 38.9554 39.4746 40.5635 41.1245 41.9463C42.2861 42.9194 43.8537 44.2356 44.4191 44.3277C44.8509 43.5851 44.8149 40.3331 44.5168 36.5996C45.0873 37.8287 45.6527 39.063 46.2078 40.2972Z" fill="#00126A"/>
<path d="M46.0792 37.6754C46.1461 38.6741 46.1872 39.5396 46.2077 40.2975C45.6526 39.0633 45.0873 37.829 44.5168 36.5999C44.3985 35.1659 44.2495 33.6551 44.0645 32.1904C44.7069 33.5425 45.3443 34.8945 45.9713 36.2414C46.0073 36.7075 46.0484 37.1889 46.0792 37.6703V37.6754Z" fill="#00126A"/>
<path d="M29.7243 9.26224C33.3684 11.3466 38.9913 21.5791 44.0694 32.1906C44.2493 33.6553 44.4035 35.161 44.5217 36.6001C38.8114 24.2934 32.5923 12.6065 28.9893 10.5477C28.7117 10.3889 27.874 9.91265 26.6199 11.3159C23.6131 14.6909 21.0792 25.3843 22.066 39.3041C23.094 53.8898 27.7814 68.0811 35.3626 79.7834C35.0902 80.2699 34.8127 80.7564 34.5454 81.2378C26.5736 69.1975 21.6497 54.5094 20.5857 39.4066C19.5732 25.0821 22.2973 13.938 25.5148 10.3326C27.3034 8.33015 28.9225 8.80132 29.7294 9.26224H29.7243Z" fill="#00126A"/>
<path d="M39.9729 71.4609C40.2813 71.886 40.6102 72.3162 40.9546 72.7515C40.6925 73.2227 40.4355 73.6939 40.1836 74.1599C39.8341 73.7297 39.5001 73.3098 39.1865 72.8898C39.3664 72.5672 39.5463 72.2394 39.7262 71.9116C39.8084 71.7631 39.8907 71.6146 39.9729 71.4661V71.4609Z" fill="#00126A"/>
<path d="M39.1814 72.8848C39.5001 73.3047 39.829 73.7247 40.1785 74.1549C38.8422 76.5773 37.5418 78.9177 36.2774 81.1711C35.9639 80.7153 35.6607 80.2493 35.3574 79.7832C36.5961 77.5657 37.8759 75.2662 39.1814 72.8848Z" fill="#00126A"/>
<path d="M40.1535 156.619C40.0044 157.095 39.8605 157.597 39.7269 158.12C39.29 157.792 38.8531 157.464 38.4316 157.126C38.5756 156.604 38.7297 156.107 38.8891 155.636C39.3054 155.964 39.7269 156.291 40.1586 156.619H40.1535Z" fill="#00126A"/>
<path d="M38.4311 157.126C36.1233 155.338 34.016 153.52 32.0938 151.702C32.1143 151.098 32.2017 150.499 32.3507 149.899C34.3141 151.81 36.4883 153.735 38.8885 155.63C38.7292 156.101 38.575 156.598 38.4311 157.121V157.126Z" fill="#00126A"/>
<path d="M39.181 72.885C33.3679 65.1824 33.2702 59.3851 33.5324 57.1419C33.7534 55.2112 34.4421 53.6901 35.4135 52.9731C37.2587 51.6057 37.1456 51.0526 36.6111 48.3844C36.2667 46.6636 35.1 42.0646 34.2828 38.874C34.8841 39.1659 35.4855 39.5193 36.0817 39.9137C36.8527 42.9404 37.7573 46.5663 38.0657 48.0976C38.6619 51.0475 38.8006 52.3176 36.3027 54.1664C35.8144 54.53 35.2182 55.544 35.0126 57.316C34.7813 59.3339 34.879 64.4655 39.9777 71.4664C39.8954 71.6149 39.8132 71.7634 39.7309 71.9119C39.5511 72.2397 39.3712 72.5674 39.1913 72.8901L39.181 72.885Z" fill="#00126A"/>
<path d="M35.5527 37.8644C35.712 38.484 35.8919 39.1806 36.0769 39.9078C35.4807 39.5134 34.8794 39.1601 34.278 38.8682C34.1033 38.187 33.9439 37.5776 33.8154 37.0654C34.4014 37.2754 34.9822 37.552 35.5578 37.8644H35.5527Z" fill="#00126A"/>
<path d="M36.2824 81.176C36.01 81.6625 35.7376 82.1388 35.4703 82.6151C35.1568 82.1593 34.8433 81.7035 34.54 81.2426C34.8124 80.7611 35.0849 80.2746 35.3573 79.7881C35.6605 80.2541 35.9689 80.7202 36.2773 81.176H36.2824Z" fill="#00126A"/>
<path d="M84.8696 105.031C83.3019 110.235 79.113 113.559 75.5203 112.457C71.9276 111.356 70.2931 106.24 71.8659 101.042C72.6523 98.4608 74.0709 96.3405 75.7464 94.9936C76.5585 94.3381 77.4323 93.8669 78.3163 93.6211C79.848 94.2971 81.2871 95.009 82.4025 95.5877C83.23 96.0179 83.893 96.2944 84.4224 96.4481C84.8182 97.1958 85.1111 98.0511 85.2807 98.9832C85.6251 100.806 85.512 102.911 84.8696 105.031Z" fill="#00126A"/>
<path d="M81.6422 98.594C80.3521 98.6606 79.2471 100.223 79.1751 102.082C79.098 103.941 80.0849 105.395 81.375 105.329C82.665 105.262 83.7701 103.7 83.8421 101.841C83.9191 99.9819 82.9323 98.5274 81.6422 98.594Z" fill="white"/>
<path d="M74.2973 106.404C73.66 106.701 73.3979 107.684 73.7011 108.596C74.0044 109.507 74.7702 110.009 75.4024 109.712C76.0397 109.415 76.3019 108.432 75.9986 107.52C75.6954 106.609 74.9295 106.107 74.2973 106.404Z" fill="#FFCFBD"/>
<path d="M72.7804 90.3283C73.2687 90.1901 73.8289 90.1644 74.4868 90.3027C75.083 90.4256 75.7666 90.6919 76.5582 91.1221C76.9539 91.3424 77.3857 91.5984 77.8431 91.9108C78.6244 92.4383 79.385 92.93 80.1098 93.3909C81.3227 94.1489 82.4586 94.8095 83.4969 95.3575C85.707 96.5252 87.4853 97.1909 88.6315 97.2524C88.6315 97.2524 86.0411 99.178 82.9829 97.6519C82.2428 97.2678 81.5026 96.8529 80.7882 96.4279C79.3439 95.5828 77.9973 94.7071 76.9591 94.0055C76.1881 93.4831 75.561 93.1348 75.0522 92.9197C73.4589 92.2591 72.8935 92.9044 72.0865 93.8313L71.9324 94.0055C71.9324 94.0055 70.9352 90.8814 72.7856 90.3283H72.7804Z" fill="#00126A"/>
<path d="M124.395 104.642C126.07 109.814 130.321 113.056 133.888 111.883C137.455 110.711 138.992 105.569 137.316 100.396C136.484 97.8303 135.019 95.7357 133.317 94.4297C132.49 93.7895 131.611 93.3389 130.722 93.1084C129.201 93.8151 127.782 94.5577 126.677 95.1569C125.86 95.6025 125.202 95.8944 124.678 96.0583C124.292 96.8163 124.02 97.6767 123.871 98.6087C123.562 100.437 123.716 102.542 124.4 104.652L124.395 104.642Z" fill="#00126A"/>
<path d="M127.499 98.1424C128.789 98.1834 129.925 99.7249 130.038 101.579C130.151 103.438 129.195 104.908 127.905 104.867C126.614 104.826 125.479 103.284 125.366 101.43C125.252 99.5713 126.208 98.1015 127.499 98.1424Z" fill="white"/>
<path d="M134.993 105.809C135.636 106.096 135.919 107.069 135.631 107.991C135.343 108.913 134.593 109.425 133.95 109.138C133.308 108.851 133.025 107.878 133.313 106.956C133.601 106.034 134.351 105.522 134.993 105.809Z" fill="#FFCFBD"/>
<path d="M136.191 89.7031C135.697 89.575 135.137 89.5597 134.484 89.7133C133.893 89.8464 133.215 90.1281 132.433 90.5737C132.043 90.799 131.616 91.0705 131.169 91.388C130.398 91.9308 129.648 92.4379 128.928 92.9141C127.73 93.6926 126.61 94.3789 125.577 94.9473C123.387 96.156 121.63 96.8576 120.483 96.9447C120.483 96.9447 123.11 98.8191 126.137 97.2315C126.872 96.832 127.602 96.4018 128.311 95.9614C129.74 95.0856 131.066 94.1842 132.094 93.4621C132.855 92.9244 133.472 92.5608 133.98 92.3406C135.558 91.6492 136.139 92.2842 136.967 93.1958L137.121 93.3648C137.121 93.3648 138.056 90.2203 136.196 89.7031H136.191Z" fill="#00126A"/>
<path d="M31.4355 86.7227C31.713 87.2245 31.9957 87.7264 32.2836 88.2283C31.9957 88.7251 31.713 89.2219 31.4304 89.7084C31.1425 89.2116 30.8547 88.7149 30.5771 88.2232C30.8598 87.7316 31.1477 87.2297 31.4355 86.7227Z" fill="#00126A"/>
<g opacity="0.6">
<path d="M77.6576 117.379L8.53266 114.541C8.27567 114.531 8.1883 114.193 8.40931 114.06C11.4983 112.221 15.0088 110.019 18.1852 106.803C27.0256 97.8508 30.9987 90.1278 33.7536 84.0436L78.1819 83.6083C87.5466 83.5161 95.21 91.0035 95.3025 100.335C95.4002 110.004 87.3461 117.778 77.6525 117.379H77.6576Z" fill="#00DEFF"/>
</g>
<g style="mix-blend-mode:multiply" opacity="0.3">
<path d="M94.5824 95.6182C95.0347 97.1136 95.2917 98.6961 95.3071 100.335C95.4048 110.004 87.3507 117.778 77.6571 117.379L8.79939 114.552C8.28027 114.869 9.43673 115.248 8.93817 115.545C8.71716 115.679 8.80453 116.017 9.06152 116.027L78.1865 118.864C87.8801 119.263 95.9342 111.484 95.8365 101.82C95.816 99.6231 95.3688 97.5336 94.5875 95.6182H94.5824Z" fill="#00DEFF"/>
</g>
<g style="mix-blend-mode:screen" opacity="0.6">
<path d="M33.7588 84.0485L32.2014 87.3518L78.1974 85.2572C78.1974 85.2572 90.3375 84.2841 94.6549 95.8328C94.6549 95.8328 91.5762 83.4801 77.5343 83.6183C63.4924 83.7566 33.7588 84.0485 33.7588 84.0485Z" fill="#00DEFF"/>
</g>
<g opacity="0.6">
<mask id="mask0_362_5542" style="mask-type:luminance" maskUnits="userSpaceOnUse" x="42" y="83" width="24" height="34">
<path d="M65.163 116.867C61.4726 116.739 58.7022 116.652 55.4231 116.462C55.2843 116.452 52.0154 116.309 51.8818 116.278L42.1367 83.9672C45.1641 83.9364 48.3404 83.8596 51.8252 84.003L65.163 116.872V116.867Z" fill="white"/>
</mask>
<g mask="url(#mask0_362_5542)">
<path d="M43.591 83.9053L42.1467 84.3713L42.1416 83.9206L43.591 83.9053Z" fill="white"/>
<path d="M48.6843 83.8545L42.1619 85.9696L42.1465 84.3717L43.5908 83.9057L48.6843 83.8545Z" fill="white"/>
<path d="M53.778 83.8027L42.1775 87.5618L42.1621 85.9691L48.6845 83.854L53.778 83.8027Z" fill="#FDFDFD"/>
<path d="M54.8111 83.793L55.1863 84.9453L42.5578 89.0372L42.1775 87.8849V87.5623L53.778 83.8032L54.8111 83.793Z" fill="#FCFCFC"/>
<path d="M55.1783 84.9553L42.5479 89.0469L43.0198 90.4934L55.6503 86.4018L55.1783 84.9553Z" fill="#FBFBFB"/>
<path d="M55.6549 86.3977L43.0244 90.4893L43.4964 91.9358L56.1268 87.8442L55.6549 86.3977Z" fill="#FAFAFA"/>
<path d="M56.1278 87.8508L43.4973 91.9424L43.9693 93.3889L56.5997 89.2973L56.1278 87.8508Z" fill="#F9F9F9"/>
<path d="M56.5982 89.2932L43.9678 93.3848L44.4397 94.8313L57.0702 90.7397L56.5982 89.2932Z" fill="#F8F8F8"/>
<path d="M57.0719 90.7414L44.4414 94.833L44.9134 96.2795L57.5438 92.1879L57.0719 90.7414Z" fill="#F7F7F7"/>
<path d="M57.5435 92.1838L44.9131 96.2754L45.3851 97.7219L58.0155 93.6303L57.5435 92.1838Z" fill="#F5F6F6"/>
<path d="M58.0162 93.6369L45.3857 97.7285L45.8577 99.175L58.4882 95.0834L58.0162 93.6369Z" fill="#F4F5F5"/>
<path d="M58.482 95.0812L45.8516 99.1729L46.3235 100.619L58.954 96.5278L58.482 95.0812Z" fill="#F3F4F4"/>
<path d="M58.9547 96.5295L46.3242 100.621L46.7962 102.068L59.4267 97.976L58.9547 96.5295Z" fill="#F2F3F3"/>
<path d="M59.4312 97.9719L46.8008 102.063L47.2728 103.51L59.9032 99.4184L59.4312 97.9719Z" fill="#F1F2F2"/>
<path d="M59.9041 99.425L47.2737 103.517L47.7457 104.963L60.3761 100.872L59.9041 99.425Z" fill="#F0F1F1"/>
<path d="M60.3756 100.868L47.7451 104.96L48.2171 106.406L60.8476 102.315L60.3756 100.868Z" fill="#EFF0F0"/>
<path d="M60.8482 102.316L48.2178 106.407L48.6897 107.854L61.3202 103.762L60.8482 102.316Z" fill="#EEEFEF"/>
<path d="M61.3238 103.756L65.1529 115.479L65.1632 116.867L51.6815 117L48.6953 107.848L61.3238 103.756Z" fill="#EEEFEF"/>
</g>
</g>
<g opacity="0.6">
<mask id="mask1_362_5542" style="mask-type:luminance" maskUnits="userSpaceOnUse" x="62" y="83" width="24" height="35">
<path d="M85.3621 115.934C81.6512 117.209 80.5461 117.537 76.2133 117.317C76.0745 117.312 72.8159 117.199 72.6822 117.168L62.9629 83.7514C65.9902 83.7206 69.1666 83.6438 72.6514 83.7872L85.3621 115.929V115.934Z" fill="white"/>
</mask>
<g mask="url(#mask1_362_5542)">
<path d="M64.3866 83.7002L62.968 84.156L62.9629 83.7104L64.3866 83.7002Z" fill="white"/>
<path d="M69.3626 83.6494L62.9842 85.7184L62.9688 84.1564L64.3873 83.7006L69.3626 83.6494Z" fill="white"/>
<path d="M74.3423 83.6025L62.9988 87.2746L62.9834 85.7177L69.3619 83.6486L74.3423 83.6025Z" fill="#FDFDFD"/>
<path d="M75.2469 83.5928L75.6272 84.7502L63.0142 88.837L62.9988 87.275L74.3423 83.603L75.2469 83.5928Z" fill="#FCFCFC"/>
<path d="M75.6277 84.75L76.0851 86.1635L63.4618 90.2555L63.0146 88.8881V88.8368L75.6277 84.75Z" fill="#FBFBFB"/>
<path d="M76.0826 86.1697L63.457 90.2598L63.9179 91.6722L76.5435 87.5822L76.0826 86.1697Z" fill="#FAFAFA"/>
<path d="M76.5396 87.5828L63.9141 91.6729L64.3749 93.0853L77.0005 88.9953L76.5396 87.5828Z" fill="#F9F9F9"/>
<path d="M77.0035 88.9998L64.3779 93.0898L64.8388 94.5023L77.4644 90.4123L77.0035 88.9998Z" fill="#F8F8F8"/>
<path d="M77.4654 90.4158L64.8398 94.5059L65.3007 95.9183L77.9263 91.8283L77.4654 90.4158Z" fill="#F7F7F7"/>
<path d="M77.9283 91.828L65.3027 95.918L65.7636 97.3304L78.3892 93.2404L77.9283 91.828Z" fill="#F5F6F6"/>
<path d="M78.3902 93.2401L65.7646 97.3301L66.2255 98.7425L78.8511 94.6525L78.3902 93.2401Z" fill="#F4F5F5"/>
<path d="M78.8473 94.658L66.2217 98.748L66.6825 100.16L79.3081 96.0704L78.8473 94.658Z" fill="#F3F4F4"/>
<path d="M79.3092 96.0701L66.6836 100.16L67.1444 101.573L79.77 97.4826L79.3092 96.0701Z" fill="#F2F3F3"/>
<path d="M79.773 97.4862L67.1475 101.576L67.6083 102.989L80.2339 98.8986L79.773 97.4862Z" fill="#F1F2F2"/>
<path d="M80.2359 98.9031L67.6104 102.993L68.0712 104.406L80.6968 100.316L80.2359 98.9031Z" fill="#F0F1F1"/>
<path d="M80.6978 100.315L68.0723 104.405L68.5331 105.818L81.1587 101.728L80.6978 100.315Z" fill="#EFF0F0"/>
<path d="M81.1551 101.728L68.5295 105.818L68.9904 107.231L81.616 103.141L81.1551 101.728Z" fill="#EEEFEF"/>
<path d="M81.6255 103.136L85.3519 114.546L85.3776 117.491L72.3893 117.619L69.0022 107.228L81.6255 103.136Z" fill="#EEEFEF"/>
</g>
</g>
<path d="M32.3453 149.899C32.1963 150.498 32.1089 151.097 32.0884 151.702C31.6258 151.266 31.1735 150.831 30.7314 150.391C30.824 149.827 30.9627 149.264 31.1529 148.711C31.5384 149.105 31.9393 149.505 32.3505 149.899H32.3453Z" fill="#00126A"/>
<path d="M117.132 168.177V168.218C114.069 168.536 110.718 168.751 107.12 168.792C103.347 168.838 99.8367 168.684 96.6449 168.418C42.7697 163.404 14.1257 128.856 9.26855 123.452C9.85963 125.501 11.8796 128.139 13.4266 131.176C15.4209 135.098 21.8713 140.379 29.2366 147.83C29.6221 148.225 30.023 148.624 30.4342 149.018C32.3976 150.929 36.4889 153.73 38.8891 155.63C39.3055 155.958 39.7269 156.286 40.1587 156.613C51.2863 165.079 67.0089 172.776 88.7553 175.552C94.0801 176.3 100.33 176.817 107.325 176.725C114.007 176.638 119.99 176.013 125.114 175.194L125.011 175.107C125.063 175.122 125.119 175.137 125.171 175.153C146.861 171.952 162.424 163.942 173.382 155.261C173.803 154.928 174.22 154.59 174.631 154.252C176.99 152.311 180.336 149.474 182.263 147.528C182.664 147.123 182.675 147.615 183.055 147.21C190.271 139.616 199.045 131.35 200.962 127.391C202.447 124.323 203.09 123.581 203.583 121.537C197.364 132.917 162.943 165.637 117.142 168.172L117.132 168.177Z" fill="#D1D1D1"/>
<path d="M51.2913 164.577C72.3284 175.337 96.5625 177.831 119.846 175.762C133.862 174.476 147.719 170.948 160.316 164.541C152.232 169.411 143.273 172.848 134.032 174.989C106.734 180.873 75.6487 179.086 51.2861 164.582L51.2913 164.577Z" fill="#00126A"/>
<path d="M32.2532 88.1922C26.8204 98.6654 18.679 109.451 8.03453 115.043L8.29152 113.753C8.34806 113.819 8.44058 113.912 8.52281 113.994C9.79234 115.243 11.3754 116.262 13.1281 116.667L13.9247 116.851C13.8785 117.072 13.7551 117.732 13.6934 117.932C12.9276 120.523 10.918 122.618 8.55365 123.847L8.92886 122.766C9.00081 122.92 9.09847 123.115 9.19099 123.294C9.86944 124.585 10.6404 125.824 11.4525 127.038C18.1188 136.84 26.6611 145.219 35.5427 153.049L34.7357 153.976C29.5445 149.541 24.5384 144.87 19.8612 139.882C16.361 136.123 13.015 132.19 10.111 127.939C8.99053 126.285 7.90604 124.59 7.08367 122.761L7.78268 122.372C9.57647 121.44 11.1184 119.95 11.8894 118.07C11.987 117.824 12.0744 117.579 12.1309 117.328L12.7683 118.296C12.208 118.167 11.6581 117.988 11.139 117.763C9.24752 116.959 7.61307 115.622 6.32812 114.024C9.3349 112.626 12.1515 110.834 14.7317 108.713C21.6395 102.988 27.1597 95.6335 31.4103 87.7773L32.2583 88.1922H32.2532Z" fill="#00126A"/>
<path d="M180.736 86.3076C186.591 96.5708 195.313 107.187 206.332 112.058C205.078 113.676 203.475 115.044 201.599 115.889C201.08 116.124 200.54 116.309 199.98 116.452L200.602 115.474C200.663 115.725 200.756 115.971 200.859 116.211C201.666 118.075 203.233 119.535 205.048 120.436L205.757 120.81C204.97 122.654 203.917 124.37 202.832 126.044C200.011 130.351 196.742 134.351 193.319 138.177C188.739 143.262 183.83 148.03 178.727 152.563L177.904 151.651C186.627 143.651 194.999 135.104 201.475 125.168C202.359 123.775 203.223 122.342 203.912 120.846L204.307 121.922C203.084 121.312 201.948 120.493 201.028 119.474C199.887 118.229 199.08 116.703 198.798 115.028L199.589 114.828C201.331 114.393 202.894 113.343 204.138 112.068C204.215 111.986 204.307 111.889 204.364 111.822L204.647 113.108C194.984 108.253 187.819 99.6948 182.17 90.7069C181.374 89.4112 180.613 88.1052 179.904 86.7378L180.747 86.3076H180.736Z" fill="#00126A"/>
<path d="M31.4355 86.722C32.4481 84.9552 33.4812 83.1268 34.5451 81.2422C34.8484 81.7031 35.1619 82.164 35.4754 82.6147C34.3858 84.5506 33.3218 86.4199 32.2888 88.2226C32.0009 87.7207 31.7182 87.2188 31.4407 86.7169L31.4355 86.722Z" fill="#00126A"/>
<path d="M149.41 42.233C150.139 42.233 150.731 41.6437 150.731 40.9168C150.731 40.1899 150.139 39.6006 149.41 39.6006C148.68 39.6006 148.089 40.1899 148.089 40.9168C148.089 41.6437 148.68 42.233 149.41 42.233Z" fill="#505B64"/>
<path d="M153.836 36.1031C154.565 36.1031 155.157 35.5138 155.157 34.7869C155.157 34.06 154.565 33.4707 153.836 33.4707C153.106 33.4707 152.515 34.06 152.515 34.7869C152.515 35.5138 153.106 36.1031 153.836 36.1031Z" fill="#505B64"/>
<path d="M158.024 30.5005C158.754 30.5005 159.345 29.9113 159.345 29.1844C159.345 28.4574 158.754 27.8682 158.024 27.8682C157.295 27.8682 156.703 28.4574 156.703 29.1844C156.703 29.9113 157.295 30.5005 158.024 30.5005Z" fill="#505B64"/>
<path d="M181.071 80.2798C181.8 80.2798 182.392 79.6906 182.392 78.9637C182.392 78.2367 181.8 77.6475 181.071 77.6475C180.341 77.6475 179.75 78.2367 179.75 78.9637C179.75 79.6906 180.341 80.2798 181.071 80.2798Z" fill="#505B64"/>
<path d="M183.657 74.9332C184.386 74.9332 184.978 74.3439 184.978 73.617C184.978 72.8901 184.386 72.3008 183.657 72.3008C182.927 72.3008 182.336 72.8901 182.336 73.617C182.336 74.3439 182.927 74.9332 183.657 74.9332Z" fill="#505B64"/>
<path d="M161.554 17.5377L160.715 18.4668L169.71 26.5289L170.549 25.5998L161.554 17.5377Z" fill="#00126A"/>
<path d="M166.137 12.444L165.298 13.373L172.75 20.0515L173.588 19.1225L166.137 12.444Z" fill="#00126A"/>
<path d="M182.864 4.34934L182.313 8.41992L183.556 8.5867L184.107 4.51613L182.864 4.34934Z" fill="#00126A"/>
<path d="M61.7096 43.0933C62.4391 43.0933 63.0305 42.504 63.0305 41.7771C63.0305 41.0502 62.4391 40.4609 61.7096 40.4609C60.9801 40.4609 60.3887 41.0502 60.3887 41.7771C60.3887 42.504 60.9801 43.0933 61.7096 43.0933Z" fill="#505B64"/>
<path d="M57.1657 37.0552C57.8952 37.0552 58.4866 36.466 58.4866 35.739C58.4866 35.0121 57.8952 34.4229 57.1657 34.4229C56.4361 34.4229 55.8447 35.0121 55.8447 35.739C55.8447 36.466 56.4361 37.0552 57.1657 37.0552Z" fill="#505B64"/>
<path d="M52.8639 31.5347C53.5934 31.5347 54.1848 30.9454 54.1848 30.2185C54.1848 29.4916 53.5934 28.9023 52.8639 28.9023C52.1344 28.9023 51.543 29.4916 51.543 30.2185C51.543 30.9454 52.1344 31.5347 52.8639 31.5347Z" fill="#505B64"/>
<path d="M30.8092 81.7593C31.5387 81.7593 32.1301 81.1701 32.1301 80.4431C32.1301 79.7162 31.5387 79.127 30.8092 79.127C30.0797 79.127 29.4883 79.7162 29.4883 80.4431C29.4883 81.1701 30.0797 81.7593 30.8092 81.7593Z" fill="#505B64"/>
<path d="M28.1207 76.4693C28.8503 76.4693 29.4417 75.88 29.4417 75.1531C29.4417 74.4262 28.8503 73.8369 28.1207 73.8369C27.3912 73.8369 26.7998 74.4262 26.7998 75.1531C26.7998 75.88 27.3912 76.4693 28.1207 76.4693Z" fill="#505B64"/>
<path d="M49.0945 18.6518L40.2617 26.8906L41.1188 27.8029L49.9516 19.564L49.0945 18.6518Z" fill="#00126A"/>
<path d="M44.4116 13.6536L37.0947 20.4785L37.9518 21.3908L45.2687 14.5659L44.4116 13.6536Z" fill="#00126A"/>
<path d="M27.544 5.87523L26.3047 6.06641L26.9353 10.1254L28.1747 9.93421L27.544 5.87523Z" fill="#00126A"/>
<path d="M125.947 60.8188C119.641 62.0428 111.936 63.0466 103.132 63.149C94.127 63.2566 86.2426 62.3911 79.8127 61.2695C77.6643 55.17 75.5107 49.0756 73.3623 42.976C79.4067 40.3897 88.5504 37.3118 100.033 36.4258C113.941 35.3503 125.192 37.9622 132.012 40.1183C129.992 47.0168 127.967 53.9152 125.947 60.8137V60.8188Z" fill="#98ABBB"/>
<path d="M102.911 63.9839C95.1393 64.0607 87.3216 63.4256 79.6685 62.089L79.1854 62.007L72.3135 42.5202L73.0331 42.213C81.6216 38.5409 90.6882 36.3132 99.9707 35.5962C110.898 34.7511 121.763 36.0059 132.269 39.3245L133.045 39.5703L126.61 61.5358L126.112 61.6332C118.561 63.103 110.836 63.8917 103.147 63.9787C103.07 63.9787 102.993 63.9787 102.916 63.9787L102.911 63.9839ZM80.4395 60.5321C87.9127 61.8022 95.535 62.4014 103.126 62.3143C110.548 62.2272 118.001 61.4795 125.294 60.0916L130.984 40.6663C120.931 37.5935 110.543 36.4463 100.099 37.2504C91.2587 37.9315 82.6187 40.0108 74.4105 43.4318L80.4395 60.5269V60.5321Z" fill="#00126A"/>
<path d="M86.2321 58.8726C86.9616 58.8726 87.553 58.2833 87.553 57.5564C87.553 56.8295 86.9616 56.2402 86.2321 56.2402C85.5025 56.2402 84.9111 56.8295 84.9111 57.5564C84.9111 58.2833 85.5025 58.8726 86.2321 58.8726Z" fill="#505B64"/>
<path d="M120.138 58.5396C120.868 58.5396 121.459 57.9503 121.459 57.2234C121.459 56.4965 120.868 55.9072 120.138 55.9072C119.409 55.9072 118.817 56.4965 118.817 57.2234C118.817 57.9503 119.409 58.5396 120.138 58.5396Z" fill="#505B64"/>
<path d="M102.324 59.5484C103.053 59.5484 103.645 58.9591 103.645 58.2322C103.645 57.5053 103.053 56.916 102.324 56.916C101.594 56.916 101.003 57.5053 101.003 58.2322C101.003 58.9591 101.594 59.5484 102.324 59.5484Z" fill="#505B64"/>
<path d="M83.857 38.6514L79.0427 60.7266L80.6751 61.08L85.4893 39.0049L83.857 38.6514Z" fill="#00126A"/>
<path d="M121.118 37.1192L119.493 37.5049L125.025 60.641L126.65 60.2553L121.118 37.1192Z" fill="#00126A"/>
<path d="M161.715 58.959L125.073 72.8788L110.795 87.7513L111.103 118.725C111.103 118.725 122.786 118.208 141.639 132.666C141.639 132.666 169.224 121.168 199.364 114.992C199.364 114.992 202.442 114.93 205.002 112.349C205.002 112.349 194.815 109.63 182.911 91.4028C171.008 73.1759 168.823 64.8793 161.715 58.959Z" fill="#98ABBB"/>
<path d="M141.546 133.383L141.258 133.163C122.857 119.048 111.247 119.35 111.128 119.35L110.481 119.376V118.731L110.162 87.5008L124.718 72.3415L161.832 58.2373L162.115 58.4729C166.489 62.1142 169.064 66.6824 172.955 73.5963C175.525 78.1543 178.717 83.8339 183.435 91.055C195.03 108.811 205.063 111.715 205.166 111.74L206.199 112.022L205.449 112.78C202.915 115.335 199.923 115.581 199.44 115.607C169.727 121.701 142.157 133.117 141.88 133.234L141.546 133.373V133.383ZM111.725 118.106C114.438 118.208 125.335 119.453 141.736 131.949C144.989 130.623 171.166 120.134 199.24 114.383L199.353 114.373C199.353 114.373 201.65 114.291 203.804 112.59C200.884 111.402 192.244 106.834 182.386 91.7464C177.647 84.4894 174.44 78.7944 171.865 74.2159C168.123 67.5735 165.626 63.1333 161.591 59.6713L125.427 73.4119L111.421 87.9975L111.719 118.106H111.725Z" fill="#80232F"/>
<path d="M111.104 118.731L129.699 109.846L153.008 104.094L150.51 89.0889L161.715 58.96C161.715 58.96 167.564 64.322 172.647 73.7248C177.731 83.1277 185.163 96.2383 190.446 100.883C195.73 105.528 203.774 112.616 203.774 112.616L200.885 114.737C200.885 114.737 169.353 122.465 158.461 126.398C147.57 130.331 141.639 132.667 141.639 132.667C141.639 132.667 130.229 123.74 122.683 121.466C115.138 119.192 111.104 118.726 111.104 118.726" fill="#58646F"/>
<path d="M148.757 122.649C149.487 122.649 150.078 122.06 150.078 121.333C150.078 120.606 149.487 120.017 148.757 120.017C148.028 120.017 147.437 120.606 147.437 121.333C147.437 122.06 148.028 122.649 148.757 122.649Z" fill="#98ABBB"/>
<path d="M158.128 118.87C158.857 118.87 159.448 118.28 159.448 117.553C159.448 116.827 158.857 116.237 158.128 116.237C157.398 116.237 156.807 116.827 156.807 117.553C156.807 118.28 157.398 118.87 158.128 118.87Z" fill="#98ABBB"/>
<path d="M166.736 116.211C167.465 116.211 168.057 115.622 168.057 114.895C168.057 114.168 167.465 113.579 166.736 113.579C166.006 113.579 165.415 114.168 165.415 114.895C165.415 115.622 166.006 116.211 166.736 116.211Z" fill="#98ABBB"/>
<path d="M175.484 113.804C176.214 113.804 176.805 113.215 176.805 112.488C176.805 111.761 176.214 111.172 175.484 111.172C174.754 111.172 174.163 111.761 174.163 112.488C174.163 113.215 174.754 113.804 175.484 113.804Z" fill="#98ABBB"/>
<path d="M111.37 119.295L110.83 118.163L145.035 102.021L161.123 58.7451L162.3 59.1804L146.032 102.932L111.37 119.295Z" fill="#00126A"/>
<path d="M151.152 87.3574L130.814 98.1072L128.357 110.583L154.529 104.606L151.152 87.3574Z" fill="#00126A"/>
<path d="M153.521 103.971L128.465 110.562L154.529 104.606L151.383 88.5352L153.521 103.971Z" fill="#98ABBB"/>
<g style="mix-blend-mode:multiply">
<path d="M128.526 109.728L131.929 99.0451L150.268 87.8242L130.814 98.1079L128.526 109.728Z" fill="#00126A"/>
</g>
<path d="M186.715 143.996L180.069 142.51L175.875 139.176L176.656 138.198L180.629 141.353L186.992 142.777L186.715 143.996Z" fill="#00126A"/>
<path d="M181.39 149.603L176.157 148.436L172.853 145.808L173.634 144.83L176.713 147.283L181.662 148.384L181.39 149.603Z" fill="#00126A"/>
<path d="M172.313 146.601C171.814 146.601 171.331 146.453 170.925 146.151C170.426 145.787 170.103 145.249 170.01 144.64C169.918 144.031 170.067 143.426 170.432 142.929C170.797 142.433 171.336 142.11 171.948 142.018C172.559 141.926 173.166 142.074 173.665 142.438C174.163 142.801 174.487 143.339 174.579 143.949C174.672 144.558 174.523 145.162 174.158 145.659C173.793 146.156 173.253 146.479 172.642 146.571C172.534 146.586 172.421 146.596 172.313 146.596V146.601ZM172.287 143.242C172.236 143.242 172.184 143.242 172.138 143.252C171.86 143.293 171.614 143.442 171.444 143.672C171.275 143.897 171.208 144.179 171.249 144.456C171.29 144.732 171.439 144.978 171.67 145.147C171.902 145.316 172.174 145.383 172.457 145.342C172.734 145.301 172.981 145.152 173.151 144.922C173.32 144.696 173.387 144.415 173.346 144.138C173.305 143.862 173.156 143.616 172.924 143.447C172.739 143.308 172.518 143.242 172.287 143.242Z" fill="#00126A"/>
<path d="M175.103 139.785C174.62 139.785 174.132 139.647 173.716 139.34C172.688 138.587 172.467 137.143 173.222 136.119C173.978 135.094 175.427 134.874 176.455 135.627C177.483 136.38 177.704 137.824 176.949 138.848C176.501 139.453 175.808 139.78 175.109 139.785H175.103ZM174.23 136.856C173.885 137.322 173.983 137.988 174.456 138.331C174.929 138.674 175.592 138.577 175.936 138.106C176.28 137.64 176.183 136.974 175.71 136.631C175.242 136.288 174.574 136.39 174.23 136.856Z" fill="#00126A"/>
<g style="mix-blend-mode:screen">
<path d="M85.1986 39.6113L82.567 59.7383C87.7685 60.6345 93.6638 61.331 100.14 61.5871C109.638 61.9609 118.067 61.29 125.094 60.2658C119.049 61.4642 111.622 62.4577 103.126 62.5601C94.3885 62.6677 86.7559 61.8073 80.5676 60.7062C82.1096 53.6746 83.6515 46.643 85.1986 39.6113Z" fill="#98ABBB"/>
</g>
<path d="M140.107 98.0155C141.397 98.0565 142.533 99.598 142.646 101.452C142.759 103.311 141.803 104.781 140.513 104.74C139.223 104.699 138.087 103.157 137.974 101.303C137.861 99.4443 138.817 97.9745 140.107 98.0155Z" fill="#FFAD26"/>
<g style="mix-blend-mode:screen">
<path d="M111.72 117.743L111.442 87.7469L125.499 73.3149L160.609 60.0762L126.908 75.0459L113.452 89.1348L111.72 117.743Z" fill="#98ABBB"/>
</g>
<g style="mix-blend-mode:multiply" opacity="0.4">
<path d="M141.685 131.97C141.685 131.97 153.974 126.792 170.39 121.87C186.802 116.949 196.362 114.931 199.25 114.393C202.134 113.855 201.429 114.157 203.778 112.626C203.778 112.626 192.728 107.894 183.856 93.7539C174.99 79.6139 165.081 62.2064 162.059 60.6904C162.059 60.6904 171.156 74.9688 173.623 80.1055C176.095 85.2422 184.365 98.5066 187.47 101.769C190.569 105.031 196.639 110.322 200.736 112.488C200.736 112.488 196.675 113.461 194.845 113.671C193.021 113.881 168.447 120.554 164.171 122.085C159.895 123.617 151.83 126.833 141.69 131.975L141.685 131.97Z" fill="#5B6671"/>
</g>
<path d="M141.515 133.624L141.13 133.327C122.801 119.269 111.247 119.556 111.139 119.561L110.281 119.597L110.27 118.742L109.962 87.4295L124.605 72.1781L124.78 72.1116L161.879 58.0176L162.254 58.33C166.659 61.9969 169.239 66.5805 173.145 73.5148C175.71 78.0728 178.907 83.7473 183.62 90.9633C195.159 108.637 205.13 111.536 205.228 111.561L206.605 111.94L205.603 112.954C203.049 115.53 200.032 115.812 199.471 115.843C169.784 121.937 142.24 133.337 141.967 133.455L141.52 133.64L141.515 133.624ZM111.93 117.912C114.978 118.071 125.762 119.551 141.767 131.719C145.473 130.213 171.408 119.878 199.199 114.184L199.276 114.168H199.353C199.353 114.168 201.388 114.091 203.393 112.642C200.155 111.239 191.736 106.44 182.217 91.8595C177.473 84.5974 174.266 78.8974 171.686 74.3189C167.856 67.5126 165.497 63.3284 161.555 59.9125L125.556 73.5916L111.643 88.0851L111.941 117.912H111.93Z" fill="#00126A"/>
<path d="M30.8094 90.8554L28.3525 89.7031C28.3782 89.6416 31.1846 83.7265 35.4197 76.5156C41.13 66.7953 46.5988 59.4666 51.6717 54.7293C63.7502 43.4521 74.5232 39.7699 74.9807 39.6162L75.8441 42.182C72.1898 43.4111 62.8251 48.0255 53.5323 56.7011C41.8548 67.6044 30.9224 90.6147 30.8145 90.8452L30.8094 90.8554Z" fill="#00126A"/>
<path d="M180.7 89.3805C180.587 89.1501 169.193 66.3498 157.309 55.6871C145.447 45.0398 134.818 41.6444 134.715 41.6085L135.527 39.0273C135.984 39.1707 146.829 42.643 159.129 53.6744C164.294 58.3093 169.907 65.5304 175.813 75.1329C180.192 82.2567 183.111 88.1207 183.137 88.177L180.7 89.3754V89.3805Z" fill="#00126A"/>
</svg>
