<svg width="24" height="28" viewBox="0 0 24 28" fill="none" xmlns="http://www.w3.org/2000/svg">
<path fill-rule="evenodd" clip-rule="evenodd" d="M10.7097 0.466117C11.4524 -0.155372 12.5338 -0.155372 13.2765 0.466117C16.5463 3.20199 20.2757 3.18341 21.7949 3.17585C21.8686 3.17548 21.937 3.17514 22 3.17514C22.5357 3.17514 23.0489 3.39001 23.4248 3.77161C23.8007 4.15322 24.0078 4.66966 23.9998 5.20526C23.9271 10.0327 23.7339 13.5139 23.3479 16.0859C22.9623 18.6553 22.3587 20.5123 21.3281 21.9474C20.2868 23.3973 18.9526 24.2056 17.6524 24.9256C17.4229 25.0526 17.1911 25.1787 16.9555 25.3067C15.8269 25.9202 14.6126 26.5803 13.1603 27.6241C12.4629 28.1253 11.5233 28.1253 10.8259 27.6241C9.3749 26.5813 8.16221 25.9215 7.03543 25.3085C6.79869 25.1797 6.56574 25.0529 6.33518 24.9251C5.03575 24.2049 3.70317 23.3962 2.66378 21.9457C1.63537 20.5105 1.03393 18.6535 0.649796 16.0849C0.265226 13.5133 0.0729319 10.0325 0.000227094 5.20526C-0.00783968 4.66966 0.199276 4.15322 0.575178 3.77161C0.951079 3.39001 1.46435 3.17514 2 3.17514C2.06227 3.17514 2.13008 3.17548 2.2031 3.17585C3.70971 3.18343 7.43965 3.20221 10.7097 0.466117ZM4.03866 7.13119C4.13036 10.8628 4.31235 13.531 4.6058 15.4932C4.94932 17.7903 5.42017 18.9249 5.91522 19.6158C6.39929 20.2914 7.04135 20.7432 8.27427 21.4266C8.47126 21.5358 8.68105 21.6497 8.90294 21.7702C9.7646 22.2382 10.8086 22.8052 11.9931 23.577C13.1796 22.8041 14.2254 22.2366 15.0886 21.7682C15.3095 21.6483 15.5185 21.5349 15.7148 21.4262C16.9495 20.7425 17.5935 20.2903 18.0791 19.6141C18.5754 18.9231 19.0476 17.7885 19.3922 15.4922C19.6866 13.5304 19.8694 10.8628 19.9613 7.13181C17.9544 6.9934 14.9257 6.46259 11.9931 4.49699C9.06486 6.45971 6.04135 6.99183 4.03866 7.13119Z" fill="#3375BB"/>
</svg>