<svg width="540" height="651" viewBox="0 0 540 651" fill="none" xmlns="http://www.w3.org/2000/svg">
<g clip-path="url(#clip0_816_22038)">
<mask id="mask0_816_22038" style="mask-type:luminance" maskUnits="userSpaceOnUse" x="0" y="0" width="540" height="651">
<path d="M540 0H0V651H540V0Z" fill="white"/>
</mask>
<g mask="url(#mask0_816_22038)">
<path d="M81.3001 650.799L282.1 448.199C285.4 444.999 290.6 444.699 294.2 447.499L321.1 468.799C324.9 471.799 330.3 471.299 333.6 467.799L506.5 276.399L520.7 288.699L537 180.399L429 217.699L445.6 231.999L310 383.299L279.4 359.899L0.600098 650.199L81.3001 650.799Z" fill="#00FF67"/>
<path d="M0.0998651 649.7C3.19987 645.6 6.49987 641.7 9.79987 637.7C13.0999 633.8 126.7 518.5 130.1 514.7C131.8 512.8 133.5 510.9 135.3 509L140.5 503.4L150.9 492.1C164.8 477.1 178.8 462.1 192.8 447.1C206.8 432.1 220.8 417.2 234.9 402.3C249 387.4 263 372.5 277.2 357.8C278.3 356.7 280 356.6 281.1 357.5L311.7 380.9L307.7 381.3L443.5 230L443.8 234.2L427.2 220C426 218.9 425.8 217.1 426.9 215.8C427.3 215.4 427.7 215.1 428.2 214.9L536.2 177.6C537.7 177.1 539.4 177.9 540 179.4C540.2 179.9 540.2 180.3 540.1 180.8L523.8 289C523.6 290.6 522.1 291.7 520.4 291.5C519.8 291.4 519.3 291.2 518.9 290.8L504.7 278.5L508.8 278.2C494.9 293.9 480.9 309.6 466.9 325.2C452.9 340.8 438.9 356.5 424.9 372.1C396.9 403.3 368.8 434.5 340.6 465.6L338 468.5L336.7 470L336.5 470.2L336.3 470.5L335.8 471C335.6 471.2 335.5 471.3 335.3 471.5L334.8 471.9C331.8 474.1 327.9 475 324.2 474.2C322.4 473.8 320.7 473 319.2 471.9L318.9 471.7L318.7 471.5L318.3 471.2L317.5 470.6L316 469.4L309.8 464.5L297.5 454.7L294.4 452.3L292.9 451.1L292.1 450.5L292 450.4C292 450.4 292 450.4 291.9 450.4L291.8 450.3C291.7 450.2 291.6 450.2 291.6 450.1C290.9 449.7 290.2 449.4 289.4 449.3C288.6 449.2 287.8 449.2 287.1 449.4C286.9 449.4 286.7 449.5 286.5 449.6C286.4 449.6 286.3 449.7 286.2 449.7C286.1 449.7 286 449.8 285.9 449.8L285.6 450C285.5 450.1 285.4 450.1 285.4 450.2C285.3 450.3 285.2 450.3 285.2 450.4L285.1 450.5L285 450.6C284.9 450.7 284.9 450.7 284.8 450.8C284.8 450.8 284.7 450.9 284.6 450.9L284.4 451.1L283.7 451.8L282.3 453.2L276.7 458.7L265.4 469.7L242.9 491.7L197.8 535.6C190.3 542.9 182.8 550.3 175.1 557.4C171.2 560.9 97.9999 637.8 93.9999 641.2C91.9999 642.9 89.9999 644.6 87.8999 646.2C85.7999 647.8 83.6999 649.5 81.5999 651C81.4999 651.1 81.2999 651.1 81.1999 650.9C81.0999 650.8 81.0999 650.7 81.1999 650.6C82.7999 648.5 84.3999 646.4 86.0999 644.4C87.7999 642.4 89.4999 640.4 91.1999 638.4C94.6999 634.4 98.1999 630.6 101.8 626.7C109 619 185.8 538.4 193.3 530.9L238 486.6L260.4 464.5L271.6 453.4L277.2 447.9L278.6 446.5L279.3 445.8L279.5 445.6C279.6 445.5 279.6 445.5 279.7 445.4L280.2 444.9L280.5 444.7C280.6 444.6 280.7 444.6 280.8 444.5L281.4 444.1C281.6 444 281.8 443.9 282 443.7C282.2 443.6 282.4 443.5 282.6 443.3L283.2 443C283.4 442.9 283.6 442.8 283.8 442.7C284.2 442.5 284.7 442.4 285.1 442.2C286.9 441.7 288.7 441.5 290.6 441.8C292.4 442.1 294.2 442.7 295.8 443.7L296.4 444.1L296.7 444.3L296.8 444.4L296.9 444.5L297.7 445.1L299.2 446.3L302.3 448.7L314.7 458.4L320.9 463.3L322.4 464.5L323.2 465.1L323.6 465.4L323.8 465.6C323.9 465.6 323.9 465.7 323.9 465.7C324.5 466.2 325.2 466.5 326 466.6C326.7 466.8 327.5 466.8 328.3 466.6C329 466.4 329.8 466.1 330.4 465.7C330.5 465.6 330.5 465.6 330.6 465.5C330.7 465.4 330.8 465.4 330.8 465.3C330.9 465.2 330.9 465.2 331 465.1L331.1 465L331.3 464.8L332.6 463.3L335.2 460.4C363.3 429.2 391.5 398.1 419.7 367.1C433.8 351.6 447.9 336.1 462.1 320.6C476.3 305.1 490.4 289.6 504.6 274.2C505.7 273 507.5 272.9 508.7 274L522.9 286.3L518 288.1L534.1 180L538 183.2L430 220.5L431 215.5L447.6 229.8C448.8 230.9 449 232.7 447.9 234L312.2 385.2C311.2 386.4 309.4 386.5 308.2 385.6L277.6 362.2L281.6 361.9C267.7 376.9 253.7 391.9 239.6 406.8C225.6 421.7 211.5 436.6 197.4 451.4C183.3 466.2 169.1 481.1 155 495.9L144.4 507L139.1 512.5C137.3 514.3 135.5 516.2 133.7 518C130 521.6 16.1999 636.6 12.4999 640.2C8.79987 643.7 4.99987 647.2 1.09987 650.6C0.799865 650.8 0.399865 650.8 0.199865 650.5C-0.000134885 650.3 -0.000134885 649.9 0.0998651 649.7Z" fill="#0F156D"/>
<path d="M150.6 365C150.6 365 173.8 336 212.4 346.5C251 357 192 392.6 192 392.6L150.6 365Z" fill="#FFAD26"/>
<g opacity="0.3">
<path d="M150.6 365C150.6 365 173.8 336 212.4 346.5C251 357 192 392.6 192 392.6L150.6 365Z" fill="#03036B"/>
</g>
<path d="M192.1 395.599C191.5 395.599 191 395.399 190.5 395.099L149 367.399C148.3 366.899 147.8 366.199 147.7 365.399C147.6 364.599 147.8 363.699 148.3 363.099C148.6 362.799 154.6 355.299 165.6 349.199C172.1 345.599 178.9 343.199 186 341.999C194.8 340.599 204 341.099 213.2 343.599C222.5 346.099 227.6 350.399 228.4 356.299C229 360.399 227.3 365.099 223.5 370.199C220.7 373.999 216.6 378.099 211.4 382.399C202.7 389.599 193.9 394.899 193.6 395.199C193.2 395.399 192.6 395.599 192.1 395.599ZM155.2 364.399L192.2 389.099C195.1 387.199 201.5 382.999 207.8 377.799C218 369.299 223.3 361.899 222.7 357.099C222.2 353.799 218.6 351.199 211.8 349.299C196.6 345.099 182 346.799 168.6 354.299C162.2 357.899 157.6 361.899 155.2 364.399Z" fill="#0F156D"/>
<path d="M358.1 324.7C349.4 392.2 288.2 418.6 269.9 425C266 426.4 262.5 428.5 259.5 431.4C252.8 437.8 246.5 445.1 240.3 451.9C225.3 468.4 210.1 482.4 187.6 476.9C153.4 468.5 132.8 446.7 138.7 430.1C139.5 427.7 140.8 425.9 142.2 424.5C151.2 415.7 170.2 421.8 170.2 421.8C171.1 417.9 172.2 414.3 173.6 410.9C183.8 385.4 205.7 373.3 205.7 373.3C189 358.5 185.9 341.2 187.9 326.1C190.7 305.3 203.2 288.7 203.2 288.7C203.2 288.6 203.1 288.5 203.1 288.5C201.3 285.4 199.8 282.5 198.7 279.6C190.2 258.7 198 243.6 204.5 235.7C207.9 231.5 211 229.3 211 229.3C237.6 239.1 261.2 245.5 282 249.4C298.4 252.5 313 254 326.1 254.4C392.5 256.4 417.2 229.3 417.2 229.3C417.7 230.5 418.2 231.7 418.7 233C419.1 234 419.5 235 419.8 236C451.1 319.9 358.1 324.7 358.1 324.7Z" fill="#FFAD26"/>
<path d="M240.3 451.899C225.3 468.399 210.1 482.399 187.6 476.899C153.4 468.499 132.8 446.699 138.7 430.099C144.6 413.499 170.2 421.799 170.2 421.799C171.1 417.899 172.2 414.299 173.6 410.899C182.8 422.999 204.1 445.099 240.3 451.899Z" fill="white"/>
<path d="M265.2 350.4C229.6 362.7 186.5 339.5 209 296.6C231.5 253.8 274.5 250.2 274.5 250.2C274.5 250.2 277.5 248.3 282 246C298.4 249.1 313 250.6 326.1 251C326.7 253 327.2 255.2 327.5 257.8C331.9 296.7 300.8 338.1 265.2 350.4Z" fill="white"/>
<g opacity="0.3">
<path d="M261.5 370.5C234.4 355.7 205.7 373.3 205.7 373.3C189 358.5 185.9 341.2 187.9 326.1C189.9 334.9 193.4 341.9 197 347.3C202.1 355 211.3 359 220.5 357.9C250.3 354.2 261.2 370.1 261.5 370.5Z" fill="#03036B"/>
</g>
<g opacity="0.3">
<path d="M358.1 324.7C349.4 392.2 288.2 418.6 269.9 425C266 426.4 262.5 428.5 259.5 431.4C252.8 437.8 246.5 445.1 240.3 451.9C225.3 468.4 210.1 482.4 187.6 476.9C153.4 468.5 132.8 446.7 138.7 430.1C139.5 427.7 140.8 425.9 142.2 424.5C143.6 431.9 149.7 449.8 175.2 461.5C203 474.3 223 451.1 243.8 428.4C250.4 421.2 258.7 415.8 267.9 412.6C273.6 410.6 280.7 407.9 288.4 404.3C294 401.7 297.4 395.9 296.8 389.8C296 380.8 298.1 366.9 314.8 356.3C337.3 342 349 335.3 341.2 323.8C339.2 320.8 341.3 316.7 344.9 316.5C369.1 315.1 426.6 304.5 418.5 233C453.4 319.8 358.1 324.7 358.1 324.7Z" fill="#03036B"/>
</g>
<g opacity="0.3">
<path d="M420.1 243C406.3 267.4 362.8 294.7 265.2 268.7C265.2 268.7 227.3 258.9 204.4 235.7C207.8 231.5 210.9 229.3 210.9 229.3C237.5 239.1 261.1 245.5 281.9 249.4C298.3 252.5 312.9 254 326 254.4C392.4 256.4 417.1 229.3 417.1 229.3C417.6 230.5 418.1 231.7 418.6 232.9C419 233.9 419.4 234.9 419.7 235.9C420 238.3 420.1 240.7 420.1 243Z" fill="#03036B"/>
</g>
<g opacity="0.3">
<path d="M239.7 261.1C223.4 264 204.1 288 204.1 288L203.1 288.4C201.3 285.3 199.8 282.4 198.7 279.5C220.2 259.5 239.7 261.1 239.7 261.1Z" fill="#03036B"/>
</g>
<path d="M373.1 252.7C372.9 253 372.7 253.2 372.5 253.4L371.9 254C371.5 254.4 371.1 254.8 370.8 255.2C370 256 369.2 256.8 368.4 257.6C366.8 259.2 365.1 260.7 363.4 262.1C361.7 263.5 359.9 264.9 358.1 266.3C356.3 267.6 354.5 268.9 352.6 270.1L351.2 271L349.8 271.9C349.3 272.2 348.8 272.5 348.3 272.7C347.8 273 347.3 273.3 346.8 273.5C344.8 274.6 342.8 275.5 340.7 276.4C340.2 276.6 339.6 276.8 339.1 277C338.6 277.2 338 277.4 337.5 277.5C337.2 277.6 337 277.7 336.7 277.8L335.9 278C335.4 278.1 334.8 278.3 334.3 278.4C333.7 278.5 333.2 278.6 332.6 278.7C332.1 278.8 331.5 278.9 330.9 279C329.8 279.2 328.6 279.2 327.5 279.3C327.2 279.3 326.9 279.1 326.9 278.7C326.9 278.5 327 278.3 327.2 278.2C329.2 277.2 331.1 276.2 333 275.2C333.5 275 333.9 274.7 334.4 274.4L335.1 274C335.3 273.9 335.6 273.7 335.8 273.6L337.2 272.8C337.7 272.5 338.1 272.3 338.6 272C339.1 271.7 339.5 271.5 340 271.2C340.5 270.9 340.9 270.7 341.4 270.4L342.8 269.6L344.1 268.7C345.9 267.5 347.6 266.4 349.4 265.1C351.1 263.8 352.8 262.6 354.5 261.2C356.2 259.9 357.8 258.5 359.4 257.1C361 255.7 362.6 254.3 364.2 252.8C365 252.1 365.8 251.4 366.5 250.6L367.6 249.5L368.7 248.4L368.8 248.3C370 247.2 371.8 247.2 373 248.3C374 249.8 374 251.6 373.1 252.7Z" fill="#0F156D"/>
<path d="M200.8 286.9C201 286.7 201.1 286.5 201.3 286.3L201.8 285.7C202.1 285.3 202.4 284.9 202.8 284.6C203.5 283.8 204.1 283.1 204.8 282.4C205.1 282 205.5 281.7 205.8 281.3C206.1 280.9 206.5 280.6 206.8 280.2C207.5 279.5 208.2 278.8 208.9 278.1C210.3 276.7 211.8 275.4 213.4 274.2C214.9 272.9 216.5 271.7 218.1 270.6C218.9 270 219.7 269.5 220.5 268.9C221.3 268.4 222.2 267.8 223 267.3C224.7 266.3 226.4 265.3 228.2 264.4C231.8 262.7 235.6 261.4 239.5 260.8C239.7 260.8 239.8 260.9 239.8 261C239.8 261.1 239.8 261.2 239.7 261.3C238 262.3 236.3 263.2 234.7 264.2C233.1 265.2 231.5 266.2 229.9 267.3C226.7 269.4 223.7 271.7 220.9 274.1C218 276.6 215.3 279.2 212.7 281.9C212.1 282.6 211.4 283.3 210.8 284C210.2 284.7 209.5 285.4 208.9 286.1C208.3 286.8 207.7 287.5 207.1 288.2L206.2 289.3L206 290L205.6 290.5V290.6C204.6 291.9 202.7 292.1 201.4 291.1C200.1 290 199.9 288.2 200.8 286.9Z" fill="#0F156D"/>
<path d="M358.1 327.699C357.2 327.599 356.3 327.499 355.4 327.399C354.5 327.299 353.6 327.099 352.7 326.899C351.8 326.699 350.9 326.499 350 326.199C349.6 326.099 349.1 325.899 348.7 325.699C348.3 325.499 347.8 325.299 347.4 325.099C347.2 324.999 347.1 324.699 347.2 324.499C347.2 324.399 347.3 324.299 347.4 324.299C347.8 324.099 348.3 323.899 348.7 323.699C349.1 323.499 349.6 323.399 350 323.199C350.9 322.899 351.8 322.699 352.7 322.499C353.6 322.299 354.5 322.099 355.4 321.999C356.3 321.899 357.2 321.699 358.1 321.699C359.7 321.599 361.2 322.799 361.3 324.499C361.4 326.199 360.2 327.599 358.5 327.699C358.4 327.699 358.3 327.699 358.1 327.699Z" fill="#0F156D"/>
<path d="M204.2 370.699L204.4 370.599L204.6 370.499L205 370.299C205.3 370.199 205.6 369.999 205.9 369.899C206.5 369.599 207 369.399 207.6 369.099C208.8 368.599 209.9 368.099 211.1 367.699C211.7 367.499 212.3 367.299 212.9 367.099L213.8 366.799L214.7 366.499C215 366.399 215.3 366.299 215.6 366.199L216.5 365.899C217.1 365.699 217.7 365.599 218.3 365.399C223.1 364.099 228.1 363.299 233.1 362.999C234.4 362.899 235.6 362.899 236.9 362.899L238.8 362.999H239.3H239.8L240.7 363.099L241.6 363.199C241.9 363.199 242.2 363.299 242.5 363.299C243.1 363.399 243.7 363.399 244.4 363.499L246.3 363.799C246.9 363.899 247.5 364.099 248.1 364.199C248.7 364.299 249.3 364.499 249.9 364.699L251.7 365.199C252 365.299 252.3 365.399 252.6 365.499L253.5 365.799L254.4 366.099C254.7 366.199 255 366.399 255.3 366.499C255.9 366.799 256.4 366.999 257 367.299C257.5 367.599 258.1 367.899 258.6 368.199L259.4 368.699C259.7 368.899 259.9 368.999 260.2 369.199C260.7 369.499 261.2 369.899 261.7 370.199C261.8 370.299 261.8 370.399 261.8 370.499C261.7 370.599 261.6 370.599 261.6 370.599C257 368.999 252.4 367.799 247.7 367.299C246.5 367.099 245.4 367.099 244.2 366.999C243.6 366.999 243 366.999 242.4 366.899C242.1 366.899 241.8 366.899 241.5 366.899H240.6H239.7H239.3H238.9L237.2 366.999C236 367.099 234.9 367.199 233.7 367.299C229.1 367.899 224.5 368.899 220 370.399C219.4 370.599 218.9 370.799 218.3 370.999L217.5 371.299C217.2 371.399 217 371.499 216.7 371.599L215.9 371.899L215.1 372.199C214.6 372.399 214 372.599 213.5 372.899C212.4 373.399 211.4 373.799 210.3 374.299C210 374.399 209.8 374.599 209.5 374.699C209.2 374.799 209 374.999 208.7 375.099C208.4 375.199 208.2 375.399 207.9 375.499L207.5 375.699L207.2 375.899H207.1C205.7 376.699 203.9 376.199 203.1 374.699C202.3 373.399 202.8 371.599 204.2 370.699Z" fill="#0F156D"/>
<path d="M197.3 481.1C193.9 481.1 190.4 480.7 186.9 479.8C175.5 477 164.9 472.5 156.3 466.9C148 461.5 141.7 455.1 138.1 448.4C134.5 441.8 133.7 435.1 135.8 429.1C138.6 421 145.8 416.7 156.5 416.7C161 416.7 165.2 417.5 167.9 418.1C169.7 411.3 172.5 404.8 176.2 398.7C179.6 393.1 183.7 387.8 188.5 383C193.3 378.1 197.8 374.8 200.8 372.8C192.9 365 187.8 355.9 185.6 345.8C183.7 336.9 184 327.2 186.6 317C190.2 303.2 196.9 292.4 199.6 288.4C194.8 280 192.2 271.6 191.9 263.5C191.6 256.5 192.9 249.8 195.9 243.4C200.9 232.7 208.8 226.9 209.1 226.6C209.9 226 210.9 225.9 211.9 226.2C290.6 255.1 341.7 253.7 370.7 247.5C387 244 398.2 238.6 404.7 234.7C411.7 230.5 414.9 227 415 227C415.7 226.3 416.7 225.9 417.7 226.1C418.7 226.3 419.5 226.9 419.9 227.9C431.8 255.6 432.4 278.4 421.6 295.7C417.4 302.5 411.4 308.4 403.8 313.3C397.8 317.1 390.8 320.3 383 322.8C373.3 325.8 364.8 327 360.8 327.4C350.8 394.7 289.6 421.2 270.9 427.7C267.4 428.9 264.2 430.8 261.6 433.4C256.6 438.2 251.7 443.6 247.1 448.8C238.5 458.3 230.4 467.3 221 473.5C213.2 478.6 205.4 481.1 197.3 481.1ZM156.7 422.7C150.5 422.7 143.9 424.4 141.5 431.1C140 435.5 140.6 440.5 143.4 445.6C150.1 458 167.3 468.9 188.4 474.1C211.4 479.8 226.6 462.9 242.7 445C247.4 439.7 252.3 434.3 257.5 429.3C260.8 426.2 264.6 423.8 268.9 422.3C287 416 346.7 390.1 355.2 324.4C355.4 323 356.6 321.9 358 321.8C358.1 321.8 368.7 321.2 381.3 317.2C392.7 313.6 408 306.5 416.6 292.7C425.8 277.9 425.6 258.3 416.1 234.2C410.3 238.9 396.7 248.1 372.7 253.3C353.7 257.5 331.9 258.4 308.1 256C278.9 253.1 246.4 245.2 211.6 232.5C209.4 234.4 204.6 239.1 201.3 246.2C195.6 258.7 197.1 272.4 205.8 287C206.4 288 206.3 289.3 205.6 290.3C205.5 290.4 196.5 302.5 192.4 318.6C187 339.6 192.1 357.2 207.7 371C208.4 371.6 208.8 372.6 208.7 373.5C208.6 374.5 208 375.3 207.2 375.8C207.1 375.8 200.3 379.6 192.8 387.3C185.9 394.3 176.9 406 173.2 422.3C173 423.1 172.5 423.8 171.8 424.2C171.1 424.6 170.2 424.7 169.4 424.4C169.2 424.5 163.1 422.7 156.7 422.7Z" fill="#0F156D"/>
<path d="M352 413.4C347.2 417.5 341.4 420.4 334.9 421.7C334.8 421.7 334.6 421.8 334.5 421.8C309.9 426.4 301.1 409.9 301.1 409.9C306.4 407.7 313.6 401.1 313.6 401.1C309.2 398.9 306 395.7 303.8 392.1C296.7 380.1 301.3 362.8 315.9 355.7C318.8 354.3 321.7 353.3 324.3 352.6C341.6 348.4 359.5 358.6 364.4 375.7C368.5 389.4 362.9 404.2 352 413.4Z" fill="#FFAD26"/>
<path d="M352 413.399C347.2 417.499 341.4 420.399 334.9 421.699C310 426.599 301.1 409.899 301.1 409.899C306.4 407.699 313.6 401.099 313.6 401.099C309.2 398.899 306 395.699 303.8 392.099C303.8 392.099 312.4 398.099 329.3 384.599C344.5 372.399 370.2 387.199 352 413.399Z" fill="white"/>
<g opacity="0.3">
<path d="M334.5 421.7C309.9 426.3 301.1 409.8 301.1 409.8C306.4 407.6 313.6 401 313.6 401C328.2 401 336.7 386.5 344.5 387.3C344.5 387.4 360.3 408.5 334.5 421.7Z" fill="#03036B"/>
</g>
<g opacity="0.6">
<path d="M305.4 394.4C301.8 383.4 306.7 369.8 319 363.8C321.8 362.4 324.5 361.5 327.1 360.9C343.7 356.9 360.9 366.6 365.6 383V383.1C365.5 380.6 365.1 378.1 364.4 375.6C359.5 358.5 341.6 348.4 324.3 352.5C321.6 353.2 318.8 354.1 315.9 355.6C301.2 362.7 296.7 380.1 303.8 392C304.3 392.8 304.8 393.6 305.4 394.4Z" fill="white"/>
</g>
<path d="M315.2 398.499H315.4C315.5 398.499 315.6 398.599 315.8 398.599C316.1 398.699 316.3 398.699 316.6 398.799C317.2 398.899 317.8 398.899 318.4 398.899C319.6 398.799 320.9 398.499 322.2 397.999C323.5 397.499 324.7 396.699 326 395.899C327.2 394.999 328.4 393.999 329.5 392.999C330.7 391.799 332 390.599 333.5 389.499C333.8 389.199 334.2 388.999 334.6 388.699C335 388.399 335.3 388.199 335.7 387.899C336.5 387.399 337.3 386.899 338.1 386.499L338.8 386.199C339 386.099 339.3 385.999 339.5 385.999C339.7 385.899 340 385.899 340.2 385.799C340.5 385.699 340.7 385.699 341 385.699H341.4H341.8H342C342.1 385.699 342.1 385.699 342.2 385.699C342.3 385.699 342.5 385.699 342.6 385.699C343.2 385.799 343.7 385.899 344.3 386.199C344.8 386.399 345.3 386.799 345.7 387.199C346.1 387.599 346.4 387.999 346.6 388.499C347 389.399 347.2 390.299 347.3 391.199C347.3 391.299 347.2 391.499 347.1 391.499C347 391.499 346.9 391.499 346.9 391.399C346.3 390.699 345.8 390.099 345.2 389.699C344.9 389.499 344.6 389.299 344.3 389.199C344 389.099 343.7 388.999 343.5 388.999C343.2 388.999 343 388.999 342.7 389.099L342.5 389.199H342.4H342.3L342.1 389.299L341.9 389.399C341.8 389.399 341.6 389.499 341.5 389.599C341.4 389.699 341.2 389.699 341.1 389.799L340.7 389.999L340.2 390.299C339.6 390.699 339 391.099 338.4 391.599C337.8 392.099 337.3 392.599 336.7 393.199C335.6 394.299 334.5 395.499 333.5 396.699C332.3 397.999 331.1 399.299 329.6 400.499C328.2 401.699 326.6 402.699 324.8 403.599C323 404.399 321.1 404.999 318.9 405.199C317.8 405.299 316.8 405.199 315.7 404.999C315.2 404.899 314.6 404.799 314.1 404.599C313.8 404.499 313.6 404.399 313.3 404.299C313.2 404.199 313 404.199 312.9 404.099C312.8 404.099 312.8 403.999 312.7 403.999L312.6 403.899C312.5 403.899 312.5 403.899 312.4 403.799C311 402.899 310.6 401.099 311.5 399.699C312 397.999 313.9 397.599 315.2 398.499Z" fill="#0F156D"/>
<path d="M326.3 425.5C317.4 425.5 311.1 422.7 307.1 420C301.2 416.1 298.7 411.4 298.6 411.2C298.2 410.5 298.1 409.6 298.4 408.8C298.7 408 299.3 407.4 300 407.1C302.8 405.9 306.2 403.4 308.6 401.4C301.6 396.4 297.6 388.5 297.6 379.6C297.6 374.2 299.1 369 302 364.3C305 359.4 309.4 355.5 314.7 352.9C317.7 351.5 320.7 350.4 323.7 349.6C332.8 347.4 342.4 348.8 350.6 353.4C358.8 358.1 364.8 365.7 367.4 374.7C370.3 384.7 368.6 395.8 362.8 405.3C356.7 415.3 346.7 422.3 335.6 424.5C332.2 425.2 329.1 425.5 326.3 425.5ZM305.5 410.9C306.6 412.2 308.3 413.8 310.6 415.3C317 419.4 325 420.6 334.4 418.8C343.9 416.9 352.5 410.9 357.7 402.3C362.6 394.2 364.1 384.8 361.7 376.4C357.3 361 340.9 351.6 325.1 355.4C322.5 356 319.8 357 317.3 358.2C308.9 362.3 303.6 370.5 303.6 379.6C303.5 387.7 307.8 394.7 315 398.3C315.9 398.7 316.5 399.6 316.6 400.5C316.7 401.5 316.4 402.4 315.7 403.1C315.4 403.4 310.5 407.9 305.5 410.9Z" fill="#0F156D"/>
<path d="M202 418C214 404.2 209.4 380.5 191.6 365C173.8 349.6 149.7 348.2 137.7 362.1C125.7 375.9 130.3 399.6 148.1 415.1C165.8 430.5 189.9 431.8 202 418Z" fill="white"/>
<g opacity="0.3">
<path d="M191.6 365.1C190 363.7 188.4 362.5 186.8 361.3C199.2 376.3 201.4 395.8 190.9 407.9C179.9 420.5 158.9 420.5 141.8 408.7C143.7 410.9 145.7 413.1 148.1 415.1C165.9 430.5 190 431.9 202 418.1C214 404.2 209.3 380.5 191.6 365.1Z" fill="#03036B"/>
</g>
<path d="M179.3 430.6C178.5 430.6 177.8 430.6 177 430.5C166.2 429.9 155.2 425.2 146.1 417.3C137 409.4 130.9 399.2 128.8 388.5C126.7 377.6 129 367.5 135.4 360.1C141.8 352.7 151.5 349 162.6 349.6C173.4 350.2 184.4 354.9 193.5 362.8C202.6 370.7 208.7 380.9 210.8 391.6C212.9 402.5 210.6 412.6 204.2 420C198.2 426.8 189.4 430.6 179.3 430.6ZM160.3 355.5C152.2 355.5 144.8 358.3 139.9 364C129 376.6 133.5 398.5 150 412.8C158.1 419.8 167.8 424 177.3 424.5C186.6 425 194.5 422 199.7 416C204.9 410 206.8 401.7 205 392.6C203.2 383.2 197.7 374.2 189.6 367.2C180.7 359.5 170 355.5 160.3 355.5Z" fill="#0F156D"/>
<path d="M334 240.6C329.5 239.9 324.9 238.3 320.2 235.9C319.6 235.6 318.9 235.2 318.2 234.8C317.7 234.5 317.2 234.2 316.6 233.9C313.6 232.1 310.7 230.1 307.9 227.9C304.5 229.1 301.1 230.1 297.7 230.8C297.1 230.9 296.5 231.1 295.9 231.2C295.1 231.3 294.3 231.5 293.6 231.6C288.3 232.4 283.4 232.4 279 231.7C273.9 230.9 269.4 229 265.7 226.3C260.1 222 258.4 215.6 261 209.1C263.7 202.6 270.2 198 275.8 198.7C275.9 198.7 275.9 198.7 276 198.7C278.1 199 279.6 201 279.3 203.1C279.2 204.2 278.6 205.1 277.8 205.8C277 206.5 275.9 206.7 274.8 206.6C273.3 206.4 269.9 208.5 268.5 212.1C266.6 216.8 269.6 219.1 270.6 219.9C273.3 221.9 276.5 223.2 280.3 223.8C284.1 224.4 288.4 224.4 293.2 223.6C293.9 223.5 294.6 223.4 295.3 223.2C298.5 222.6 301.9 221.7 305.2 220.5L306.4 213C299.4 211 293.9 207.2 290.7 202.3C288.3 198.5 287.5 194.2 288.7 190.3C288.9 189.6 289.1 189 289.4 188.4C289.9 187.4 290.4 186.5 291.1 185.7C294.2 182.2 299.3 181 306.7 182.3C309.4 182.7 311.9 183.4 314 184H314.2C314.6 184.1 315 184.2 315.3 184.3C315.6 184.3 316 184.4 316.4 184.4H316.6C318.7 184.5 321.3 184.7 324 185.2C331.4 186.4 335.8 189.1 337.6 193.4C338 194.4 338.3 195.5 338.4 196.6C338.5 197.2 338.5 197.9 338.4 198.6C338.2 202.7 336.1 206.5 332.6 209.3C328.1 213 321.6 214.7 314.3 214.4L313.1 221.9C315.9 224.1 318.8 226 321.6 227.7C322.3 228.1 322.9 228.4 323.5 228.7C327.8 230.9 331.9 232.4 335.6 233C339.4 233.6 342.9 233.4 346.1 232.4C347.3 232 350.9 230.7 350.6 225.7C350.3 221.8 347.9 218.8 346.3 218.5C344.1 218.1 342.7 216 343.2 213.8C343.6 211.7 345.6 210.3 347.8 210.6C347.9 210.6 347.9 210.6 348 210.6C353.5 211.7 358.2 218.1 358.6 225.2C359.1 232.2 355.3 237.7 348.7 240C343.9 241.1 339.1 241.4 334 240.6Z" fill="#80232F"/>
<path d="M275.4 169.599C274.4 169.399 273.4 169.099 272.6 168.699C266.3 165.499 264.8 156.399 269 147.899C269.6 146.699 270.3 145.499 271.1 144.499L270.5 139.899C270.4 139.199 270.1 135.799 271.8 133.599C272.6 132.499 273.8 131.899 275.2 131.699C275.8 131.599 276.5 131.599 277.2 131.799C277.8 131.899 278.4 132.099 279 132.299C280.1 132.699 281.2 133.399 282.4 134.399C283 134.899 283.6 135.399 284.2 135.999C285.1 136.899 286 137.699 286.9 138.499C288.4 139.799 289.7 140.999 291 141.899C294.5 144.599 296.1 145.199 296.5 145.299L304.4 147.099L297.1 150.799C296.9 150.899 295.5 151.599 293.6 151.799C293.4 154.399 292.6 156.999 291.3 159.499C287.8 166.299 281.2 170.499 275.4 169.599Z" fill="#80232F"/>
<path d="M352.6 182.299C346.8 181.299 341.9 175.199 340.8 167.399C340.4 164.599 340.5 161.899 341.1 159.399C339.3 158.599 338.2 157.499 338.1 157.299L332.4 151.499L340.5 152.299C340.9 152.299 342.6 152.399 346.8 150.899C348.2 150.399 349.9 149.699 351.8 148.999C352.9 148.499 354.1 147.999 355.2 147.499C355.9 147.199 356.7 146.799 357.4 146.599C358.9 146.099 360.1 145.799 361.3 145.699C361.9 145.699 362.6 145.699 363.2 145.799C363.9 145.899 364.5 146.099 365.1 146.399C366.3 146.999 367.2 147.999 367.7 149.299C368.6 151.999 367.2 155.099 366.9 155.699L364.8 159.899C365.2 161.199 365.5 162.499 365.7 163.899C367 173.299 362.6 181.399 355.6 182.399C354.6 182.499 353.6 182.399 352.6 182.299Z" fill="#80232F"/>
<path d="M453.4 204.5C455.8 203.6 458.1 202.2 460.1 200.3L462.9 197.8L459.7 195.7C448.7 188.4 438.9 175 432.2 157.9C450.2 135 458.1 111.3 461.6 95.4996C465.8 76.4996 465.8 57.2996 461.7 46.5996C459.1 39.7996 455.5 37.8996 452.9 37.4996C441.8 35.6996 425.9 43.3996 404.4 60.9996C395.6 68.1996 387.8 75.5996 382.3 80.9996C367.3 71.4996 351.5 66.6996 339.9 64.2996V64.1996L337 63.6996C336.8 63.6996 336.7 63.5996 336.5 63.5996L335.2 71.4996C347 73.6996 364 78.4996 379.6 88.7996C380.1 89.0996 380.7 89.4996 381.3 89.9996C388.6 95.0996 395.1 101 400.4 107.7C400.8 108.2 401.3 108.8 401.7 109.4C407.2 116.6 411.7 124.8 415 133.7L415.1 133.9C415.3 134.4 415.5 134.9 415.7 135.5L415.9 136.1C417.2 139.6 418.5 143.1 419.9 146.8L420.7 149C421.9 152.3 423 155.1 424 157.6C424.3 158.3 424.6 159.1 424.9 159.8C425.3 161.1 425.8 162.3 426.4 163.7C432.5 178.4 439.7 189.5 448.4 197.5C448.1 197.6 447.8 197.6 447.6 197.6L446.6 197.7C444.4 197.9 443.7 199.5 443.7 200.5V200.6V200.7C443.7 203.6 444.6 206.5 446.2 209C446.7 209.8 447.2 210.5 447.8 211.2C447.1 212 446.4 212.8 445.7 213.5C438.3 221.4 429.2 228.9 417.6 237L417.5 236.3L413.6 239.2C413.1 239.6 412.5 240 411.7 240.6C408.4 242.9 405 245.1 401.5 247C400.9 247.3 400.2 247.7 399.6 248.1C379.5 258.9 356.2 264.1 330.2 263.7C327.2 263.6 324.1 263.4 321 263.2C315.3 262.7 309.6 262 304.1 261.2L302.7 269.4C312 270.8 321.6 271.6 331.2 271.7L331.4 271.8H332.2C354.9 271.9 375.9 267.8 394.6 259.5C397.3 258.3 400 257 402.7 255.6C403.3 255.3 404 254.9 404.8 254.5C408.2 252.7 411.5 250.6 414.6 248.5C422.2 243.7 428.9 239 435.2 234.1C442 228.8 447.3 224 451.9 219.2C453.9 217.1 455.9 214.8 457.6 212.2L458.6 210.6C458.7 210.2 453.8 207.9 453.4 204.5ZM403.7 98.6996C399.4 93.8996 394.6 89.4996 389.3 85.4996C406.6 68.5996 427.3 51.7996 441.8 46.5996C437.9 49.9996 431.2 57.2996 420 73.5996C418.8 75.2996 417.6 77.0996 416.4 78.8996C411.5 86.1996 407.1 93.2996 403.7 98.6996ZM420.8 125.7C417.7 118.4 413.8 111.6 409.1 105.4C410.8 102.7 412.9 99.2996 415.3 95.3996C415.4 95.5996 415.6 95.7996 415.8 95.8996C416.5 96.5996 417.4 97.0996 418.4 97.1996C420.7 97.5996 423 96.3996 426 94.5996C425.5 95.8996 425 96.9996 424.7 97.7996C423 102.4 422.3 105.4 426.5 109.7C426.6 109.9 426.9 110.6 426.9 112.3C426.8 114.4 426 119.3 420.8 125.7ZM425.5 138.1C425 136.7 424.5 135.4 424 134.1C427.9 130.1 430.8 126 432.6 121.8C434.4 117.8 434.8 114.7 434.9 112.7C435 109.1 434.1 106.1 432.3 104.3C431.7 103.7 431.5 103.4 431.4 103.3C431.4 102.9 431.9 101.7 432.2 100.7C432.8 98.9996 434.8 94.2996 437.5 87.9996C437.8 87.3996 438 86.7996 438.2 86.2996L440.7 80.4996L435.2 81.5996C434.2 81.7996 433.2 82.0996 432.1 82.4996C428.7 83.6996 425.4 85.6996 422.8 87.1996C422.8 87.1996 422.6 87.2996 422.5 87.3996C422.7 86.0996 423 84.5996 423.5 82.6996C440 58.1996 446.6 52.6996 448.8 51.3996C448.8 51.4996 448.9 51.4996 448.9 51.5996C451.4 55.3996 453.6 68.9996 448.9 89.4996C445 107.3 436.7 124.4 425.5 138.1ZM428.7 146.7C432.1 142.9 435.3 138.7 438.2 134.4C435.6 139.1 432.6 143.7 429.3 148.3C429.1 147.8 428.9 147.2 428.7 146.7Z" fill="#00126A" stroke="#00126A" stroke-width="4" stroke-miterlimit="10"/>
<path d="M173.9 163.3L174.4 165.1C175.2 168.1 176.4 170.9 177.6 173.5C180.4 179.5 183.9 185.7 188.6 193C193 199.7 197.9 206.3 203.5 213.2C205.8 216.2 208.3 219.2 210.9 222C211.5 222.6 212.1 223.3 212.5 223.7C214.5 225.8 216.7 227.9 218.9 230C234 243.9 252.5 254.5 274.1 261.7L274.9 262H275.1C284.2 265 293.6 267.3 302.9 269L304.2 260.8C298.7 259.9 293.1 258.7 287.5 257.3C284.5 256.6 281.5 255.7 278.6 254.9C253.9 247 233.4 234.6 217.9 217.9C217.4 217.3 216.9 216.8 216.4 216.3C213.7 213.3 211.1 210.1 208.8 206.9C208.3 206.2 207.8 205.6 207.4 205L204.6 201L204.3 201.6C195.8 190.2 189.7 180.2 185.2 170.3C184.8 169.4 184.4 168.4 184 167.4C184.8 166.9 185.5 166.4 186.2 165.9C188.6 164 190.4 161.5 191.3 158.8V158.7V158.6C191.6 157.7 191.5 155.9 189.4 155L188.5 154.6C188.2 154.5 188 154.4 187.7 154.2C198.5 149.4 208.9 141.2 219.4 129.3C220.4 128.2 221.2 127.1 222.1 126.1C222.6 125.5 223.1 124.9 223.6 124.3C225.3 122.2 227.2 119.9 229.5 117.2L231 115.4C233.5 112.3 235.9 109.4 238.2 106.5L238.6 106C238.9 105.6 239.3 105.1 239.6 104.7L239.7 104.5C245.7 97.0996 252.5 90.7996 260.1 85.6996C260.8 85.2996 261.4 84.8996 261.9 84.4996C269.1 79.8996 277.1 76.2996 285.7 73.8996C286.4 73.6996 287.1 73.4996 287.7 73.3996C305.8 68.5996 323.4 69.4996 335.3 71.2996L336.6 63.3996C336.4 63.3996 336.3 63.2996 336.1 63.2996L333.2 62.7996V62.8996C321.4 61.4996 304.9 60.9996 287.6 65.0996C284.1 58.1996 279.1 48.6996 273.1 39.0996C258.4 15.4996 245.9 3.09963 234.7 1.19963C232.1 0.799633 228 1.39963 223.4 6.99963C216.1 15.8996 210 34.0996 207.8 53.3996C206 69.4996 206 94.4996 215.7 122C203.8 136.1 190.3 145.6 177.5 149L173.8 150L175.6 153.3C176.9 155.7 178.6 157.8 180.6 159.4C178.1 162.8 173.9 163.3 173.9 163.3ZM256 52.4996C255.4 50.3996 254.9 48.3996 254.3 46.2996C248.9 27.2996 245 18.2996 242.3 13.7996C254.4 23.2996 268.6 45.8996 279.6 67.4996C273.3 69.5996 267.3 72.1996 261.7 75.3996C260.3 69.0996 258.3 60.9996 256 52.4996ZM235.4 80.7996C235.9 79.1996 236.4 78.5996 236.6 78.4996C241.9 75.7996 242.2 72.6996 242.1 67.7996C242.1 66.9996 242 65.7996 241.9 64.2996C244.2 66.8996 246 68.7996 248.2 69.1996C249.2 69.3996 250.2 69.1996 251.1 68.7996C251.3 68.6996 251.5 68.5996 251.7 68.4996C252.8 72.8996 253.7 76.7996 254.4 79.8996C248 84.2996 242.1 89.4996 236.8 95.3996C234 87.6996 234.9 82.6996 235.4 80.7996ZM221.7 51.9996C223.9 31.0996 230.3 18.8996 233.8 16.0996C233.9 15.9996 233.9 15.9996 234 15.9996C235.7 17.8996 240.2 25.1996 248 53.6996C247.8 55.5996 247.6 57.1996 247.4 58.3996C247.3 58.2996 247.2 58.1996 247.2 58.1996C245.2 55.8996 242.7 52.8996 239.9 50.6996C239 49.9996 238.1 49.3996 237.3 48.8996L232.4 46.0996L232.9 52.3996C232.9 52.9996 233 53.5996 233 54.2996C233.6 61.0996 233.9 66.0996 234 67.9996C234 69.0996 234.1 70.3996 234 70.6996C233.9 70.7996 233.6 70.9996 232.9 71.3996C230.6 72.4996 228.8 75.0996 227.7 78.4996C227.1 80.3996 226.6 83.4996 226.9 87.8996C227.3 92.4996 228.7 97.2996 231.1 102.4C230.2 103.5 229.3 104.6 228.4 105.7C222.3 88.9996 219.9 70.1996 221.7 51.9996ZM221.5 114.1C219.8 108.7 218.5 103.3 217.5 97.9996C218.9 103.1 220.6 108 222.6 112.7C222.3 113.2 221.9 113.6 221.5 114.1Z" fill="#00126A" stroke="#00126A" stroke-width="4" stroke-miterlimit="10"/>
<path d="M446.3 200.8C446.3 200.5 455.8 197.3 455.6 197.2C444.2 187.3 435.1 176.7 427.7 157.6C427.4 156.9 427.1 156.1 426.8 155.3C425.7 152.5 424.7 149.7 423.6 146.8C423.3 146.1 423.1 145.3 422.8 144.6C421.5 141.2 420.2 137.6 418.9 133.9C418.6 133.2 418.4 132.5 418.1 131.8C418.1 131.7 418 131.7 418 131.6C414.5 121.9 409.8 113.6 404.5 106.5C404 105.9 403.6 105.3 403.1 104.7C397.2 97.3 390.6 91.3 383.6 86.5C383 86.1 382.4 85.7 381.8 85.3C380.5 84.5 379.3 83.7 378 82.9C363.1 73.8 347.4 69.5 335.7 67.4C322.9 65.5 304.9 64.5 286.3 69.5C285.6 69.7 284.9 69.9 284.2 70.1C276.1 72.5 267.8 76 259.9 81.1C259.3 81.5 258.7 81.9 258 82.3C250.7 87.3 243.6 93.6 237.2 101.7C237.2 101.8 237.1 101.8 237.1 101.9C236.6 102.5 236.1 103.1 235.7 103.7C233.3 106.8 230.9 109.7 228.6 112.5C228.1 113.1 227.6 113.7 227.1 114.3C225.1 116.7 223.2 119.1 221.3 121.4C220.8 122 220.3 122.6 219.8 123.3C206.7 139 194.6 146.1 180.9 152.5C180.8 152.6 188.5 158 188.4 158.3C187.7 160.3 187.6 166.7 190.7 176.6C192.5 182.6 196.6 193.4 205.1 205.6C205.5 206.2 206 206.9 206.5 207.6C208.8 210.7 211.3 214 214.2 217.2C214.7 217.8 215.2 218.3 215.7 218.9C229.1 233.4 249.1 248 278.7 257.1C286.6 259.2 295.3 261.1 304.8 262.7C313.6 264.1 321.8 265 329.3 265.5C360.2 266.3 383.8 258.9 401.2 249.5C401.9 249.1 402.5 248.8 403.2 248.4C407 246.3 410.4 244 413.6 241.8C414.3 241.3 414.9 240.9 415.5 240.4C427.4 231.6 434.8 222.6 438.4 217.5C444.3 209.1 446.3 203 446.3 200.8ZM349 236.8C345 238.1 340.7 238.3 336.1 237.6C332 236.9 327.6 235.4 323.1 233.1C317 229.7 309.9 224.2 309.9 224.2C305.3 226.8 294.6 228.4 294.6 228.4C289.6 229.1 285 229.1 280.9 228.5C276.3 227.7 272.3 226.1 268.9 223.6C264.4 220.1 263 215.1 265.2 209.9C266.6 206.5 269.2 203.8 272 202.3C273.6 201.5 275.3 201.1 276.9 201.3C277.5 201.4 277.9 201.9 277.8 202.5C277.7 203.1 277.2 203.5 276.6 203.4C276.1 203.3 275.6 203.4 275 203.5C272 204 268.6 207 267.1 210.7C266.1 213.2 265.1 218.1 270.2 222C277.3 227.3 286.7 227.6 295 226.3C295.7 226.2 296.5 226.1 297.2 225.9C301.4 225.1 305.1 223.9 308.1 222.9C308.5 222.8 308.9 222.6 309.2 222.5L311.2 210.6C308.3 210 305.7 209.1 303.3 207.9C301.2 206.8 299.3 205.6 297.7 204.1C297.6 204 297.4 203.9 297.3 203.7C296.2 202.7 295.3 201.6 294.6 200.4C292.6 197.3 292 193.9 292.9 190.8C293 190.3 293.2 189.8 293.4 189.3C293.7 188.5 294.2 187.9 294.7 187.3C299.1 182.3 308.9 184.9 314.6 186.4C315.2 186.5 315.7 186.7 316.1 186.8C316.6 186.8 317.1 186.9 317.7 186.9C323.5 187.3 333.7 188 336.2 194.1C336.5 194.8 336.7 195.6 336.8 196.4C336.9 196.9 336.9 197.4 336.8 198C336.6 201.2 335 204.3 332.1 206.6C327.6 210.2 320.8 211.7 313.2 210.9L311.2 222.8C311.5 223 311.8 223.3 312.1 223.6C314.5 225.5 317.7 227.8 321.4 229.9C322 230.3 322.7 230.6 323.3 231C330.7 234.9 339.7 237.6 348.2 234.9C354.3 232.8 354.9 228 354.7 225.2C354.4 220.5 351.4 215.9 348.1 215.3C347.5 215.2 347.2 214.6 347.3 214.1C347.4 213.5 348 213.2 348.5 213.3C352.7 214.1 356.4 219.5 356.8 225.2C357.3 230.7 354.4 235 349 236.8Z" fill="#FFAD26"/>
<path d="M447.8 199.4C441 199.5 398.2 201.7 362.6 210.1C362.6 210.1 344.2 187 320.5 182.9L313.3 181.7C289.6 178 264.7 194 264.7 194C233.7 174.6 194.2 158.8 187.8 156.5C187.4 157.6 184.6 162.1 179.3 164.3C179.6 167.3 188 182.5 192.1 189.7C195.2 195.1 197.3 196.4 205.8 208.6C206.2 209.2 206.7 209.9 207.2 210.6C209.5 213.7 211.2 213.9 214.1 217.1C214.6 217.7 215.1 218.2 215.6 218.8C229 233.3 249 247.9 278.6 257C286.2 259.1 294.8 261.1 304.3 262.7C313.3 264.2 321.7 265 329.3 265.4C360.2 266.2 383.8 258.8 401.2 249.4C401.9 249 402.5 248.7 403.2 248.3C407 246.2 410.4 246.5 413.5 244.3C414.2 243.8 418.6 239.9 419.3 239.4C431.2 230.6 432.6 230.4 453.2 209.5C448.1 205.9 447.8 201.6 447.8 199.4ZM349 236.7C345 238 340.7 238.2 336.1 237.5C332 236.8 327.6 235.3 323.1 233L310 224L294.7 228.3C289.7 229 285.1 229 281 228.4C276.4 227.6 272.4 226 269 223.5C264.5 220 263.1 215 265.3 209.8C267.5 204.5 272.7 200.7 277 201.2C277.6 201.3 278 201.8 277.9 202.4C277.8 203 277.3 203.4 276.7 203.3C273.4 202.9 269 206.2 267.2 210.6C266.2 213.1 265.2 218 270.3 221.9C277.4 227.2 286.8 227.5 295.1 226.2C295.8 226.1 296.6 226 297.3 225.8C301.5 225 305.2 223.8 308.2 222.8C308.6 222.7 309 222.5 309.3 222.4L311.3 210.5C303.8 208.9 297.9 205.2 294.8 200.4C292.8 197.3 292.2 193.9 293.1 190.8C293.2 190.3 293.4 189.8 293.6 189.3C293.9 188.5 294.4 187.9 294.9 187.3C299.3 182.3 309.1 184.9 314.8 186.4C315.4 186.5 315.9 186.7 316.3 186.8C316.8 186.8 317.3 186.9 317.9 186.9C323.7 187.3 333.9 188 336.4 194.1C336.7 194.8 336.9 195.6 337 196.4C337.1 196.9 337.1 197.4 337 198C336.8 201.2 335.2 204.3 332.3 206.6C327.8 210.2 321 211.7 313.4 210.9L311.4 222.8C311.7 223 312 223.3 312.3 223.6C314.7 225.5 317.9 227.8 321.6 229.9C322.2 230.3 322.9 230.6 323.5 231C330.9 234.9 339.9 237.6 348.4 234.9C354.5 232.8 355.1 228 354.9 225.2C354.6 220.5 351.6 215.9 348.3 215.3C347.7 215.2 347.4 214.6 347.5 214.1C347.6 213.5 348.2 213.2 348.7 213.3C352.9 214.1 356.6 219.5 357 225.2C357.3 230.6 354.4 234.9 349 236.7Z" fill="white"/>
<path d="M451.4 49C454.9 54.4 456.1 69.9 451.7 89.2C447.1 109.4 437.5 128.2 424.4 143C423.1 139.6 421.9 136.1 420.6 132.5C430.4 123 431.8 114.9 431.9 111.7C432 108.9 431.4 106.7 430.2 105.5C427.9 103.2 428.2 102.4 429.5 98.8C430.4 96.5 433 90.3 434.8 86C435.2 85.1 435.5 84.3 435.8 83.6C434.9 83.8 434.1 84 433.2 84.3C430.2 85.4 427.1 87.2 424.5 88.8C422.7 89.9 420.2 91.4 419.4 91.4C419 90.3 419.7 85.7 420.9 80.6C431.5 64.6 442.7 49.6 448.2 47.5C448.7 47.3 450 46.8 451.4 49Z" fill="white"/>
<path d="M456.8 47.2995C462.9 63.4995 460.4 111.999 428.3 153.499C427.3 150.799 426.2 147.999 425.2 145.199C438.9 130.099 449 110.599 453.7 89.6995C458.2 69.8995 456.8 53.6995 453.1 47.8995C451 44.6995 448.7 44.9995 447.5 45.4995C442 47.5995 431.9 60.6995 422.5 74.4995C421.3 76.2995 420.1 77.9995 419 79.7995C413 88.7995 407.7 97.4995 404.3 102.999C398.5 95.7995 392 89.9995 385.2 85.1995C397.6 72.7995 433.6 38.4995 452.1 41.4995C453.8 41.6995 455.5 43.7995 456.8 47.2995Z" fill="#98ABBB"/>
<path d="M429.7 111.599C429.6 114.499 428.3 121.599 419.7 130.299C416 120.299 411.2 111.899 405.6 104.699C409.1 98.8994 413.3 92.1994 417.7 85.3994C416.7 90.8994 417.2 92.2994 417.9 92.9994C418.2 93.2994 418.5 93.3994 418.9 93.4994C420.4 93.6994 422.6 92.3994 425.6 90.5994C427.6 89.3994 429.8 88.0994 432 86.9994C430.3 91.0994 428.2 95.9994 427.5 97.9994C426 101.999 425.6 103.799 428.7 106.899C429.2 107.499 429.8 108.999 429.7 111.599Z" fill="white"/>
<path d="M314 188.4C314.3 188.5 314.5 188.5 314.8 188.6V188.7C315.1 188.7 315.4 188.8 315.8 188.8C316.1 188.9 316.5 189 316.7 189V188.9C317 188.9 317.2 188.9 317.5 189C323.8 189.4 330.4 190.2 333.3 193.4C333.9 194.1 334.3 194.9 334.6 195.8C334.7 196.4 334.8 197.1 334.7 197.8C334.6 200.5 333.2 202.9 330.8 204.9C326.8 208.2 320.6 209.5 313.6 208.7C313.3 208.7 312.9 208.6 312.6 208.6C312.3 208.5 311.9 208.5 311.6 208.4C304.7 206.9 299.3 203.6 296.5 199.2C294.8 196.6 294.3 193.8 295.1 191.2C295.3 190.5 295.5 189.9 295.9 189.4C296.4 188.6 297.1 187.9 297.9 187.5C301.4 185.4 307.9 186.8 314 188.4Z" fill="#00126A"/>
<path d="M257.7 80.2996C250.8 84.8996 244.1 90.6996 237.9 97.8996C237.3 98.5996 236.7 99.2996 236.1 99.9996C236 99.7996 235.9 99.4996 235.8 99.2996C235.7 98.9996 235.5 98.6996 235.4 98.4996C230.8 88.3996 231.9 81.6996 232.7 79.0996C233.4 76.6996 234.5 75.3996 235.3 74.9996C239.2 72.9996 239.3 71.1996 239.2 66.9996C239.1 64.7996 238.8 59.4996 238.4 55.0996C240.2 56.7996 241.8 58.7996 243.3 60.4996C245.5 63.1996 247.2 65.0996 248.7 65.3996C249.1 65.4996 249.4 65.3996 249.8 65.1996C250.7 64.7996 251.6 63.5996 252.4 58.0996C254.4 65.8996 256.2 73.6996 257.7 80.2996Z" fill="white"/>
<path d="M248.9 63.3001C248.1 63.0001 246.3 60.8001 244.9 59.2001C242.9 56.9001 240.7 54.2001 238.1 52.1001C237.4 51.5001 236.6 51.0001 235.9 50.6001C236 51.3001 236 52.2001 236.1 53.2001C236.5 57.9001 237 64.6001 237 67.0001C237.1 70.9001 237.1 71.7001 234.2 73.1001C232.7 73.9001 231.4 75.8001 230.6 78.5001C229.7 81.6001 228.4 89.7001 234.6 101.8C232.2 104.8 229.9 107.7 227.6 110.5C225.8 106.2 224.2 101.7 222.9 97.0001C218.8 82.3001 217.4 66.4001 219 50.7001C219.8 43.2001 221.1 36.5001 222.8 30.9001C225.5 21.7001 229.1 15.2001 232.2 12.8001C234.3 11.1001 235.3 12.0001 235.7 12.3001C240.2 16.1001 246 33.9001 250.9 52.4001C250.4 57.8001 249.7 62.3001 248.9 63.3001Z" fill="white"/>
<path d="M217 50.5994C214.8 71.8994 218.1 93.5994 226.2 112.399C224.3 114.799 222.4 117.099 220.5 119.299C203.5 69.6994 216.7 22.9994 227.6 9.59942C230 6.69942 232.2 5.29941 234 5.59941C252.5 8.69941 275.6 52.6994 283.3 68.3994C275.3 70.7994 267.2 74.1994 259.4 79.0994C258 72.7994 255.7 62.7994 252.9 52.3994C252.4 50.3994 251.8 48.2994 251.2 46.2994C246.7 30.2994 241.4 14.5994 236.8 10.7994C235.8 9.99942 233.7 8.89942 230.7 11.2994C225.6 15.4994 219 30.3994 217 50.5994Z" fill="#98ABBB"/>
<path d="M291.6 131.8C286.3 127.5 285.4 120.2 286.2 118.6C287 117 294.2 116.1 300.8 122.1C307.4 128.2 305.1 134.3 303.9 134.8C302.6 135.3 295.7 135.2 291.6 131.8Z" fill="white"/>
<path d="M355.3 142.3C361.7 139.9 364.9 133.3 364.7 131.5C364.4 129.7 357.9 126.5 349.8 130.2C341.6 133.9 341.8 140.3 342.8 141.2C343.7 142.1 350.2 144.2 355.3 142.3Z" fill="white"/>
<path d="M297.7 204L297.1 203.6L297.3 203.7C297.5 203.8 297.6 203.9 297.7 204Z" fill="#D1D1D1"/>
<path d="M311.1 210.499L309.1 222.399C308.7 222.499 308.4 222.699 308 222.799C305.1 223.799 301.3 224.999 297.1 225.799C296.4 225.899 295.7 226.099 294.9 226.199C286.6 227.499 277.2 227.199 270.1 221.899C265 217.999 266 213.199 267 210.599C268.5 206.899 271.9 203.899 274.9 203.399C272.5 206.699 264.7 218.899 279.1 222.199C295.8 225.999 307.3 218.499 307.3 218.499L308.5 211.399L303.2 207.799C305.6 208.999 308.3 209.899 311.1 210.499Z" fill="#D1D1D1"/>
<path d="M313.3 210.899L311.3 222.799C311.6 222.999 311.9 223.299 312.2 223.599C314.6 225.499 317.8 227.799 321.5 229.899C322.1 230.299 322.8 230.599 323.4 230.999C330.8 234.899 339.8 237.599 348.3 234.899C354.4 232.799 355 227.899 354.8 225.199C354.5 221.199 352.3 217.299 349.6 215.799C350.8 219.699 354.3 233.799 339.6 232.199C322.6 230.399 314.1 219.699 314.1 219.699L315.3 212.599L321.5 210.899C319 211.199 316.2 211.199 313.3 210.899Z" fill="#D1D1D1"/>
<path d="M237.6 162.9C227.9 158.9 222.2 161.3 221.6 164.3C221 167.3 234.4 173.7 239.9 176.1C245.4 178.6 247.6 176.8 249.6 174.3C251.5 171.8 241.8 164.6 237.6 162.9Z" fill="#FFCFBD"/>
<path d="M399.8 189.6C410.3 188.9 414.9 193 414.5 196C414.1 199 399.4 200.8 393.4 201.4C387.4 202 385.8 199.6 384.8 196.6C383.8 193.6 395.3 189.9 399.8 189.6Z" fill="#FFCFBD"/>
<path d="M308.6 185.7C308.6 185.7 297.7 183.4 296.2 186.9C294.7 190.4 300.7 195.3 307.5 195.9C314.3 196.5 315.3 189.3 313.2 188C311.1 186.8 308.6 185.7 308.6 185.7Z" fill="white"/>
<path d="M248.9 63.2997C248.1 62.9997 246.3 60.7997 244.9 59.1997C242.9 56.8997 240.7 54.1997 238.1 52.0997C237.4 51.4997 236.6 50.9997 235.9 50.5997C236 51.2997 236 52.1997 236.1 53.1997C236.5 57.8997 237 64.5997 237 66.9997C237.1 70.8997 237.1 71.6997 234.2 73.0997C232.7 73.8997 231.4 75.7997 230.6 78.4997C229.7 81.5997 228.4 89.6997 234.6 101.8C232.2 104.8 229.9 107.7 227.6 110.5C225.8 106.2 224.2 101.7 222.9 96.9997C225.2 91.7997 224.5 86.1997 224.9 81.1997C225.4 74.6997 231.2 68.1997 231.7 64.2997C232.2 60.2997 233.8 49.1997 232.3 43.0997C231.5 39.8997 227 34.9997 222.8 30.9997C225.5 21.7997 229.1 15.2997 232.2 12.8997C234.3 11.1997 235.3 12.0997 235.7 12.3997C240.2 16.1997 246 33.9997 250.9 52.4997C250.4 57.7997 249.7 62.2997 248.9 63.2997Z" fill="#D1D1D1"/>
<path d="M419.4 91.3999C420.2 91.3999 422.7 89.8999 424.5 88.7999C427.1 87.1999 430.1 85.3999 433.2 84.2999C434.1 83.9999 434.9 83.6999 435.8 83.5999C435.5 84.2999 435.2 85.0999 434.8 85.9999C433 90.2999 430.3 96.4999 429.5 98.7999C428.2 102.4 427.9 103.2 430.2 105.5C431.4 106.7 432 109 431.9 111.7C431.8 114.9 430.4 123 420.6 132.5C421.9 136.1 423.2 139.6 424.4 143C427.5 139.5 430.5 135.7 433.2 131.8C432.7 126.1 435.1 121.1 436.4 116.2C438 109.9 434.6 101.9 435.4 97.9999C436.2 94.0999 438.3 83.0999 441.6 77.6999C443.4 74.8999 449.3 71.6999 454.5 69.2999C454.9 59.6999 453.6 52.3999 451.4 49.0999C450 46.8999 448.7 47.3999 448.3 47.4999C442.8 49.5999 431.6 64.5999 421 80.5999C419.7 85.6999 419 90.1999 419.4 91.3999Z" fill="#D1D1D1"/>
<path d="M257.7 80.3C250.8 84.9 244.1 90.7 237.9 97.9L235.8 99.3L235 99.8C235 99.8 235.1 99.3 235.4 98.4C236.2 95.9 238 90.4 240.5 86.9C243.9 82.3 248.4 74.6 247.3 70.7C246.3 67.1 239.8 57.2 238.6 55.3C238.5 55.1 238.4 55 238.4 55C240.2 56.7 241.8 58.7 243.3 60.4C245.5 63.1 247.2 65 248.7 65.3C249.1 65.4 249.4 65.3 249.8 65.1C250.7 64.7 251.6 63.5 252.4 58C254.4 65.9 256.2 73.7 257.7 80.3Z" fill="#D1D1D1"/>
<path d="M405.7 104.699C410.8 111.299 415.2 118.899 418.8 127.699L420.3 129.699L420.9 130.499C420.9 130.499 420.9 129.999 421 129.099C421.1 126.499 421.1 120.699 419.8 116.499C418.1 110.999 416.2 102.299 418.5 98.9994C420.6 95.9994 429.9 88.5994 431.7 87.1994C431.9 87.0994 432 86.9994 432 86.9994C429.8 87.9994 427.6 89.3994 425.6 90.5994C422.6 92.3994 420.4 93.6994 418.9 93.4994C418.5 93.3994 418.2 93.2994 417.9 92.9994C417.2 92.2994 416.7 90.8994 417.7 85.3994C413.4 92.0994 409.2 98.8994 405.7 104.699Z" fill="#D1D1D1"/>
<path d="M335.8 67.6C347.5 69.7 363.2 74 378.1 83.1C336.8 64.6 299.4 71.9 299.4 71.9C303.9 72.1 307.3 74 306.7 77.9C306.1 81.8 275.5 89.3 272.2 86.4C268.9 83.5 273.5 78.7 273.5 78.7C256.3 84.7 236.1 103.7 235.8 104C236.3 103.4 236.7 102.8 237.2 102.2C237.2 102.1 237.3 102.1 237.3 102C243.8 93.9 250.8 87.5 258.1 82.6C258.7 82.2 259.3 81.8 260 81.4C267.9 76.3 276.2 72.8 284.3 70.4C285 70.2 285.7 70 286.3 69.8C305 64.7 323 65.6 335.8 67.6Z" fill="white"/>
<path d="M458.8 46.5999C462.6 56.7999 462.5 75.3999 458.5 93.7999C455 109.7 447.1 133.1 429.3 155.8C429 155 428.7 154.3 428.4 153.5C460.4 112 462.9 63.4999 456.9 47.2999C455.6 43.7999 453.9 41.6999 452.1 41.3999C433.6 38.2999 397.6 72.5999 385.2 85.0999C384.6 84.6999 384 84.2999 383.4 83.8999C388.2 78.9999 396.9 70.4999 406.8 62.3999C427.1 45.4999 442.4 37.7999 452.4 39.3999C454.9 39.7999 457.2 42.2999 458.8 46.5999Z" fill="#00126A"/>
<path d="M453.2 47.8992C456.9 53.5992 458.3 69.7992 453.8 89.6992C449 110.599 439 130.099 425.3 145.199C425 144.499 424.8 143.699 424.5 142.999C437.6 128.299 447.2 109.399 451.8 89.1992C456.2 69.8992 455 54.3992 451.5 48.9992C450.1 46.7992 448.8 47.2992 448.4 47.3992C442.9 49.4992 431.7 64.4992 421.1 80.4992C421.6 78.4992 422.1 76.3992 422.7 74.3992C432.1 60.5992 442.1 47.4992 447.7 45.3992C448.7 44.9992 451.1 44.6992 453.2 47.8992Z" fill="#00126A"/>
<path d="M415.3 240.3C415.4 241.1 415.5 241.9 415.5 242.7C414.8 243.2 414.1 243.7 413.3 244.2C413.4 243.4 413.4 242.5 413.3 241.6C414 241.3 414.7 240.8 415.3 240.3Z" fill="#00126A"/>
<path d="M413.4 241.699C413.5 242.599 413.5 243.399 413.4 244.299C410.3 246.399 407 248.499 403.4 250.499C403.3 249.699 403.2 248.999 403.1 248.299C406.8 246.199 410.2 243.999 413.4 241.699Z" fill="#00126A"/>
<path d="M426.8 155.4C427.3 154.8 427.8 154.1 428.3 153.5C428.6 154.3 428.9 155 429.2 155.8C428.7 156.4 428.2 157.1 427.7 157.7C427.4 156.9 427.1 156.2 426.8 155.4Z" fill="#00126A"/>
<path d="M428.3 153.499C427.8 154.099 427.3 154.799 426.8 155.399C425.7 152.599 424.7 149.799 423.6 146.899C424.1 146.299 424.7 145.799 425.2 145.199C426.3 147.999 427.3 150.799 428.3 153.499Z" fill="#00126A"/>
<path d="M431.8 111.6C431.7 114.8 430.3 122.9 420.5 132.4C420.3 131.9 420.1 131.4 420 130.9C419.9 130.7 419.8 130.5 419.7 130.2C428.3 121.5 429.6 114.3 429.7 111.5C429.8 109 429.2 107.4 428.6 106.8C425.5 103.7 426 101.9 427.4 97.8998C428.2 95.7998 430.2 90.8998 431.9 86.8998C432.8 86.4998 433.7 86.0998 434.6 85.7998C432.8 90.0998 430.1 96.2998 429.3 98.5998C428 102.2 427.7 103 430 105.3C431.3 106.6 431.9 108.9 431.8 111.6Z" fill="#00126A"/>
<path d="M435.8 83.5C435.5 84.2 435.2 85 434.8 85.9C433.9 86.2 433 86.5 432.1 87C432.5 86 432.9 85.1 433.3 84.3C434 83.9 434.9 83.7 435.8 83.5Z" fill="#00126A"/>
<path d="M424.4 142.899C424.7 143.599 425 144.399 425.2 145.099C424.7 145.699 424.1 146.299 423.6 146.799C423.3 146.099 423.1 145.299 422.8 144.599C423.3 144.099 423.8 143.499 424.4 142.899Z" fill="#00126A"/>
<path d="M424.4 142.9C423.9 143.5 423.3 144.1 422.8 144.6C421.5 141.2 420.2 137.6 418.9 133.9C419.5 133.4 420 132.9 420.6 132.3C421.8 136.1 423.1 139.6 424.4 142.9Z" fill="#00126A"/>
<path d="M433.2 84.2C432.8 85 432.4 86 432 86.9C429.8 87.9 427.6 89.3 425.6 90.5C422.6 92.3 420.4 93.6 418.9 93.4C418.5 93.3 418.2 93.2 417.9 92.9C417.2 92.2 416.7 90.8 417.7 85.3C418.7 83.7 419.8 82.1 420.9 80.5C419.7 85.7 418.9 90.2 419.4 91.3C420.2 91.3 422.7 89.8 424.5 88.7C427.1 87.2 430.1 85.3 433.2 84.2Z" fill="#00126A"/>
<path d="M403 248.399C403.1 249.099 403.2 249.799 403.3 250.599C402.6 250.999 402 251.299 401.3 251.699C401.2 250.899 401.1 250.199 401 249.499C401.7 249.099 402.4 248.699 403 248.399Z" fill="#00126A"/>
<path d="M329.2 265.5C360.1 266.3 383.7 258.9 401.1 249.5C401.2 250.2 401.3 250.9 401.4 251.7C398.9 253 396.3 254.3 393.6 255.5C375.4 263.7 355.1 267.7 333.1 267.7C331.8 266.9 330.5 266.2 329.2 265.5Z" fill="#00126A"/>
<path d="M420 130.999C420.2 131.499 420.4 131.999 420.5 132.499C420 132.999 419.4 133.499 418.8 134.099C418.5 133.399 418.3 132.699 418 131.999C418.6 131.499 419.1 130.899 419.6 130.399C419.8 130.499 419.9 130.799 420 130.999Z" fill="#00126A"/>
<path d="M419.7 130.299C419.2 130.799 418.6 131.399 418.1 131.899C418.1 131.799 418 131.799 418 131.699C414.5 121.999 409.8 113.699 404.5 106.599C404.9 105.999 405.3 105.299 405.7 104.699C411.2 111.899 416.1 120.299 419.7 130.299Z" fill="#00126A"/>
<path d="M422.5 74.3994C421.9 76.3994 421.4 78.4994 420.9 80.4994C419.8 82.0994 418.8 83.6994 417.7 85.2994C417.9 84.1994 418.1 82.9994 418.5 81.6994C418.6 80.9994 418.8 80.3994 419 79.6994C420.1 77.9994 421.3 76.1994 422.5 74.3994Z" fill="#00126A"/>
<path d="M418.5 81.6992C418.2 83.0992 417.9 84.2992 417.7 85.2992C413.3 92.0992 409.1 98.7992 405.6 104.599C405.1 103.999 404.7 103.399 404.2 102.899C407.6 97.3992 412.9 88.6992 418.9 79.6992C418.8 80.3992 418.7 80.9992 418.5 81.6992Z" fill="#00126A"/>
<path d="M405.7 104.699C405.3 105.399 404.9 105.999 404.5 106.599C404 105.999 403.6 105.399 403.1 104.799C403.5 104.199 403.8 103.599 404.3 102.899C404.8 103.499 405.2 104.099 405.7 104.699Z" fill="#00126A"/>
<path d="M403.1 104.8C397.2 97.3996 390.6 91.3996 383.6 86.5996C384.1 86.0996 384.6 85.5996 385.1 85.0996C391.9 89.8996 398.4 95.6996 404.3 102.9C403.9 103.6 403.5 104.2 403.1 104.8Z" fill="#00126A"/>
<path d="M385.1 85.0994C384.6 85.6994 384.1 86.1994 383.6 86.5994C383 86.1994 382.4 85.7994 381.8 85.3994C382.3 84.8994 382.8 84.3994 383.3 83.8994C384 84.2994 384.6 84.6994 385.1 85.0994Z" fill="#00126A"/>
<path d="M337.7 65.7998C350.5 68.1998 367.6 73.2998 383.4 83.8998C382.8 84.4998 382.3 84.9998 381.9 85.3998C365.9 74.6998 348.5 69.7998 335.8 67.4998C336.4 67.5998 336.9 67.6998 337.4 67.7998L337.7 65.7998Z" fill="#00126A"/>
<path d="M356.9 225C357.3 230.7 354.4 235 349 236.8C345 238.1 340.7 238.3 336.1 237.6C332 236.9 327.6 235.4 323.1 233.1L323.5 230.9C330.9 234.8 339.9 237.5 348.4 234.8C354.5 232.8 355.1 227.9 354.9 225.1C354.6 220.4 351.6 215.8 348.3 215.2C347.7 215.1 347.4 214.5 347.5 214C347.6 213.4 348.2 213.1 348.7 213.2C352.9 213.9 356.6 219.3 356.9 225Z" fill="#00126A"/>
<path d="M336.8 197.999C336.6 201.199 335 204.299 332.1 206.599C327.6 210.199 320.8 211.699 313.2 210.899L313.5 208.799C320.5 209.599 326.7 208.199 330.7 204.999C333.1 202.999 334.5 200.599 334.6 197.899C334.6 197.199 334.6 196.499 334.5 195.899C335.2 196.099 336 196.199 336.7 196.399C336.9 196.899 336.9 197.399 336.8 197.999Z" fill="#00126A"/>
<path d="M336.2 194.1C336.5 194.8 336.7 195.6 336.8 196.4C336.1 196.2 335.3 196 334.6 195.9C334.4 195 334 194.2 333.3 193.5C334.3 193.7 335.3 193.9 336.2 194.1Z" fill="#00126A"/>
<path d="M317.7 186.9C323.5 187.3 333.7 188 336.2 194.1C335.2 193.9 334.3 193.6 333.3 193.4C330.5 190.2 323.9 189.4 317.5 189C317.2 189 316.9 189 316.7 188.9L317.1 187C316.8 186.9 316.4 186.9 316.1 186.8C316.6 186.8 317.1 186.9 317.7 186.9Z" fill="#00126A"/>
<path d="M323.5 230.899L323.1 233.099C322.5 232.799 321.8 232.399 321.1 232.099L321.5 229.899C322.2 230.199 322.8 230.499 323.5 230.899Z" fill="#00126A"/>
<path d="M321.5 229.799L321.1 231.999C320.6 231.699 320.1 231.399 319.6 231.099C316.1 229.099 313.2 226.899 310.8 225.099L311 223.899C311.4 223.699 311.8 223.599 312.1 223.399C314.6 225.399 317.8 227.699 321.5 229.799Z" fill="#00126A"/>
<path d="M337.7 65.8C337.2 65.7 336.6 65.6 336.1 65.5C336.7 65.6 337.2 65.7 337.7 65.8Z" fill="#00126A"/>
<path d="M337.7 65.7992L337.4 67.7992C336.9 67.6992 336.3 67.5992 335.8 67.4992C335.3 67.3992 334.7 67.2992 334.2 67.1992L334.5 65.1992C335 65.2992 335.6 65.3992 336.1 65.3992C336.6 65.5992 337.2 65.6992 337.7 65.7992Z" fill="#00126A"/>
<path d="M311.3 222.699C311.6 222.899 311.9 223.199 312.2 223.499C311.9 223.599 311.5 223.799 311.1 223.999L311.3 222.699Z" fill="#00126A"/>
<path d="M316.1 186.799C316.5 186.899 316.8 186.999 317.1 187.099L316.7 188.999C316.4 188.999 316 188.899 315.7 188.899C315.4 188.799 315.1 188.699 314.8 188.699L315 186.799C315.4 186.699 315.7 186.799 316.1 186.799Z" fill="#00126A"/>
<path d="M311.1 223.899L310.9 225.099C310.6 224.799 310.3 224.599 310 224.299C310.3 224.199 310.7 224.099 311.1 223.899Z" fill="#00126A"/>
<path d="M311.5 221.5L311.3 222.7C311 222.4 310.7 222.2 310.4 221.9C310.7 221.8 311.1 221.6 311.5 221.5Z" fill="#00126A"/>
<path d="M309.8 218.899L309.5 220.999L311.6 221.299L311.9 219.199L309.8 218.899Z" fill="#00126A"/>
<path d="M310.3 221.899C310.6 222.099 310.9 222.399 311.2 222.699L311 223.899C310.6 223.999 310.3 224.199 309.9 224.299C309.6 223.999 309.3 223.799 309 223.499L309.2 222.299C309.6 222.199 310 222.099 310.3 221.899Z" fill="#00126A"/>
<path d="M313.2 210.9C312.9 210.9 312.5 210.8 312.2 210.8C312.5 210.8 312.8 210.8 313.2 210.9Z" fill="#00126A"/>
<path d="M313.5 208.8C313.2 208.7 312.8 208.7 312.5 208.6C312.9 208.7 313.2 208.7 313.5 208.8Z" fill="#00126A"/>
<path d="M312.5 208.7C312.8 208.8 313.2 208.8 313.5 208.9L313.2 210.9C312.9 210.9 312.5 210.8 312.2 210.8C311.9 210.7 311.5 210.7 311.2 210.6L311.5 208.6C311.9 208.6 312.2 208.6 312.5 208.7Z" fill="#00126A"/>
<path d="M316.7 188.999V189.099C316.4 188.999 316.1 188.999 315.8 188.899C316.1 188.899 316.4 188.899 316.7 188.999Z" fill="#00126A"/>
<path d="M311.2 210.5C311.5 210.6 311.9 210.6 312.2 210.7C311.8 210.7 311.5 210.6 311.2 210.5Z" fill="#00126A"/>
<path d="M314.8 188.6C315.1 188.7 315.4 188.8 315.7 188.8C315.4 188.8 315 188.7 314.7 188.7L314.8 188.6Z" fill="#00126A"/>
<path d="M310.3 221.9C309.9 222 309.6 222.2 309.2 222.3L309.4 221.1C309.7 221.4 310 221.7 310.3 221.9Z" fill="#00126A"/>
<path d="M316.1 186.8C315.7 186.8 315.3 186.7 315 186.7L314.8 188.6C314.5 188.5 314.3 188.5 314 188.4C307.9 186.8 301.4 185.4 297.6 187.6C296.6 187.5 295.6 187.4 294.6 187.3C299 182.3 308.8 184.9 314.5 186.4C315.1 186.6 315.6 186.7 316.1 186.8Z" fill="#00126A"/>
<path d="M308.8 224.8L309 223.6C309.3 223.8 309.6 224.1 309.9 224.4C309.6 224.5 309.2 224.6 308.8 224.8Z" fill="#00126A"/>
<path d="M310.3 221.899C310 221.599 309.7 221.299 309.4 221.099V220.899L311.5 221.199V221.399C311.1 221.599 310.7 221.799 310.3 221.899Z" fill="#00126A"/>
<path d="M335.8 67.5992C323 65.6992 305 64.6992 286.4 69.6992C286.1 69.0992 285.8 68.4992 285.5 67.7992C303.8 62.7992 321.6 63.4992 334.6 65.2992L334.3 67.2992C334.7 67.3992 335.2 67.4992 335.8 67.5992Z" fill="#00126A"/>
<path d="M311.5 208.5C311.8 208.5 312.2 208.6 312.5 208.7C312.2 208.6 311.8 208.6 311.5 208.5Z" fill="#00126A"/>
<path d="M311.2 210.5C311.5 210.6 311.9 210.7 312.2 210.7C312.5 210.8 312.9 210.8 313.2 210.9V210.8L311.8 219.2L309.7 218.9L311.2 210.5Z" fill="#00126A"/>
<path d="M309.2 222.399L309 223.599C308.7 223.299 308.4 223.099 308.1 222.799C308.5 222.599 308.8 222.499 309.2 222.399Z" fill="#00126A"/>
<path d="M311.1 210.5C303.6 208.9 297.7 205.2 294.6 200.4C292.6 197.3 292 193.9 292.9 190.8C293 190.3 293.2 189.8 293.4 189.3C294.2 189.4 294.9 189.4 295.7 189.5C295.4 190 295.1 190.6 294.9 191.3C294.2 193.9 294.7 196.6 296.3 199.3C299.1 203.7 304.5 207 311.4 208.5L311.1 210.5Z" fill="#00126A"/>
<path d="M308.1 222.8C308.4 223 308.7 223.3 309 223.6L308.8 224.8C306 225.8 302.5 226.9 298.6 227.7C298 227.8 297.4 227.9 296.9 228L297.3 225.8C301.4 225 305.1 223.8 308.1 222.8Z" fill="#00126A"/>
<path d="M297.2 225.8L296.8 228C296.1 228.1 295.3 228.3 294.6 228.4L295 226.2C295.8 226.1 296.5 225.9 297.2 225.8Z" fill="#00126A"/>
<path d="M295 226.2L294.6 228.4C289.6 229.1 285 229.1 280.9 228.5C276.3 227.7 272.3 226.1 268.9 223.6C264.4 220.1 263 215.1 265.2 209.9C267.4 204.6 272.6 200.8 276.9 201.3C277.5 201.4 277.9 201.9 277.8 202.5C277.7 203.1 277.2 203.5 276.6 203.4C273.3 203 268.9 206.3 267.1 210.7C266.1 213.2 265.1 218.1 270.2 222C277.3 227.2 286.7 227.5 295 226.2Z" fill="#00126A"/>
<path d="M297.7 187.6C296.9 188.1 296.2 188.7 295.7 189.5C294.9 189.4 294.2 189.4 293.4 189.3C293.7 188.5 294.2 187.9 294.7 187.3C295.7 187.4 296.7 187.5 297.7 187.6Z" fill="#00126A"/>
<path d="M215.6 218.899C229 233.399 249 247.999 278.6 257.099C277.1 257.299 275.7 257.599 274.2 257.899C253.3 250.899 235.5 240.599 220.8 226.999C218.6 224.999 216.6 222.899 214.7 220.899C214.9 220.199 215.2 219.499 215.6 218.899Z" fill="#00126A"/>
<path d="M285.4 67.7998C285.7 68.4998 286.1 69.0998 286.3 69.6998C285.6 69.8998 284.9 70.0998 284.3 70.2998C284 69.6998 283.7 69.0998 283.4 68.3998C284.1 68.0998 284.7 67.9998 285.4 67.7998Z" fill="#00126A"/>
<path d="M270.2 39.8992C276.9 50.7992 282.4 61.5992 285.4 67.7992C284.7 67.9992 284 68.1992 283.4 68.3992C275.7 52.5992 252.6 8.5992 234.1 5.5992C232.3 5.2992 230 6.6992 227.7 9.5992C216.7 22.9992 203.5 69.7992 220.6 119.299C220.1 119.899 219.6 120.599 219 121.199C209.4 93.9992 209.4 69.2992 211.2 53.0992C213.3 34.2992 219.1 16.6992 226 8.1992C228.9 4.6992 231.8 2.9992 234.4 3.3992C244.4 5.0992 256.4 17.2992 270.2 39.8992Z" fill="#00126A"/>
<path d="M259.5 79.0994C267.3 74.1994 275.4 70.6994 283.4 68.3994C283.7 69.0994 284 69.6994 284.3 70.2994C276.2 72.6994 267.9 76.1994 260 81.2994C259.9 80.5994 259.7 79.8994 259.5 79.0994Z" fill="#00126A"/>
<path d="M259.5 79.0996C259.7 79.8996 259.8 80.5996 260 81.2996C259.4 81.6996 258.8 82.0996 258.1 82.4996C257.9 81.7996 257.8 80.9996 257.6 80.2996C258.3 79.8996 258.9 79.4996 259.5 79.0996Z" fill="#00126A"/>
<path d="M237.3 101.9C237.3 102 237.2 102 237.2 102.1C236.8 101.4 236.5 100.7 236.1 100.1C242.8 91.8998 250.1 85.3998 257.6 80.2998C257.8 81.0998 257.9 81.7998 258.1 82.4998C250.8 87.4998 243.7 93.7998 237.3 101.9Z" fill="#00126A"/>
<path d="M253 52.3994C255.8 62.7994 258.1 72.7994 259.5 79.0994C258.9 79.4994 258.2 79.8994 257.6 80.2994C256.1 73.6994 254.3 65.8994 252.3 58.0994C252.5 56.9994 252.6 55.7994 252.8 54.3994C252.9 53.6994 253 52.9994 253 52.3994Z" fill="#00126A"/>
<path d="M252.4 58.0996C251.6 63.5996 250.7 64.7996 249.8 65.1996C249.4 65.3996 249.1 65.3996 248.7 65.3996C247.2 65.1996 245.6 63.1996 243.3 60.4996C241.8 58.6996 240.2 56.7996 238.4 55.0996C238.3 53.9996 238.2 52.9996 238.2 52.0996C240.7 54.0996 243 56.7996 245 59.1996C246.4 60.7996 248.2 63.0996 249 63.2996C249.8 62.3996 250.5 57.7996 251 52.4996C251.4 54.3996 251.9 56.1996 252.4 58.0996Z" fill="#00126A"/>
<path d="M252.8 54.3992C252.7 55.7992 252.5 56.9992 252.3 58.0992C251.8 56.1992 251.3 54.3992 250.9 52.4992C251.1 50.4992 251.2 48.2992 251.3 46.1992C251.9 48.1992 252.4 50.2992 253 52.2992C253 52.9992 252.9 53.6992 252.8 54.3992Z" fill="#00126A"/>
<path d="M237 10.7993C241.6 14.5993 246.9 30.1993 251.4 46.2993C251.3 48.3993 251.1 50.4993 251 52.5993C246.1 33.9993 240.3 16.1993 235.8 12.4993C235.5 12.1993 234.4 11.2993 232.3 12.9993C227.3 16.9993 221.2 31.2993 219.1 50.8993C217 71.4993 220 92.3993 227.7 110.599C227.2 111.199 226.7 111.799 226.2 112.399C218.1 93.6993 214.8 71.9993 217 50.5993C219.1 30.3993 225.6 15.4993 231 11.1993C233.9 8.89928 236 9.89928 237 10.7993Z" fill="#00126A"/>
<path d="M236.1 100C236.4 100.7 236.8 101.3 237.2 102C236.7 102.6 236.2 103.2 235.8 103.8C235.4 103.1 235.1 102.4 234.7 101.8C235 101.4 235.4 101 235.7 100.6C235.8 100.4 235.9 100.2 236.1 100Z" fill="#00126A"/>
<path d="M234.7 101.8C235 102.5 235.4 103.1 235.8 103.8C233.4 106.9 231 109.8 228.7 112.6C228.4 111.9 228.1 111.2 227.8 110.4C229.9 107.7 232.3 104.8 234.7 101.8Z" fill="#00126A"/>
<path d="M215.6 218.899C215.3 219.499 215 220.199 214.6 220.899C214.1 220.299 213.5 219.799 213 219.199C213.3 218.499 213.7 217.899 214 217.199C214.5 217.799 215 218.399 215.6 218.899Z" fill="#00126A"/>
<path d="M213 219.199C210.2 216.099 207.7 213.099 205.5 210.099C205.7 209.299 205.9 208.399 206.3 207.699C208.6 210.799 211.1 214.099 214 217.299C213.7 217.899 213.4 218.499 213 219.199Z" fill="#00126A"/>
<path d="M234.7 101.799C228.5 89.5992 229.8 81.4992 230.7 78.4992C231.5 75.8992 232.8 73.8992 234.3 73.0992C237.2 71.5992 237.2 70.7992 237.1 66.9992C237 64.4992 236.5 57.7992 236.2 53.1992C237 53.7992 237.7 54.3992 238.4 55.0992C238.7 59.4992 239.1 64.7992 239.2 66.9992C239.3 71.2992 239.2 73.0992 235.3 74.9992C234.5 75.3992 233.5 76.6992 232.7 79.0992C231.9 81.8992 230.8 88.9992 236.2 99.9992C236 100.199 235.9 100.399 235.7 100.599C235.3 100.999 235 101.399 234.7 101.799Z" fill="#00126A"/>
<path d="M238.2 52.0996C238.3 52.9996 238.3 53.9996 238.4 55.0996C237.7 54.3996 236.9 53.7996 236.2 53.1996C236.1 52.1996 236.1 51.2996 236 50.5996C236.7 50.9996 237.4 51.4996 238.2 52.0996Z" fill="#00126A"/>
<path d="M228.6 112.7C228.1 113.3 227.6 113.9 227.1 114.5C226.8 113.8 226.5 113.1 226.1 112.4C226.6 111.8 227.1 111.2 227.6 110.6C228 111.3 228.3 112 228.6 112.7Z" fill="#00126A"/>
<path d="M290.3 157.8C286.8 164.7 280.2 168.3 275.5 165.9C270.8 163.5 269.7 156 273.2 149.1C274.9 145.7 277.4 143.1 280.1 141.6C281.4 140.9 282.7 140.4 284 140.3C286 141.6 287.8 143 289.2 144C290.2 144.8 291.1 145.4 291.8 145.7C292.2 146.8 292.4 148.1 292.4 149.4C292.4 152.1 291.7 155 290.3 157.8Z" fill="#00126A"/>
<path d="M287.4 148C285.6 147.8 283.7 149.7 283.1 152.3C282.5 154.9 283.6 157.1 285.4 157.4C287.2 157.6 289.1 155.7 289.7 153.1C290.2 150.5 289.2 148.3 287.4 148Z" fill="white"/>
<path d="M275.3 157.199C274.3 157.499 273.7 158.799 273.9 160.099C274.1 161.399 275 162.299 276 162.099C277 161.799 277.6 160.499 277.4 159.199C277.2 157.799 276.3 156.899 275.3 157.199Z" fill="#FFCFBD"/>
<path d="M277.1 134.399C277.8 134.299 278.6 134.399 279.5 134.799C280.3 135.099 281.2 135.699 282.2 136.399C282.7 136.799 283.2 137.299 283.8 137.799C284.8 138.699 285.7 139.599 286.6 140.399C288.1 141.699 289.5 142.899 290.8 143.999C293.6 146.199 295.9 147.499 297.5 147.899C297.5 147.899 293.4 149.999 289.6 147.099C288.7 146.399 287.7 145.599 286.8 144.899C285 143.399 283.3 141.799 282.1 140.599C281.2 139.699 280.4 138.999 279.7 138.599C277.6 137.299 276.7 138.099 275.3 139.199L275 139.399C275 139.299 274.4 134.699 277.1 134.399Z" fill="#00126A"/>
<path d="M345.4 166.9C346.5 174.5 351.6 180.1 356.8 179.3C362.1 178.5 365.4 171.7 364.4 164.1C363.9 160.3 362.3 157 360.3 154.8C359.3 153.7 358.2 152.9 357 152.3C354.7 152.9 352.6 153.6 350.9 154.2C349.7 154.6 348.7 154.9 347.9 155C347.2 156 346.6 157.1 346.2 158.4C345.3 160.8 345 163.8 345.4 166.9Z" fill="#00126A"/>
<path d="M351.3 158.6C353.1 159 354.3 161.4 354 164C353.7 166.6 352 168.4 350.2 168.1C348.4 167.7 347.2 165.299 347.5 162.7C347.8 160 349.5 158.2 351.3 158.6Z" fill="white"/>
<path d="M359.8 171.1C360.6 171.7 360.8 173.1 360.2 174.3C359.6 175.5 358.4 176 357.6 175.5C356.8 174.9 356.6 173.5 357.2 172.3C357.9 171.1 359 170.5 359.8 171.1Z" fill="#FFCFBD"/>
<path d="M365.4 148.9C364.7 148.6 364 148.4 363 148.5C362.1 148.5 361.1 148.8 359.9 149.2C359.3 149.4 358.6 149.7 357.9 150C356.7 150.6 355.5 151.1 354.4 151.6C352.5 152.4 350.8 153.1 349.2 153.6C345.9 154.8 343.2 155.3 341.6 155.1C341.6 155.1 344.8 158.4 349.4 156.9C350.5 156.5 351.6 156.1 352.7 155.7C354.9 154.8 357 153.9 358.6 153.1C359.8 152.5 360.7 152.2 361.5 152C363.9 151.4 364.5 152.4 365.4 153.9L365.6 154.2C365.8 154.2 367.9 150.1 365.4 148.9Z" fill="#00126A"/>
<path d="M220.5 119.3C220.8 120.1 221 120.8 221.3 121.6C220.8 122.2 220.3 122.8 219.8 123.5C219.5 122.7 219.2 122 219 121.2C219.5 120.5 220 119.9 220.5 119.3Z" fill="#00126A"/>
<g opacity="0.6">
<path d="M277.3 173.3L181.9 152.5C181.5 152.4 181.5 151.9 181.8 151.8C186.5 150 192 147.8 197.2 144.1C211.7 133.8 219.1 124 224.4 116.1L286.3 126.3C299.3 128.4 308.2 140.8 306 153.8C303.8 167.3 290.7 176.2 277.3 173.3Z" fill="#00DEFF"/>
</g>
<g opacity="0.3">
<path d="M306.1 147C306.4 149.2 306.3 151.5 306 153.8C303.8 167.3 290.7 176.2 277.3 173.3L182.2 152.6C181.4 152.9 182.9 153.7 182.1 154C181.8 154.1 181.8 154.6 182.2 154.7L277.6 175.5C291 178.4 304.1 169.5 306.3 156C306.9 152.9 306.8 149.9 306.1 147Z" fill="#00DEFF"/>
</g>
<g opacity="0.6">
<path d="M224.4 116.1L221.4 120.3L285.9 128.6C285.9 128.6 303 130.2 306.2 147.4C306.2 147.4 304.9 129.4 285.4 126.2C265.8 122.9 224.4 116.1 224.4 116.1Z" fill="#00DEFF"/>
</g>
<g opacity="0.6">
<path d="M238.1 118.3L236 118.6L236.1 118L238.1 118.3Z" fill="white"/>
<path d="M245.2 119.5L235.6 120.9L236 118.7L238.1 118.4L245.2 119.5Z" fill="white"/>
<path d="M252.3 120.6L235.3 123L235.7 120.8L245.3 119.4L252.3 120.6Z" fill="#FDFDFD"/>
<path d="M253.7 120.9L253.9 122.6L235.3 125.2L235.1 123.5L235.2 123.1L252.2 120.7L253.7 120.9Z" fill="#FCFCFC"/>
<path d="M254 122.6L235.4 125.2L235.7 127.3L254.3 124.7L254 122.6Z" fill="#FBFBFB"/>
<path d="M254.3 124.7L235.7 127.3L236 129.4L254.6 126.8L254.3 124.7Z" fill="#FAFAFA"/>
<path d="M254.6 126.8L236 129.4L236.3 131.5L254.9 128.9L254.6 126.8Z" fill="#F9F9F9"/>
<path d="M254.9 129L236.3 131.6L236.6 133.7L255.2 131.1L254.9 129Z" fill="#F8F8F8"/>
<path d="M255.2 131.1L236.6 133.7L236.9 135.8L255.5 133.2L255.2 131.1Z" fill="#F7F7F7"/>
<path d="M255.5 133.2L236.9 135.8L237.2 137.9L255.8 135.3L255.5 133.2Z" fill="#F5F6F6"/>
<path d="M255.8 135.4L237.2 138L237.5 140.1L256.1 137.5L255.8 135.4Z" fill="#F4F5F5"/>
<path d="M256.1 137.5L237.5 140.1L237.8 142.2L256.4 139.6L256.1 137.5Z" fill="#F3F4F4"/>
<path d="M256.4 139.6L237.8 142.2L238.1 144.3L256.7 141.7L256.4 139.6Z" fill="#F2F3F3"/>
<path d="M256.7 141.8L238.1 144.4L238.4 146.5L257 143.9L256.7 141.8Z" fill="#F1F2F2"/>
<path d="M257 143.9L238.4 146.5L238.7 148.6L257.3 146L257 143.9Z" fill="#F0F1F1"/>
<path d="M257.3 146L238.7 148.6L239 150.7L257.6 148.1L257.3 146Z" fill="#EFF0F0"/>
<path d="M257.6 148.2L239 150.8L239.3 152.9L257.9 150.3L257.6 148.2Z" fill="#EEEFEF"/>
<path d="M257.9 150.3L260.4 167.6L260.1 169.5L241.3 166.4L239.4 152.9L257.9 150.3Z" fill="#EEEFEF"/>
</g>
<g opacity="0.6">
<path d="M267.1 123.1L265 123.4L265.1 122.8L267.1 123.1Z" fill="white"/>
<path d="M274 124.2L264.6 125.5L265 123.3L267.1 123L274 124.2Z" fill="white"/>
<path d="M280.9 125.3L264.2 127.7L264.6 125.5L274 124.2L280.9 125.3Z" fill="#FDFDFD"/>
<path d="M282.2 125.6L282.4 127.3L263.9 129.9L264.3 127.7L281 125.3L282.2 125.6Z" fill="#FCFCFC"/>
<path d="M282.4 127.3L282.7 129.4L264.1 132L263.8 130V129.9L282.4 127.3Z" fill="#FBFBFB"/>
<path d="M282.7 129.399L264.1 131.999L264.4 134.099L283 131.499L282.7 129.399Z" fill="#FAFAFA"/>
<path d="M283 131.399L264.4 133.999L264.7 136.099L283.3 133.499L283 131.399Z" fill="#F9F9F9"/>
<path d="M283.3 133.5L264.7 136.1L265 138.2L283.6 135.6L283.3 133.5Z" fill="#F8F8F8"/>
<path d="M283.6 135.6L265 138.2L265.3 140.3L283.9 137.7L283.6 135.6Z" fill="#F7F7F7"/>
<path d="M283.9 137.7L265.3 140.3L265.6 142.4L284.2 139.8L283.9 137.7Z" fill="#F5F6F6"/>
<path d="M284.2 139.8L265.6 142.4L265.9 144.5L284.5 141.9L284.2 139.8Z" fill="#F4F5F5"/>
<path d="M284.5 141.899L265.9 144.499L266.2 146.599L284.8 143.999L284.5 141.899Z" fill="#F3F4F4"/>
<path d="M284.8 144L266.2 146.6L266.5 148.7L285.1 146.1L284.8 144Z" fill="#F2F3F3"/>
<path d="M285.1 146L266.5 148.6L266.8 150.7L285.4 148.1L285.1 146Z" fill="#F1F2F2"/>
<path d="M285.4 148.1L266.8 150.7L267.1 152.8L285.7 150.2L285.4 148.1Z" fill="#F0F1F1"/>
<path d="M285.7 150.2L267.1 152.8L267.4 154.9L286 152.3L285.7 150.2Z" fill="#EFF0F0"/>
<path d="M286 152.3L267.4 154.9L267.7 157L286.3 154.4L286 152.3Z" fill="#EEEFEF"/>
<path d="M286.3 154.399L288.7 171.199L288 175.299L269.9 172.299L267.7 156.999L286.3 154.399Z" fill="#EEEFEF"/>
</g>
<path d="M206.4 207.6C206 208.4 205.8 209.2 205.6 210C205.1 209.3 204.5 208.6 204 207.8C204.3 207 204.6 206.3 205 205.6C205.4 206.3 205.9 207 206.4 207.6Z" fill="#00126A"/>
<path d="M319.8 253.8C315.5 253.6 310.7 253 305.7 252.2C300.4 251.3 295.6 250.3 291.2 249.1C217.5 229 186.1 173.8 180.7 165.1C181 168.1 183.2 172.3 184.6 176.9C186.4 182.9 194.1 191.8 202.5 204C202.9 204.6 203.4 205.3 203.9 206C206.2 209.1 211.2 214.1 214 217.3C214.5 217.9 215 218.4 215.5 219C228.9 233.5 248.9 248.1 278.5 257.2C285.7 259.5 294.3 261.8 304 263.4C313.3 264.9 321.8 265.5 329.1 265.6L329 265.5C329.1 265.5 329.1 265.6 329.2 265.6C360.1 266.4 383.7 259 401.1 249.6C401.8 249.2 402.4 248.9 403.1 248.5C406.9 246.4 412.2 243.2 415.4 241C416.1 240.5 416 241.2 416.6 240.7C428.5 231.9 442.7 222.5 446.3 217.4C449.1 213.5 450.2 212.6 451.4 209.9C439.9 224.1 384.1 261.4 319.8 253.8Z" fill="#D1D1D1"/>
<path d="M229.1 232.699C255.7 252.799 288.8 262.199 321.7 264.999C341.5 266.599 361.6 265.099 380.7 259.199C368.3 263.999 355 266.599 341.6 267.399C302.2 268.899 259.4 258.899 229.1 232.699Z" fill="#00126A"/>
<path d="M221.3 121.499C211.2 134.799 197.2 147.899 181.1 153.099L181.8 151.399C181.9 151.499 182 151.699 182.1 151.799C183.6 153.899 185.5 155.699 187.9 156.699L189 157.099C188.9 157.399 188.6 158.299 188.4 158.599C186.7 161.999 183.4 164.499 179.8 165.599L180.6 164.199C180.7 164.399 180.8 164.699 180.8 164.999C181.4 166.999 182.2 168.899 183 170.799C189.9 186.099 199.7 199.899 210.1 212.899L208.8 213.999C202.7 206.599 196.8 198.799 191.6 190.699C187.7 184.599 184 178.299 181 171.699C179.8 169.099 178.8 166.499 178.1 163.699L179.2 163.299C181.9 162.399 184.4 160.699 186 158.299C186.2 157.999 186.4 157.699 186.5 157.299L187.2 158.799C186.4 158.499 185.7 158.099 185.1 157.699C182.7 156.099 180.7 153.899 179.3 151.299C183.8 150.099 188.2 148.299 192.3 145.899C203.3 139.599 212.8 130.699 220.6 120.699L221.3 121.499Z" fill="#00126A"/>
<path d="M428.2 155C433.8 170.7 443.4 187.7 457.5 197.1C455.4 199.1 452.8 200.6 450 201.3C449.2 201.5 448.4 201.6 447.6 201.7L448.7 200.5C448.7 200.9 448.8 201.2 448.9 201.6C449.6 204.4 451.4 206.8 453.7 208.5L454.6 209.2C453.1 211.6 451.2 213.7 449.3 215.8C444.3 221.1 438.8 225.9 433.1 230.4C425.5 236.4 417.5 241.8 409.3 246.9L408.4 245.4C422.5 236.4 436.2 226.5 447.6 214.2C449.2 212.5 450.7 210.7 452 208.8L452.3 210.4C450.7 209.2 449.4 207.8 448.3 206.2C447 204.2 446.3 201.9 446.3 199.5L447.5 199.4C450 199.2 452.5 198.1 454.5 196.6C454.6 196.5 454.8 196.4 454.9 196.3L455 198.2C442.8 189.1 434.9 175.4 429.2 161.5C428.4 159.5 427.7 157.5 427 155.4L428.2 155Z" fill="#00126A"/>
<path d="M220.5 119.299C222.3 117.099 224.2 114.799 226.2 112.399C226.5 113.099 226.8 113.799 227.2 114.499C225.2 116.899 223.3 119.299 221.4 121.599C221 120.799 220.8 119.999 220.5 119.299Z" fill="#00126A"/>
<path d="M395.7 85.8996C396.7 85.8996 397.6 85.0996 397.6 83.9996C397.6 82.9996 396.8 82.0996 395.7 82.0996C394.7 82.0996 393.8 82.8996 393.8 83.9996C393.9 85.0996 394.7 85.8996 395.7 85.8996Z" fill="#505B64"/>
<path d="M403.4 78.3996C404.4 78.3996 405.3 77.5996 405.3 76.4996C405.3 75.4996 404.5 74.5996 403.4 74.5996C402.4 74.5996 401.5 75.3996 401.5 76.4996C401.5 77.5996 402.4 78.3996 403.4 78.3996Z" fill="#505B64"/>
<path d="M410.6 71.5998C411.6 71.5998 412.5 70.7998 412.5 69.6998C412.5 68.6998 411.7 67.7998 410.6 67.7998C409.6 67.7998 408.7 68.5998 408.7 69.6998C408.7 70.7998 409.5 71.5998 410.6 71.5998Z" fill="#505B64"/>
<path d="M430.5 146.699C431.5 146.699 432.4 145.899 432.4 144.799C432.4 143.799 431.6 142.899 430.5 142.899C429.4 142.899 428.6 143.699 428.6 144.799C428.6 145.899 429.4 146.699 430.5 146.699Z" fill="#505B64"/>
<path d="M435.4 139.9C436.4 139.9 437.3 139.1 437.3 138C437.3 137 436.5 136.1 435.4 136.1C434.3 136.1 433.5 136.9 433.5 138C433.5 139 434.3 139.9 435.4 139.9Z" fill="#505B64"/>
<path d="M418.3 54.3994L416.9 55.4994L427.5 68.9994L428.9 67.8994L418.3 54.3994Z" fill="#00126A"/>
<path d="M426 48.3994L424.6 49.4994L433.3 60.5994L434.7 59.4994L426 48.3994Z" fill="#00126A"/>
<path d="M451.2 41.1992L449.4 46.6992L451.1 47.1992L452.9 41.6992L451.2 41.1992Z" fill="#00126A"/>
<path d="M273.6 65.8C274.6 65.8 275.5 65 275.5 63.9C275.5 62.9 274.7 62 273.6 62C272.6 62 271.7 62.8 271.7 63.9C271.7 65 272.5 65.8 273.6 65.8Z" fill="#505B64"/>
<path d="M268.7 56.3C269.7 56.3 270.6 55.5 270.6 54.4C270.6 53.4 269.8 52.5 268.7 52.5C267.7 52.5 266.8 53.3 266.8 54.4C266.9 55.4 267.7 56.3 268.7 56.3Z" fill="#505B64"/>
<path d="M264.1 47.4992C265.1 47.4992 266 46.6992 266 45.5992C266 44.5992 265.2 43.6992 264.1 43.6992C263.1 43.6992 262.2 44.4992 262.2 45.5992C262.2 46.6992 263.1 47.4992 264.1 47.4992Z" fill="#505B64"/>
<path d="M221.2 112.199C222.2 112.199 223.1 111.399 223.1 110.299C223.1 109.199 222.3 108.399 221.2 108.399C220.2 108.399 219.3 109.199 219.3 110.299C219.3 111.399 220.1 112.199 221.2 112.199Z" fill="#505B64"/>
<path d="M218.7 104.199C219.7 104.199 220.6 103.399 220.6 102.299C220.6 101.199 219.8 100.399 218.7 100.399C217.7 100.399 216.8 101.199 216.8 102.299C216.8 103.399 217.7 104.199 218.7 104.199Z" fill="#505B64"/>
<path d="M261.7 28.5996L247.4 37.9996L248.4 39.4996L262.7 30.1996L261.7 28.5996Z" fill="#00126A"/>
<path d="M256.4 20.5L244.6 28.2L245.6 29.7L257.4 22L256.4 20.5Z" fill="#00126A"/>
<path d="M233 5.5L232.9 11.3H234.7L234.8 5.5H233Z" fill="#00126A"/>
<path d="M358.2 106.099C349.1 106.299 338.2 105.799 325.9 103.799C313.4 101.799 302.6 98.5992 293.9 95.4992C292.4 86.4992 290.9 77.3992 289.4 68.3992C298.4 66.2992 311.9 64.1992 328.1 65.6992C347.7 67.5992 362.7 73.9992 371.7 78.5992C367.2 87.7992 362.7 96.9992 358.2 106.099Z" fill="#98ABBB"/>
<path d="M325.4 104.9C314.6 103.1 303.9 100.3 293.5 96.5996L292.9 96.3996L288.1 67.4996L289.2 67.1996C302 64.1996 315.2 63.2996 328.3 64.4996C343.7 65.9996 358.5 70.3996 372.3 77.5996L373.3 78.0996L359 107.3H358.3C347.4 107.5 336.5 106.7 325.8 105C325.7 105 325.5 105 325.4 104.9ZM295 94.5996C305.1 98.1996 315.5 100.9 326.1 102.6C336.4 104.3 347 105.1 357.5 104.9L370.2 79.1996C356.9 72.4996 342.8 68.3996 328 66.9996C315.5 65.7996 303 66.5996 290.8 69.3996L295 94.5996Z" fill="#00126A"/>
<path d="M303.8 93.8C304.8 93.8 305.7 93 305.7 91.9C305.7 90.9 304.9 90 303.8 90C302.8 90 301.9 90.8 301.9 91.9C302 92.9 302.8 93.8 303.8 93.8Z" fill="#505B64"/>
<path d="M351.1 101.499C352.1 101.499 353 100.699 353 99.5992C353 98.5992 352.2 97.6992 351.1 97.6992C350 97.6992 349.2 98.4992 349.2 99.5992C349.2 100.699 350 101.499 351.1 101.499Z" fill="#505B64"/>
<path d="M326 98.5998C327 98.5998 327.9 97.7998 327.9 96.6998C327.9 95.6998 327.1 94.7998 326 94.7998C325 94.7998 324.1 95.5998 324.1 96.6998C324.2 97.7998 325 98.5998 326 98.5998Z" fill="#505B64"/>
<path d="M305.1 64.8994L293 94.5994L295.2 95.4994L307.3 65.8994L305.1 64.8994Z" fill="#00126A"/>
<path d="M357.3 71.8994L354.9 71.9994L356.9 105.599L359.3 105.499L357.3 71.8994Z" fill="#00126A"/>
<path d="M408.4 112.199L354.1 122.699L330.6 139.999L323.5 183.299C323.5 183.299 339.9 185.399 362.6 210.199C362.6 210.199 403.8 200.899 447.2 199.599C447.2 199.599 451.5 200.299 455.7 197.299C455.7 197.299 442.2 190.999 430.1 162.699C417.9 134.299 416.9 122.199 408.4 112.199Z" fill="#98ABBB"/>
<path d="M362.2 211.199L361.9 210.799C339.8 186.599 323.5 184.199 323.4 184.199L322.5 184.099L322.6 183.199L329.8 139.599L353.7 121.999L408.7 111.399L409 111.799C414.2 117.899 416.7 124.899 420.4 135.499C422.9 142.499 425.9 151.199 430.7 162.399C442.5 189.999 455.7 196.499 455.9 196.499L457.3 197.099L456.1 197.999C452 200.899 447.7 200.599 447.1 200.499C404.3 201.799 363.2 210.999 362.8 211.099L362.2 211.199ZM324.5 182.599C328.2 183.399 343.1 187.799 362.9 209.199C367.7 208.099 406.7 199.899 447.1 198.699H447.3C447.3 198.699 450.5 199.099 453.9 197.299C450.1 194.899 439.2 186.499 429.2 162.999C424.4 151.699 421.3 142.999 418.8 135.999C415.2 125.799 412.8 118.999 408.1 113.199L354.5 123.599L331.5 140.499L324.5 182.599Z" fill="#80232F"/>
<path d="M323.5 183.299L351.5 175.399L385.3 172.999L385.5 151.499L408.4 112.199C408.4 112.199 415.2 121.099 420 135.499C424.8 149.899 431.9 169.999 438.1 177.699C444.3 185.499 453.8 197.299 453.8 197.299L449.3 199.599C449.3 199.599 403.6 202.699 387.5 205.499C371.4 208.299 362.6 210.199 362.6 210.199C362.6 210.199 348.9 194.999 339 189.999C329 184.899 323.5 183.299 323.5 183.299Z" fill="#58646F"/>
<path d="M375.2 197.999C376.2 197.999 377.1 197.199 377.1 196.099C377.1 195.099 376.3 194.199 375.2 194.199C374.2 194.199 373.3 194.999 373.3 196.099C373.3 197.099 374.2 197.999 375.2 197.999Z" fill="#98ABBB"/>
<path d="M389.1 194.999C390.1 194.999 391 194.199 391 193.099C391 192.099 390.2 191.199 389.1 191.199C388.1 191.199 387.2 191.999 387.2 193.099C387.3 194.099 388.1 194.999 389.1 194.999Z" fill="#98ABBB"/>
<path d="M401.8 193.3C402.8 193.3 403.7 192.5 403.7 191.4C403.7 190.4 402.9 189.5 401.8 189.5C400.8 189.5 399.9 190.3 399.9 191.4C399.9 192.5 400.7 193.3 401.8 193.3Z" fill="#98ABBB"/>
<path d="M414.5 192.1C415.5 192.1 416.4 191.3 416.4 190.2C416.4 189.2 415.6 188.3 414.5 188.3C413.5 188.3 412.6 189.1 412.6 190.2C412.7 191.3 413.5 192.1 414.5 192.1Z" fill="#98ABBB"/>
<path d="M323.7 184.2L323.2 182.5L374.7 168.3L407.6 111.8L409.1 112.7L375.8 169.8L323.7 184.2Z" fill="#00126A"/>
<path d="M386.8 149.3L355.9 159.4L349.4 176.2L387.3 174.2L386.8 149.3Z" fill="#00126A"/>
<path d="M386.1 172.999L349.6 176.099L387.3 174.099L386.9 150.899L386.1 172.999Z" fill="#98ABBB"/>
<path d="M349.9 174.999L357.2 160.899L385.4 149.699L355.8 159.299L349.9 174.999Z" fill="#00126A"/>
<path d="M422.4 236.9L413.5 233.2L408.5 227.5L409.8 226.3L414.5 231.7L423 235.2L422.4 236.9Z" fill="#00126A"/>
<path d="M413.7 243.499L406.7 240.599L402.7 236.099L404 234.899L407.7 239.099L414.3 241.899L413.7 243.499Z" fill="#00126A"/>
<path d="M401.8 237.1C401.1 237 400.5 236.7 400 236.1C399.4 235.5 399.1 234.6 399.1 233.8C399.1 232.9 399.5 232.1 400.1 231.5C400.7 230.9 401.6 230.6 402.4 230.6C403.3 230.6 404.1 231 404.7 231.6C405.3 232.2 405.6 233.1 405.6 233.9C405.6 234.8 405.2 235.6 404.6 236.2C404 236.8 403.1 237.1 402.3 237.1C402.1 237.1 401.9 237.1 401.8 237.1ZM402.6 232.4C402.5 232.4 402.5 232.4 402.4 232.4C402 232.4 401.6 232.5 401.3 232.8C401 233.1 400.9 233.4 400.8 233.8C400.8 234.2 400.9 234.6 401.2 234.9C401.5 235.2 401.8 235.3 402.2 235.4C402.6 235.4 403 235.3 403.3 235C403.6 234.7 403.7 234.4 403.8 234C403.8 233.6 403.7 233.2 403.4 232.9C403.2 232.6 402.9 232.4 402.6 232.4Z" fill="#00126A"/>
<path d="M407.3 228.2C406.6 228.1 406 227.8 405.5 227.2C404.3 225.9 404.3 223.8 405.6 222.6C406.9 221.4 409 221.4 410.2 222.7C411.4 224 411.4 226.1 410.1 227.3C409.3 228.1 408.3 228.4 407.3 228.2ZM406.8 223.9C406.2 224.5 406.2 225.4 406.8 226C407.4 226.6 408.3 226.6 408.9 226C409.5 225.4 409.5 224.5 408.9 223.9C408.4 223.4 407.4 223.4 406.8 223.9Z" fill="#00126A"/>
<path d="M306.8 66.5996L298.2 93.9996C305.2 96.4996 313.2 98.8996 322.2 100.9C335.3 103.7 347.2 104.8 357.2 105.1C348.5 105.3 337.9 104.9 326.1 103C313.9 101 303.5 97.9996 295.2 94.8996C299 85.4996 302.9 75.9996 306.8 66.5996Z" fill="#98ABBB"/>
<path d="M368.9 161.5C370.7 161.9 371.9 164.3 371.6 166.9C371.3 169.5 369.6 171.3 367.8 171C366 170.6 364.8 168.2 365.1 165.6C365.4 162.9 367.1 161.1 368.9 161.5Z" fill="#FFAD26"/>
<path d="M324.6 182.1L331.5 140.2L354.6 123.5L406.7 113.6L356.2 126.3L334 142.6L324.6 182.1Z" fill="#98ABBB"/>
<g opacity="0.4">
<path d="M362.8 209.199C362.8 209.199 381.2 204.999 405.2 202.099C429.2 199.199 443 198.699 447.2 198.699C451.3 198.599 450.3 198.899 453.9 197.299C453.9 197.299 439.7 187.999 430.8 166.099C421.9 144.199 412.4 117.499 408.6 114.699C408.6 114.699 417.8 136.799 419.9 144.599C422.1 152.399 430.3 172.899 433.9 178.199C437.4 183.499 444.6 192.399 449.7 196.399C449.7 196.399 443.8 196.799 441.2 196.599C438.6 196.499 402.8 199.799 396.5 200.899C390.1 201.999 378.1 204.499 362.8 209.199Z" fill="#5B6671"/>
</g>
<path d="M362.1 211.499L361.6 210.999C339.5 186.899 323.4 184.499 323.3 184.499L322.1 184.299L322.3 183.099L329.5 139.299L353.6 121.599L353.9 121.499L408.9 110.899L409.3 111.399C414.5 117.599 417 124.599 420.7 135.199C423.2 142.199 426.2 150.899 431 162.099C442.7 189.599 455.9 195.999 456 196.099L457.8 196.999L456.2 198.199C452 201.199 447.8 200.799 447 200.699C404.2 201.999 363.1 211.199 362.7 211.299L362.1 211.499ZM324.8 182.399C329 183.399 343.6 187.999 362.9 208.899C368.4 207.699 407 199.599 447 198.399H447.1H447.2C447.2 198.399 450.1 198.799 453.2 197.299C449 194.599 438.5 185.799 428.8 163.199C424 151.899 420.9 143.199 418.4 136.199C414.7 125.799 412.5 119.399 407.8 113.599L354.4 123.899L331.5 140.699L324.8 182.399Z" fill="#00126A"/>
<path d="M218.6 124.899L215.5 122.699C215.6 122.599 220.9 114.999 228.5 105.999C238.8 93.7992 248.2 84.8992 256.4 79.5992C275.9 66.7992 291.8 64.2992 292.5 64.1992L293.1 67.9992C287.7 68.7992 273.6 72.9992 258.5 82.7992C239.7 95.0992 218.8 124.599 218.6 124.899Z" fill="#00126A"/>
<path d="M427.4 159.3C427.3 159 417 124.4 403.1 106.6C389.2 88.8996 375.3 81.4996 375.1 81.4996L376.9 78.0996C377.5 78.3996 391.7 85.8996 406.1 104.3C412.2 112 418.2 123.5 424.1 138.3C428.5 149.3 431.1 158.2 431.1 158.3L427.4 159.3Z" fill="#00126A"/>
</g>
<mask id="mask1_816_22038" style="mask-type:luminance" maskUnits="userSpaceOnUse" x="0" y="0" width="540" height="651">
<path d="M540 0H0V651H540V0Z" fill="white"/>
</mask>
<g mask="url(#mask1_816_22038)">
<path d="M82.8 651H-0.5L2.7 647.5H86L82.8 651Z" fill="#00126A"/>
</g>
<mask id="mask2_816_22038" style="mask-type:luminance" maskUnits="userSpaceOnUse" x="0" y="0" width="540" height="651">
<path d="M540 0H0V651H540V0Z" fill="white"/>
</mask>
<g mask="url(#mask2_816_22038)">
<path d="M130.4 603.4L82.2001 654.7L80.6001 649.5L128.8 598.2L130.4 603.4Z" fill="#00126A"/>
</g>
<mask id="mask3_816_22038" style="mask-type:luminance" maskUnits="userSpaceOnUse" x="0" y="0" width="540" height="651">
<path d="M540 0H0V651H540V0Z" fill="white"/>
</mask>
<g mask="url(#mask3_816_22038)">
<path d="M44.7998 607.3L-4.4002 657.7L-5.2002 653.1L43.8998 602.7L44.7998 607.3Z" fill="#00126A"/>
</g>
</g>
<defs>
<clipPath id="clip0_816_22038">
<rect width="540" height="651" fill="white"/>
</clipPath>
</defs>
</svg>
