<?xml version="1.0" encoding="UTF-8"?>
<svg width="21" height="22" viewBox="0 0 21 22" fill="none" xmlns="http://www.w3.org/2000/svg">
<path d="M16.9152 15.3796C16.0795 15.3796 15.2994 15.6434 14.7422 16.171L6.77573 11.7917C6.83151 11.5278 6.88729 11.3166 6.88729 11.0528C6.88729 10.7889 6.83151 10.5777 6.77573 10.3139L14.6312 5.98762C15.2439 6.51525 16.024 6.83163 16.9152 6.83163C18.7535 6.83163 20.2578 5.40691 20.2578 3.66579C20.2578 1.92478 18.7535 0.5 16.9152 0.5C15.0768 0.5 13.5726 1.92478 13.5726 3.66584C13.5726 3.92968 13.628 4.14097 13.6841 4.40475L5.82885 8.73104C5.21599 8.20337 4.43609 7.88703 3.54469 7.88703C1.70635 7.88703 0.257812 9.31176 0.257812 11.0529C0.257812 12.7939 1.76182 14.2187 3.60042 14.2187C4.49182 14.2187 5.27172 13.9023 5.88458 13.3747L13.7956 17.754C13.7395 17.9647 13.6841 18.176 13.6841 18.4398C13.6841 20.1284 15.1323 21.5 16.9152 21.5C18.6979 21.5 20.1462 20.1284 20.1462 18.4398C20.1462 16.7512 18.698 15.3796 16.9152 15.3796Z" fill="white"/>
</svg>