<svg width="46" height="47" viewBox="0 0 46 47" fill="none" xmlns="http://www.w3.org/2000/svg">
<g clip-path="url(#clip0_362_12297)">
<path d="M22.6829 0.902344C10.1524 0.902344 0 11.0548 0 23.5853C0 36.1158 10.1524 46.2682 22.6829 46.2682C35.2134 46.2682 45.3659 36.1158 45.3659 23.5853C45.3659 11.0548 35.2134 0.902344 22.6829 0.902344ZM33.8232 16.442L30.1006 33.9847C29.8262 35.2286 29.0854 35.5304 28.0518 34.945L22.3811 30.7651L19.6463 33.3993C19.3445 33.7011 19.0884 33.9572 18.503 33.9572L18.9055 28.1859L29.4146 18.692C29.872 18.2895 29.314 18.0609 28.7104 18.4633L15.7226 26.6401L10.125 24.8932C8.90854 24.509 8.8811 23.6767 10.3811 23.0914L32.25 14.6584C33.2652 14.2926 34.1524 14.9054 33.8232 16.442Z" fill="#AFFFF5"/>
</g>
<defs>
<clipPath id="clip0_362_12297">
<rect width="45.3659" height="46.8293" fill="white" transform="translate(0 0.170898)"/>
</clipPath>
</defs>
</svg>
