<svg width="48" height="47" viewBox="0 0 48 47" fill="none" xmlns="http://www.w3.org/2000/svg">
<path fill-rule="evenodd" clip-rule="evenodd" d="M23.7808 0.170898C36.7037 0.170898 47.1955 10.6627 47.1955 23.5855C47.1955 36.5084 36.7037 47.0002 23.7808 47.0002C10.858 47.0002 0.366211 36.5084 0.366211 23.5855C0.366211 10.6627 10.858 0.170898 23.7808 0.170898ZM19.6567 36.039C30.0179 36.039 35.6833 27.4533 35.6833 20.0125C35.6833 19.7672 35.6833 19.5219 35.6715 19.2882C36.7696 18.4939 37.7275 17.501 38.4867 16.368C37.4822 16.8118 36.3958 17.1156 35.251 17.2557C36.4192 16.5548 37.3069 15.4568 37.7275 14.1369C36.6411 14.7793 35.438 15.2465 34.153 15.5036C33.125 14.4055 31.6649 13.7281 30.0412 13.7281C26.934 13.7281 24.4109 16.2512 24.4109 19.3584C24.4109 19.8022 24.4577 20.2344 24.5628 20.6432C19.8787 20.4096 15.7318 18.1669 12.9518 14.7559C12.4728 15.5853 12.1924 16.5548 12.1924 17.5828C12.1924 19.5335 13.1854 21.2624 14.7039 22.2669C13.7811 22.2436 12.9166 21.9866 12.1574 21.5661V21.6362C12.1574 24.3696 14.0964 26.6357 16.678 27.1614C16.2108 27.2898 15.7085 27.36 15.1945 27.36C14.8323 27.36 14.4819 27.3249 14.1315 27.2548C14.844 29.4975 16.9233 31.1213 19.388 31.1679C17.4606 32.6749 15.031 33.5743 12.391 33.5743C11.9354 33.5743 11.4915 33.5509 11.0477 33.4926C13.5124 35.1045 16.4794 36.039 19.6567 36.039Z" fill="#AFFFF5"/>
</svg>
