<svg width="165" height="61" viewBox="0 0 165 61" fill="none" xmlns="http://www.w3.org/2000/svg">
<path fill-rule="evenodd" clip-rule="evenodd" d="M59.1483 18.178V36.3559H63.6229H68.0975V29.3644C68.0975 24.75 68.0975 22.2331 68.0975 21.9534C68.2373 21.2542 68.3771 20.5551 68.7966 19.9958C69.3559 19.0169 70.3347 18.5975 71.4534 18.7373C72.9915 18.8771 73.9703 19.7161 74.25 21.5339C74.25 21.8136 74.25 24.6102 74.25 29.0847V36.2161H78.7246H83.1992V27.8263C83.1992 20.6949 83.1992 19.2966 83.0593 18.5975C82.7797 16.0805 81.9407 14.1229 80.4025 12.7246C79.1441 11.4661 77.6059 10.7669 75.7881 10.4873C75.089 10.3475 73.1314 10.4873 72.572 10.6271C70.8941 11.0466 69.6356 11.6059 68.5169 12.8644L67.8178 13.4237V6.71186V0H63.3432H58.8686V18.178H59.1483ZM154.233 0.279662C153.953 0.838984 144.864 22.7924 144.864 22.7924C144.864 22.7924 147.242 22.7924 150.178 22.7924H155.492L160.246 11.4661C162.903 5.17373 165 0 165 0C165 0 162.623 0 159.686 0H154.373L154.233 0.279662ZM39.572 10.6271C37.6144 10.9068 36.0763 11.4661 34.5381 12.4449C31.4619 14.4025 29.5042 17.7585 28.9449 21.6737C28.6653 23.4915 28.8051 25.7288 29.2246 27.4068C30.3432 31.7415 33.2797 35.0975 37.0551 36.3559C38.4534 36.7754 39.0127 36.9153 40.6907 36.9153C41.9491 36.9153 42.3686 36.9153 42.7881 36.7754C44.6059 36.3559 45.8644 35.6568 46.983 34.5381L47.5424 33.9788V35.0975V36.2161H51.8771H56.2119V23.6314V11.0466H51.8771H47.5424V12.1653V13.2839L47.1229 12.8644C46.1441 11.7458 44.7458 11.0466 42.928 10.6271C42.3686 10.4873 42.089 10.4873 40.9703 10.4873C40.2712 10.6271 39.7119 10.6271 39.572 10.6271ZM96.6229 10.6271C94.2458 10.9068 91.7288 12.0254 89.911 13.4237C86.4153 16.3602 84.5975 20.9746 85.2966 25.7288C85.9958 31.0424 89.7712 35.0975 95.0847 36.4958C96.2034 36.7754 97.322 36.9153 98.7203 36.9153C101.237 36.9153 103.055 36.4958 105.013 35.517C108.928 33.5593 111.445 30.0636 112.004 25.7288C112.144 24.6102 112.144 22.7924 112.004 21.8136C111.725 19.7161 110.886 17.6186 109.627 15.9407C109.068 15.2415 107.949 13.983 107.25 13.4237C105.292 11.8856 103.055 10.9068 100.538 10.6271C99.5593 10.4873 97.6017 10.4873 96.6229 10.6271ZM125.148 10.6271C122.771 10.9068 120.394 11.8856 118.576 13.4237C117.877 13.983 116.619 15.2415 116.199 15.9407C114.941 17.6186 114.242 19.7161 113.822 21.8136C113.682 22.7924 113.682 24.75 113.822 25.7288C114.661 31.322 118.716 35.6568 124.309 36.7754C125.428 37.0551 125.987 37.0551 127.246 37.0551C129.623 37.0551 131.72 36.6356 133.678 35.517C138.852 32.8602 141.648 26.9873 140.39 20.9746C139.271 15.3814 134.797 11.3263 129.064 10.6271C128.085 10.4873 126.127 10.4873 125.148 10.6271ZM0 11.1864C0 11.1864 2.37712 16.9195 5.31356 23.911C8.25 30.9025 10.6271 36.6356 10.6271 36.6356C10.6271 36.6356 9.78814 38.7331 8.66949 41.25C7.55085 43.7669 6.71186 45.7246 6.71186 45.8644C6.71186 46.0042 8.80932 45.8644 11.4661 45.8644H16.2203L23.3517 28.6653C27.2669 19.1568 30.483 11.4661 30.483 11.3263C30.483 11.3263 29.5042 11.1864 25.7288 11.3263H20.9746L18.0381 18.5975C16.7797 22.5127 15.5212 25.8686 15.5212 25.8686C15.5212 25.8686 14.2627 22.5127 12.5847 18.5975L9.78814 11.3263H4.89407C2.23729 11.1864 0 11.1864 0 11.1864ZM43.9068 18.7373C45.7246 19.1568 47.1229 20.5551 47.6822 22.3729C47.822 23.072 47.822 24.3305 47.6822 25.0297C47.2627 26.8475 45.8644 28.2458 44.0466 28.6653C43.3475 28.8051 42.089 28.8051 41.3898 28.6653C39.8517 28.2458 38.4534 27.1271 37.8941 25.7288C37.1949 24.1907 37.4746 22.2331 38.3136 20.8347C39.572 19.017 41.6695 18.3178 43.9068 18.7373ZM99.6992 18.8771C101.657 19.1568 103.195 20.6949 103.614 22.6525C103.754 23.3517 103.754 24.4703 103.614 25.1695C103.195 26.9873 101.797 28.2458 100.119 28.8051C99.5593 28.9449 98.0212 28.9449 97.4619 28.8051C96.0636 28.3856 94.9449 27.4068 94.2458 26.1483C93.8263 25.3093 93.8263 24.8898 93.8263 23.911C93.8263 23.072 93.9661 22.6525 94.2458 21.9534C94.6653 21.1144 95.2246 20.2754 96.0636 19.7161C96.9025 18.8771 98.3008 18.5975 99.6992 18.8771ZM128.085 18.8771C129.763 19.1568 131.161 20.2754 131.72 21.8136C132 22.5127 132.14 22.9322 132.14 23.7712C132.14 24.75 132 25.1695 131.72 26.0085C131.161 27.2669 129.903 28.2458 128.504 28.6653C127.945 28.8051 126.407 28.8051 125.847 28.6653C124.169 28.2458 122.771 26.8475 122.352 25.0297C122.212 24.3305 122.212 23.072 122.352 22.3729C122.911 20.1356 124.869 18.5975 127.106 18.5975C127.386 18.7373 127.805 18.7373 128.085 18.8771ZM147.102 25.0297C144.445 25.3093 142.487 27.2669 141.928 29.7839C141.788 30.483 141.788 31.7415 141.928 32.4407C142.487 34.678 144.165 36.2161 146.403 36.7754C146.682 36.7754 147.242 36.9153 147.661 36.9153C149.339 36.9153 150.737 36.3559 151.856 35.2373C153.114 33.9788 153.534 32.7203 153.534 31.0424C153.534 28.9449 152.555 27.1271 150.877 26.1483C149.758 25.1695 148.22 24.8898 147.102 25.0297ZM73.411 38.7331C71.5932 39.2924 70.7542 41.3898 71.7331 42.928C72.0127 43.3475 72.572 43.9068 72.9915 44.0466C73.411 44.1864 73.411 44.1864 74.25 44.1864C74.9491 44.1864 75.089 44.1864 75.5085 44.0466C76.0678 43.7669 76.6271 43.2076 76.9068 42.6483C77.6059 41.25 76.9068 39.572 75.5085 38.8729C75.089 38.5932 74.9491 38.5932 74.3898 38.5932C73.8305 38.5932 73.6907 38.5932 73.411 38.7331ZM65.8602 38.8729C63.483 39.2924 61.9449 40.8305 61.2458 43.3475C61.1059 43.7669 61.1059 44.1864 61.1059 44.7458V45.7246H60.1271H59.1483V47.822V49.9195H60.1271H61.1059V54.9534V59.9873H63.7627H66.4195V54.9534V49.9195H68.2373H70.0551V47.822V45.7246H68.2373H66.4195V45.3051C66.5593 44.3263 66.9788 43.6271 67.8178 43.4873C68.3771 43.3475 69.2161 43.3475 69.7754 43.6271C70.0551 43.7669 70.1949 43.7669 70.1949 43.7669C70.1949 43.7669 70.1949 42.7881 70.1949 41.5297V39.2924L69.7754 39.1525C69.2161 38.8729 68.517 38.8729 67.5381 38.8729C66.839 38.733 66.2797 38.8729 65.8602 38.8729ZM87.1144 45.4449C85.9958 45.7246 85.1568 46.2839 84.5975 46.983L84.3178 47.4025V46.5636V45.7246H81.661H79.0042V52.8559V59.9873H81.661H84.3178V56.072C84.3178 53.8347 84.3178 52.0169 84.3178 51.7373C84.4576 51.178 84.7373 50.6186 85.017 50.339C85.7161 49.7797 86.9746 49.9195 87.5339 50.6186C87.9534 51.178 87.9534 51.178 87.9534 55.6525V59.8475H90.6102H93.2669V55.0932C93.2669 50.0593 93.2669 49.5 92.9873 48.5212C92.7076 47.6822 92.428 46.983 91.7288 46.4237C91.1695 45.8644 90.6102 45.4449 89.7712 45.3051C89.072 45.3051 87.6737 45.3051 87.1144 45.4449ZM100.398 45.3051C99.5593 45.4449 98.3008 45.8644 97.6017 46.4237C96.0636 47.5424 95.0847 49.2203 94.6652 51.3178C94.5254 52.1568 94.5254 53.6949 94.6652 54.5339C94.9449 55.7924 95.3644 57.0508 96.0636 57.8898C97.0424 59.1483 98.3008 59.9873 99.839 60.2669C100.678 60.4068 102.076 60.4068 102.775 60.1271C103.614 59.8475 104.174 59.5678 104.873 59.0085L105.432 58.4492V59.1483V59.8475H108.089H110.746V52.7161V45.5847H108.089H105.432V46.2839V46.983L105.013 46.8432C104.314 46.1441 103.335 45.5847 102.216 45.4449C101.797 45.3051 100.818 45.3051 100.398 45.3051ZM120.674 45.4449C119.695 45.5847 118.716 46.2839 118.157 46.983L117.877 47.2627V46.4237V45.5847H115.22H112.564V52.7161V59.8475H115.22H117.877V55.7924C117.877 51.4576 117.877 51.4576 118.157 50.7585C118.436 50.1992 118.996 49.9195 119.555 49.9195C120.114 49.9195 120.394 50.0593 120.814 50.339C121.373 50.8983 121.373 50.7585 121.373 55.5127V59.7076H124.03H126.686V54.5339C126.686 49.3602 126.686 49.3602 126.547 48.8008C126.407 48.5212 126.267 47.9619 126.127 47.5424C125.847 46.983 125.708 46.8432 125.288 46.4237C124.729 45.8644 124.309 45.5847 123.75 45.3051C122.771 45.3051 121.653 45.1653 120.674 45.4449ZM134.517 45.4449C132.14 45.8644 130.322 46.983 129.203 48.9407C128.924 49.5 128.644 50.1992 128.364 50.8983C128.225 51.5975 128.225 51.7373 128.225 52.8559C128.225 54.1144 128.225 54.5339 128.644 55.5127C129.483 57.8898 131.441 59.7076 134.097 60.2669C134.517 60.4068 134.936 60.4068 135.915 60.4068C137.314 60.4068 137.873 60.267 138.852 59.8475L139.411 59.5678V57.1907V54.8136L138.992 55.0932C138.292 55.5127 137.873 55.6525 137.034 55.6525C136.195 55.6525 135.775 55.6525 135.216 55.3729C134.657 55.0932 134.237 54.6737 133.958 54.1144C133.818 53.6949 133.818 53.6949 133.818 52.9958C133.818 52.4364 133.818 52.2966 133.958 51.8771C134.377 50.7585 135.356 50.1992 136.754 50.0593C137.733 50.0593 138.153 50.0593 139.551 50.7585C139.551 50.7585 139.551 49.6398 139.551 48.3814V46.0042L139.131 45.8644C137.593 45.3051 135.915 45.1653 134.517 45.4449ZM146.542 45.4449C142.487 46.1441 139.97 49.6398 140.25 53.6949C140.39 55.0932 140.809 56.3517 141.508 57.3305C142.487 58.8686 144.025 59.8475 145.983 60.2669C146.822 60.4068 149.059 60.4068 150.038 60.2669C151.436 59.9873 152.695 59.2881 153.674 58.3093C154.093 57.8898 154.792 56.911 154.792 56.911C154.792 56.911 153.814 56.4915 152.555 56.072L150.318 55.233L150.038 55.5127C149.619 55.9322 149.339 56.072 148.78 56.2119C147.242 56.6314 145.703 55.7924 145.424 54.3941V54.1144H150.318H155.212V52.8559C155.212 52.017 155.212 51.4576 155.072 51.178C154.792 49.5 154.093 48.3814 153.114 47.2627C152.136 46.2839 151.017 45.7246 149.479 45.4449C148.919 45.3051 147.242 45.3051 146.542 45.4449ZM71.5932 52.8559V59.9873H74.25H76.9068V52.8559V45.7246H74.25H71.5932V52.8559ZM148.64 49.3602C149.059 49.5 149.199 49.6398 149.619 49.9195C149.898 50.1991 150.178 50.4788 150.178 50.8983V51.178H147.801C145.144 51.178 145.284 51.178 145.564 50.6186C145.983 49.6398 147.242 49.0805 148.64 49.3602ZM103.475 50.0593C104.174 50.1992 105.013 50.8983 105.292 51.5975C105.992 53.1356 105.292 54.9534 103.614 55.5127C103.055 55.6525 102.216 55.6525 101.657 55.5127C100.818 55.233 99.9788 54.5339 99.839 53.6949C99.6992 53.2754 99.6992 53.1356 99.6992 52.7161C99.6992 52.1568 99.6992 52.017 99.9788 51.5975C100.538 50.339 101.936 49.7797 103.475 50.0593Z" fill="white"/>
</svg>
