<svg width="46" height="46" viewBox="0 0 46 46" fill="none" xmlns="http://www.w3.org/2000/svg">
<path d="M27.4244 21.7L20.9244 18.2C20.7244 18.1 20.5244 18.1 20.4244 18.2C20.3244 18.3 20.2244 18.4 20.2244 18.6V25.7C20.2244 25.9 20.3244 26 20.4244 26.1C20.4244 26.2 20.5244 26.2 20.6244 26.2C20.7244 26.2 20.7244 26.1 20.8244 26.1L27.3244 22.6C27.5244 22.5 27.7244 22.3 27.7244 22.1C27.7244 21.9 27.6244 21.8 27.4244 21.7Z" fill="#AFFFF5"/>
<path d="M22.9244 0C10.2244 0 0.0243835 10.2 0.0243835 22.9C0.0243835 35.5 10.2244 45.8 22.9244 45.8C35.5244 45.8 45.8244 35.6 45.8244 22.9C45.7244 10.2 35.5244 0 22.9244 0ZM35.4244 21.5V23.3C35.4244 25.4 35.2244 27.3 35.2244 27.4C35.2244 27.6 34.9244 29.4 34.1244 30.2C33.1244 31.2 32.0244 31.3 31.5244 31.4H31.4244C28.0244 31.6 22.9244 31.6 22.9244 31.6C22.7244 31.6 16.7244 31.6 14.8244 31.4C14.7244 31.4 14.6244 31.4 14.5244 31.4C13.8244 31.3 12.8244 31.2 11.9244 30.2C11.1244 29.4 10.8244 27.7 10.8244 27.5C10.8244 27.4 10.6244 25.4 10.6244 23.4V21.6C10.6244 19.5 10.8244 17.6 10.8244 17.5C10.8244 17.3 11.1244 15.5 11.9244 14.7C12.9244 13.6 14.0244 13.5 14.5244 13.5H14.6244C18.0244 13.3 23.1244 13.3 23.1244 13.3C23.2244 13.3 28.2244 13.3 31.6244 13.5H31.7244C32.2244 13.5 33.3244 13.6 34.3244 14.7C35.1244 15.5 35.4244 17.2 35.4244 17.4C35.3244 17.5 35.5244 19.6 35.4244 21.5Z" fill="#AFFFF5"/>
</svg>
