<svg width="217" height="279" viewBox="0 0 217 279" fill="none" xmlns="http://www.w3.org/2000/svg">
<g clip-path="url(#clip0_489_31)">
<path d="M148.67 273.591C148.67 273.591 165.628 225.194 144.993 190.873C127.609 161.955 102.953 141.529 139.259 124.322C175.565 107.116 192.909 87.6152 199.06 71.6166C205.211 55.6181 204.692 47.1199 204.692 47.1199L70.3634 11.1268C70.3634 11.1268 65.4208 18.1614 62.9226 35.1387C60.4244 52.1161 66.7034 77.9467 92.2211 111.719C117.739 145.491 80.3987 152.501 48.7624 168.283C11.1918 187.008 5.26139 235.164 5.26139 235.164L148.705 273.6L148.67 273.591Z" fill="#387D9D"/>
<path d="M145.226 272.668C145.226 272.668 162.01 224.225 142.732 190.267C126.461 161.648 103.161 141.584 138.041 123.996C172.92 106.407 189.708 86.7574 195.79 70.7403C201.871 54.7231 201.456 46.2529 201.456 46.2529L73.599 11.9937C73.599 11.9937 68.7955 19.0656 66.193 36.015C63.5904 52.9643 69.278 78.6365 93.2648 111.998C117.217 145.351 81.4772 152.789 51.0586 168.898C14.984 188.024 8.7057 236.087 8.7057 236.087L145.226 272.668Z" fill="url(#paint0_linear_489_31)"/>
<path d="M70.6687 65.3747L178.178 93.8845C178.178 93.8845 162.191 110.963 146.446 118.372C130.701 125.782 113.366 130.499 107.932 150.776C102.499 171.054 94.9394 197.597 94.9394 197.597C94.9394 197.597 100.006 203.599 102.863 206.853C105.72 210.108 148.148 266.355 148.148 266.355L9.50551 229.206C9.50551 229.206 61.5573 210.014 73.7225 205.249C85.8969 200.45 92.6663 197.174 92.6663 197.174C92.6663 197.174 101.762 170.187 105.146 154.079C108.53 137.97 104.119 124.232 93.2958 108.96C85.1549 97.454 74.2551 80.9361 70.6153 65.4347L70.6687 65.3747Z" fill="url(#paint1_linear_489_31)"/>
<path style="mix-blend-mode:screen" d="M73.3141 18.9017L88.1003 22.8637C88.1003 22.8637 79.8811 43.1006 82.5634 65.5155C85.2087 87.5118 97.7744 110.755 97.7744 110.755C97.7744 110.755 54.3151 67.6799 73.2793 18.8924L73.3141 18.9017Z" fill="url(#paint2_linear_489_31)"/>
<path style="mix-blend-mode:screen" d="M198.736 52.5083L183.95 48.5463C183.95 48.5463 180.949 70.1816 167.419 88.2523C154.13 105.979 131.626 119.825 131.626 119.825C131.626 119.825 190.8 104.251 198.771 52.5176L198.736 52.5083Z" fill="url(#paint3_linear_489_31)"/>
<path style="mix-blend-mode:screen" d="M143.217 264.439L128.431 260.477C128.431 260.477 136.65 240.24 133.968 217.825C131.322 195.829 118.757 172.586 118.757 172.586C118.757 172.586 162.216 215.661 143.252 264.448L143.217 264.439Z" fill="url(#paint4_linear_489_31)"/>
<path style="mix-blend-mode:screen" d="M13.0408 228.258L27.827 232.22C27.827 232.22 30.8275 210.585 44.3578 192.514C57.6469 174.787 80.1505 160.942 80.1505 160.942C80.1505 160.942 20.9763 176.516 13.006 228.249L13.0408 228.258Z" fill="url(#paint5_linear_489_31)"/>
<path d="M215.652 44.4842L213.21 53.6004C212.699 55.5068 210.75 56.6564 208.802 56.1344L64.8712 17.5683C62.9577 17.0556 61.81 15.0763 62.3209 13.1698L64.7635 4.05364C65.2744 2.14721 67.2579 1.0069 69.1714 1.51963L213.102 40.0857C215.05 40.6078 216.163 42.5777 215.652 44.4842Z" fill="url(#paint6_radial_489_31)"/>
<path d="M21.531 226.075L93.0438 199.244C93.0438 199.244 99.2895 211.283 102.486 226.071C105.683 240.859 105.581 251.68 105.581 251.68L21.531 226.075Z" fill="url(#paint7_linear_489_31)"/>
<path d="M154.286 264.879L151.852 273.96C151.332 275.901 149.358 277.007 147.445 276.494L3.47919 237.919C1.56568 237.406 0.408746 235.462 0.92886 233.52L3.36226 224.439C3.87308 222.532 5.85663 221.392 7.77014 221.905L151.735 260.48C153.649 260.993 154.797 262.972 154.286 264.879Z" fill="url(#paint8_radial_489_31)"/>
<path style="mix-blend-mode:screen" d="M83.5798 242.218L25.27 226.594L20.9791 242.608L79.2889 258.232L83.5798 242.218Z" fill="url(#paint9_linear_489_31)"/>
<path style="mix-blend-mode:screen" d="M142.789 21.2454L84.4795 5.62134L80.1793 21.67L138.489 37.2941L142.789 21.2454Z" fill="url(#paint10_linear_489_31)"/>
</g>
<defs>
<linearGradient id="paint0_linear_489_31" x1="38.3343" y1="123.285" x2="175.55" y2="160.052" gradientUnits="userSpaceOnUse">
<stop stop-color="#58BDEC"/>
<stop offset="0.12" stop-color="#84CEF1"/>
<stop offset="0.24" stop-color="#ABDDF5"/>
<stop offset="0.36" stop-color="#C7E8F9"/>
<stop offset="0.46" stop-color="#D8EEFB"/>
<stop offset="0.53" stop-color="#DFF1FC"/>
<stop offset="0.62" stop-color="#DBEFFB"/>
<stop offset="0.7" stop-color="#CFEAFA"/>
<stop offset="0.78" stop-color="#BBE3F7"/>
<stop offset="0.85" stop-color="#A0D8F4"/>
<stop offset="0.93" stop-color="#7DCBF0"/>
<stop offset="1" stop-color="#58BDEC"/>
</linearGradient>
<linearGradient id="paint1_linear_489_31" x1="26.8561" y1="143.578" x2="159.062" y2="179.002" gradientUnits="userSpaceOnUse">
<stop stop-color="#D59100"/>
<stop offset="0.24" stop-color="#AB7000"/>
<stop offset="0.3" stop-color="#BF7F00"/>
<stop offset="0.41" stop-color="#D99400"/>
<stop offset="0.5" stop-color="#E9A000"/>
<stop offset="0.58" stop-color="#EFA500"/>
<stop offset="0.66" stop-color="#EBA200"/>
<stop offset="0.73" stop-color="#DF9900"/>
<stop offset="0.8" stop-color="#CC8900"/>
<stop offset="0.88" stop-color="#B17400"/>
<stop offset="0.95" stop-color="#8F5900"/>
<stop offset="0.96" stop-color="#8B5600"/>
</linearGradient>
<linearGradient id="paint2_linear_489_31" x1="70.8477" y1="4.30923" x2="97.5233" y2="125.43" gradientUnits="userSpaceOnUse">
<stop stop-color="white"/>
<stop offset="0.02" stop-color="#F2F2F2"/>
<stop offset="0.14" stop-color="#BABABA"/>
<stop offset="0.25" stop-color="#888888"/>
<stop offset="0.37" stop-color="#5E5E5E"/>
<stop offset="0.49" stop-color="#3C3C3C"/>
<stop offset="0.61" stop-color="#212121"/>
<stop offset="0.74" stop-color="#0F0F0F"/>
<stop offset="0.86" stop-color="#030303"/>
<stop offset="1"/>
</linearGradient>
<linearGradient id="paint3_linear_489_31" x1="208.168" y1="41.104" x2="124.541" y2="132.669" gradientUnits="userSpaceOnUse">
<stop stop-color="white"/>
<stop offset="0.02" stop-color="#F2F2F2"/>
<stop offset="0.14" stop-color="#BABABA"/>
<stop offset="0.25" stop-color="#888888"/>
<stop offset="0.37" stop-color="#5E5E5E"/>
<stop offset="0.49" stop-color="#3C3C3C"/>
<stop offset="0.61" stop-color="#212121"/>
<stop offset="0.74" stop-color="#0F0F0F"/>
<stop offset="0.86" stop-color="#030303"/>
<stop offset="1"/>
</linearGradient>
<linearGradient id="paint4_linear_489_31" x1="147.691" y1="157.008" x2="109.379" y2="299.99" gradientUnits="userSpaceOnUse">
<stop stop-color="white"/>
<stop offset="0.02" stop-color="#F2F2F2"/>
<stop offset="0.14" stop-color="#BABABA"/>
<stop offset="0.25" stop-color="#888888"/>
<stop offset="0.37" stop-color="#5E5E5E"/>
<stop offset="0.49" stop-color="#3C3C3C"/>
<stop offset="0.61" stop-color="#212121"/>
<stop offset="0.74" stop-color="#0F0F0F"/>
<stop offset="0.86" stop-color="#030303"/>
<stop offset="1"/>
</linearGradient>
<linearGradient id="paint5_linear_489_31" x1="62.7334" y1="133.538" x2="24.9972" y2="274.371" gradientUnits="userSpaceOnUse">
<stop stop-color="white"/>
<stop offset="0.02" stop-color="#F2F2F2"/>
<stop offset="0.14" stop-color="#BABABA"/>
<stop offset="0.25" stop-color="#888888"/>
<stop offset="0.37" stop-color="#5E5E5E"/>
<stop offset="0.49" stop-color="#3C3C3C"/>
<stop offset="0.61" stop-color="#212121"/>
<stop offset="0.74" stop-color="#0F0F0F"/>
<stop offset="0.86" stop-color="#030303"/>
<stop offset="1"/>
</linearGradient>
<radialGradient id="paint6_radial_489_31" cx="0" cy="0" r="1" gradientUnits="userSpaceOnUse" gradientTransform="translate(79.6533 87.5094) rotate(15) scale(95.9889 95.6339)">
<stop stop-color="#626467"/>
<stop offset="1" stop-color="#212325"/>
</radialGradient>
<linearGradient id="paint7_linear_489_31" x1="12.9282" y1="88.5402" x2="99.1192" y2="330.161" gradientUnits="userSpaceOnUse">
<stop stop-color="#D59100"/>
<stop offset="0.24" stop-color="#AB7000"/>
<stop offset="0.3" stop-color="#BF7F00"/>
<stop offset="0.41" stop-color="#D99400"/>
<stop offset="0.5" stop-color="#E9A000"/>
<stop offset="0.58" stop-color="#EFA500"/>
<stop offset="0.66" stop-color="#EBA200"/>
<stop offset="0.73" stop-color="#DF9900"/>
<stop offset="0.8" stop-color="#CC8900"/>
<stop offset="0.88" stop-color="#B17400"/>
<stop offset="0.95" stop-color="#8F5900"/>
<stop offset="0.96" stop-color="#8B5600"/>
</linearGradient>
<radialGradient id="paint8_radial_489_31" cx="0" cy="0" r="1" gradientUnits="userSpaceOnUse" gradientTransform="translate(69.1582 185.822) rotate(15) scale(95.9889 95.6339)">
<stop stop-color="#626467"/>
<stop offset="1" stop-color="#212325"/>
</radialGradient>
<linearGradient id="paint9_linear_489_31" x1="-86.015" y1="205.357" x2="173.109" y2="274.789" gradientUnits="userSpaceOnUse">
<stop stop-color="white"/>
<stop offset="0.02" stop-color="#F2F2F2"/>
<stop offset="0.14" stop-color="#BABABA"/>
<stop offset="0.25" stop-color="#888888"/>
<stop offset="0.37" stop-color="#5E5E5E"/>
<stop offset="0.49" stop-color="#3C3C3C"/>
<stop offset="0.61" stop-color="#212121"/>
<stop offset="0.74" stop-color="#0F0F0F"/>
<stop offset="0.86" stop-color="#030303"/>
<stop offset="1"/>
</linearGradient>
<linearGradient id="paint10_linear_489_31" x1="-26.8055" y1="-15.6155" x2="232.318" y2="53.8165" gradientUnits="userSpaceOnUse">
<stop stop-color="white"/>
<stop offset="0.02" stop-color="#F2F2F2"/>
<stop offset="0.14" stop-color="#BABABA"/>
<stop offset="0.25" stop-color="#888888"/>
<stop offset="0.37" stop-color="#5E5E5E"/>
<stop offset="0.49" stop-color="#3C3C3C"/>
<stop offset="0.61" stop-color="#212121"/>
<stop offset="0.74" stop-color="#0F0F0F"/>
<stop offset="0.86" stop-color="#030303"/>
<stop offset="1"/>
</linearGradient>
<clipPath id="clip0_489_31">
<rect width="158.481" height="245.347" fill="white" transform="translate(63.5005) rotate(15)"/>
</clipPath>
</defs>
</svg>
