<svg width="180" height="27" viewBox="0 0 180 27" fill="none" xmlns="http://www.w3.org/2000/svg">
<g clip-path="url(#clip0_183_16)">
<path d="M38.4235 18.2326V14.009H42.6235C44.0864 14.009 44.9831 14.6225 44.9831 15.991C44.9831 17.2652 44.0864 18.2326 42.5763 18.2326H38.4235ZM42.364 7.94493C43.8977 7.94493 44.5348 8.44043 44.5348 9.6438C44.5348 10.7528 43.8505 11.3427 42.5527 11.3427H38.4235V7.94493H42.364ZM42.3168 20.8989C46.2572 20.8989 48.1685 19.082 48.1685 16.227C48.1685 13.9854 47.1067 12.9236 45.7853 12.4281C46.8707 11.9798 47.6966 10.8472 47.6966 9.50223C47.6966 6.88313 46.0449 5.23145 42.9774 5.23145H35.2617V20.8989H42.3168Z" fill="#222121"/>
<path d="M55.9078 16.4865C55.8842 17.8551 54.7044 19.0112 53.1235 19.0112C52.1561 19.0112 51.637 18.5865 51.637 17.7135C51.637 16.7225 52.2033 16.227 53.9494 15.8966C55.0819 15.6843 55.6246 15.5191 55.9314 15.2124L55.9078 16.4865ZM58.9988 20.8989V13.5607C58.9988 10.6348 57.7246 8.98315 54.0437 8.98315C50.3156 8.98315 48.9943 10.6584 48.9471 13.0652H51.8022C51.9437 12.027 52.51 11.3427 53.9022 11.3427C55.1055 11.3427 55.8606 11.791 55.8606 12.5461C55.8606 13.3483 55.4359 13.6551 53.9022 13.8674C50.8112 14.2921 48.5696 14.6697 48.5696 18.0202C48.5696 19.9079 49.7965 21.2056 52.4392 21.2056C53.9965 21.2056 55.2235 20.6629 55.955 19.8607C55.9786 20.2146 56.0494 20.6157 56.1437 20.8989H58.9988Z" fill="#222121"/>
<path d="M70.8673 20.8989V12.8528C70.8673 10.3281 69.2393 8.98315 67.0213 8.98315C65.1572 8.98315 63.9775 9.69102 63.2696 10.9888V9.2899H60.3438V20.8989H63.4112V14.245C63.4112 12.4753 64.1898 11.5787 65.7943 11.5787C67.2572 11.5787 67.7763 12.0742 67.7763 13.8674V20.8989H70.8673Z" fill="#222121"/>
<path d="M82.7832 20.8989L78.9843 13.5607L82.8776 9.28992H79.1259L75.3034 13.7023V5.04272H72.2124V20.8989H75.3034V17.218L76.7899 15.6843L79.3382 20.8989H82.7832Z" fill="#222121"/>
<path d="M86.6763 20.8989V5.04272H83.6089V20.8989H86.6763Z" fill="#222121"/>
<path d="M90.8764 13.9618C90.9944 12.3573 92.009 11.4135 93.236 11.4135C94.4393 11.4135 95.5719 12.2393 95.6191 13.9618H90.8764ZM98.7809 15.8966C98.7809 11.2955 96.8933 8.98315 93.3303 8.98315C89.7674 8.98315 87.7146 11.2955 87.7146 14.882C87.7146 19.082 89.6494 21.2056 93.5191 21.2056C95.9966 21.2056 97.9079 19.8607 98.6157 17.4775H95.4539C95.2416 18.2798 94.3685 18.7753 93.3775 18.7753C91.8674 18.7753 90.8764 17.6427 90.782 15.8966H98.7809Z" fill="#222121"/>
<path d="M109.776 12.8056C109.611 10.3045 108.101 8.98315 104.75 8.98315C101.211 8.98315 99.8661 10.4697 99.8661 12.4281C99.8661 13.4663 100.244 14.3629 101.329 15.0472C102.155 15.5663 103.24 15.8966 105.199 16.3685C106.19 16.6045 107.063 16.8641 107.063 17.6899C107.063 18.5629 106.095 18.8933 105.01 18.8933C103.523 18.8933 102.603 18.2562 102.603 17.1708H99.4414C99.4886 19.5303 101.471 21.2056 105.034 21.2056C108.337 21.2056 110.107 19.7663 110.107 17.3596C110.107 15.8494 109.422 15.0472 108.195 14.5517C107.299 14.1978 106.048 13.9382 104.727 13.5607C103.476 13.2067 102.839 12.9236 102.839 12.2393C102.839 11.5551 103.5 11.2719 104.656 11.2719C106.048 11.2719 106.662 11.673 106.827 12.8056H109.776Z" fill="#222121"/>
<path d="M120.913 12.8056C120.748 10.3045 119.238 8.98315 115.888 8.98315C112.348 8.98315 111.003 10.4697 111.003 12.4281C111.003 13.4663 111.381 14.3629 112.466 15.0472C113.292 15.5663 114.377 15.8966 116.336 16.3685C117.327 16.6045 118.2 16.8641 118.2 17.6899C118.2 18.5629 117.233 18.8933 116.147 18.8933C114.661 18.8933 113.74 18.2562 113.74 17.1708H110.579C110.626 19.5303 112.608 21.2056 116.171 21.2056C119.474 21.2056 121.244 19.7663 121.244 17.3596C121.244 15.8494 120.56 15.0472 119.333 14.5517C118.436 14.1978 117.185 13.9382 115.864 13.5607C114.613 13.2067 113.976 12.9236 113.976 12.2393C113.976 11.5551 114.637 11.2719 115.793 11.2719C117.185 11.2719 117.799 11.673 117.964 12.8056H120.913Z" fill="#222121"/>
<path d="M129.597 20.8989V7.96852H134.339V5.23145H121.598V7.96852H126.317V20.8989H129.597Z" fill="#232222"/>
<path d="M138.327 20.8989V9.28992H135.26V20.8989H138.327ZM138.327 7.89778V5.04272H135.26V7.89778H138.327Z" fill="#232222"/>
<path d="M156.33 20.8989V12.8528C156.33 10.682 154.702 8.98315 152.366 8.98315C150.903 8.98315 149.865 9.54945 149.228 10.8236C148.331 9.47866 147.576 8.98315 145.995 8.98315C144.462 8.98315 143.376 9.45506 142.598 10.9888V9.2899H139.719V20.8989H142.786V13.8438C142.786 12.3337 143.423 11.5787 144.65 11.5787C145.995 11.5787 146.491 12.0506 146.491 13.9146V20.8989H149.558V13.9618C149.558 12.5461 150.384 11.4843 151.517 11.4843C152.602 11.4843 153.334 12.4753 153.334 13.8674V20.8989H156.33Z" fill="#232222"/>
<path d="M160.412 13.9618C160.53 12.3573 161.545 11.4135 162.772 11.4135C163.975 11.4135 165.108 12.2393 165.155 13.9618H160.412ZM168.317 15.8966C168.317 11.2955 166.429 8.98315 162.866 8.98315C159.303 8.98315 157.25 11.2955 157.25 14.882C157.25 19.082 159.185 21.2056 163.055 21.2056C165.533 21.2056 167.444 19.8607 168.152 17.4775H164.99C164.777 18.2798 163.904 18.7753 162.913 18.7753C161.403 18.7753 160.412 17.6427 160.318 15.8966H168.317Z" fill="#232222"/>
<path d="M179.312 12.8056C179.147 10.3045 177.637 8.98315 174.287 8.98315C170.747 8.98315 169.402 10.4697 169.402 12.4281C169.402 13.4663 169.78 14.3629 170.865 15.0472C171.691 15.5663 172.776 15.8966 174.735 16.3685C175.726 16.6045 176.599 16.8641 176.599 17.6899C176.599 18.5629 175.631 18.8933 174.546 18.8933C173.06 18.8933 172.139 18.2562 172.139 17.1708H168.978C169.025 19.5303 171.007 21.2056 174.57 21.2056C177.873 21.2056 179.643 19.7663 179.643 17.3596C179.643 15.8494 178.958 15.0472 177.731 14.5517C176.835 14.1978 175.584 13.9382 174.263 13.5607C173.012 13.2067 172.375 12.9236 172.375 12.2393C172.375 11.5551 173.036 11.2719 174.192 11.2719C175.584 11.2719 176.198 11.673 176.363 12.8056H179.312Z" fill="#232222"/>
<path fill-rule="evenodd" clip-rule="evenodd" d="M17.1377 8.68357L20.6601 10.9988L18.2076 12.71L16.2122 11.4078L7.38652 17.2069L16.2122 23.0042L25.0391 17.2069L22.2539 15.3774L24.7794 13.7036L27.9765 15.7872C28.7563 16.2954 28.9765 17.3396 28.4683 18.1194C28.3415 18.314 28.1758 18.4803 27.9816 18.6079L17.1376 25.7308C16.5758 26.0997 15.8486 26.0997 15.2869 25.7307L4.45601 18.6156C3.67805 18.1045 3.46169 17.0595 3.97276 16.2816C4.09915 16.0892 4.26361 15.9247 4.45601 15.7983L15.2866 8.68335C15.8484 8.31425 16.5759 8.31434 17.1377 8.68357ZM17.1595 0.634919L27.9904 7.75008C28.7684 8.26115 28.9847 9.30611 28.4737 10.0841C28.3473 10.2765 28.1828 10.4409 27.9904 10.5673L17.1598 17.6823C16.598 18.0514 15.8705 18.0513 15.3087 17.6821L11.7863 15.3669L14.2388 13.6556L16.2342 14.9579L25.0599 9.1587L16.2342 3.36142L7.40734 9.1587L10.1926 10.9882L7.66705 12.662L4.46991 10.5785C3.69008 10.0703 3.46989 9.02609 3.9781 8.24626C4.10494 8.05163 4.27065 7.88532 4.46482 7.75778L15.3089 0.634866C15.8706 0.265898 16.5978 0.265919 17.1595 0.634919Z" fill="#FFBF1B"/>
</g>
<defs>
<clipPath id="clip0_183_16">
<rect width="180" height="26.2921" fill="white"/>
</clipPath>
</defs>
</svg>
