<svg width="178" height="32" viewBox="0 0 178 32" fill="none" xmlns="http://www.w3.org/2000/svg">
<g clip-path="url(#clip0_122_840)">
<path d="M0 0H13.0496C15.5353 0 17.3995 0.605042 18.7805 1.61345C20.2995 2.82353 21.128 4.57143 21.128 6.72269C21.128 9.21008 20.0923 10.7563 18.021 11.6975V11.8319C20.7828 12.7059 22.3708 15.126 22.3708 18.0168C22.3708 20.7731 21.2661 22.9244 19.4709 24.2689C17.9519 25.3445 16.0186 25.8151 13.3949 25.8151H0V0ZM11.7378 10.084C13.1187 10.084 14.1544 9.34454 14.1544 7.79832C14.1544 6.31933 13.1187 5.57983 11.6687 5.57983H7.18076V10.0168H11.7378V10.084ZM12.3592 20.1008C13.9472 20.1008 15.121 19.1597 15.121 17.479C15.121 15.6639 13.8782 14.8571 12.3592 14.8571H7.24981V20.1681H12.3592V20.1008Z" fill="white"/>
<path d="M23.5449 0H30.3804V25.8824H23.5449V0Z" fill="white"/>
<path d="M31.7607 16.6722C31.7607 10.8235 35.6273 6.92432 41.6343 6.92432C47.6413 6.92432 51.4388 10.8907 51.4388 16.6722C51.4388 22.521 47.6413 26.4201 41.6343 26.4201C35.6273 26.4201 31.7607 22.521 31.7607 16.6722ZM44.6033 16.6722C44.6033 13.4453 43.5676 11.4285 41.4962 11.4285C39.4248 11.4285 38.4582 13.4453 38.4582 16.6722C38.4582 19.8991 39.4248 21.9831 41.4962 21.9831C43.5676 21.9159 44.6033 19.8991 44.6033 16.6722Z" fill="white"/>
<path d="M52.1982 16.6722C52.1982 10.8235 56.0648 6.92432 62.0718 6.92432C68.0788 6.92432 71.8072 10.8235 71.8072 16.6722C71.8072 22.521 68.0097 26.4201 62.0027 26.4201C56.0648 26.4201 52.1982 22.521 52.1982 16.6722ZM65.0408 16.6722C65.0408 13.4453 64.0051 11.4285 61.9337 11.4285C59.8623 11.4285 58.8957 13.4453 58.8957 16.6722C58.8957 19.8991 59.8623 21.9831 61.9337 21.9831C64.0051 21.9159 65.0408 19.8991 65.0408 16.6722Z" fill="white"/>
<path d="M73.1885 7.39499H79.5407V10.1513H79.6788C80.9216 8.00003 82.6477 6.85718 85.4096 6.85718C87.8262 6.85718 89.6214 8.00004 90.519 10.0168H90.6571C92.1761 7.59667 94.1784 6.85718 96.526 6.85718C100.945 6.85718 102.809 10.0168 102.809 14.2521V25.8152H96.1807V15.395C96.1807 13.5126 95.5593 12.3026 93.9022 12.3026C92.2451 12.3026 91.4166 13.7815 91.4166 15.7984V25.8152H84.7882V15.395C84.7882 13.5126 84.1668 12.3026 82.5097 12.3026C80.8526 12.3026 80.024 13.7815 80.024 15.7984V25.8152H73.1885V7.39499Z" fill="white"/>
<path d="M111.163 23.395H111.094V25.8151H104.742V0H111.371V9.27731H111.509C112.751 7.66387 114.478 6.78992 116.894 6.78992C121.658 6.78992 124.42 10.958 124.42 16.5378C124.42 22.7899 121.451 26.4202 116.48 26.4202C114.409 26.4202 112.268 25.479 111.163 23.395ZM117.585 16.4706C117.585 13.5126 116.48 11.563 114.478 11.563C112.406 11.563 111.163 13.5126 111.163 16.4706C111.163 19.4286 112.475 21.3782 114.478 21.3782C116.48 21.3782 117.585 19.4958 117.585 16.4706Z" fill="white"/>
<path d="M125.18 16.6051C125.18 10.8236 129.115 6.85718 134.777 6.85718C137.608 6.85718 139.748 7.73113 141.405 9.27735C143.615 11.3614 144.582 14.5883 144.513 18.353H131.808C132.084 20.6387 133.189 21.8488 135.191 21.8488C136.365 21.8488 137.401 21.311 137.815 20.1009H144.236C143.132 24.3362 139.748 26.4202 134.984 26.4202C129.115 26.353 125.18 22.4538 125.18 16.6051ZM131.808 14.6555H137.884C137.746 12.437 136.503 11.2942 134.915 11.2942C133.051 11.2269 132.015 12.5042 131.808 14.6555Z" fill="white"/>
<path d="M152.039 10.5546H152.177C153.558 7.99998 155.353 6.99158 157.631 6.99158C158.184 6.99158 158.529 7.0588 158.736 7.19326V12.8403H158.598C154.662 12.168 152.384 13.9832 152.384 18.1512V25.8823H145.687V7.39494H152.039V10.5546Z" fill="white"/>
<path d="M159.426 25.8822H165.848C166.124 26.689 166.952 27.4285 168.54 27.4285C170.681 27.4285 171.44 26.1511 171.44 24.2016V22.857H171.302C170.266 24.0671 168.817 24.9411 166.745 24.9411C162.671 24.9411 159.081 21.9831 159.081 16.2016C159.081 10.8906 161.981 6.78979 166.4 6.78979C168.955 6.78979 170.474 7.7982 171.509 9.34442H171.647V7.32761H178V23.3276C178 26.2856 176.964 28.5713 175.376 29.9158C173.719 31.3276 171.371 31.9327 168.678 31.9327C163.569 31.9999 160.048 29.9831 159.426 25.8822ZM171.716 15.9327C171.716 13.6469 170.612 11.7646 168.678 11.7646C166.814 11.7646 165.64 13.378 165.64 15.9327C165.64 18.42 166.814 20.1679 168.678 20.1679C170.543 20.1679 171.716 18.3528 171.716 15.9327Z" fill="white"/>
</g>
<defs>
<clipPath id="clip0_122_840">
<rect width="178" height="32" fill="white"/>
</clipPath>
</defs>
</svg>
