<svg width="216" height="38" viewBox="0 0 216 38" fill="none" xmlns="http://www.w3.org/2000/svg">
<g clip-path="url(#clip0_122_851)">
<path d="M31.7264 23.1058C31.0804 23.5006 30.3267 23.5723 29.7525 23.2493C29.0347 22.8187 28.604 21.8496 28.604 20.5217V16.4662C28.604 14.5282 27.8503 13.1285 26.5583 12.7696C24.369 12.1236 22.7181 14.8153 22.108 15.8202L18.2319 22.0291V14.3846C18.196 12.626 17.6218 11.5852 16.5451 11.2622C15.8273 11.0469 14.7506 11.1546 13.7098 12.7337L5.06043 26.5871C3.91196 24.3978 3.30184 21.9573 3.30184 19.4809C3.30184 11.1187 10.0132 4.33553 18.2319 4.33553C26.4506 4.33553 33.162 11.1187 33.162 19.4809V19.5168V19.5527C33.2337 21.1677 32.7313 22.4598 31.7264 23.1058ZM36.4638 19.4809V19.445V19.4092C36.4279 9.2524 28.2451 0.961914 18.2319 0.961914C8.18282 0.961914 0 9.25241 0 19.4809C0 29.6736 8.18282 38 18.2319 38C22.8617 38 27.2402 36.2414 30.6138 33.0472C31.2957 32.4012 31.3316 31.3604 30.6856 30.6785C30.0755 29.9966 29.0347 29.9607 28.3528 30.5708C28.3528 30.5708 28.3528 30.5708 28.3169 30.6067C25.5893 33.1908 21.9285 34.6622 18.1601 34.6622C13.7457 34.6622 9.79785 32.7242 7.07025 29.6377L14.8583 17.1481V22.9263C14.8583 25.6898 15.935 26.5871 16.8322 26.8383C17.7294 27.0895 19.0933 26.9101 20.5647 24.5773L24.8356 17.6506C24.9791 17.4352 25.0868 17.2199 25.2304 17.0763V20.5935C25.2304 23.1776 26.2712 25.2592 28.0656 26.2641C29.6807 27.1972 31.7264 27.0895 33.4132 26.0487C35.4948 24.6849 36.6074 22.3162 36.4638 19.4809ZM61.8736 13.1644C62.3043 13.4156 62.6991 14.0257 62.6991 14.5641C62.6991 15.4254 61.9813 16.1432 61.1558 16.1432C60.9405 16.1432 60.761 16.0714 60.5816 16.0355C59.6126 15.3177 58.3923 14.8512 57.1003 14.8512C54.0497 14.8512 51.9681 17.3276 51.9681 20.4141C51.9681 23.5006 54.0856 25.9411 57.1003 25.9411C58.6077 25.9411 59.9715 25.3309 60.9764 24.3619C61.2276 24.1825 61.5506 24.0748 61.8736 24.0748C62.6991 24.0748 63.3451 24.7208 63.3451 25.5463C63.3451 26.0846 63.0221 26.5512 62.6273 26.8024C61.1558 28.0585 59.1819 28.884 57.1362 28.884C52.4706 28.884 48.6663 25.0438 48.6663 20.3064C48.6663 15.569 52.4706 11.7288 57.1362 11.7288C58.8589 11.6929 60.5098 12.2312 61.8736 13.1644ZM70.4153 16.7533C73.6095 16.7533 76.2653 19.445 76.2653 22.7828C76.2653 26.0846 73.5736 28.9199 70.4153 28.9199C67.0776 28.9199 64.3141 26.1205 64.3141 22.7828C64.3141 19.445 67.0776 16.7533 70.4153 16.7533ZM70.3795 25.9411C71.7791 25.9411 72.9635 24.6131 72.9635 22.8187C72.9635 21.0242 71.7791 19.8757 70.3795 19.8757C68.8721 19.8757 67.616 20.9883 67.616 22.8187C67.616 24.5772 68.8721 25.9411 70.3795 25.9411ZM78.2752 27.0536V18.5837C78.2752 17.6506 78.993 16.8969 79.9261 16.8969C80.8233 16.8969 81.577 17.6506 81.577 18.5837V27.0536C81.577 27.9868 80.8233 28.7404 79.9261 28.7404C79.0288 28.7404 78.2752 27.9509 78.2752 27.0536ZM78.0239 13.7027C78.0239 12.5901 78.8853 11.7288 79.9261 11.7288C81.0028 11.7288 81.8641 12.626 81.8641 13.7027C81.8641 14.7794 81.0028 15.6407 79.9261 15.6407C78.8494 15.6049 78.0239 14.7435 78.0239 13.7027ZM87.8936 22.4598V27.0536C87.8936 27.9868 87.1399 28.7404 86.2426 28.7404C85.3454 28.7404 84.5917 27.9868 84.5917 27.0536V18.1889C84.5917 17.4711 85.166 16.8969 85.8837 16.8969C86.6015 16.8969 87.1399 17.507 87.1399 18.1889C88.4678 16.9328 89.6522 16.7533 90.7647 16.7533C94.0666 16.7533 95.538 19.2297 95.538 22.065V27.0536C95.538 27.9868 94.7843 28.7404 93.8871 28.7404C92.9899 28.7404 92.2362 27.9868 92.2362 27.0536V22.4598C92.2362 21.0242 92.0567 19.8039 89.9752 19.8039C88.5037 19.8039 87.8936 21.0242 87.8936 22.4598ZM106.233 24.2184C105.838 24.2184 105.587 24.0389 105.372 23.7877L101.532 19.6245V27.0536C101.532 27.9868 100.778 28.7404 99.8807 28.7404C98.9834 28.7404 98.2298 27.9868 98.2298 27.0536V12.3389C98.3374 12.0877 98.5887 11.9082 98.8399 11.9082C99.127 11.9082 99.3782 12.1595 99.5577 12.3389L105.695 19.2297C105.874 19.445 106.09 19.5527 106.233 19.5527C106.341 19.5527 106.592 19.445 106.771 19.2297L112.909 12.3389C113.088 12.1595 113.303 11.9082 113.626 11.9082C113.913 11.9082 114.165 12.0877 114.237 12.3389V27.0536C114.237 27.9868 113.519 28.7404 112.586 28.7404C111.688 28.7404 110.935 27.9868 110.935 27.0536V19.6245L107.094 23.7877C106.807 24.0389 106.556 24.2184 106.233 24.2184ZM122.096 25.9411C123.568 25.9411 124.824 24.6131 124.824 22.8187C124.824 21.0242 123.532 19.8398 122.096 19.8398C120.661 19.8398 119.476 21.0601 119.476 22.8187C119.476 24.5414 120.625 25.9411 122.096 25.9411ZM125.614 27.4484L125.542 27.0536C124.896 28.3098 122.85 28.884 121.558 28.884C118.471 28.884 116.175 26.0846 116.175 22.7469C116.175 19.445 118.507 16.7174 121.737 16.7174C122.276 16.7174 124.142 16.861 125.578 18.5478L125.649 18.153C125.649 17.4352 126.188 16.861 126.906 16.861C127.623 16.861 128.198 17.4711 128.198 18.153V27.4125C128.198 28.1303 127.623 28.7046 126.906 28.7046C126.152 28.7404 125.614 28.1303 125.614 27.4484ZM137.278 19.8039H136.919C134.837 19.9116 134.442 21.096 134.442 22.4598V27.0536C134.442 27.9868 133.689 28.7404 132.791 28.7404C131.894 28.7404 131.14 27.9868 131.14 27.0536V18.1889C131.14 17.4711 131.715 16.8969 132.433 16.8969C133.15 16.8969 133.689 17.507 133.689 18.1889C134.909 17.0404 135.914 16.7892 136.919 16.7533H137.242C138.031 16.7533 138.749 17.4352 138.749 18.2966C138.785 19.0862 138.067 19.8039 137.278 19.8039ZM150.018 26.2641C150.162 26.5153 150.27 26.7665 150.27 27.0536C150.27 27.915 149.48 28.7046 148.619 28.7046C148.044 28.7046 147.542 28.2739 147.147 27.7714L143.343 23.357V27.0177C143.343 27.9509 142.589 28.7046 141.692 28.7046C140.795 28.7046 140.041 27.9509 140.041 27.0177V13.5592C140.041 12.626 140.759 11.8723 141.692 11.8723C142.625 11.8723 143.343 12.626 143.343 13.5592V21.9573L147.147 17.7582C147.542 17.3276 148.009 16.861 148.583 16.861C149.408 16.861 150.162 17.6147 150.162 18.476C150.162 18.7273 150.09 19.0144 149.947 19.2297L146.932 22.5315L150.018 26.2641ZM156.479 19.8398C155.581 19.8398 154.11 20.3064 154.11 21.7061H158.883C158.847 20.3064 157.34 19.8398 156.479 19.8398ZM160.785 23.8236H154.11C154.11 25.7975 156.012 26.1205 156.837 26.1205C157.448 26.1205 158.309 26.0128 158.991 25.6898C159.206 25.5463 159.529 25.4386 159.852 25.4386C160.57 25.4386 161.18 26.0487 161.18 26.8024C161.18 27.3049 160.857 27.7355 160.462 27.9868C159.457 28.7404 158.129 28.9199 156.873 28.9199C153.536 28.9199 150.772 27.1254 150.772 22.9263C150.772 19.6245 152.459 16.7533 156.407 16.7533C159.601 16.7533 162.006 18.8349 162.077 22.5315C162.077 23.2134 161.503 23.8236 160.785 23.8236ZM169.973 28.884H169.076C166.563 28.884 165.092 27.7714 165.092 23.8595V19.8039H164.231C163.441 19.8039 162.759 19.0862 162.759 18.2966C162.759 17.4352 163.477 16.7533 164.231 16.7533H165.092V13.6309C165.092 12.6978 165.81 11.9441 166.743 11.9441C167.64 11.9441 168.394 12.6978 168.394 13.6309V16.7533H169.758C170.547 16.7533 171.229 17.4352 171.229 18.2966C171.229 19.0862 170.511 19.8039 169.758 19.8039H168.394V23.2134C168.394 25.4745 168.502 25.9411 169.506 25.9411H169.973C170.763 25.9411 171.444 26.5871 171.444 27.4125C171.444 28.2021 170.763 28.884 169.973 28.884ZM185.944 13.1644C186.375 13.4156 186.769 14.0257 186.769 14.5641C186.769 15.4254 186.052 16.1432 185.226 16.1432C185.011 16.1432 184.831 16.0714 184.652 16.0355C183.683 15.3177 182.463 14.8512 181.171 14.8512C178.12 14.8512 176.038 17.3276 176.038 20.4141C176.038 23.5006 178.156 25.9411 181.171 25.9411C182.678 25.9411 184.042 25.3309 185.047 24.3619C185.298 24.1825 185.621 24.0748 185.944 24.0748C186.769 24.0748 187.415 24.7208 187.415 25.5463C187.415 26.0846 187.092 26.5512 186.698 26.8024C185.226 28.0585 183.252 28.884 181.206 28.884C176.541 28.884 172.737 25.0438 172.737 20.3064C172.737 15.569 176.541 11.7288 181.206 11.7288C182.929 11.6929 184.616 12.2312 185.944 13.1644ZM194.306 25.9411C195.778 25.9411 197.034 24.6131 197.034 22.8187C197.034 21.0242 195.742 19.8398 194.306 19.8398C192.835 19.8398 191.686 21.0601 191.686 22.8187C191.686 24.5414 192.871 25.9411 194.306 25.9411ZM197.823 27.4484L197.752 27.0536C197.106 28.3098 195.06 28.884 193.768 28.884C190.681 28.884 188.384 26.0846 188.384 22.7469C188.384 19.445 190.717 16.7174 193.947 16.7174C194.486 16.7174 196.352 16.861 197.787 18.5478L197.859 18.153C197.859 17.4352 198.398 16.861 199.115 16.861C199.833 16.861 200.407 17.4711 200.407 18.153V27.4125C200.407 28.1303 199.833 28.7046 199.115 28.7046C198.362 28.7404 197.823 28.1303 197.823 27.4484ZM209.416 25.9411C210.887 25.9411 212.036 24.5414 212.036 22.8187C212.036 21.0242 210.851 19.8398 209.416 19.8398C207.944 19.8398 206.688 21.0242 206.688 22.8187C206.688 24.6131 207.944 25.9411 209.416 25.9411ZM206.688 27.915V32.1141C206.688 33.0472 205.934 33.8009 205.037 33.8009C204.14 33.8009 203.386 33.0472 203.386 32.1141V18.1889C203.386 17.4711 203.96 16.8969 204.678 16.8969C205.396 16.8969 205.934 17.507 205.934 18.3325C207.155 17.0763 208.662 16.7533 209.81 16.7533C213.005 16.7533 215.373 19.445 215.373 22.7828C215.373 26.0846 213.112 28.9199 209.99 28.9199C209.021 28.884 207.585 28.5969 206.688 27.915Z" fill="white"/>
</g>
<defs>
<clipPath id="clip0_122_851">
<rect width="215.373" height="37.038" fill="white" transform="translate(0 0.961914)"/>
</clipPath>
</defs>
</svg>
