<svg width="175" height="46" viewBox="0 0 175 46" fill="none" xmlns="http://www.w3.org/2000/svg">
<g clip-path="url(#clip0_122_858)">
<path fill-rule="evenodd" clip-rule="evenodd" d="M19.0361 44.8432V44.8064C21.1646 44.7427 23.9483 44.7108 27.3871 44.7108L28.2487 44.7118C31.3666 44.7185 34.0297 44.7622 36.2378 44.843V42.2984C34.6467 42.1662 33.7184 42.0781 33.4533 42.0341C32.6798 41.8798 32.1605 41.7146 31.8952 41.5383C31.7184 41.4282 31.5748 41.2519 31.4643 41.0096C31.3097 40.6791 31.2212 39.9961 31.1992 38.9608C31.1107 36.6255 31.0666 34.6537 31.0666 33.0454V27.4937C31.0444 24.4092 31.1107 22.6467 31.2655 22.2061C31.5306 21.4571 32.1715 20.7136 33.188 19.9754C34.2046 19.2375 35.4863 18.8685 37.0333 18.8685C38.5802 18.8685 39.8178 19.2375 40.7461 19.9754C41.6742 20.7136 42.2874 21.6885 42.5857 22.9001C42.8841 24.1118 43.0333 26.6454 43.0333 30.5007V33.1116L42.8675 38.5312C42.6244 41.8798 42.4808 43.7855 42.4366 44.2482L43.0333 44.843C44.6464 44.6888 46.547 44.6117 48.7348 44.6117C50.6353 44.6117 53.0884 44.6888 56.0938 44.843V42.2984C55.232 42.2104 54.6132 42.1552 54.2376 42.1332C53.221 42.0671 52.5636 41.9074 52.2652 41.6539C51.9669 41.4006 51.768 40.8333 51.6685 39.9521C51.569 39.0709 51.5083 36.7686 51.4861 33.0454L51.4531 29.6417C51.4531 29.2671 51.4641 28.9476 51.4861 28.6832C51.5304 28.0003 51.5524 26.4031 51.5524 23.8915C51.5524 21.6664 51.3868 20.0306 51.0552 18.9841C50.7238 17.9376 50.1493 16.9352 49.3315 15.9769C48.5138 15.0185 47.5138 14.275 46.3316 13.7462C45.1492 13.2175 43.3757 12.9531 41.0112 12.9531C40.1272 12.9531 39.4366 13.0027 38.9394 13.1018C38.4422 13.201 37.8289 13.3937 37.0996 13.6801L31.0666 18.5049V13.1844L30.1716 12.7879C28.5803 13.5149 27.155 14.0437 25.8953 14.3741C24.6356 14.7046 21.9948 15.2113 17.9727 15.8943V18.4389C20.0501 18.5049 21.2988 18.6152 21.7187 18.7693C21.9838 18.8575 22.1771 18.9952 22.2988 19.1824C22.4202 19.3697 22.5141 20.1683 22.5805 21.5782C22.7131 24.3762 22.7794 26.7555 22.7794 28.7163L22.7791 33.4502C22.7771 34.6299 22.7661 35.4975 22.7462 36.0526L22.6136 38.9938C22.5914 40.1614 22.47 40.9546 22.249 41.3732C22.0942 41.6375 21.8623 41.8248 21.5529 41.9349C21.0361 42.1238 20.1971 42.2391 19.0361 42.2807V42.2656C16.7377 42.1773 15.2902 41.9901 14.6936 41.7037C14.4284 41.5716 14.2516 41.3071 14.1632 40.9107C13.9864 40.2056 13.898 37.9365 13.898 34.103V22.8672C13.898 19.8489 14.0306 16.6214 14.2958 13.1846L13.5002 12.755C11.4892 13.5701 9.63285 14.176 7.93121 14.5726C6.22957 14.9691 3.71027 15.3436 0.373291 15.6961V18.2077C2.9368 18.2297 4.43954 18.3838 4.88152 18.6704C5.08042 18.8024 5.22407 19.089 5.31246 19.5296C5.4993 20.4195 5.59838 23.9339 5.60971 30.0731L5.61031 31.8653C5.60214 36.5542 5.4918 39.4811 5.2793 40.6462C5.19091 41.2191 4.96993 41.6101 4.61633 41.8194C4.26275 42.0287 2.84839 42.2215 0.373291 42.3977V44.8432C2.8042 44.755 5.61079 44.711 8.79309 44.711C12.0709 44.711 15.1308 44.7458 17.9727 44.8153V44.843C18.1172 44.8373 18.2654 44.8317 18.4174 44.8265C18.6247 44.8319 18.8311 44.8375 19.0361 44.8432ZM17.9727 44.8153V42.2984C18.3531 42.2984 18.7075 42.2925 19.0361 42.2807V44.8064C18.8234 44.8128 18.617 44.8194 18.4174 44.8265L17.9727 44.8153ZM75.4325 38.1016C74.1066 41.4724 73.1563 43.8077 72.5818 45.1075H66.7807C65.6537 42.0451 64.3057 38.5422 62.7365 34.5987L58.3609 23.5611C57.9632 22.5697 57.2229 20.8624 56.14 18.4389C55.7864 17.6679 55.4218 17.1611 55.0461 16.9187C54.4494 16.5664 53.4769 16.379 52.1289 16.357V13.7794C55.267 13.8455 58.3388 13.8785 61.3444 13.8785C64.173 13.8785 66.9575 13.8455 69.6978 13.7794V16.3901C68.416 16.3901 67.2779 16.4781 66.2835 16.6544C65.9962 16.7205 65.7807 16.8361 65.6371 17.0014C65.4934 17.1667 65.4216 17.3594 65.4216 17.5797L65.5542 18.1745L66.847 22.1733L69.4989 29.0798L70.7917 32.3184C71.5652 34.3013 72.0734 35.568 72.3165 36.1188L74.4712 31.1618L76.4934 26.2379C77.8192 23.1315 78.7143 20.8072 79.1784 19.2651C79.3993 18.4941 79.5098 17.9322 79.5098 17.5797C79.5098 17.2273 79.3442 16.9574 79.0126 16.7701C78.6812 16.5828 77.4105 16.4451 75.2005 16.357V13.7794C77.4768 13.8455 79.6093 13.8785 81.5981 13.8785C83.4987 13.8785 85.764 13.8455 88.3937 13.7794V16.4231C86.7362 16.6214 85.7584 16.7867 85.4601 16.9187C85.1617 17.051 84.891 17.3153 84.6479 17.7119C84.1838 18.4169 83.2226 20.3996 81.7639 23.6602L78.648 30.6662L77.322 33.5742C76.7475 34.852 76.1176 36.3611 75.4325 38.1016ZM101.667 45.9998C103.501 45.9998 105.137 45.8125 106.573 45.4379C108.496 44.9093 110.363 44.0941 112.175 42.9925L113.634 39.754L112.838 38.8287C111.114 39.6879 109.722 40.2552 108.661 40.5305C107.6 40.8059 106.44 40.9436 105.181 40.9436C102.264 40.9436 99.8105 39.9357 97.8217 37.9199C95.8328 35.9041 94.7499 33.1556 94.5731 29.6747H96.7609C97.1145 29.6747 97.4349 29.6637 97.7222 29.6417C98.0095 29.6197 99.5123 29.5977 102.23 29.5756C104.949 29.5536 107.136 29.4764 108.794 29.3443C109.324 29.3223 110.341 29.1681 111.844 28.8817C112.971 28.6614 113.81 28.4631 114.363 28.2868C114.407 27.714 114.429 27.1192 114.429 26.5024C114.429 23.7704 114.037 21.4461 113.252 19.5294C112.468 17.6129 111.125 16.0376 109.225 14.8038C107.324 13.5701 104.893 12.9532 101.932 12.9532C101.883 12.9532 101.81 12.9516 101.715 12.9495C100.727 12.9274 97.3719 12.8524 94.5731 14.0109C91.7013 15.1997 89.4861 17.8516 88.9856 18.5235C88.1505 19.6442 87.3515 21.5641 87.1146 22.2723C86.3411 24.5416 85.9544 27.1192 85.9544 30.0052C85.9544 31.988 86.1533 33.8165 86.5511 35.4909C86.9488 37.1653 87.5952 38.6414 88.4903 39.9192C89.3853 41.1971 90.424 42.2766 91.6063 43.1578C92.7886 44.039 94.214 44.733 95.8824 45.2396C97.551 45.7465 99.4791 45.9998 101.667 45.9998ZM94.3403 26.0727C95.6442 26.271 97.821 26.3703 100.871 26.3703C102.815 26.3703 104.44 26.271 105.744 26.0727C105.832 22.5698 105.357 20.1134 104.318 18.7034C103.257 17.3155 101.887 16.6216 100.208 16.6216C98.484 16.6216 97.0585 17.3485 95.9315 18.8026C94.7824 20.2787 94.252 22.7021 94.3403 26.0727ZM134.581 44.8434L139.288 44.8104C139.907 44.8104 141.011 44.7553 142.603 44.6451L142.835 44.3807C142.901 41.8471 143.155 38.4655 143.597 34.2354H140.879C140.194 37.7604 139.73 39.7433 139.487 40.1839C139.398 40.36 139.266 40.4813 139.089 40.5473C138.779 40.6796 137.244 40.8448 134.481 41.0431C133.244 41.1092 130.835 41.1422 127.255 41.1422L124.802 41.1092C125.266 40.3822 127.166 37.6557 130.503 32.9302C133.84 28.2045 137.962 22.603 142.868 16.126V13.7797C137.034 13.9339 133.641 14.011 132.691 14.011L119.995 13.8788L116.879 13.7136L116.382 13.7467L116.084 14.0441C116.106 14.9473 116.117 15.5642 116.117 15.8947L116.116 15.9517C116.11 16.5167 116.022 18.9101 115.852 23.1319H118.47C118.669 22.0744 118.857 20.9398 119.034 19.728C119.144 18.9128 119.31 18.3898 119.531 18.1583C119.752 17.927 120.371 17.7783 121.387 17.7122C123.045 17.58 125.211 17.514 127.885 17.514H131.763C126.791 24.63 122.194 30.9859 117.973 36.5818C115.432 39.9746 113.874 41.9904 113.299 42.6293V44.8434C113.918 44.7993 115.995 44.7443 119.531 44.6781C122.759 44.6178 124.735 44.5849 125.458 44.5799L125.63 44.579C126.934 44.579 128.326 44.6121 129.807 44.6781C132.658 44.7883 134.249 44.8434 134.581 44.8434ZM170.064 44.8104L165.356 44.8434C165.027 44.8434 163.435 44.7883 160.584 44.6781C159.103 44.6121 157.711 44.579 156.407 44.579L156.235 44.5799C155.512 44.5849 153.536 44.6178 150.308 44.6781C146.772 44.7443 144.694 44.7993 144.076 44.8434V42.6293C144.65 41.9904 146.208 39.9746 148.75 36.5818C152.971 30.9859 157.567 24.63 162.54 17.514H158.661C155.987 17.514 153.821 17.58 152.164 17.7122C151.147 17.7783 150.529 17.927 150.308 18.1583C150.087 18.3898 149.921 18.9128 149.81 19.728C149.634 20.9398 149.446 22.0744 149.247 23.1319H146.628C146.798 18.9101 146.887 16.5167 146.893 15.9517L146.893 15.8947C146.893 15.5642 146.882 14.9473 146.86 14.0441L147.159 13.7467L147.656 13.7136L150.772 13.8788L163.468 14.011C164.418 14.011 167.811 13.9339 173.644 13.7797V16.126C168.738 22.603 164.616 28.2045 161.28 32.9302C157.943 37.6557 156.042 40.3822 155.578 41.1092L158.031 41.1422C161.611 41.1422 164.02 41.1092 165.258 41.0431C168.021 40.8448 169.555 40.6796 169.866 40.5473C170.043 40.4813 170.174 40.36 170.263 40.1839C170.506 39.7433 170.97 37.7604 171.655 34.2354H174.373C173.932 38.4655 173.677 41.8471 173.612 44.3807L173.379 44.6451C171.788 44.7553 170.683 44.8104 170.064 44.8104Z" fill="white"/>
<path d="M9.45579 10.1453C10.8701 10.1453 12.069 9.64958 13.0524 8.65819C14.0358 7.66679 14.5275 6.46611 14.5275 5.05612C14.5275 3.66816 14.0358 2.47848 13.0524 1.48709C12.069 0.495698 10.8701 0 9.45579 0C8.04145 0 6.84255 0.495698 5.85914 1.48709C4.87573 2.47848 4.38403 3.66816 4.38403 5.05612C4.38403 6.46611 4.88126 7.66679 5.87572 8.65819C6.87018 9.64958 8.06354 10.1453 9.45579 10.1453Z" fill="#F7AF00"/>
</g>
<defs>
<clipPath id="clip0_122_858">
<rect width="174" height="46" fill="white" transform="translate(0.373291)"/>
</clipPath>
</defs>
</svg>
