<svg xmlns="http://www.w3.org/2000/svg" xmlns:xlink="http://www.w3.org/1999/xlink" id="Calque_2" viewBox="0 0 856.88 174.8"><defs><style>.cls-1{fill:none;}.cls-2{clip-path:url(#clippath);}.cls-3{fill:#fc2511;}.cls-4{fill:#fd4013;}.cls-5{fill:url(#Dégradé_sans_nom_10);}.cls-6{fill:url(#Dégradé_sans_nom_13);}.cls-7{fill:url(#Dégradé_sans_nom_11);}.cls-8{fill:url(#Dégradé_sans_nom_12);}.cls-9{clip-path:url(#clippath-1);}.cls-10{clip-path:url(#clippath-4);}.cls-11{clip-path:url(#clippath-3);}.cls-12{clip-path:url(#clippath-2);}.cls-13{clip-path:url(#clippath-7);}.cls-14{clip-path:url(#clippath-8);}.cls-15{clip-path:url(#clippath-6);}.cls-16{clip-path:url(#clippath-5);}.cls-17{clip-path:url(#clippath-9);}.cls-18{clip-path:url(#clippath-20);}.cls-19{clip-path:url(#clippath-21);}.cls-20{clip-path:url(#clippath-22);}.cls-21{clip-path:url(#clippath-14);}.cls-22{clip-path:url(#clippath-13);}.cls-23{clip-path:url(#clippath-12);}.cls-24{clip-path:url(#clippath-10);}.cls-25{clip-path:url(#clippath-15);}.cls-26{clip-path:url(#clippath-17);}.cls-27{clip-path:url(#clippath-16);}.cls-28{clip-path:url(#clippath-19);}.cls-29{clip-path:url(#clippath-11);}.cls-30{clip-path:url(#clippath-18);}.cls-31{fill:url(#Dégradé_sans_nom);}.cls-32{fill:url(#Dégradé_sans_nom_8);}.cls-33{fill:url(#Dégradé_sans_nom_3);}.cls-34{fill:url(#Dégradé_sans_nom_2);}.cls-35{fill:url(#Dégradé_sans_nom_5);}.cls-36{fill:url(#Dégradé_sans_nom_4);}.cls-37{fill:url(#Dégradé_sans_nom_7);}.cls-38{fill:url(#Dégradé_sans_nom_6);}.cls-39{fill:url(#Dégradé_sans_nom_9);}</style><clipPath id="clippath"><rect class="cls-1" x="182.2" y="30.97" width="25.47" height="74.05"></rect></clipPath><linearGradient id="Dégradé_sans_nom" x1="222.83" y1="297.47" x2="237.27" y2="297.52" gradientTransform="translate(-214.82 597.58) scale(1.78 -1.78)" gradientUnits="userSpaceOnUse"><stop offset="0" stop-color="#fd5e16"></stop><stop offset="0" stop-color="#fd5d16"></stop><stop offset=".25" stop-color="#fd5d16"></stop><stop offset=".5" stop-color="#fd5d16"></stop><stop offset=".75" stop-color="#fd5c16"></stop><stop offset=".99" stop-color="#fd5c16"></stop><stop offset="1" stop-color="#fd5c16"></stop></linearGradient><clipPath id="clippath-1"><rect class="cls-1" x="182.56" width="25.11" height="21.72"></rect></clipPath><linearGradient id="Dégradé_sans_nom_2" x1="223.08" y1="329.57" x2="237.22" y2="329.61" gradientTransform="translate(-214.82 597.58) scale(1.78 -1.78)" gradientUnits="userSpaceOnUse"><stop offset="0" stop-color="#fd5e16"></stop><stop offset="0" stop-color="#fd5d16"></stop><stop offset=".25" stop-color="#fd5d16"></stop><stop offset=".5" stop-color="#fd5d16"></stop><stop offset=".75" stop-color="#fd5c16"></stop><stop offset="1" stop-color="#fd5c16"></stop><stop offset="1" stop-color="#fd5c16"></stop></linearGradient><clipPath id="clippath-2"><rect class="cls-1" x="373.33" y="29.3" width="49.33" height="76"></rect></clipPath><clipPath id="clippath-3"><path class="cls-1" d="M394.88,39.16l-3.92-8.19h-17.1V105.03h25.47v-37.74c0-9.43,3.74-13.35,12.83-13.35h9.97V30.62h-6.77c-8.72,0-15.14,2.49-20.48,8.54Z"></path></clipPath><linearGradient id="Dégradé_sans_nom_3" x1="330.43" y1="297.55" x2="357.67" y2="297.64" gradientTransform="translate(-214.82 597.58) scale(1.78 -1.78)" gradientUnits="userSpaceOnUse"><stop offset="0" stop-color="#fd4e14"></stop><stop offset="0" stop-color="#fd4e14"></stop><stop offset=".25" stop-color="#fd4d14"></stop><stop offset=".5" stop-color="#fd4d14"></stop><stop offset=".75" stop-color="#fd4c14"></stop><stop offset="1" stop-color="#fd4b14"></stop><stop offset="1" stop-color="#fd4b14"></stop></linearGradient><clipPath id="clippath-4"><rect class="cls-1" x="431.75" y="30.97" width="25.47" height="74.05"></rect></clipPath><linearGradient id="Dégradé_sans_nom_4" x1="362.94" y1="297.47" x2="377.37" y2="297.52" gradientTransform="translate(-214.82 597.58) scale(1.78 -1.78)" gradientUnits="userSpaceOnUse"><stop offset="0" stop-color="#fd4a14"></stop><stop offset="0" stop-color="#fd4a14"></stop><stop offset=".25" stop-color="#fd4914"></stop><stop offset=".5" stop-color="#fd4914"></stop><stop offset=".75" stop-color="#fd4814"></stop><stop offset=".99" stop-color="#fd4814"></stop><stop offset="1" stop-color="#fd4814"></stop></linearGradient><clipPath id="clippath-5"><rect class="cls-1" x="431.93" width="25.11" height="21.72"></rect></clipPath><linearGradient id="Dégradé_sans_nom_5" x1="363.08" y1="329.57" x2="377.22" y2="329.61" gradientTransform="translate(-214.82 597.58) scale(1.78 -1.78)" gradientUnits="userSpaceOnUse"><stop offset="0" stop-color="#fd4a14"></stop><stop offset="0" stop-color="#fd4914"></stop><stop offset=".25" stop-color="#fd4914"></stop><stop offset=".5" stop-color="#fd4914"></stop><stop offset=".75" stop-color="#fd4814"></stop><stop offset="1" stop-color="#fd4814"></stop><stop offset="1" stop-color="#fd4814"></stop></linearGradient><clipPath id="clippath-6"><rect class="cls-1" x="830.73" y="81.35" width="24.76" height="23.67"></rect></clipPath><clipPath id="clippath-7"><rect class="cls-1" y="27.96" width="81.33" height="80"></rect></clipPath><clipPath id="clippath-8"><path class="cls-1" d="M55.56,73.7c-2.14,6.58-7.66,10.86-14.6,10.86-8.91,0-15.32-6.94-15.32-16.56s6.41-16.56,15.32-16.56c6.59,0,12.29,3.92,14.43,9.97h24.94c-2.85-19.76-18.35-32.93-39.19-32.93-8.19,0-15.49,1.96-21.55,5.34v19.58H2.66C1.06,57.85,.17,62.66,.17,67.82c0,22.96,17.1,39.52,40.97,39.52,20.84,0,36.69-13.53,39.54-33.65h-25.11Z"></path></clipPath><linearGradient id="Dégradé_sans_nom_6" x1="120.63" y1="297.47" x2="165.97" y2="297.62" gradientTransform="translate(-214.82 597.58) scale(1.78 -1.78)" gradientUnits="userSpaceOnUse"><stop offset="0" stop-color="#fd6c17"></stop><stop offset="0" stop-color="#fd6c17"></stop><stop offset=".12" stop-color="#fd6b17"></stop><stop offset=".25" stop-color="#fd6b17"></stop><stop offset=".38" stop-color="#fd6a17"></stop><stop offset=".5" stop-color="#fd6917"></stop><stop offset=".62" stop-color="#fd6917"></stop><stop offset=".75" stop-color="#fd6817"></stop><stop offset=".88" stop-color="#fd6717"></stop><stop offset="1" stop-color="#fd6616"></stop><stop offset="1" stop-color="#fd6616"></stop></linearGradient><clipPath id="clippath-9"><rect class="cls-1" x="86.67" y="27.96" width="84" height="80"></rect></clipPath><clipPath id="clippath-10"><path class="cls-1" d="M142.84,88.11h22.27c3.39-5.88,5.34-12.64,5.34-20.11,0-22.96-17.45-39.52-41.5-39.52s-41.5,16.56-41.5,39.52,17.45,39.52,41.5,39.52c4.99,0,9.62-.71,14.07-2.14l-.18-17.27Zm-29.92-20.11c0-9.79,6.77-16.56,16.03-16.56s16.03,6.77,16.03,16.56-6.77,16.56-16.03,16.56-16.03-6.77-16.03-16.56Z"></path></clipPath><linearGradient id="Dégradé_sans_nom_7" x1="169.63" y1="297.42" x2="216.37" y2="297.57" gradientTransform="translate(-214.82 597.58) scale(1.78 -1.78)" gradientUnits="userSpaceOnUse"><stop offset="0" stop-color="#fd6516"></stop><stop offset="0" stop-color="#fd6516"></stop><stop offset=".12" stop-color="#fd6416"></stop><stop offset=".25" stop-color="#fd6416"></stop><stop offset=".38" stop-color="#fd6316"></stop><stop offset=".5" stop-color="#fd6216"></stop><stop offset=".62" stop-color="#fd6116"></stop><stop offset=".75" stop-color="#fd6116"></stop><stop offset=".88" stop-color="#fd6016"></stop><stop offset="1" stop-color="#fd5f16"></stop><stop offset="1" stop-color="#fd5f16"></stop></linearGradient><clipPath id="clippath-11"><rect class="cls-1" x="304" y="7.96" width="58.67" height="97.33"></rect></clipPath><clipPath id="clippath-12"><path class="cls-1" d="M352.13,82.6c-5.34,0-8.55-3.2-8.55-8.55v-23.49h17.99V30.97h-18.7V9.26h-5.17l-33.31,35.43v6.05h13.54v27.95c0,3.56,.53,6.77,1.42,9.61h17.28v16.02c2.31,.53,4.98,.89,7.83,.89h17.64v-22.61h-9.97Z"></path></clipPath><linearGradient id="Dégradé_sans_nom_8" x1="291.42" y1="303.49" x2="323.99" y2="303.6" gradientTransform="translate(-214.82 597.58) scale(1.78 -1.78)" gradientUnits="userSpaceOnUse"><stop offset="0" stop-color="#fd5415"></stop><stop offset="0" stop-color="#fd5415"></stop><stop offset=".12" stop-color="#fd5315"></stop><stop offset=".25" stop-color="#fd5315"></stop><stop offset=".38" stop-color="#fd5215"></stop><stop offset=".5" stop-color="#fd5215"></stop><stop offset=".62" stop-color="#fd5115"></stop><stop offset=".75" stop-color="#fd5115"></stop><stop offset=".88" stop-color="#fd5015"></stop><stop offset=".99" stop-color="#fd5014"></stop><stop offset="1" stop-color="#fd4f14"></stop></linearGradient><clipPath id="clippath-13"><rect class="cls-1" x="473.33" y="3.96" width="84" height="104"></rect></clipPath><clipPath id="clippath-14"><path class="cls-1" d="M531.32,88.11h19.95c3.21-5.69,4.81-12.64,4.81-20.11,0-22.96-16.21-39.34-39.01-39.34-6.95,0-13.18,1.78-18.35,5.16V4.09h-25.29V105.03h18.88l2.49-5.52c6.06,4.98,13.71,8.01,22.44,8.01,5.17,0,9.8-.89,14.25-2.49v-16.91h-.18Zm-17.64-3.2c-9.62,0-16.56-7.3-16.56-16.91s6.94-16.91,16.56-16.91,16.56,7.3,16.56,16.91-7.12,16.91-16.56,16.91Z"></path></clipPath><linearGradient id="Dégradé_sans_nom_9" x1="386.31" y1="304.27" x2="432.9" y2="304.42" gradientTransform="translate(-214.82 597.58) scale(1.78 -1.78)" gradientUnits="userSpaceOnUse"><stop offset="0" stop-color="#fd4614"></stop><stop offset="0" stop-color="#fd4614"></stop><stop offset=".12" stop-color="#fd4614"></stop><stop offset=".25" stop-color="#fd4514"></stop><stop offset=".38" stop-color="#fd4414"></stop><stop offset=".5" stop-color="#fd4413"></stop><stop offset=".62" stop-color="#fd4313"></stop><stop offset=".75" stop-color="#fd4213"></stop><stop offset=".88" stop-color="#fd4113"></stop><stop offset="1" stop-color="#fd4013"></stop><stop offset="1" stop-color="#fd4013"></stop></linearGradient><clipPath id="clippath-15"><rect class="cls-1" x="566.67" y="30.63" width="73.33" height="77.33"></rect></clipPath><clipPath id="clippath-16"><path class="cls-1" d="M619.84,88.11h16.92c1.96-4.45,3.03-9.43,3.03-14.95V30.97h-25.47v41.12c0,7.83-4.09,12.46-10.86,12.46s-11.04-4.63-11.04-12.46V30.97h-25.47v42.36c0,20.83,14.61,34.18,36.52,34.18,6.06,0,11.58-1.07,16.57-3.03v-16.38h-.18Z"></path></clipPath><linearGradient id="Dégradé_sans_nom_10" x1="438.83" y1="296.73" x2="479.87" y2="296.86" gradientTransform="translate(-214.82 597.58) scale(1.78 -1.78)" gradientUnits="userSpaceOnUse"><stop offset="0" stop-color="#fd3f13"></stop><stop offset="0" stop-color="#fd3f13"></stop><stop offset=".25" stop-color="#fd3e13"></stop><stop offset=".5" stop-color="#fd3e13"></stop><stop offset=".75" stop-color="#fd3d13"></stop><stop offset="1" stop-color="#fd3c13"></stop><stop offset="1" stop-color="#fd3c13"></stop></linearGradient><clipPath id="clippath-17"><rect class="cls-1" x="738.67" y="27.96" width="82.67" height="80"></rect></clipPath><clipPath id="clippath-18"><path class="cls-1" d="M779.43,28.48c-23.33,0-40.26,16.73-40.26,39.34,0,7.47,1.96,14.42,5.34,20.29h17.1v15.49c5.34,2.49,11.4,3.92,17.99,3.92,18.52,0,33.66-10.51,38.83-27.42h-25.47c-2.49,4.28-7.48,6.94-13.35,6.94-8.02,0-13.54-4.45-15.14-12.82h55.04c.35-2.31,.54-4.45,.54-6.76,0-21.9-16.57-38.99-40.61-38.99Zm-14.6,31.33c2.14-7.3,7.3-11.4,14.6-11.4,7.66,0,13.01,3.92,15.32,11.4h-29.92Z"></path></clipPath><linearGradient id="Dégradé_sans_nom_11" x1="535.53" y1="297.42" x2="581.08" y2="297.57" gradientTransform="translate(-214.82 597.58) scale(1.78 -1.78)" gradientUnits="userSpaceOnUse"><stop offset="0" stop-color="#fc3112"></stop><stop offset="0" stop-color="#fc3012"></stop><stop offset=".06" stop-color="#fc3012"></stop><stop offset=".12" stop-color="#fc3012"></stop><stop offset=".19" stop-color="#fc2f11"></stop><stop offset=".25" stop-color="#fc2f11"></stop><stop offset=".31" stop-color="#fc2e11"></stop><stop offset=".38" stop-color="#fc2d11"></stop><stop offset=".44" stop-color="#fc2d11"></stop><stop offset=".5" stop-color="#fc2c11"></stop><stop offset=".56" stop-color="#fc2b11"></stop><stop offset=".62" stop-color="#fc2a11"></stop><stop offset=".69" stop-color="#fc2911"></stop><stop offset=".75" stop-color="#fc2911"></stop><stop offset=".81" stop-color="#fc2811"></stop><stop offset=".88" stop-color="#fc2711"></stop><stop offset=".94" stop-color="#fc2611"></stop><stop offset="1" stop-color="#fc2511"></stop><stop offset="1" stop-color="#fc2511"></stop></linearGradient><clipPath id="clippath-19"><rect class="cls-1" x="222.67" y="27.96" width="74.67" height="77.33"></rect></clipPath><clipPath id="clippath-20"><path class="cls-1" d="M281.24,53.4V31.33c-3.74-1.78-8.02-2.67-12.65-2.67-9.62,0-17.81,3.73-23.33,9.79l-3.56-7.65h-17.99V104.85h25.47v-39.34c0-9.44,4.63-14.95,12.47-14.95,6.41,0,9.62,4.27,9.62,12.81v41.66h25.47V59.81c0-2.31-.18-4.27-.54-6.41h-14.96Z"></path></clipPath><linearGradient id="Dégradé_sans_nom_12" x1="246.13" y1="298.08" x2="287.27" y2="298.21" gradientTransform="translate(-214.82 597.58) scale(1.78 -1.78)" gradientUnits="userSpaceOnUse"><stop offset="0" stop-color="#fd5a15"></stop><stop offset="0" stop-color="#fd5a15"></stop><stop offset=".12" stop-color="#fd5a15"></stop><stop offset=".25" stop-color="#fd5915"></stop><stop offset=".38" stop-color="#fd5915"></stop><stop offset=".5" stop-color="#fd5815"></stop><stop offset=".62" stop-color="#fd5715"></stop><stop offset=".75" stop-color="#fd5615"></stop><stop offset=".88" stop-color="#fd5615"></stop><stop offset="1" stop-color="#fd5515"></stop><stop offset="1" stop-color="#fd5515"></stop></linearGradient><clipPath id="clippath-21"><rect class="cls-1" x="654.67" y="27.96" width="73.33" height="77.33"></rect></clipPath><clipPath id="clippath-22"><path class="cls-1" d="M712.64,53.4V31.51c-3.74-1.78-8.19-2.84-13.01-2.84-9.61,0-17.81,3.73-23.33,9.79l-3.56-7.65h-17.99V104.85h25.47v-39.34c0-9.44,4.63-14.95,12.47-14.95,6.41,0,9.61,4.27,9.61,12.81v41.66h25.47V59.81c0-2.31-.18-4.27-.54-6.41h-14.6Z"></path></clipPath><linearGradient id="Dégradé_sans_nom_13" x1="488.13" y1="298.08" x2="529.27" y2="298.21" gradientTransform="translate(-214.82 597.58) scale(1.78 -1.78)" gradientUnits="userSpaceOnUse"><stop offset="0" stop-color="#fd3b13"></stop><stop offset="0" stop-color="#fd3a13"></stop><stop offset=".06" stop-color="#fd3a13"></stop><stop offset=".12" stop-color="#fd3a13"></stop><stop offset=".19" stop-color="#fd3913"></stop><stop offset=".25" stop-color="#fd3913"></stop><stop offset=".31" stop-color="#fd3813"></stop><stop offset=".38" stop-color="#fd3813"></stop><stop offset=".44" stop-color="#fd3713"></stop><stop offset=".5" stop-color="#fd3713"></stop><stop offset=".56" stop-color="#fd3612"></stop><stop offset=".62" stop-color="#fd3612"></stop><stop offset=".69" stop-color="#fd3512"></stop><stop offset=".75" stop-color="#fd3412"></stop><stop offset=".81" stop-color="#fc3412"></stop><stop offset=".88" stop-color="#fc3312"></stop><stop offset=".94" stop-color="#fc3312"></stop><stop offset="1" stop-color="#fc3212"></stop><stop offset="1" stop-color="#fc3212"></stop></linearGradient></defs><g id="Calque_1-2"><g><g class="cls-2"><path class="cls-31" d="M182.2,30.97V105.03h25.47V30.97h-25.47Z"></path></g><g class="cls-9"><path class="cls-34" d="M182.56,0V21.72h25.11V0h-25.11Z"></path></g><g class="cls-12"><g class="cls-11"><path class="cls-33" d="M373.86,30.62V105.03h48.27V30.62h-48.27Z"></path></g></g><g class="cls-10"><path class="cls-36" d="M431.75,30.97V105.03h25.47V30.97h-25.47Z"></path></g><g class="cls-16"><path class="cls-35" d="M431.93,0V21.72h25.11V0h-25.11Z"></path></g><g class="cls-15"><path class="cls-3" d="M830.73,81.35v23.67h24.76v-23.67h-24.76Z"></path></g><g class="cls-13"><g class="cls-14"><path class="cls-38" d="M.17,28.48V107.34H80.68V28.48H.17Z"></path></g></g><g class="cls-17"><g class="cls-24"><path class="cls-37" d="M87.45,28.48V107.52h83V28.48H87.45Z"></path></g></g><g class="cls-29"><g class="cls-23"><path class="cls-32" d="M304.4,9.26V105.21h57.71V9.26h-57.71Z"></path></g></g><g class="cls-22"><g class="cls-21"><path class="cls-39" d="M473.43,4.09V107.52h82.65V4.09h-82.65Z"></path></g></g><g class="cls-25"><g class="cls-27"><path class="cls-5" d="M566.94,30.97V107.52h72.85V30.97h-72.85Z"></path></g></g><g class="cls-26"><g class="cls-30"><path class="cls-7" d="M739.18,28.48V107.52h80.87V28.48h-80.87Z"></path></g></g><g class="cls-28"><g class="cls-18"><path class="cls-8" d="M223.71,28.66V105.03h73.03V28.66h-73.03Z"></path></g></g><g class="cls-19"><g class="cls-20"><path class="cls-6" d="M654.75,28.66V105.03h73.03V28.66h-73.03Z"></path></g></g><path class="cls-4" d="M495.34,136.5v29.73h3.53v-29.73h-3.53Z"></path><path class="cls-4" d="M508.36,160.15c0-2.4,2.02-3.74,5.63-3.74h3.78v.51c0,4.79-3.19,6.47-5.92,6.47-2.22,0-3.48-1.22-3.48-3.23Zm12.94-7.44c0-5.63-3.49-7.98-8.15-7.98-3.99,0-6.93,2.23-7.52,5.8l3.11,.71c.46-2.1,2.22-3.32,4.41-3.32,2.56,0,4.62,1.09,4.62,4.37v.92h-3.44c-5.8,0-9.57,2.4-9.57,6.93s3.02,6.43,6.55,6.43c3.15,0,5.29-1.39,6.64-3.32l.59,2.98h2.77v-13.53Z"></path><path class="cls-4" d="M553.09,159.47c-1.09,2.56-2.9,3.91-5.8,3.91-4.11,0-6.01-3.49-6.01-7.73s1.89-7.73,6.01-7.73c2.9,0,4.7,1.34,5.8,3.91l3.07-1.26c-1.72-3.95-4.49-5.84-8.86-5.84-6.47,0-9.62,5.25-9.62,10.92s3.15,10.92,9.62,10.92c4.37,0,7.14-1.89,8.86-5.84l-3.07-1.26Z"></path><path class="cls-4" d="M574.51,145.36c-.63-.33-1.72-.63-2.9-.63-2.35,0-4.96,1.6-6.22,3.95v-3.61h-3.53v21.17h3.53v-8.02c0-6.89,3.03-10.29,5.92-10.29,.89,0,1.72,.21,2.48,.59l.71-3.15Z"></path><path class="cls-4" d="M590.47,145.07l-5.25,15.29-5.38-15.29h-3.86l7.43,20.29-3.36,9.45h3.61l10.5-29.73h-3.7Z"></path><path class="cls-4" d="M617.64,155.65c0-6.34-3.19-10.92-9.41-10.92-2.56,0-5.17,1.39-6.18,2.94v-2.6h-3.53v29.73h3.53v-11.09c.71,1.22,3.49,2.86,6.18,2.86,6.21,0,9.41-4.58,9.41-10.92Zm-3.61,0c0,4.54-2.4,7.73-6.14,7.73s-6.13-3.19-6.13-7.73,2.27-7.73,6.13-7.73,6.14,3.19,6.14,7.73Z"></path><path class="cls-4" d="M620.96,148.26h3.65v11.34c0,4.79,2.56,6.97,6.14,6.97,1.21,0,2.43-.21,3.44-.8l-.84-3.06c-.76,.5-1.47,.67-2.39,.67-1.77,0-2.81-1.22-2.81-3.49v-11.63h5.54v-3.19h-5.54v-8.57l-3.53,2.22v6.34h-3.65v3.19Z"></path><path class="cls-4" d="M638.05,155.65c0,5.76,3.82,10.92,10.17,10.92s10.16-5.17,10.16-10.92-3.82-10.92-10.16-10.92-10.17,5.17-10.17,10.92Zm3.61,0c0-3.91,2.22-7.73,6.55-7.73s6.55,3.82,6.55,7.73-2.22,7.73-6.55,7.73-6.55-3.82-6.55-7.73Z"></path><path class="cls-4" d="M694.88,155.65c0-6.34-3.19-10.92-9.41-10.92-2.56,0-5.17,1.39-6.18,2.94v-2.6h-3.53v29.73h3.53v-11.09c.71,1.22,3.49,2.86,6.18,2.86,6.21,0,9.41-4.58,9.41-10.92Zm-3.61,0c0,4.54-2.4,7.73-6.14,7.73s-6.13-3.19-6.13-7.73,2.27-7.73,6.13-7.73,6.14,3.19,6.14,7.73Z"></path><path class="cls-4" d="M699.42,155.65c0,5.76,3.82,10.92,10.17,10.92s10.16-5.17,10.16-10.92-3.82-10.92-10.16-10.92-10.17,5.17-10.17,10.92Zm3.61,0c0-3.91,2.22-7.73,6.55-7.73s6.55,3.82,6.55,7.73-2.22,7.73-6.55,7.73-6.55-3.82-6.55-7.73Z"></path><path class="cls-4" d="M725.63,159.97c0,4.2,2.35,6.6,6.21,6.6,2.94,0,5.46-1.52,7.02-4.24v3.91h3.53v-21.17h-3.53v8.86c0,5.88-2.9,9.45-6.05,9.45-2.35,0-3.65-1.43-3.65-4.33v-13.98h-3.53v14.91Z"></path><path class="cls-4" d="M762.75,145.36c-.63-.33-1.72-.63-2.9-.63-2.35,0-4.96,1.6-6.22,3.95v-3.61h-3.53v21.17h3.53v-8.02c0-6.89,3.03-10.29,5.92-10.29,.89,0,1.72,.21,2.48,.59l.71-3.15Z"></path><path class="cls-4" d="M775.9,148.26h3.65v11.34c0,4.79,2.56,6.97,6.14,6.97,1.21,0,2.43-.21,3.44-.8l-.84-3.06c-.76,.5-1.47,.67-2.39,.67-1.77,0-2.81-1.22-2.81-3.49v-11.63h5.54v-3.19h-5.54v-8.57l-3.53,2.22v6.34h-3.65v3.19Z"></path><path class="cls-4" d="M792.99,155.65c0,5.76,3.82,10.92,10.17,10.92s10.16-5.17,10.16-10.92-3.82-10.92-10.16-10.92-10.17,5.17-10.17,10.92Zm3.61,0c0-3.91,2.22-7.73,6.55-7.73s6.55,3.82,6.55,7.73-2.22,7.73-6.55,7.73-6.55-3.82-6.55-7.73Z"></path><path class="cls-4" d="M819.2,159.97c0,4.2,2.35,6.6,6.21,6.6,2.94,0,5.46-1.52,7.02-4.24v3.91h3.53v-21.17h-3.53v8.86c0,5.88-2.9,9.45-6.05,9.45-2.35,0-3.65-1.43-3.65-4.33v-13.98h-3.53v14.91Z"></path><path class="cls-4" d="M849.74,144.73c-3.82,0-6.21,2.56-6.21,5.84,0,6.89,9.74,5.55,9.74,9.49,0,2.22-1.26,3.32-3.4,3.32-2.35,0-3.99-1.89-4.91-4.16l-2.98,1.64c1.09,2.85,3.57,5.71,7.9,5.71s7.02-2.48,7.02-6.72c0-6.21-9.83-5.42-9.83-9.24,0-1.72,1.14-2.69,2.56-2.69s2.48,.59,3.86,2.1l2.39-2.06c-1.47-2.1-3.53-3.23-6.13-3.23Z"></path></g></g></svg>