<svg width="375" height="301" viewBox="0 0 375 301" fill="none" xmlns="http://www.w3.org/2000/svg">
<g clip-path="url(#clip0_1121_17806)">
<path d="M219.441 253.619C214.271 253.588 208.712 252.621 202.923 250.741C202.16 250.498 201.335 250.217 200.416 249.88C199.784 249.649 199.14 249.405 198.434 249.124C194.751 247.67 191.069 245.922 187.474 243.912C183.86 245.872 180.153 247.582 176.458 248.993C175.795 249.249 175.12 249.493 174.463 249.724C173.575 250.036 172.75 250.311 171.944 250.56C166.129 252.371 160.559 253.27 155.388 253.239C149.474 253.201 144.103 251.953 139.42 249.518L139.376 249.493C132.274 245.66 129.148 238.705 131.011 230.889C132.887 223.023 139.395 216.717 145.835 216.517C145.904 216.517 145.972 216.517 146.041 216.517C148.504 216.53 150.493 218.478 150.568 220.95C150.605 222.18 150.161 223.341 149.317 224.234C148.473 225.126 147.335 225.632 146.104 225.657C144.334 225.707 140.952 228.666 139.914 233.011C138.576 238.63 142.39 240.734 143.69 241.433C147.066 243.181 150.993 244.086 155.363 244.111C159.771 244.136 164.66 243.287 169.905 241.583C170.724 241.321 171.462 241.065 172.181 240.796C175.72 239.51 179.327 237.881 182.935 235.939L182.985 227.255C174.657 226.2 167.761 222.948 163.341 217.941C159.908 214.064 158.32 209.375 158.87 204.737C158.958 203.944 159.096 203.214 159.289 202.489C159.621 201.26 160.121 200.117 160.777 199.081C163.666 194.536 169.224 192.357 177.771 192.407C180.903 192.426 183.885 192.732 186.286 192.975L186.492 192.994C186.949 193.044 187.38 193.088 187.774 193.125C188.174 193.094 188.599 193.056 189.062 193.013L189.306 192.988C191.694 192.775 194.67 192.507 197.79 192.526C206.337 192.576 211.863 194.823 214.696 199.399C215.346 200.442 215.834 201.597 216.146 202.827C216.327 203.52 216.459 204.287 216.54 205.087C217.034 209.719 215.39 214.382 211.913 218.222C207.424 223.172 200.485 226.344 192.157 227.305L192.107 235.989C195.695 237.975 199.284 239.641 202.785 240.965C203.611 241.277 204.355 241.545 205.067 241.783C210.3 243.549 215.177 244.455 219.585 244.48C223.968 244.505 227.913 243.649 231.308 241.933C232.608 241.252 236.434 239.204 235.165 233.567C234.177 229.216 230.832 226.219 229.051 226.144C226.543 226.05 224.568 223.928 224.655 221.406C224.762 218.915 226.775 216.992 229.251 217.004C229.313 217.004 229.382 217.004 229.444 217.004C235.865 217.26 242.311 223.653 244.099 231.55C245.869 239.385 242.668 246.296 235.534 250.042L235.484 250.067C230.764 252.452 225.368 253.638 219.454 253.607L219.441 253.619Z" fill="#80232F"/>
<path d="M140.433 183.925C139.277 183.918 138.132 183.737 137.045 183.382C129.386 180.891 125.966 170.871 129.261 160.563C129.742 159.059 130.349 157.623 131.055 156.281L129.517 151.162C129.298 150.425 128.273 146.617 129.848 143.757C130.599 142.39 131.793 141.441 133.306 141.011L133.35 140.998C134.069 140.804 134.825 140.711 135.588 140.717C136.282 140.717 137.007 140.811 137.739 140.973C139.051 141.266 140.439 141.835 141.977 142.709C142.778 143.171 143.559 143.67 144.316 144.201C145.466 145.006 146.654 145.811 147.836 146.579C149.755 147.822 151.506 148.877 153.037 149.713C157.52 152.173 159.427 152.479 159.909 152.51L169.199 153.178L161.64 158.616C161.428 158.772 159.99 159.758 157.802 160.345C157.977 163.279 157.577 166.369 156.607 169.404C153.869 177.994 147.217 183.962 140.427 183.925H140.433Z" fill="#80232F"/>
<path d="M230.07 184.454C223.281 184.416 216.697 178.367 214.065 169.745C213.133 166.699 212.771 163.608 212.977 160.674C210.795 160.069 209.376 159.057 209.163 158.901L201.667 153.376L210.964 152.821C211.445 152.789 213.358 152.515 217.86 150.111C219.411 149.287 221.174 148.251 223.112 147.033C224.3 146.278 225.5 145.491 226.663 144.692C227.407 144.174 228.201 143.687 228.995 143.244C230.552 142.382 231.952 141.827 233.278 141.546C233.997 141.39 234.722 141.309 235.422 141.315C236.191 141.315 236.941 141.421 237.66 141.627L237.704 141.639C239.205 142.083 240.393 143.044 241.124 144.424C242.662 147.308 241.599 151.104 241.368 151.834L239.767 156.935C240.461 158.283 241.049 159.725 241.512 161.236C244.682 171.587 241.143 181.569 233.459 183.967C232.365 184.31 231.221 184.479 230.064 184.472L230.07 184.454Z" fill="#80232F"/>
<path d="M348.086 191.446C350.618 189.979 352.943 187.975 354.907 185.541L357.614 182.182L353.662 180.378C339.864 174.085 326.466 160.694 315.793 142.564C332.043 113.416 336.782 85.2848 337.888 66.7431C339.208 44.5744 335.819 22.8738 329.26 11.4554C325.14 4.28847 320.67 2.76518 317.644 2.74646C304.715 2.67154 288.153 14.2148 267.008 38.0442C258.399 47.752 250.859 57.4973 245.626 64.5831C226.976 56.5546 208.226 53.945 194.633 53.2771V53.121L191.214 53.1022C191.032 53.1022 190.845 53.1022 190.657 53.1022L190.601 62.2794C204.387 62.6478 224.381 65.0076 243.9 73.8601C244.557 74.1535 245.263 74.4844 246.057 74.8652C255.242 79.2665 263.594 84.829 270.878 91.4029C271.447 91.9148 272.041 92.4642 272.704 93.0885C280.256 100.243 286.783 108.696 292.104 118.198L292.229 118.416C292.542 118.972 292.848 119.521 293.154 120.071L293.505 120.689C295.586 124.403 297.693 128.124 299.944 132.07L301.282 134.398C303.27 137.857 304.99 140.835 306.546 143.488C307.003 144.268 307.459 145.049 307.909 145.81C308.635 147.14 309.416 148.501 310.285 149.956L310.304 149.987C319.795 165.476 329.961 176.726 341.252 184.211C340.939 184.317 340.627 184.411 340.314 184.479L339.214 184.735C336.725 185.316 336.275 187.339 336.4 188.444V188.506L336.419 188.568C336.919 191.821 338.42 194.93 340.764 197.54C341.44 198.301 342.184 199.019 342.996 199.687C342.346 200.755 341.683 201.772 341.077 202.696C334.081 212.966 325.24 223.08 313.468 234.255L313.199 233.474L309.304 237.438C308.766 237.988 308.159 238.587 307.415 239.311C304.139 242.489 300.644 245.548 297.012 248.414C296.38 248.913 295.699 249.444 294.999 249.974C274.21 265.763 248.752 275.864 219.317 280.003C215.872 280.434 212.339 280.79 208.826 281.052C202.242 281.526 195.684 281.77 189.3 281.776L189.244 291.259C200.048 291.197 211.02 290.354 221.918 288.737L222.155 288.831L223.074 288.687C248.727 284.754 271.728 276.313 291.448 263.59C294.317 261.736 297.143 259.776 299.857 257.759C300.457 257.31 301.251 256.71 302.02 256.111C305.49 253.427 308.86 250.561 312.036 247.608C319.738 240.86 326.516 234.348 332.768 227.693C339.52 220.451 344.666 214.158 348.973 207.872C350.811 205.156 352.718 202.197 354.175 198.963L355.057 197.009C355.057 197.009 349.142 195.223 348.079 191.44L348.086 191.446ZM272.81 80.9272C267.077 76.2762 260.818 72.1558 254.122 68.6285C270.697 46.3848 291.066 23.6979 306.565 15.2886C302.714 19.8335 296.512 29.2728 286.771 49.6499C285.733 51.8224 284.689 54.0449 283.657 56.2674C279.462 65.3447 275.655 74.1535 272.804 80.9209L272.81 80.9272ZM296.962 108.29C292.098 100.58 286.452 93.5754 280.106 87.4074C281.507 84.0299 283.295 79.7972 285.371 75.0213C285.571 75.2086 285.783 75.3772 286.014 75.5332C286.952 76.1888 288.053 76.5446 289.203 76.5508C291.866 76.5696 294.249 74.8278 297.306 72.3056C296.931 73.8851 296.624 75.2461 296.437 76.17C295.349 81.6264 295.086 85.2411 300.594 89.2865C300.713 89.4551 301.232 90.2542 301.457 92.1395C301.732 94.437 301.726 100.149 296.962 108.296V108.29ZM304.546 121.457C303.733 120.014 302.939 118.616 302.164 117.23C305.827 112.036 308.366 106.835 309.716 101.741C310.992 96.9466 310.935 93.282 310.66 91.0408C310.16 86.9329 308.572 83.7115 306.19 81.9885C305.396 81.4141 305.133 81.1332 305.046 81.027C305.002 80.5651 305.284 79.1666 305.527 77.9243C305.94 75.8329 307.297 70.2767 309.241 62.6727C309.429 61.9236 309.61 61.2181 309.773 60.5876L311.567 53.558L305.49 55.7618C304.427 56.1488 303.314 56.6545 302.176 57.2788C298.575 59.2391 295.218 62.0484 292.523 64.3084C292.523 64.3084 292.329 64.4707 292.248 64.5394C292.279 63.0598 292.36 61.2493 292.517 59.0893C306.765 28.43 313.286 21.0259 315.556 19.2404C315.606 19.2903 315.662 19.3528 315.725 19.4152C319.201 23.2421 324.109 38.2565 322.502 62.2544C321.095 83.1309 314.762 103.933 304.54 121.45L304.546 121.457ZM309.766 130.615C312.936 125.664 315.8 120.439 318.338 115.008C316.2 120.764 313.693 126.557 310.76 132.344C310.429 131.764 310.098 131.189 309.766 130.621V130.615Z" fill="#00126A" stroke="#00126A" stroke-width="4" stroke-miterlimit="10"/>
<path d="M24.469 195.061L25.3255 197.028C26.7447 200.28 28.6141 203.258 30.421 205.999C34.6474 212.335 39.7179 218.685 46.3889 226.008C52.566 232.737 59.262 239.33 66.8834 246.166C70.0219 249.163 73.3543 252.059 76.793 254.788C77.5495 255.399 78.3373 256.005 78.9312 256.461C81.6134 258.508 84.4206 260.506 87.2715 262.392C106.834 275.346 129.736 284.061 155.338 288.294L156.257 288.443L156.495 288.356C167.374 290.098 178.34 291.078 189.137 291.265L189.194 281.782C182.81 281.701 176.258 281.383 169.681 280.827C166.167 280.521 162.641 280.128 159.202 279.653C129.823 275.171 104.484 264.764 83.8829 248.732C83.1889 248.189 82.5199 247.658 81.8885 247.146C78.2935 244.243 74.8361 241.141 71.5975 237.919C70.8597 237.182 70.2658 236.577 69.7343 236.021L65.8893 232.007L65.6142 232.781C53.9727 221.469 45.2573 211.249 38.3799 200.898C37.7797 199.968 37.1295 198.944 36.4981 197.871C37.3171 197.215 38.0673 196.503 38.7551 195.748C41.1246 193.163 42.6689 190.073 43.2003 186.827L43.2128 186.764V186.702C43.3629 185.597 42.9377 183.568 40.4494 182.956L39.3553 182.688C39.0427 182.613 38.7301 182.519 38.4175 182.407C49.7963 175.052 60.0936 163.921 69.7719 148.551L69.7906 148.52C70.6784 147.078 71.4724 145.729 72.2164 144.406C72.6728 143.644 73.1355 142.876 73.6044 142.096C75.1924 139.455 76.9493 136.502 78.975 133.068L80.3379 130.759C82.6325 126.844 84.7832 123.148 86.9152 119.459L87.2715 118.847C87.5842 118.304 87.903 117.755 88.2156 117.205L88.3407 116.987C93.7675 107.547 100.395 99.1754 108.035 92.1084C108.704 91.4903 109.31 90.9472 109.879 90.4415C117.238 83.9551 125.653 78.4925 134.894 74.1973C135.694 73.8227 136.407 73.5043 137.063 73.2172C156.683 64.5956 176.708 62.473 190.494 62.267L190.55 53.0898C190.369 53.0898 190.175 53.0898 189.994 53.0836L186.574 53.0649V53.2209C172.976 53.7329 154.194 56.1177 135.45 63.9276C130.305 56.7794 122.877 46.9468 114.387 37.139C93.5362 13.0662 77.1118 1.32314 64.1825 1.24822C61.1564 1.22949 56.6674 2.70283 52.466 9.81982C45.7699 21.157 42.1312 42.8202 43.1816 65.0014C44.0694 83.5555 48.4771 111.736 64.3763 141.078C53.4913 159.083 39.9305 172.312 26.057 178.442L22.0869 180.197L24.7566 183.587C26.6885 186.04 28.9893 188.082 31.5026 189.574C29.1518 193.719 24.4627 195.061 24.4627 195.061H24.469ZM97.5313 55.175C96.5309 52.94 95.5118 50.6988 94.499 48.52C85.002 28.0306 78.9125 18.5225 75.1174 13.9277C90.5164 22.518 110.617 45.4422 126.923 67.8794C120.189 71.3255 113.881 75.371 108.091 79.9533C105.321 73.1485 101.62 64.296 97.5313 55.175ZM79.3126 90.8223C79.5627 88.937 80.0878 88.1441 80.2129 87.9755C85.7648 83.9988 85.5459 80.3778 84.5269 74.909C84.3518 73.985 84.0642 72.6241 83.7078 71.0321C86.7339 73.598 89.0972 75.3585 91.7606 75.3772C92.9109 75.3835 94.0176 75.0463 94.9616 74.3971C95.193 74.241 95.4055 74.0724 95.6119 73.8914C97.6313 78.686 99.3631 82.9437 100.726 86.3336C94.3052 92.4268 88.572 99.3627 83.6203 107.017C78.9562 98.8133 79.0125 93.101 79.3188 90.8098L79.3126 90.8223ZM58.6181 60.7C57.2926 36.6896 62.3818 21.7314 65.9018 17.9419C65.9643 17.8732 66.0206 17.8171 66.0706 17.7671C68.3151 19.5776 74.7485 27.0567 88.6345 57.8844C88.7658 60.0445 88.8283 61.8612 88.8408 63.3345C88.7595 63.2659 88.572 63.1036 88.572 63.1036C85.9023 60.8124 82.5824 57.9656 79 55.9616C77.8683 55.3311 76.7617 54.8067 75.7051 54.4071L69.6593 52.1284L71.3661 59.1767C71.5224 59.8135 71.6913 60.519 71.8726 61.2681C73.7294 68.897 75.0111 74.472 75.405 76.5634C75.6363 77.8057 75.8989 79.2042 75.8489 79.6724C75.7614 79.7785 75.4925 80.0532 74.6923 80.6213C72.2915 82.3194 70.6659 85.5158 70.1157 89.6237C69.8156 91.8587 69.7218 95.5233 70.9347 100.33C72.2289 105.443 74.7048 110.669 78.306 115.907C77.512 117.28 76.7055 118.672 75.8739 120.102C65.858 102.459 59.7685 81.589 58.6118 60.6938L58.6181 60.7ZM69.5343 130.915C66.6708 125.096 64.2325 119.272 62.163 113.491C64.6389 118.953 67.4398 124.216 70.5471 129.198C70.2095 129.766 69.8719 130.334 69.5343 130.908V130.915Z" fill="#00126A" stroke="#00126A" stroke-width="4" stroke-miterlimit="10"/>
<path d="M339.295 188.613C339.232 188.282 349.379 182.994 349.217 182.894C334.593 173.773 322.314 163.435 310.572 143.208C310.11 142.415 309.647 141.616 309.184 140.804C307.496 137.889 305.771 134.867 303.995 131.733C303.557 130.965 303.12 130.191 302.676 129.405C300.619 125.759 298.499 121.975 296.33 118.055C295.911 117.306 295.492 116.55 295.073 115.789C295.036 115.714 294.992 115.639 294.948 115.57C289.228 105.213 282.494 96.679 275.16 89.6494C274.541 89.0563 273.916 88.4695 273.291 87.9013C265.326 80.6283 256.717 75.0658 247.976 70.8268C247.245 70.471 246.507 70.1214 245.769 69.7842C244.206 69.0663 242.637 68.3858 241.067 67.749C241.067 67.749 241.065 67.749 241.061 67.749C222.53 60.2075 204.03 58.1224 190.407 57.8789C175.633 57.9663 155.082 60.1576 134.906 69.135C134.169 69.4596 133.431 69.803 132.693 70.1463C123.903 74.2792 115.225 79.7418 107.178 86.915C106.541 87.4768 105.915 88.0574 105.284 88.6443C97.8751 95.5864 91.0416 104.039 85.1958 114.328C85.1583 114.397 85.1145 114.471 85.077 114.54C84.6456 115.295 84.2142 116.045 83.7953 116.794C81.5758 120.689 79.4126 124.448 77.3119 128.069C76.8617 128.849 76.4116 129.617 75.9677 130.385C74.1546 133.494 72.3915 136.497 70.6721 139.393C70.197 140.192 69.7218 140.985 69.2529 141.772C57.2738 161.856 44.7821 172.057 30.496 181.677C30.3397 181.783 40.0617 186.509 39.993 186.84C39.5303 189.262 40.6557 196.485 45.8512 207.13C48.971 213.529 55.5795 225.084 67.2897 237.346C67.9087 237.995 68.5402 238.65 69.1904 239.306C72.3164 242.452 75.7801 245.624 79.6127 248.758C80.2754 249.301 80.9506 249.844 81.6384 250.387C99.4069 264.384 124.622 277.251 159.709 282.301C168.962 283.263 179.19 283.893 190.257 283.918C200.416 283.937 209.869 283.444 218.491 282.651C253.628 278.018 278.999 265.445 296.93 251.661C297.624 251.13 298.306 250.593 298.975 250.056C302.838 246.972 306.34 243.838 309.503 240.729C310.16 240.08 310.804 239.437 311.429 238.794C323.283 226.67 330.029 215.195 333.23 208.834C338.544 198.252 339.757 191.041 339.32 188.613H339.295ZM235.778 246.654C231.521 248.801 226.65 249.863 221.292 249.831C216.484 249.8 211.289 248.901 205.799 247.116C198.334 244.338 189.331 239.462 189.331 239.462C184.58 243.245 172.776 246.922 172.776 246.922C167.261 248.639 162.053 249.476 157.245 249.451C151.893 249.419 147.042 248.308 142.822 246.111C137.057 243.002 134.625 237.589 136.138 231.259C137.101 227.226 139.558 223.617 142.484 221.488C144.166 220.259 146.004 219.522 147.798 219.472C148.449 219.441 149.011 219.978 149.03 220.633C149.049 221.295 148.524 221.85 147.861 221.863C147.286 221.882 146.698 221.994 146.117 222.206C142.809 223.361 139.539 227.326 138.47 231.808C137.745 234.861 137.489 240.498 143.947 243.994C152.963 248.683 163.66 247.334 172.794 244.369C173.613 244.107 174.414 243.832 175.201 243.539C179.765 241.878 183.829 239.886 186.949 238.182C187.368 237.957 187.762 237.733 188.143 237.52L188.225 223.767C184.867 223.574 181.71 223.012 178.853 222.106C176.264 221.295 173.913 220.209 171.875 218.866C171.706 218.76 171.544 218.648 171.381 218.529C170 217.568 168.768 216.494 167.718 215.295C164.929 212.143 163.629 208.378 164.073 204.701C164.141 204.077 164.248 203.496 164.398 202.953C164.648 202.023 165.01 201.205 165.473 200.475C169.549 194.057 181.11 195.237 187.787 195.911C188.45 195.98 189.056 196.042 189.6 196.092C190.144 196.048 190.75 195.992 191.413 195.936C198.097 195.343 209.663 194.294 213.664 200.762C214.115 201.492 214.477 202.316 214.715 203.253C214.859 203.802 214.959 204.395 215.021 205.019C215.415 208.684 214.077 212.43 211.251 215.551C206.825 220.44 199.397 223.38 190.638 223.78L190.557 237.533C190.938 237.751 191.332 237.982 191.745 238.213C194.846 239.955 198.884 241.99 203.43 243.707C204.217 244.001 205.018 244.294 205.824 244.562C214.927 247.634 225.612 249.107 234.69 244.519C241.174 241.116 240.986 235.473 240.292 232.414C239.092 227.12 234.847 222.518 231.014 222.362C230.351 222.337 229.839 221.782 229.864 221.114C229.889 220.452 230.458 219.934 231.114 219.965C236.028 220.165 241.199 225.509 242.637 231.883C244.075 238.232 241.58 243.613 235.797 246.648L235.778 246.654Z" fill="#FFAD26"/>
<path d="M340.751 186.771C333.08 188.082 285.051 198.265 246.275 214.184C246.275 214.184 221.311 191.354 193.801 190.96L185.436 190.904C157.92 190.979 132.687 213.516 132.687 213.516C94.0986 197.135 46.6138 186.391 38.9549 184.992C38.7048 186.284 36.3791 191.916 30.7646 195.306C31.6712 198.639 43.9066 214.278 49.8586 221.713C54.3101 227.276 57.0111 228.375 68.7213 240.636C69.3402 241.285 69.9717 241.941 70.6219 242.596C73.748 245.743 75.7612 245.605 79.5937 248.739C80.2564 249.282 80.9317 249.825 81.6194 250.369C99.3879 264.365 124.603 277.232 159.69 282.283C168.668 283.344 178.746 284.068 189.75 284.106C200.222 284.143 209.844 283.55 218.472 282.632C253.609 278 278.98 265.427 296.911 251.642C297.605 251.111 298.287 250.575 298.956 250.038C302.819 246.954 306.746 246.766 309.916 243.657C310.572 243.008 314.942 237.727 315.561 237.084C327.415 224.96 329.003 224.566 348.479 197.185C342.377 194.038 341.201 189.206 340.764 186.778L340.751 186.771Z" fill="white"/>
<path d="M317.85 16.1819C322.733 21.6258 326.897 38.9375 325.396 61.4934C323.82 85.1292 316.343 108.147 304.158 127.157C302.138 123.573 300.056 119.853 297.93 116.007C307.277 103.484 307.402 94.1004 306.971 90.4607C306.596 87.333 305.477 84.8733 303.907 83.7183C300.913 81.5208 301.094 80.6156 301.944 76.2892C302.494 73.4986 304.345 66.0445 305.652 60.8691C305.927 59.7703 306.183 58.7714 306.39 57.9411C305.445 58.2845 304.508 58.734 303.582 59.2459C300.344 61.0314 297.255 63.6409 294.598 65.8946C292.729 67.4804 290.203 69.6217 289.29 69.7778C288.584 68.5791 288.621 63.3101 289.084 57.2481C298.231 37.2769 308.215 18.3107 314.03 14.952C314.474 14.6961 315.824 13.9157 317.856 16.1819H317.85Z" fill="white"/>
<path d="M323.67 13.3106C333.448 30.5349 339.332 85.779 310.547 138.376C308.902 135.523 307.214 132.57 305.489 129.517C318.299 109.964 326.165 86.1348 327.79 61.6561C329.334 38.4448 324.858 20.4026 319.637 14.5841C316.736 11.3503 314.117 12.1244 312.816 12.8798C306.933 16.276 297.911 32.8885 289.777 50.1129C288.739 52.3104 287.72 54.5079 286.72 56.693C281.599 67.9053 277.073 78.6869 274.266 85.548C266.413 78.4934 257.973 73.0495 249.407 68.8543C261.149 52.5851 295.71 7.39848 317.199 7.52958C319.268 7.54207 321.569 9.596 323.676 13.3106H323.67Z" fill="#98ABBB"/>
<path d="M304.583 90.7472C304.971 94.0122 304.852 102.328 296.649 113.703C290.709 103.108 283.72 94.4055 276.136 87.2636C279.055 80.0717 282.594 71.7061 286.358 63.2594C286.214 69.6022 287.008 71.163 287.921 71.7998C288.296 72.0682 288.696 72.1868 289.134 72.1931C290.853 72.2055 293.085 70.3202 296.143 67.7293C298.149 66.0313 300.406 64.1147 302.745 62.5664C301.513 67.4734 300.069 73.3605 299.581 75.8327C298.637 80.6086 298.418 82.675 302.476 85.6529C303.27 86.2397 304.239 87.8816 304.577 90.7472H304.583Z" fill="white"/>
<path d="M187.53 198.308C187.849 198.339 188.162 198.371 188.455 198.402V198.577C188.799 198.564 189.168 198.539 189.568 198.514C189.968 198.552 190.337 198.577 190.675 198.595V198.421C190.981 198.396 191.294 198.371 191.613 198.34C198.84 197.69 206.462 197.378 210.244 200.531C211.051 201.205 211.688 202.042 212.101 203.065C212.37 203.721 212.551 204.451 212.626 205.269C212.951 208.303 211.851 211.306 209.456 213.953C205.486 218.348 198.709 223.436 190.644 223.83C190.25 223.848 189.85 223.861 189.45 223.873C189.043 223.861 188.643 223.842 188.243 223.817C180.178 223.33 173.444 218.161 169.518 213.722C167.154 211.044 166.092 208.029 166.454 204.982C166.542 204.17 166.723 203.446 166.998 202.803C167.417 201.779 168.061 200.955 168.88 200.294C172.694 197.185 180.315 197.584 187.536 198.321L187.53 198.308Z" fill="#00126A"/>
<path d="M104.327 86.2457C97.3373 92.6822 90.8351 100.411 85.1394 109.694C84.583 110.593 84.0453 111.511 83.5076 112.441C83.3325 112.191 83.1637 111.942 82.9949 111.698C82.7949 111.405 82.601 111.118 82.4135 110.83C75.4424 100.199 75.4424 92.5011 75.8488 89.3984C76.2239 86.5328 77.218 84.9034 78.0182 84.3291C82.1071 81.3949 81.9133 79.3347 81.0255 74.5401C80.5691 72.0616 79.1936 66.1558 78.0245 61.2363C80.3378 62.822 82.5698 64.7574 84.558 66.4804C87.5777 69.1025 89.7847 71.0191 91.5103 71.0253C91.948 71.0253 92.3481 70.9129 92.7295 70.6507C93.6485 70.0264 94.4551 68.4719 94.3863 62.1291C98.0563 70.6195 101.489 79.0288 104.327 86.2519V86.2457Z" fill="white"/>
<path d="M91.3974 68.6037C90.4908 68.4414 87.9837 66.2626 86.1331 64.6582C83.501 62.3732 80.4437 59.7262 77.2301 57.9033C76.311 57.3851 75.3794 56.9231 74.4354 56.5673C74.6354 57.3976 74.8793 58.3965 75.1356 59.5015C76.3798 64.6956 78.1429 72.1685 78.6556 74.9653C79.4558 79.3042 79.6184 80.2094 76.6049 82.3695C75.0168 83.5057 73.8727 85.9529 73.46 89.0744C72.9849 92.7078 72.9911 102.091 82.188 114.721C80.0185 118.547 77.8928 122.237 75.8296 125.802C72.9724 121.226 70.384 116.425 68.0957 111.449C60.7682 95.5796 56.3605 77.8995 55.3727 59.8948C54.91 51.3294 55.2476 43.5257 56.1167 36.8457C57.5359 25.933 60.3806 18.0169 63.4504 14.6707C65.5074 12.4295 66.8516 13.2223 67.2955 13.4845C73.0724 16.9119 82.8257 35.9967 91.735 56.0803C92.1164 62.136 92.0976 67.4051 91.3786 68.5975L91.3974 68.6037Z" fill="white"/>
<path d="M52.9848 60.0267C54.3228 84.5242 61.9004 108.441 74.4796 128.15C72.7165 131.184 70.9909 134.112 69.3154 136.946C41.1496 84.0122 47.6893 28.8431 57.6739 11.7374C59.8246 8.04779 62.1504 6.01882 64.2261 6.03131C85.7147 6.15617 119.732 51.7423 131.286 68.1551C122.671 72.2442 114.168 77.5882 106.234 84.5491C103.502 77.6569 99.1067 66.8191 94.1175 55.5505C93.1485 53.3593 92.1481 51.1492 91.1415 48.9392C83.2076 31.615 74.3796 14.8963 68.5401 11.4315C67.2459 10.6636 64.645 9.85825 61.7003 13.0609C56.411 18.8169 51.7219 36.8029 52.9848 60.033V60.0267Z" fill="#98ABBB"/>
<path d="M151.962 138.357C145.185 134.405 142.822 126.358 143.478 124.423C144.135 122.487 152.069 120.115 160.603 125.815C169.137 131.515 167.637 138.769 166.342 139.568C165.042 140.367 157.277 141.454 151.962 138.351V138.357Z" fill="white"/>
<path d="M225.863 138.794C232.69 134.924 235.147 126.902 234.51 124.966C233.872 123.025 225.969 120.559 217.366 126.159C208.763 131.759 210.176 139.032 211.464 139.843C212.752 140.655 220.505 141.835 225.857 138.801L225.863 138.794Z" fill="white"/>
<path d="M171.869 218.865L171.112 218.516L171.375 218.534C171.537 218.653 171.7 218.759 171.869 218.871V218.865Z" fill="#D1D1D1"/>
<path d="M96.4679 183.15C84.7327 180.365 78.7119 184.061 78.6244 187.563C78.5368 191.066 94.7861 195.842 101.451 197.671C108.109 199.5 110.335 197.096 112.048 193.919C113.768 190.741 101.482 184.342 96.4617 183.156L96.4679 183.15Z" fill="#FFCFBD"/>
<path d="M284.732 184.261C296.498 181.614 302.475 185.384 302.519 188.887C302.563 192.389 286.257 196.971 279.574 198.726C272.89 200.474 270.702 198.045 269.02 194.849C267.338 191.652 279.699 185.397 284.732 184.267V184.261Z" fill="#FFCFBD"/>
<path d="M180.871 196.173C180.871 196.173 168.105 195.53 167.054 199.806C166.004 204.083 173.638 208.522 181.422 207.966C189.206 207.41 189.056 199.151 186.461 198.071C183.866 196.991 180.871 196.173 180.871 196.173Z" fill="white"/>
<path d="M91.3979 68.6041C90.4914 68.4418 87.9843 66.263 86.1336 64.6586C83.5015 62.3736 80.4442 59.7266 77.2306 57.9037C76.3115 57.3855 75.38 56.9235 74.4359 56.5677C74.636 57.398 74.8798 58.3969 75.1361 59.5019C76.3803 64.696 78.1434 72.1688 78.6561 74.9657C79.4564 79.3046 79.6189 80.2098 76.6054 82.3699C75.0173 83.5061 73.8732 85.9533 73.4606 89.0748C72.9854 92.7082 72.9917 102.091 82.1885 114.721C80.0191 118.548 77.8933 122.237 75.8301 125.802C72.9729 121.226 70.3845 116.425 68.0962 111.45C69.7531 105.163 67.9962 98.9824 67.5023 93.1889C66.8833 85.791 72.2664 77.4317 72.1414 72.8306C72.0226 68.2358 71.7975 55.4439 69.0341 48.8014C67.5836 45.3178 61.5378 40.5669 56.1172 36.8399C57.5364 25.9272 60.3811 18.0111 63.4509 14.6649C65.5079 12.4236 66.8521 13.2165 67.296 13.4787C73.0729 16.9061 82.8263 35.9908 91.7355 56.0745C92.1169 62.1301 92.0981 67.3992 91.3792 68.5916L91.3979 68.6041Z" fill="#D1D1D1"/>
<path d="M289.277 69.7778C290.183 69.6217 292.716 67.4804 294.585 65.8946C297.242 63.6409 300.331 61.0251 303.569 59.2459C304.495 58.734 305.432 58.2907 306.376 57.9411C306.17 58.7714 305.914 59.764 305.639 60.8691C304.332 66.0445 302.481 73.4986 301.931 76.2892C301.081 80.6156 300.906 81.5208 303.894 83.7183C305.47 84.8733 306.589 87.333 306.958 90.4607C307.396 94.0941 307.271 103.484 297.924 116.007C300.049 119.859 302.131 123.573 304.151 127.157C307.058 122.618 309.709 117.842 312.06 112.892C310.478 106.58 312.31 100.425 312.866 94.6435C313.573 87.2518 308.29 78.8301 308.465 74.2353C308.64 69.6404 309.015 56.8486 311.86 50.2435C313.354 46.7724 319.456 42.0964 324.914 38.4381C323.62 27.5066 320.869 19.5593 317.843 16.1819C315.811 13.9157 314.454 14.6961 314.01 14.952C308.196 18.3107 298.217 37.2831 289.064 57.2544C288.608 63.3101 288.57 68.5729 289.271 69.7715L289.277 69.7778Z" fill="#D1D1D1"/>
<path d="M104.327 86.2472C97.3372 92.6837 90.835 100.413 85.1393 109.696L82.9948 111.7L82.2071 112.436C82.2071 112.436 82.2696 111.831 82.4071 110.832C82.826 107.835 83.9389 101.293 86.1647 96.9102C89.1344 91.0668 92.9295 81.6274 90.9663 77.3822C89.197 73.549 80.0876 63.4979 78.3183 61.5688C78.1495 61.3815 78.0494 61.2691 78.0244 61.2441C80.3377 62.8236 82.5697 64.7589 84.5579 66.482C87.5777 69.104 89.7847 71.0206 91.5102 71.0269C91.9479 71.0269 92.348 70.9145 92.7294 70.6523C93.6485 70.028 94.455 68.4735 94.3862 62.1306C98.0562 70.6211 101.489 79.0304 104.327 86.2535V86.2472Z" fill="#D1D1D1"/>
<path d="M276.142 87.2519C283.057 93.7695 289.465 101.573 295.055 110.925L297.174 112.954L297.949 113.697C297.949 113.697 297.899 113.092 297.768 112.086C297.387 109.084 296.349 102.528 294.173 98.1209C291.272 92.24 287.59 82.7632 289.603 78.5367C291.416 74.7285 300.644 64.7834 302.438 62.8731C302.607 62.692 302.714 62.5797 302.739 62.5547C300.406 64.1092 298.149 66.0195 296.143 67.7176C293.092 70.3085 290.859 72.1938 289.134 72.1813C288.696 72.1813 288.296 72.0565 287.921 71.788C287.014 71.1513 286.22 69.5905 286.364 63.2477C282.594 71.6944 279.062 80.0662 276.136 87.2519H276.142Z" fill="#D1D1D1"/>
<path d="M190.406 57.8848C204.029 58.1282 222.529 60.2134 241.061 67.7549C191.056 54.1952 149.98 69.2282 149.98 69.2282C155.05 68.6601 159.314 70.1522 159.289 74.6784C159.264 79.2107 126.09 93.1388 121.839 90.4481C117.581 87.7636 121.889 81.5206 121.889 81.5206C103.564 91.3221 84.0886 116.413 83.7822 116.806C84.2011 116.057 84.6325 115.308 85.0639 114.552C85.1014 114.484 85.1452 114.409 85.1827 114.34C91.0284 104.052 97.862 95.5985 105.271 88.6564C105.896 88.0695 106.527 87.4889 107.165 86.9271C115.218 79.7539 123.89 74.2913 132.68 70.1584C133.418 69.8088 134.156 69.4717 134.893 69.1471C155.075 60.1697 175.62 57.9784 190.393 57.891L190.406 57.8848Z" fill="white"/>
<path d="M325.765 12.1237C331.942 23.0114 335.118 43.9815 333.849 65.551C332.748 84.1738 328.016 112.017 311.948 140.804C311.485 140.005 311.016 139.193 310.547 138.375C339.338 85.7782 333.455 30.5404 323.67 13.3098C321.563 9.58903 319.263 7.54134 317.193 7.52885C295.705 7.40399 261.143 52.5844 249.401 68.8535C248.67 68.4914 247.932 68.1418 247.194 67.7985C251.79 61.4057 260.086 50.2869 269.74 39.2743C289.665 16.5437 305.639 5.05663 317.206 5.12531C320.213 5.14403 323.17 7.56006 325.765 12.1237Z" fill="#00126A"/>
<path d="M319.638 14.5777C324.852 20.3961 329.328 38.4321 327.79 61.6497C326.165 86.1284 318.3 109.958 305.489 129.511C305.051 128.73 304.607 127.944 304.157 127.157C316.343 108.147 323.826 85.1295 325.396 61.4936C326.89 38.9378 322.732 21.626 317.849 16.1821C315.817 13.9159 314.461 14.6963 314.023 14.9523C308.209 18.311 298.23 37.2771 289.077 57.2484C289.252 54.926 289.496 52.4788 289.777 50.1064C297.911 32.8821 306.939 16.2758 312.816 12.8734C314.117 12.1242 316.737 11.3438 319.638 14.5777Z" fill="#00126A"/>
<path d="M311.403 238.799C311.71 239.698 311.941 240.609 312.091 241.521C311.384 242.232 310.653 242.944 309.903 243.65C309.865 242.676 309.715 241.702 309.478 240.734C310.134 240.085 310.778 239.442 311.403 238.799Z" fill="#00126A"/>
<path d="M309.478 240.734C309.722 241.702 309.865 242.676 309.903 243.65C306.808 246.603 303.413 249.562 299.693 252.477C299.456 251.635 299.206 250.829 298.949 250.061C302.813 246.977 306.314 243.843 309.478 240.734Z" fill="#00126A"/>
<path d="M309.185 140.81C309.647 139.999 310.104 139.187 310.548 138.369C311.016 139.187 311.485 139.999 311.948 140.798C311.498 141.597 311.041 142.402 310.573 143.207C310.11 142.415 309.647 141.615 309.185 140.804V140.81Z" fill="#00126A"/>
<path d="M310.547 138.369C310.103 139.18 309.647 139.992 309.184 140.81C307.496 137.894 305.771 134.872 303.995 131.739C304.502 131.002 305.002 130.259 305.489 129.51C307.215 132.563 308.903 135.516 310.547 138.369Z" fill="#00126A"/>
<path d="M306.964 90.4604C307.402 94.0938 307.277 103.483 297.924 116.007C297.63 115.482 297.336 114.952 297.042 114.421C296.905 114.177 296.78 113.94 296.636 113.703C304.839 102.328 304.957 94.0127 304.57 90.7476C304.226 87.8821 303.257 86.2339 302.469 85.6533C298.411 82.6692 298.63 80.609 299.574 75.8332C300.062 73.3609 301.506 67.4738 302.738 62.5668C303.694 61.9301 304.663 61.3495 305.639 60.875C304.332 66.0504 302.481 73.5045 301.931 76.2951C301.081 80.6215 300.906 81.5267 303.894 83.7243C305.47 84.8792 306.583 87.3389 306.958 90.4667L306.964 90.4604Z" fill="#00126A"/>
<path d="M306.377 57.9414C306.171 58.7717 305.914 59.7706 305.639 60.8694C304.67 61.3438 303.695 61.9182 302.738 62.5612C303.032 61.375 303.313 60.2513 303.57 59.2462C304.495 58.7343 305.433 58.291 306.377 57.9414Z" fill="#00126A"/>
<path d="M304.158 127.157C304.608 127.949 305.052 128.73 305.489 129.51C305.002 130.266 304.501 131.002 303.995 131.739C303.557 130.971 303.12 130.197 302.676 129.41C303.176 128.667 303.67 127.912 304.158 127.15V127.157Z" fill="#00126A"/>
<path d="M304.158 127.156C303.67 127.917 303.176 128.667 302.676 129.416C300.619 125.77 298.5 121.987 296.33 118.066C296.893 117.367 297.424 116.68 297.931 116.006C300.056 119.858 302.138 123.572 304.158 127.156Z" fill="#00126A"/>
<path d="M303.576 59.2458C303.32 60.2509 303.038 61.3747 302.745 62.5608C300.413 64.1153 298.156 66.0257 296.142 67.7238C293.085 70.3146 290.853 72.2 289.134 72.1875C288.696 72.1875 288.296 72.0626 287.921 71.7942C287.008 71.1574 286.214 69.5966 286.358 63.2538C287.252 61.2498 288.158 59.2458 289.077 57.248C288.615 63.31 288.577 68.579 289.284 69.7777C290.19 69.6216 292.722 67.4803 294.592 65.8946C297.249 63.6409 300.344 61.025 303.576 59.2458Z" fill="#00126A"/>
<path d="M298.943 250.062C299.205 250.83 299.456 251.63 299.687 252.479C299.005 253.022 298.305 253.559 297.599 254.095C297.38 253.253 297.142 252.441 296.898 251.667C297.592 251.136 298.274 250.599 298.943 250.062Z" fill="#00126A"/>
<path d="M218.466 282.65C253.603 278.018 278.974 265.445 296.905 251.66C297.149 252.428 297.386 253.24 297.605 254.089C295.048 256.018 292.347 257.922 289.49 259.782C270.346 272.287 248.17 280.509 223.261 284.373C221.692 283.755 220.091 283.181 218.466 282.65Z" fill="#00126A"/>
<path d="M297.049 114.421C297.343 114.952 297.637 115.482 297.93 116.007C297.424 116.681 296.893 117.374 296.33 118.067C295.911 117.318 295.492 116.562 295.073 115.801C295.623 115.089 296.149 114.39 296.649 113.703C296.786 113.94 296.918 114.178 297.055 114.421H297.049Z" fill="#00126A"/>
<path d="M296.649 113.703C296.155 114.39 295.63 115.089 295.073 115.801C295.036 115.726 294.992 115.651 294.948 115.582C289.227 105.225 282.494 96.6909 275.16 89.6613C275.473 88.881 275.798 88.0756 276.129 87.2578C283.713 94.406 290.697 103.109 296.642 113.697L296.649 113.703Z" fill="#00126A"/>
<path d="M289.771 50.1055C289.49 52.4778 289.253 54.925 289.071 57.2474C288.152 59.2452 287.252 61.2492 286.352 63.2532C286.377 62.0233 286.445 60.6186 286.545 59.0017C286.595 58.2213 286.652 57.441 286.714 56.6856C287.715 54.5005 288.734 52.303 289.771 50.1055Z" fill="#00126A"/>
<path d="M286.551 59.0017C286.451 60.6186 286.383 62.0295 286.358 63.2531C282.594 71.6999 279.055 80.0717 276.135 87.2574C275.516 86.6768 274.891 86.0962 274.26 85.5406C277.073 78.6795 281.594 67.8917 286.714 56.6855C286.658 57.4472 286.595 58.2213 286.545 59.0017H286.551Z" fill="#00126A"/>
<path d="M276.135 87.2575C275.804 88.0753 275.479 88.8744 275.166 89.661C274.547 89.0679 273.922 88.4811 273.297 87.913C273.591 87.1888 273.916 86.3959 274.266 85.5469C274.897 86.1087 275.523 86.6831 276.142 87.2637L276.135 87.2575Z" fill="#00126A"/>
<path d="M273.297 87.9133C265.332 80.6402 256.723 75.0778 247.982 70.8388C248.408 70.2395 248.889 69.5777 249.408 68.8535C257.973 73.0425 266.414 78.4927 274.266 85.5472C273.916 86.4025 273.591 87.1891 273.297 87.9133Z" fill="#00126A"/>
<path d="M249.401 68.8539C248.882 69.5781 248.407 70.2398 247.976 70.8392C247.244 70.4833 246.506 70.1337 245.769 69.7966C246.194 69.1973 246.675 68.5293 247.194 67.7988C247.932 68.1359 248.67 68.4918 249.401 68.8539Z" fill="#00126A"/>
<path d="M192.289 55.5312C207.256 55.9683 227.45 58.6465 247.195 67.7987C246.676 68.5291 246.201 69.1971 245.769 69.7964C225.7 60.5818 205.174 58.1471 190.4 57.8849C191.038 57.8849 191.663 57.8849 192.276 57.8849L192.289 55.5312Z" fill="#00126A"/>
<path d="M215.008 205.025C215.402 208.69 214.064 212.436 211.238 215.557C206.812 220.445 199.384 223.386 190.625 223.785L190.637 221.388C198.703 220.995 205.48 218.341 209.45 213.946C211.845 211.299 212.945 208.296 212.62 205.262C212.545 204.445 212.364 203.714 212.095 203.059C212.97 203.115 213.833 203.183 214.702 203.252C214.846 203.802 214.946 204.395 215.008 205.019V205.025Z" fill="#00126A"/>
<path d="M213.652 200.767C214.102 201.497 214.465 202.321 214.702 203.257C213.84 203.183 212.97 203.12 212.095 203.064C211.683 202.04 211.051 201.21 210.238 200.529C211.376 200.604 212.514 200.685 213.646 200.767H213.652Z" fill="#00126A"/>
<path d="M191.4 195.942C198.084 195.349 209.65 194.3 213.652 200.768C212.52 200.68 211.382 200.605 210.244 200.531C206.462 197.372 198.847 197.69 191.613 198.339C191.294 198.37 190.982 198.395 190.681 198.42L190.8 196.198C190.438 196.173 190.031 196.148 189.581 196.104C190.125 196.061 190.731 196.004 191.394 195.948L191.4 195.942Z" fill="#00126A"/>
<path d="M192.288 55.4883V55.532C191.656 55.5133 191.031 55.5008 190.412 55.4883C191.05 55.4883 191.675 55.4883 192.288 55.4883Z" fill="#00126A"/>
<path d="M192.288 55.532L192.276 57.8856C191.663 57.8856 191.038 57.8856 190.4 57.8856C189.762 57.8731 189.137 57.8669 188.524 57.8606L188.537 55.507C189.168 55.4945 189.794 55.4883 190.413 55.4883C191.032 55.5008 191.65 55.5133 192.288 55.532Z" fill="#00126A"/>
<path d="M189.587 196.098C190.037 196.141 190.45 196.173 190.807 196.191L190.688 198.414C190.294 198.445 189.925 198.476 189.575 198.507C189.225 198.476 188.856 198.439 188.462 198.401L188.368 196.179C188.731 196.16 189.137 196.135 189.587 196.098Z" fill="#00126A"/>
<path d="M190.588 223.791V223.853C190.2 223.853 189.812 223.847 189.425 223.828C189.812 223.828 190.2 223.81 190.588 223.791Z" fill="#00126A"/>
<path d="M190.6 221.45C190.213 221.45 189.825 221.443 189.438 221.425C189.838 221.412 190.238 221.4 190.632 221.381L190.619 223.778C190.619 223.778 190.594 223.778 190.582 223.778L190.594 221.437L190.6 221.45Z" fill="#00126A"/>
<path d="M190.681 198.42V198.595C190.337 198.576 189.968 198.551 189.568 198.514C189.918 198.482 190.287 198.451 190.681 198.42Z" fill="#00126A"/>
<path d="M190.419 55.4879C189.8 55.4879 189.181 55.4941 188.543 55.5066V55.4629C189.156 55.4629 189.781 55.4754 190.419 55.4879Z" fill="#00126A"/>
<path d="M188.456 198.401C188.85 198.438 189.219 198.476 189.569 198.507C189.169 198.538 188.8 198.557 188.462 198.569V198.395L188.456 198.401Z" fill="#00126A"/>
<path d="M189.587 196.097C189.137 196.134 188.725 196.159 188.368 196.178L188.462 198.401C188.168 198.369 187.856 198.338 187.537 198.307C180.309 197.57 172.694 197.171 168.88 200.28C167.736 200.342 166.605 200.405 165.467 200.48C169.543 194.062 181.103 195.242 187.781 195.916C188.443 195.985 189.05 196.047 189.594 196.097H189.587Z" fill="#00126A"/>
<path d="M190.406 57.8844C175.633 57.9718 155.082 60.1631 134.906 69.1405C134.487 68.5349 134.019 67.8669 133.506 67.124C153.356 58.2028 173.576 55.7681 188.55 55.5059L188.537 57.8595C189.15 57.8595 189.775 57.8719 190.413 57.8844H190.406Z" fill="#00126A"/>
<path d="M188.275 221.437L188.262 223.778C188.262 223.778 188.237 223.778 188.225 223.778L188.237 221.381C188.631 221.406 189.037 221.425 189.444 221.437C189.062 221.45 188.669 221.45 188.281 221.443L188.275 221.437Z" fill="#00126A"/>
<path d="M188.218 223.773C179.465 223.268 172.068 220.24 167.711 215.302C164.922 212.149 163.622 208.384 164.066 204.707C164.135 204.083 164.241 203.502 164.391 202.959C165.254 202.897 166.123 202.841 166.998 202.797C166.723 203.44 166.535 204.164 166.454 204.976C166.091 208.022 167.148 211.038 169.518 213.716C173.444 218.155 180.177 220.889 188.243 221.376L188.23 223.773H188.218Z" fill="#00126A"/>
<path d="M168.874 200.28C168.055 200.941 167.411 201.772 166.992 202.789C166.117 202.833 165.248 202.889 164.385 202.952C164.635 202.021 164.997 201.204 165.46 200.473C166.592 200.398 167.73 200.336 168.874 200.273V200.28Z" fill="#00126A"/>
<path d="M81.6198 250.393C99.3883 264.389 124.603 277.256 159.69 282.307C158.058 282.812 156.451 283.368 154.87 283.974C130.017 279.816 107.941 271.332 88.941 258.602C86.1088 256.704 83.4266 254.769 80.8945 252.809C81.1259 251.966 81.3697 251.154 81.6198 250.393Z" fill="#00126A"/>
<path d="M133.499 67.1309C134.012 67.8675 134.481 68.5418 134.9 69.1473C134.162 69.472 133.424 69.8153 132.687 70.1587C132.261 69.5531 131.793 68.8851 131.286 68.1547C132.024 67.7989 132.762 67.4617 133.499 67.1309Z" fill="#00126A"/>
<path d="M111.298 38.3442C120.82 49.4691 128.979 60.6815 133.5 67.1305C132.762 67.4614 132.024 67.7985 131.286 68.1543C119.732 51.7416 85.7147 6.16165 64.2261 6.03054C62.1504 6.01806 59.8246 8.04078 57.6739 11.7366C47.6893 28.8424 41.1558 84.0115 69.3153 136.946C68.8402 137.757 68.3588 138.556 67.8899 139.349C52.1595 110.382 47.758 82.4819 46.8827 63.8529C45.8636 42.2772 49.2898 21.3445 55.5982 10.5255C58.2366 5.99933 61.2251 3.61452 64.2386 3.627C75.805 3.69567 91.6417 15.37 111.298 38.3379V38.3442Z" fill="#00126A"/>
<path d="M106.228 84.5483C114.161 77.5874 122.671 72.2434 131.28 68.1543C131.786 68.8785 132.255 69.5527 132.68 70.1583C123.89 74.2911 115.212 79.7537 107.165 86.9269C106.878 86.1965 106.559 85.4036 106.228 84.5483Z" fill="#00126A"/>
<path d="M106.228 84.5488C106.565 85.4041 106.878 86.197 107.166 86.9274C106.528 87.4893 105.903 88.0699 105.271 88.6567C104.965 87.8701 104.646 87.0647 104.327 86.2469C104.952 85.6663 105.584 85.0982 106.228 84.5488Z" fill="#00126A"/>
<path d="M85.1834 114.34C85.1459 114.409 85.1021 114.483 85.0646 114.552C84.5144 113.84 83.9955 113.129 83.5078 112.436C89.5786 101.916 96.6623 93.301 104.327 86.2402C104.652 87.0643 104.965 87.8696 105.271 88.65C97.8627 95.5922 91.0229 104.045 85.1834 114.334V114.34Z" fill="#00126A"/>
<path d="M94.1113 55.5488C99.1005 66.8111 103.496 77.6489 106.228 84.5474C105.59 85.0968 104.959 85.6649 104.327 86.2455C101.495 79.0224 98.0564 70.6131 94.3864 62.1227C94.3802 60.8928 94.3302 59.4881 94.2489 57.8712C94.2114 57.0908 94.1551 56.3105 94.1113 55.5551V55.5488Z" fill="#00126A"/>
<path d="M94.3867 62.117C94.4555 68.4599 93.6489 70.0144 92.7299 70.6387C92.3485 70.9009 91.9484 71.0195 91.5107 71.0133C89.7851 71.0008 87.5781 69.0904 84.5583 66.4684C82.5702 64.7453 80.3319 62.8038 78.0186 61.2243C77.7373 60.0381 77.4684 58.9081 77.2246 57.8968C80.4382 59.7197 83.4955 62.373 86.1276 64.6517C87.9783 66.2561 90.4854 68.4287 91.3919 68.5972C92.1047 67.4048 92.1297 62.1358 91.7483 56.0801C92.6361 58.0841 93.5176 60.1005 94.3867 62.1108V62.117Z" fill="#00126A"/>
<path d="M94.2483 57.8649C94.3296 59.4819 94.3796 60.8928 94.3859 62.1164C93.5168 60.1062 92.6353 58.0897 91.7475 56.0857C91.5974 53.7571 91.3849 51.3098 91.1348 48.9375C92.1414 51.1413 93.1354 53.3513 94.1108 55.5488C94.1608 56.3104 94.2108 57.0908 94.2483 57.8649Z" fill="#00126A"/>
<path d="M68.5332 11.4309C74.3727 14.902 83.2007 31.6207 91.1346 48.9387C91.3909 51.3172 91.5973 53.7645 91.7473 56.0868C82.838 36.0032 73.0785 16.9185 67.3078 13.4911C66.8639 13.2289 65.5197 12.436 63.4627 14.6772C58.5173 20.0649 54.1471 37.3267 55.3787 59.8951C56.6667 83.5497 63.8754 106.655 75.8357 125.808C75.3793 126.595 74.9229 127.375 74.479 128.149C61.8997 108.447 54.3159 84.5236 52.9842 60.0262C51.715 36.7961 56.4041 18.8101 61.6996 13.0541C64.6381 9.85142 67.2453 10.663 68.5394 11.4247L68.5332 11.4309Z" fill="#00126A"/>
<path d="M83.5073 112.441C83.995 113.134 84.5139 113.84 85.0641 114.558C84.6327 115.313 84.2013 116.069 83.7761 116.818C83.2197 116.112 82.6945 115.419 82.1943 114.733C82.4944 114.208 82.7945 113.684 83.0946 113.159C83.2322 112.922 83.3697 112.679 83.5073 112.441Z" fill="#00126A"/>
<path d="M82.1943 114.727C82.6945 115.413 83.2197 116.106 83.7761 116.812C81.5566 120.701 79.3934 124.459 77.2927 128.08C76.7988 127.331 76.3174 126.569 75.8359 125.808C77.8991 122.249 80.0249 118.554 82.1943 114.727Z" fill="#00126A"/>
<path d="M81.6189 250.393C81.3688 251.161 81.1187 251.966 80.8937 252.809C80.1934 252.266 79.4994 251.723 78.8242 251.167C79.0681 250.324 79.3306 249.525 79.5995 248.764C80.2622 249.307 80.9374 249.85 81.6252 250.393H81.6189Z" fill="#00126A"/>
<path d="M78.8183 251.168C75.1358 248.215 71.7721 245.212 68.7148 242.222C68.7649 241.248 68.9212 240.274 69.1775 239.312C72.3036 242.459 75.7672 245.63 79.5998 248.764C79.3309 249.526 79.0684 250.325 78.8245 251.168H78.8183Z" fill="#00126A"/>
<path d="M82.1941 114.727C72.9972 102.097 72.9847 92.7079 73.4661 89.0808C73.8788 85.9593 75.0229 83.512 76.611 82.3758C79.6245 80.2095 79.4619 79.3043 78.6616 74.9716C78.1427 72.1748 76.3796 64.6957 75.1417 59.5078C76.1045 59.9948 77.0736 60.5816 78.0239 61.2371C79.1931 66.1566 80.5685 72.0624 81.0249 74.5409C81.9065 79.3292 82.1066 81.3957 78.0177 84.3299C77.2174 84.9042 76.2296 86.5399 75.8482 89.3991C75.423 92.658 75.4481 100.974 83.507 112.442C83.3695 112.679 83.2319 112.923 83.0944 113.16C82.7943 113.684 82.4942 114.209 82.1941 114.733V114.727Z" fill="#00126A"/>
<path d="M77.2308 57.9024C77.4747 58.9138 77.7435 60.0375 78.0248 61.2299C77.0745 60.5744 76.1054 59.9876 75.1426 59.5006C74.88 58.3956 74.6362 57.3967 74.4424 56.5664C75.3865 56.9223 76.318 57.378 77.2371 57.9024H77.2308Z" fill="#00126A"/>
<path d="M77.2929 128.081C76.8428 128.862 76.3926 129.63 75.9487 130.398C75.4548 129.655 74.9609 128.905 74.4795 128.144C74.9296 127.37 75.3798 126.589 75.8362 125.803C76.3176 126.571 76.799 127.326 77.2929 128.075V128.081Z" fill="#00126A"/>
<path d="M155.22 167.968C152.55 176.359 145.691 181.634 139.914 179.761C134.137 177.882 131.624 169.56 134.3 161.176C135.632 157.012 137.983 153.615 140.727 151.48C142.059 150.444 143.478 149.701 144.916 149.32C147.379 150.45 149.68 151.649 151.468 152.61C152.794 153.328 153.857 153.79 154.707 154.052C155.332 155.276 155.776 156.668 156.026 158.179C156.533 161.138 156.301 164.547 155.207 167.968H155.22Z" fill="#00126A"/>
<path d="M150.162 157.455C148.073 157.53 146.248 160.033 146.079 163.042C145.91 166.051 147.467 168.43 149.549 168.355C151.637 168.28 153.463 165.777 153.631 162.768C153.8 159.758 152.244 157.38 150.162 157.455Z" fill="white"/>
<path d="M138.095 169.928C137.063 170.396 136.607 171.975 137.076 173.467C137.545 174.953 138.764 175.783 139.802 175.315C140.833 174.847 141.29 173.268 140.821 171.775C140.352 170.29 139.133 169.459 138.095 169.928Z" fill="#FFCFBD"/>
<path d="M136.051 143.839C136.845 143.626 137.751 143.601 138.814 143.839C139.777 144.057 140.871 144.5 142.14 145.218C142.778 145.58 143.466 146.017 144.191 146.529C145.441 147.41 146.654 148.221 147.823 148.983C149.761 150.238 151.581 151.343 153.25 152.254C156.795 154.202 159.646 155.326 161.497 155.457C161.497 155.457 157.258 158.51 152.356 155.962C151.168 155.319 149.98 154.626 148.836 153.921C146.523 152.516 144.372 151.062 142.703 149.901C141.465 149.039 140.465 148.452 139.652 148.096C137.095 146.985 136.163 148.021 134.831 149.501L134.581 149.776C134.581 149.776 133.05 144.688 136.051 143.839Z" fill="#00126A"/>
<path d="M219.122 168.341C221.691 176.763 228.488 182.119 234.283 180.315C240.079 178.505 242.692 170.214 240.117 161.799C238.835 157.622 236.522 154.195 233.808 152.028C232.489 150.973 231.076 150.218 229.644 149.818C227.168 150.923 224.849 152.085 223.054 153.033C221.717 153.733 220.654 154.188 219.797 154.438C219.159 155.656 218.697 157.041 218.428 158.546C217.884 161.499 218.078 164.914 219.128 168.347L219.122 168.341Z" fill="#00126A"/>
<path d="M224.305 157.89C226.387 157.99 228.187 160.512 228.319 163.521C228.45 166.53 226.868 168.896 224.786 168.796C222.704 168.696 220.904 166.174 220.772 163.165C220.641 160.156 222.223 157.79 224.305 157.89Z" fill="white"/>
<path d="M236.221 170.501C237.247 170.982 237.684 172.568 237.197 174.053C236.709 175.533 235.477 176.351 234.452 175.87C233.427 175.389 232.989 173.804 233.477 172.318C233.964 170.838 235.196 170.02 236.221 170.501Z" fill="#FFCFBD"/>
<path d="M238.573 144.444C237.779 144.219 236.878 144.188 235.809 144.419C234.846 144.625 233.746 145.056 232.47 145.761C231.833 146.117 231.139 146.541 230.401 147.047C229.138 147.909 227.919 148.714 226.744 149.457C224.787 150.693 222.955 151.773 221.279 152.66C217.715 154.564 214.846 155.65 212.995 155.762C212.995 155.762 217.197 158.865 222.129 156.374C223.324 155.75 224.518 155.069 225.674 154.376C228.006 152.997 230.176 151.573 231.852 150.425C233.096 149.576 234.102 149.001 234.928 148.652C237.497 147.572 238.416 148.614 239.729 150.112L239.979 150.393C239.979 150.393 241.567 145.324 238.579 144.438L238.573 144.444Z" fill="#00126A"/>
<path d="M69.3155 136.945C69.7532 137.763 70.1971 138.587 70.6472 139.405C70.1721 140.204 69.6969 140.997 69.228 141.784C68.7716 140.972 68.3214 140.16 67.8838 139.355C68.359 138.562 68.8341 137.757 69.3093 136.952L69.3155 136.945Z" fill="#00126A"/>
<g opacity="0.6">
<path d="M143.246 187.789L31.5834 181.433C31.1645 181.408 31.0332 180.859 31.3958 180.653C36.4351 177.75 42.1682 174.273 47.3825 169.147C61.8999 154.87 68.521 142.465 73.135 132.676L144.966 133.1C160.102 133.188 172.3 145.511 172.212 160.626C172.119 176.289 158.908 188.675 143.246 187.789Z" fill="#00DEFF"/>
</g>
<g style="mix-blend-mode:multiply" opacity="0.3">
<path d="M171.162 152.965C171.856 155.4 172.225 157.965 172.212 160.625C172.118 176.289 158.908 188.675 143.246 187.788L32.0146 181.458C31.1705 181.963 33.0274 182.6 32.2146 183.068C31.852 183.274 31.9833 183.824 32.4022 183.849L144.065 190.204C159.727 191.097 172.937 178.705 173.031 163.047C173.05 159.489 172.387 156.093 171.168 152.971L171.162 152.965Z" fill="#00DEFF"/>
</g>
<g style="mix-blend-mode:screen" opacity="0.6">
<path d="M73.1413 132.676L70.5342 137.989L144.934 135.766C144.934 135.766 164.585 134.499 171.268 153.315C171.268 153.315 166.611 133.231 143.909 133.094C121.208 132.963 73.1413 132.676 73.1413 132.676Z" fill="#00DEFF"/>
</g>
<g opacity="0.6">
<mask id="mask0_1121_17806" style="mask-type:luminance" maskUnits="userSpaceOnUse" x="86" y="132" width="38" height="55">
<path d="M123.064 186.633C117.106 186.333 112.623 186.115 107.334 185.728C107.109 185.709 101.832 185.391 101.613 185.335L86.6895 132.75C91.5786 132.781 96.7179 132.731 102.345 133.05L123.058 186.633H123.064Z" fill="white"/>
</mask>
<g mask="url(#mask0_1121_17806)">
<path d="M89.0402 132.695L86.6895 133.412L86.6957 132.676L89.0402 132.695Z" fill="white"/>
<path d="M97.2741 132.739L86.6768 135.998L86.6893 133.413L89.0401 132.695L97.2741 132.739Z" fill="white"/>
<path d="M105.508 132.788L86.6582 138.582L86.677 135.997L97.2743 132.738L105.508 132.788Z" fill="#FDFDFD"/>
<path d="M107.178 132.802L107.759 134.681L87.2334 140.986L86.6582 139.107V138.583L105.508 132.789L107.178 132.802Z" fill="#FCFCFC"/>
<path d="M107.758 134.671L87.2383 140.979L87.9649 143.335L108.484 137.028L107.758 134.671Z" fill="#FBFBFB"/>
<path d="M108.487 137.025L87.9678 143.332L88.6943 145.689L109.214 139.382L108.487 137.025Z" fill="#FAFAFA"/>
<path d="M109.213 139.384L88.6934 145.691L89.4199 148.048L109.939 141.741L109.213 139.384Z" fill="#F9F9F9"/>
<path d="M109.938 141.74L89.418 148.047L90.1445 150.404L110.664 144.096L109.938 141.74Z" fill="#F8F8F8"/>
<path d="M110.661 144.095L90.1416 150.402L90.8682 152.759L111.388 146.452L110.661 144.095Z" fill="#F7F7F7"/>
<path d="M111.387 146.454L90.8672 152.762L91.5938 155.119L112.113 148.811L111.387 146.454Z" fill="#F5F6F6"/>
<path d="M112.11 148.81L91.5908 155.117L92.3174 157.474L112.837 151.167L112.11 148.81Z" fill="#F4F5F5"/>
<path d="M112.847 151.156L92.3271 157.463L93.0537 159.82L113.573 153.512L112.847 151.156Z" fill="#F3F4F4"/>
<path d="M113.572 153.517L93.0527 159.824L93.7793 162.181L114.299 155.874L113.572 153.517Z" fill="#F2F3F3"/>
<path d="M114.297 155.872L93.7773 162.18L94.5039 164.537L115.023 158.229L114.297 155.872Z" fill="#F1F2F2"/>
<path d="M115.021 158.226L94.501 164.533L95.2275 166.89L115.747 160.583L115.021 158.226Z" fill="#F0F1F1"/>
<path d="M115.746 160.587L95.2266 166.895L95.9531 169.251L116.473 162.944L115.746 160.587Z" fill="#EFF0F0"/>
<path d="M116.47 162.943L95.9502 169.25L96.6768 171.607L117.196 165.3L116.47 162.943Z" fill="#EEEFEF"/>
<path d="M117.193 165.301L123.077 184.386L123.064 186.633L101.269 186.508L96.6738 171.606L117.193 165.301Z" fill="#EEEFEF"/>
</g>
</g>
<g opacity="0.6">
<mask id="mask1_1121_17806" style="mask-type:luminance" maskUnits="userSpaceOnUse" x="120" y="132" width="36" height="56">
<path d="M155.744 185.648C149.717 187.614 147.916 188.12 140.92 187.658C140.695 187.645 135.431 187.383 135.218 187.333L120.363 132.957C125.252 132.988 130.392 132.938 136.019 133.257L155.744 185.648Z" fill="white"/>
</mask>
<g mask="url(#mask1_1121_17806)">
<path d="M122.657 132.887L120.356 133.599V132.875L122.657 132.887Z" fill="white"/>
<path d="M130.704 132.937L120.338 136.121L120.357 133.598L122.657 132.887L130.704 132.937Z" fill="white"/>
<path d="M138.756 132.987L120.325 138.65L120.338 136.121L130.704 132.938L138.756 132.987Z" fill="#FDFDFD"/>
<path d="M140.22 132.995L140.801 134.88L120.307 141.179L120.325 138.651L138.757 132.988L140.22 132.995Z" fill="#FCFCFC"/>
<path d="M140.801 134.879L141.508 137.183L120.994 143.488L120.307 141.265V141.178L140.801 134.879Z" fill="#FBFBFB"/>
<path d="M141.513 137.175L120.999 143.48L121.709 145.784L142.223 139.478L141.513 137.175Z" fill="#FAFAFA"/>
<path d="M142.217 139.482L121.703 145.787L122.413 148.09L142.927 141.785L142.217 139.482Z" fill="#F9F9F9"/>
<path d="M142.933 141.779L122.419 148.084L123.129 150.387L143.643 144.082L142.933 141.779Z" fill="#F8F8F8"/>
<path d="M143.637 144.085L123.123 150.391L123.833 152.694L144.347 146.388L143.637 144.085Z" fill="#F7F7F7"/>
<path d="M144.352 146.39L123.839 152.695L124.549 154.998L145.062 148.693L144.352 146.39Z" fill="#F5F6F6"/>
<path d="M145.055 148.685L124.541 154.99L125.251 157.293L145.765 150.988L145.055 148.685Z" fill="#F4F5F5"/>
<path d="M145.77 150.987L125.257 157.293L125.967 159.596L146.48 153.291L145.77 150.987Z" fill="#F3F4F4"/>
<path d="M146.48 153.292L125.967 159.598L126.677 161.901L147.19 155.595L146.48 153.292Z" fill="#F2F3F3"/>
<path d="M147.19 155.599L126.677 161.904L127.387 164.207L147.9 157.902L147.19 155.599Z" fill="#F1F2F2"/>
<path d="M147.899 157.898L127.386 164.203L128.096 166.506L148.609 160.201L147.899 157.898Z" fill="#F0F1F1"/>
<path d="M148.609 160.204L128.096 166.51L128.806 168.813L149.319 162.507L148.609 160.204Z" fill="#EFF0F0"/>
<path d="M149.319 162.509L128.806 168.814L129.516 171.118L150.029 164.812L149.319 162.509Z" fill="#EEEFEF"/>
<path d="M150.029 164.814L155.756 183.394L155.725 188.163L134.73 188.045L129.51 171.12L150.029 164.814Z" fill="#EEEFEF"/>
</g>
</g>
<path d="M69.1718 239.312C68.9155 240.28 68.7592 241.247 68.7091 242.221C67.9714 241.503 67.2461 240.785 66.5459 240.067C66.7085 239.156 66.946 238.251 67.2649 237.352C67.8839 238.001 68.5153 238.656 69.1655 239.312H69.1718Z" fill="#00126A"/>
<path d="M205.756 271.081V271.144C200.798 271.575 195.377 271.843 189.556 271.818C183.454 271.793 177.79 271.462 172.632 270.95C85.6712 261.455 40.2557 204.756 32.5469 195.885C33.4534 199.219 36.6483 203.545 39.0678 208.502C42.1876 214.901 52.4786 223.622 64.1951 235.883C64.8141 236.533 65.4455 237.188 66.0958 237.844C69.2218 240.99 75.7678 245.635 79.5941 248.769C80.2568 249.312 80.932 249.855 81.6198 250.398C99.3883 264.395 124.603 277.262 159.69 282.312C168.274 283.655 178.371 284.654 189.675 284.685C200.479 284.716 210.163 283.854 218.473 282.656L218.31 282.512C218.397 282.537 218.485 282.568 218.566 282.593C253.709 277.961 279.074 265.388 297.005 251.603C297.699 251.073 298.381 250.536 299.05 249.999C302.914 246.915 308.391 242.407 311.56 239.298C312.217 238.649 312.229 239.448 312.848 238.805C324.702 226.681 339.101 213.521 342.296 207.153C344.778 202.221 345.834 201.035 346.678 197.739C336.337 216.012 279.856 268.135 205.749 271.081H205.756Z" fill="#D1D1D1"/>
<path d="M99.4189 263.573C133.149 281.54 172.256 286.197 209.95 283.438C232.639 281.715 255.128 276.352 275.654 266.288C262.462 273.967 247.888 279.311 232.902 282.539C188.624 291.373 138.426 287.683 99.4189 263.566V263.573Z" fill="#00126A"/>
<path d="M70.5969 139.349C61.5438 156.174 48.1142 173.435 30.7646 182.226L31.2148 180.14C31.3085 180.247 31.4523 180.403 31.5836 180.54C33.6093 182.6 36.1352 184.292 38.9549 184.985L40.2366 185.303C40.1553 185.659 39.9427 186.727 39.8364 187.051C38.536 191.228 35.2349 194.574 31.3711 196.503L32.0025 194.761C32.1088 195.011 32.2714 195.336 32.4089 195.623C33.4718 197.733 34.6909 199.756 35.9664 201.747C46.4949 217.798 60.0871 231.589 74.2419 244.499L72.9164 245.979C64.6386 238.662 56.6671 230.971 49.2334 222.767C43.6752 216.587 38.3672 210.132 33.7781 203.171C32.015 200.468 30.3019 197.689 29.014 194.711L30.1519 194.1C33.0779 192.633 35.61 190.26 36.8979 187.232C37.0605 186.839 37.2105 186.446 37.3106 186.034L38.3172 187.613C37.4106 187.388 36.5291 187.089 35.6913 186.714C32.6527 185.36 30.0456 183.156 28.0137 180.54C32.9091 178.355 37.5044 175.521 41.7308 172.156C53.0409 163.06 62.1565 151.285 69.2277 138.662L70.5906 139.355L70.5969 139.349Z" fill="#00126A"/>
<path d="M310.666 140.086C319.869 156.861 333.692 174.285 351.379 182.445C349.316 185.036 346.69 187.214 343.633 188.532C342.789 188.9 341.907 189.187 341.001 189.4L342.026 187.833C342.12 188.245 342.264 188.638 342.426 189.037C343.683 192.078 346.184 194.488 349.091 195.986L350.223 196.61C348.904 199.576 347.159 202.329 345.359 205.013C340.688 211.918 335.305 218.311 329.672 224.423C322.138 232.538 314.079 240.136 305.714 247.353L304.407 245.861C318.712 233.125 332.467 219.491 343.183 203.565C344.646 201.33 346.078 199.032 347.234 196.629L347.847 198.377C345.884 197.353 344.071 195.998 342.608 194.325C340.795 192.278 339.525 189.793 339.119 187.071L340.407 186.765C343.233 186.103 345.784 184.443 347.834 182.407C347.966 182.276 348.116 182.12 348.203 182.014L348.628 184.099C333.136 175.99 321.776 161.943 312.873 147.241C311.616 145.118 310.416 142.989 309.309 140.754L310.678 140.08L310.666 140.086Z" fill="#00126A"/>
<path d="M69.3154 136.945C70.991 134.11 72.7166 131.176 74.4797 128.148C74.9611 128.904 75.4488 129.659 75.9489 130.402C74.1358 133.511 72.3727 136.514 70.6534 139.411C70.2032 138.593 69.7531 137.769 69.3217 136.951L69.3154 136.945Z" fill="#00126A"/>
<path d="M261.193 67.8808C262.371 67.8808 263.325 66.9276 263.325 65.7519C263.325 64.5762 262.371 63.623 261.193 63.623C260.016 63.623 259.062 64.5762 259.062 65.7519C259.062 66.9276 260.016 67.8808 261.193 67.8808Z" fill="#505B64"/>
<path d="M268.502 58.0663C269.68 58.0663 270.634 57.1132 270.634 55.9374C270.634 54.7617 269.68 53.8086 268.502 53.8086C267.325 53.8086 266.37 54.7617 266.37 55.9374C266.37 57.1132 267.325 58.0663 268.502 58.0663Z" fill="#505B64"/>
<path d="M275.417 49.0956C276.595 49.0956 277.549 48.1425 277.549 46.9667C277.549 45.791 276.595 44.8379 275.417 44.8379C274.24 44.8379 273.285 45.791 273.285 46.9667C273.285 48.1425 274.24 49.0956 275.417 49.0956Z" fill="#505B64"/>
<path d="M311.392 130.322C312.569 130.322 313.524 129.369 313.524 128.193C313.524 127.018 312.569 126.064 311.392 126.064C310.214 126.064 309.26 127.018 309.26 128.193C309.26 129.369 310.214 130.322 311.392 130.322Z" fill="#505B64"/>
<path d="M315.706 121.732C316.884 121.732 317.838 120.779 317.838 119.603C317.838 118.428 316.884 117.475 315.706 117.475C314.529 117.475 313.574 118.428 313.574 119.603C313.574 120.779 314.529 121.732 315.706 121.732Z" fill="#505B64"/>
<path d="M281.43 28.215L280.052 29.6973L294.387 42.9896L295.765 41.5074L281.43 28.215Z" fill="#00126A"/>
<path d="M288.969 20.0842L287.591 21.5664L299.466 32.5775L300.844 31.0953L288.969 20.0842Z" fill="#00126A"/>
<path d="M316.164 7.36658L315.171 13.9473L317.174 14.2487L318.167 7.668L316.164 7.36658Z" fill="#00126A"/>
<path d="M119.402 67.0429C120.579 67.0429 121.533 66.0897 121.533 64.914C121.533 63.7383 120.579 62.7852 119.402 62.7852C118.224 62.7852 117.27 63.7383 117.27 64.914C117.27 66.0897 118.224 67.0429 119.402 67.0429Z" fill="#505B64"/>
<path d="M112.212 57.1405C113.39 57.1405 114.344 56.1874 114.344 55.0117C114.344 53.8359 113.39 52.8828 112.212 52.8828C111.035 52.8828 110.08 53.8359 110.08 55.0117C110.08 56.1874 111.035 57.1405 112.212 57.1405Z" fill="#505B64"/>
<path d="M105.403 48.0878C106.581 48.0878 107.535 47.1347 107.535 45.9589C107.535 44.7832 106.581 43.8301 105.403 43.8301C104.226 43.8301 103.271 44.7832 103.271 45.9589C103.271 47.1347 104.226 48.0878 105.403 48.0878Z" fill="#505B64"/>
<path d="M68.4718 128.891C69.6493 128.891 70.6038 127.937 70.6038 126.762C70.6038 125.586 69.6493 124.633 68.4718 124.633C67.2944 124.633 66.3398 125.586 66.3398 126.762C66.3398 127.937 67.2944 128.891 68.4718 128.891Z" fill="#505B64"/>
<path d="M64.2579 120.244C65.4354 120.244 66.3899 119.291 66.3899 118.115C66.3899 116.939 65.4354 115.986 64.2579 115.986C63.0805 115.986 62.126 116.939 62.126 118.115C62.126 119.291 63.0805 120.244 64.2579 120.244Z" fill="#505B64"/>
<path d="M99.6192 27.1402L85.127 40.2617L86.4876 41.7602L100.98 28.6386L99.6192 27.1402Z" fill="#00126A"/>
<path d="M92.1682 18.9175L80.1631 29.7871L81.5238 31.2856L93.5289 20.4159L92.1682 18.9175Z" fill="#00126A"/>
<path d="M65.0973 5.89617L63.0908 6.17383L64.0057 12.7658L66.0122 12.4882L65.0973 5.89617Z" fill="#00126A"/>
<path d="M222.755 97.396C212.533 99.219 200.048 100.649 185.818 100.592C171.263 100.53 158.534 98.9318 148.168 96.959C144.848 87.0265 141.528 77.0939 138.208 67.1614C148.049 63.1284 162.904 58.3712 181.485 57.2288C203.993 55.8428 222.111 60.3628 233.084 64.0274C229.639 75.1523 226.194 86.2773 222.749 97.396H222.755Z" fill="#98ABBB"/>
<path d="M185.436 101.935C172.876 101.86 160.253 100.63 147.917 98.2764L147.142 98.1265L136.532 66.381L137.701 65.9003C151.681 60.1693 166.386 56.7981 181.41 55.8741C199.097 54.7878 216.628 57.0977 233.521 62.7414L234.772 63.1597L223.806 98.576L222.993 98.7196C210.751 100.905 198.241 101.985 185.811 101.935C185.686 101.935 185.561 101.935 185.436 101.935ZM149.199 95.7729C161.253 98.0204 173.557 99.1878 185.824 99.2378C197.822 99.2877 209.888 98.2639 221.711 96.2037L231.408 64.8827C215.234 59.6511 198.478 57.5223 181.573 58.5648C167.268 59.4451 153.25 62.5916 139.896 67.9231L149.199 95.7667V95.7729Z" fill="#00126A"/>
<path d="M158.64 93.2323C159.817 93.2323 160.772 92.2792 160.772 91.1035C160.772 89.9277 159.817 88.9746 158.64 88.9746C157.462 88.9746 156.508 89.9277 156.508 91.1035C156.508 92.2792 157.462 93.2323 158.64 93.2323Z" fill="#505B64"/>
<path d="M213.458 93.5507C214.636 93.5507 215.59 92.5976 215.59 91.4218C215.59 90.2461 214.636 89.293 213.458 89.293C212.281 89.293 211.326 90.2461 211.326 91.4218C211.326 92.5976 212.281 93.5507 213.458 93.5507Z" fill="#505B64"/>
<path d="M184.636 94.7304C185.813 94.7304 186.768 93.7772 186.768 92.6015C186.768 91.4258 185.813 90.4727 184.636 90.4727C183.458 90.4727 182.504 91.4258 182.504 92.6015C182.504 93.7772 183.458 94.7304 184.636 94.7304Z" fill="#505B64"/>
<path d="M155.3 60.4307L146.949 96.0645L149.579 96.6789L157.929 61.0452L155.3 60.4307Z" fill="#00126A"/>
<path d="M215.553 58.9011L212.916 59.4844L221.263 97.1102L223.9 96.5269L215.553 58.9011Z" fill="#00126A"/>
<path d="M280.619 95.2988L221.036 116.912L197.572 140.642L197.271 190.823C197.271 190.823 216.172 190.279 246.276 214.184C246.276 214.184 291.166 196.266 340.039 187.033C340.039 187.033 345.015 187.014 349.223 182.894C349.223 182.894 332.824 178.224 314.055 148.395C295.28 118.566 291.966 105.069 280.625 95.2988H280.619Z" fill="#98ABBB"/>
<path d="M246.106 215.346L245.644 214.977C216.265 191.647 197.484 191.835 197.296 191.835L196.252 191.859V190.817L196.558 140.224L220.473 116.039L280.831 94.1445L281.281 94.5316C288.258 100.544 292.297 108.01 298.418 119.31C302.45 126.764 307.471 136.041 314.911 147.859C333.205 176.92 349.341 181.877 349.504 181.921L351.167 182.401L349.935 183.613C345.771 187.689 340.932 188.014 340.151 188.039C291.959 197.154 247.107 214.946 246.657 215.121L246.113 215.339L246.106 215.346ZM198.29 189.843C202.673 190.08 220.254 192.371 246.444 213.036C251.733 210.969 294.323 194.644 339.844 186.041L340.032 186.022C340.07 186.022 343.752 185.954 347.272 183.25C342.583 181.253 328.728 173.63 313.192 148.939C305.714 137.065 300.681 127.757 296.63 120.278C290.753 109.421 286.826 102.167 280.399 96.4607L221.598 117.793L198.584 141.067L198.296 189.843H198.29Z" fill="#80232F"/>
<path d="M197.272 190.823L227.557 176.901L265.383 168.18L261.731 143.807L280.613 95.293C280.613 95.293 289.935 104.133 297.906 119.491C305.877 134.855 317.556 156.281 325.978 163.941C334.4 171.595 347.223 183.288 347.223 183.288L342.496 186.646C342.496 186.646 291.323 198.358 273.623 204.451C255.917 210.544 246.27 214.172 246.27 214.172C246.27 214.172 228.051 199.419 215.916 195.543C203.78 191.666 197.266 190.81 197.266 190.81" fill="#58646F"/>
<path d="M258.073 198.133C259.251 198.133 260.205 197.18 260.205 196.004C260.205 194.828 259.251 193.875 258.073 193.875C256.896 193.875 255.941 194.828 255.941 196.004C255.941 197.18 256.896 198.133 258.073 198.133Z" fill="#98ABBB"/>
<path d="M273.316 192.246C274.493 192.246 275.448 191.293 275.448 190.117C275.448 188.941 274.493 187.988 273.316 187.988C272.138 187.988 271.184 188.941 271.184 190.117C271.184 191.293 272.138 192.246 273.316 192.246Z" fill="#98ABBB"/>
<path d="M287.296 188.162C288.473 188.162 289.428 187.209 289.428 186.033C289.428 184.857 288.473 183.904 287.296 183.904C286.119 183.904 285.164 184.857 285.164 186.033C285.164 187.209 286.119 188.162 287.296 188.162Z" fill="#98ABBB"/>
<path d="M301.507 184.492C302.684 184.492 303.639 183.539 303.639 182.363C303.639 181.187 302.684 180.234 301.507 180.234C300.33 180.234 299.375 181.187 299.375 182.363C299.375 183.539 300.33 184.492 301.507 184.492Z" fill="#98ABBB"/>
<path d="M197.69 191.746L196.853 189.904L252.553 164.62L279.668 94.9297L281.563 95.6664L254.141 166.125L197.69 191.746Z" fill="#00126A"/>
<path d="M262.819 141.027L229.664 157.921L225.375 178.067L267.833 169.058L262.819 141.027Z" fill="#00126A"/>
<path d="M266.22 168.005L225.55 178.037L267.833 169.06L263.163 142.945L266.22 168.005Z" fill="#98ABBB"/>
<g style="mix-blend-mode:multiply">
<path d="M225.669 176.689L231.446 159.477L261.381 141.766L229.664 157.922L225.669 176.689Z" fill="#00126A"/>
</g>
<path d="M318.851 233.681L308.147 231.108L301.451 225.596L302.739 224.035L309.079 229.248L319.326 231.714L318.851 233.681Z" fill="#00126A"/>
<path d="M310.097 242.632L301.669 240.609L296.393 236.264L297.681 234.697L302.601 238.749L310.572 240.666L310.097 242.632Z" fill="#00126A"/>
<path d="M295.505 237.539C294.698 237.539 293.923 237.271 293.273 236.777C292.479 236.172 291.966 235.298 291.829 234.311C291.691 233.325 291.954 232.345 292.554 231.552C293.16 230.759 294.036 230.247 295.024 230.11C296.011 229.973 296.993 230.235 297.787 230.834C298.581 231.44 299.094 232.314 299.231 233.3C299.369 234.287 299.106 235.267 298.506 236.06C297.9 236.852 297.024 237.364 296.036 237.502C295.855 237.527 295.68 237.539 295.499 237.539H295.505ZM295.549 232.101C295.467 232.101 295.386 232.101 295.305 232.12C294.855 232.183 294.448 232.414 294.173 232.776C293.898 233.138 293.779 233.587 293.842 234.037C293.904 234.486 294.136 234.892 294.505 235.167C294.874 235.441 295.317 235.56 295.768 235.498C296.218 235.435 296.624 235.204 296.899 234.842C297.174 234.48 297.293 234.031 297.231 233.581C297.168 233.132 296.937 232.726 296.568 232.451C296.268 232.226 295.911 232.108 295.549 232.101Z" fill="#00126A"/>
<path d="M300.194 226.563C299.412 226.563 298.624 226.313 297.962 225.801C296.324 224.559 295.998 222.212 297.249 220.57C298.493 218.934 300.844 218.61 302.488 219.858C304.126 221.1 304.451 223.448 303.201 225.09C302.463 226.064 301.338 226.569 300.2 226.563H300.194ZM298.856 221.8C298.287 222.549 298.431 223.623 299.181 224.191C299.931 224.759 301.006 224.615 301.575 223.866C302.144 223.117 302.001 222.043 301.25 221.475C300.5 220.907 299.425 221.051 298.856 221.8Z" fill="#00126A"/>
<g style="mix-blend-mode:screen">
<path d="M157.426 62.0043L152.656 94.5426C161.046 96.1221 170.549 97.4082 181.015 97.9888C196.358 98.8378 210 97.97 221.385 96.478C211.582 98.2697 199.559 99.6806 185.817 99.6307C171.694 99.5807 159.377 97.995 149.398 96.0472C152.074 84.6975 154.75 73.3478 157.42 61.998L157.426 62.0043Z" fill="#98ABBB"/>
</g>
<path d="M244.682 158.015C246.764 158.115 248.564 160.637 248.696 163.646C248.827 166.655 247.245 169.021 245.163 168.921C243.081 168.821 241.281 166.299 241.149 163.29C241.018 160.281 242.6 157.915 244.682 158.015Z" fill="#FFAD26"/>
<g style="mix-blend-mode:screen">
<path d="M198.297 189.243L198.616 140.648L221.705 117.624L278.805 97.0781L223.943 120.471L201.836 142.945L198.297 189.243Z" fill="#98ABBB"/>
</g>
<g style="mix-blend-mode:multiply" opacity="0.4">
<path d="M246.369 213.053C246.369 213.053 266.37 204.981 293.029 197.421C319.688 189.861 335.187 186.845 339.87 186.046C344.546 185.247 343.402 185.715 347.228 183.293C347.228 183.293 329.485 175.346 315.511 152.216C301.538 129.085 285.97 100.636 281.118 98.1016C281.118 98.1016 295.455 121.463 299.318 129.847C303.182 138.231 316.212 159.926 321.145 165.288C326.071 170.651 335.749 179.379 342.308 182.987C342.308 182.987 335.718 184.461 332.761 184.76C329.804 185.06 289.909 195.236 282.963 197.608C276.01 199.981 262.893 204.987 246.375 213.053H246.369Z" fill="#5B6671"/>
</g>
<path d="M246.051 215.731L245.438 215.244C216.172 192.008 197.491 192.17 197.309 192.176L195.915 192.207V190.815L196.221 140.085L220.286 115.75L220.573 115.644L280.9 93.7559L281.5 94.274C288.528 100.33 292.579 107.815 298.712 119.146C302.745 126.594 307.759 135.865 315.193 147.676C333.393 176.6 349.436 181.551 349.592 181.594L351.805 182.237L350.161 183.854C345.966 187.962 341.083 188.337 340.177 188.374C292.029 197.489 247.22 215.257 246.77 215.438L246.038 215.731H246.051ZM198.635 189.523C203.555 189.86 220.949 192.526 246.507 212.647C252.534 210.3 294.724 194.224 339.789 185.709L339.908 185.684H340.033C340.064 185.684 343.328 185.615 346.604 183.318C341.408 180.964 327.922 172.973 312.905 149.112C305.421 137.226 300.382 127.911 296.33 120.432C290.31 109.313 286.608 102.471 280.325 96.8399L221.78 118.078L198.916 141.202L198.628 189.523H198.635Z" fill="#00126A"/>
<path d="M68.2029 143.626L64.2578 141.697C64.3016 141.603 68.9844 132.089 76.0181 120.521C85.5025 104.919 94.5306 93.1888 102.846 85.6473C122.659 67.6863 140.171 61.999 140.909 61.7617L142.241 65.9383C136.307 67.8361 121.046 75.0717 105.803 88.8937C86.6529 106.255 68.3842 143.257 68.2029 143.626Z" fill="#00126A"/>
<path d="M310.529 145.055C310.354 144.681 292.516 107.46 273.579 89.8799C254.672 72.3309 237.585 66.5562 237.41 66.5L238.792 62.3359C239.523 62.5794 256.967 68.479 276.567 86.671C284.795 94.3124 293.686 106.149 302.982 121.856C309.879 133.506 314.443 143.076 314.493 143.17L310.529 145.049V145.055Z" fill="#00126A"/>
<path d="M135.419 266.589C137.069 266.582 140.096 266.114 141.727 263.149C144.453 258.198 142.221 251.212 141.29 248.771C138.576 248.584 135.081 248.347 133.581 248.266C132.931 249.177 131.649 251.225 130.505 253.141C131.092 254.914 131.855 259.153 127.973 263.561C129.567 265.353 132.543 266.607 135.419 266.589Z" fill="#6BE1FF"/>
<path d="M46.2574 201.337C45.4134 201.443 44.4443 201.543 43.494 201.587C42.1185 201.649 40.7743 201.587 39.899 201.275C39.5364 201.144 38.6298 200.713 37.3982 200.076C34.7222 219.329 43.6315 229.705 62.8505 243.821C80.6503 256.893 119.207 261.151 125.203 261.744C128.029 258.71 127.804 255.876 127.46 254.534C122.189 254.134 99.6318 252.136 84.3016 246.43C67.2708 240.094 50.0775 222.751 47.3765 217.132C45.4759 213.168 45.901 205.214 46.2512 201.337H46.2574Z" fill="white"/>
<path d="M44.0691 108.661C39.3613 106.794 30.8021 104.172 26.8946 106.338C21.2364 109.472 3.28029 150.058 4.29313 157.424C4.95585 162.25 13.7276 167.825 19.0606 170.641C19.2044 161.47 20.8488 149.952 25.9317 138.496C31.6274 125.666 38.7736 115.359 44.0691 108.661Z" fill="white"/>
<path d="M143.972 246.567C144.172 246.998 148.78 257.205 144.666 264.672C144.516 264.946 144.334 265.202 144.165 265.458C148.986 266.232 158.658 267.543 164.785 266.769C169.03 266.226 172.825 264.135 175.214 261.038C177.37 258.235 178.208 254.858 177.627 251.281C176.551 244.657 168.793 241.061 153.913 240.293C146.654 239.918 143.915 243.483 142.915 245.693C143.384 245.824 143.778 246.136 143.978 246.573L143.972 246.567Z" fill="#6BE1FF"/>
<path d="M28.9826 139.769C19.173 161.869 22.7617 184.262 24.2747 187.39C25.1063 189.119 31.9398 193.383 36.7227 196.043C36.8603 196.093 36.9853 196.168 37.1041 196.255C38.9297 197.26 40.4115 198.003 41.0617 198.24C41.8182 198.509 44.4066 198.346 46.7511 197.997C48.7018 189.519 61.3373 136.735 78.9245 111.326C75.8798 108.947 66.4891 102.586 53.4284 102.835C50.8525 105.538 37.9044 119.66 28.9826 139.769Z" fill="#6BE1FF"/>
<path d="M45.6074 105.769C45.8262 105.857 46.0326 105.944 46.2201 106.019C49.2337 102.404 51.2906 100.332 51.5157 100.113C51.8095 99.8198 52.2097 99.645 52.6348 99.6262H52.6473C57.8428 99.439 62.4882 100.194 66.477 101.374C70.6472 95.3436 92.5546 64.522 117.726 45.5809L112.543 36.2227C105.071 40.9611 70.791 64.1849 45.6074 105.769Z" fill="white"/>
<path d="M340.995 120.434C340.995 120.434 340.939 120.453 340.907 120.453C340.895 120.453 340.882 120.453 340.87 120.453C340.263 120.515 339.688 120.584 339.163 120.659C342.627 129.699 346.472 143.708 349.266 155.476C350.704 161.532 354.324 177.426 355.437 188.339C358.738 187.328 365.647 184.543 367.535 178.594C370.211 170.178 361.377 130.348 356.475 123.93C353.555 120.11 346.115 119.929 340.995 120.441V120.434Z" fill="white"/>
<path d="M317.95 107.823C324.877 107.505 331.742 108.398 335.037 112.356C335.918 113.411 336.888 115.228 337.913 117.581C338.094 117.55 338.288 117.525 338.494 117.494C334.806 108.86 317.568 72.5506 279.087 46.7422C277.83 49.9885 276.004 52.8978 274.054 55.3762C280.137 58.4103 298.387 70.0597 317.8 107.361C317.875 107.511 317.919 107.667 317.95 107.823Z" fill="white"/>
<path d="M192.913 9.49605C144.878 7.04881 117.769 22.4877 112.536 25.8089L114.706 33.3192L121.295 45.2183L124.278 49.913C130.98 47.7717 163.21 38.0264 198.79 36.4407C234.49 34.8487 258.298 56.0436 263.494 61.1504C267.095 58.3785 278.036 48.9391 277.398 37.1212C273.053 33.8249 242.549 12.0307 192.907 9.50229L192.913 9.49605Z" fill="#6BE1FF"/>
<path d="M352.362 190.718C352.318 190.499 352.318 190.287 352.362 190.081C350.98 173.837 341.883 135.917 335.556 120.378C335.418 120.197 335.312 119.991 335.262 119.754C335.256 119.71 335.256 119.673 335.249 119.629C334.224 117.194 333.274 115.378 332.455 114.391C327.634 108.598 309.741 111.582 301.213 113.698C304.952 122.145 320.507 160.09 322.576 210.47C333.618 207.574 349.923 201.836 352.118 197.067C352.574 196.074 352.655 193.895 352.437 190.874C352.418 190.818 352.387 190.774 352.374 190.718H352.362Z" fill="#6BE1FF"/>
<g opacity="0.25">
<path d="M4.74308 153.241C4.74308 153.241 10.2387 159.322 12.702 161.513C15.1654 163.705 19.2855 165.609 19.2855 165.609C19.2855 165.609 21.8927 174.786 22.0052 177.395C22.1177 180.005 22.7179 181.435 22.7179 181.435C22.7179 181.435 31.4897 187.621 36.6664 190.425C41.8432 193.221 47.6827 194.077 47.6827 194.077C47.6827 194.077 60.2494 155.639 60.4495 155.208C60.6433 154.783 40.2614 155.483 36.5789 145.2C32.8964 134.918 32.7401 128.975 32.7401 128.975L25.6752 144.014C25.6752 144.014 21.4738 143.783 17.8475 137.153C14.2213 130.523 14.5464 123.406 14.5464 123.406C14.5464 123.406 4.46174 146.986 4.74308 153.235V153.241Z" fill="#020772"/>
</g>
<g opacity="0.25">
<path d="M57.5053 99.7206C57.5053 99.7206 73.8733 78.1511 91.6106 61.4824C109.348 44.8137 115.369 41.3301 115.369 41.3301C115.369 41.3301 118.476 43.9958 118.507 44.6888C118.538 45.3818 117.088 48.2348 117.088 48.2348C117.088 48.2348 86.759 75.8724 81.3384 84.9247C75.9115 93.977 66.5834 102.642 66.5834 102.642C66.5834 102.642 57.8616 101.4 57.499 99.7268L57.5053 99.7206Z" fill="#020772"/>
</g>
<g opacity="0.25">
<path d="M117.243 34.9618C117.243 34.9618 149.461 16.8509 200.047 19.6103C250.633 22.3697 276.473 45.9431 276.473 45.9431L273.128 52.7792L268.213 58.2231C268.213 58.2231 248.938 33.2574 202.622 32.2149C156.3 31.1723 122.658 47.3478 122.658 47.3478C122.658 47.3478 118.575 43.7519 118.519 43.5958C118.463 43.4397 115.924 35.661 117.256 34.968L117.243 34.9618Z" fill="#020772"/>
</g>
<g opacity="0.25">
<path d="M277.43 52.0977C277.43 52.0977 293.635 62.0428 310.141 82.0827C326.653 102.129 327.847 109.595 327.847 109.595L318.125 110.026C318.125 110.026 304.876 86.1032 295.38 75.5276C285.883 64.9458 272.253 54.8322 272.253 54.8322C272.253 54.8322 275.535 50.8429 277.43 52.0977Z" fill="#020772"/>
</g>
<g opacity="0.25">
<path d="M322.275 204.751C322.257 204.439 349.36 198.433 351.517 193.739C353.674 189.044 353.667 183.094 353.667 183.094C353.667 183.094 363.396 180.572 366.516 175.94C369.642 171.308 368.891 161.837 368.522 160.707C368.147 159.577 366.772 155.145 366.772 155.145C366.772 155.145 362.202 158.691 355.524 158.36C348.847 158.029 347.834 157.03 347.834 157.03C347.834 157.03 336.93 165.558 329.053 164.659C321.169 163.754 313.429 158.878 313.429 158.878C313.429 158.878 317.199 175.946 317.38 177.607C317.561 179.267 319.587 195.68 319.712 196.092C319.837 196.504 322.275 204.745 322.275 204.745V204.751Z" fill="#020772"/>
</g>
<g opacity="0.25">
<path d="M47.383 217.132C47.383 217.132 47.7832 227.739 60.6875 237.609C73.5919 247.479 89.8224 252.498 100.351 254.746C110.873 256.993 127.254 258.479 127.254 258.479L130.511 256.431C130.511 256.431 133.681 257.599 136.463 257.343C139.245 257.087 143.847 254.215 143.847 254.215L146.367 256.868L144.672 264.666C144.672 264.666 149.749 261.263 150.618 256.706C151.487 252.149 151.406 250.269 151.406 250.269C151.406 250.269 169.418 249.42 173.445 252.891C177.465 256.356 171.938 264.816 170.894 265.49C169.85 266.164 166.686 267.556 164.329 267.662C161.972 267.768 160.196 268.892 154.469 268.205C148.742 267.519 141.296 266.807 140.44 266.845C139.583 266.882 134.144 267.856 134.144 267.856C134.144 267.856 132.768 268.337 131.768 267.544C130.768 266.751 129.736 265.546 128.048 264.89C126.36 264.235 123.421 263.529 123.421 263.529C123.421 263.529 94.374 260.333 78.1497 253.116C61.9255 245.899 46.6453 235.948 40.9808 226.777C35.3164 217.606 35.5915 204.771 35.5603 204.04C35.529 203.31 36.5793 199.189 36.5793 199.189L46.5452 199.82L47.7769 205.695L47.3955 217.126L47.383 217.132Z" fill="#020772"/>
</g>
<g opacity="0.4">
<path d="M41.1113 118.267C41.1113 118.267 55.66 108.209 56.6228 108.06C57.5857 107.91 78.1364 115.77 78.1364 115.77C78.1364 115.77 82.4941 112.336 81.6876 111.019C80.8748 109.695 68.3081 103.015 65.1883 102.703C62.0684 102.391 52.709 101.242 52.709 101.242C52.709 101.242 41.5052 113.878 41.1176 118.273L41.1113 118.267Z" fill="white"/>
</g>
<g opacity="0.4">
<path d="M304.626 122.063C304.626 122.063 311.428 118.854 318.149 117.824C324.87 116.794 336.143 117.656 336.143 117.656C336.143 117.656 332.842 112.349 325.896 110.732C318.95 109.121 298.905 112.624 298.905 112.624L304.632 122.063H304.626Z" fill="white"/>
</g>
<g opacity="0.4">
<path d="M114.368 32.1273C114.368 32.1273 134.925 17.7061 174.476 14.7656C214.027 11.8252 250.508 20.2907 250.508 20.2907C250.508 20.2907 210.401 4.36486 172.019 7.89838C133.637 11.4319 112.08 22.6942 111.599 24.667C111.111 26.6398 114.368 32.1273 114.368 32.1273Z" fill="white"/>
</g>
<path d="M43.6068 202.842C42.0501 202.91 40.5058 202.842 39.4429 202.461C38.0612 201.961 22.3059 193.921 20.0801 189.313C18.1607 185.33 14.3219 161.457 24.7317 137.996C34.9852 114.897 49.9402 99.8577 50.5717 99.2334C51.1031 98.7028 51.8409 98.3969 52.5849 98.3656C70.9349 97.6977 82.7014 108.51 83.1953 108.972C84.2456 109.959 84.4019 111.538 83.5579 112.706C64.9016 138.47 51.1531 199.414 51.0156 200.026C50.7593 201.169 49.8277 202.049 48.646 202.255C47.5457 202.448 45.5575 202.761 43.5943 202.848L43.6068 202.842ZM54.0041 104.09C50.7843 107.524 38.6489 121.177 30.171 140.262C19.9738 163.236 24.6004 185.093 25.4444 186.853C26.7886 189.126 39.3304 196.249 41.5124 197.055C42.0313 197.186 43.7944 197.104 45.6763 196.867C48.1521 186.273 60.3188 136.797 77.1745 111.607C73.6045 109.022 65.2454 104.034 54.0041 104.09Z" fill="#020772"/>
<path d="M20.8174 176.152C20.3484 176.17 19.867 176.083 19.4106 175.877C17.5225 175.003 0.948112 167.068 -0.289808 158.035C-1.13384 151.854 6.51875 133.912 8.88205 128.562C11.9456 121.632 19.6169 105.207 24.6186 102.435C32.0337 98.3331 46.3823 104.676 47.9891 105.413C49.4708 106.087 50.096 107.804 49.4021 109.24C48.7018 110.682 46.9387 111.3 45.4632 110.625C40.0739 108.166 30.952 105.55 27.5446 107.435C25.9378 108.359 20.7673 116.25 14.2964 130.896C8.18807 144.725 5.24957 154.801 5.58718 157.254C6.17488 161.524 15.5281 167.674 21.9802 170.67C23.4557 171.357 24.0747 173.074 23.3682 174.51C22.8806 175.502 21.8802 176.102 20.8236 176.145L20.8174 176.152Z" fill="#020772"/>
<path d="M43.3003 109.464C42.7564 109.489 42.1999 109.364 41.6935 109.083C40.2743 108.291 39.7929 106.53 40.6119 105.15C69.553 56.3366 109.935 32.4448 111.642 31.4521C112.336 31.0463 113.168 30.934 113.949 31.1462C114.731 31.3522 115.387 31.8642 115.769 32.5509L122.471 44.6498C123.165 45.8984 122.815 47.4591 121.646 48.3144C93.9675 68.6602 69.8843 104.495 69.6405 104.857C68.7465 106.193 66.9146 106.58 65.5454 105.712C64.1762 104.851 63.7823 103.065 64.6763 101.729C65.6579 100.262 88.4406 66.3566 116.063 45.2366L112.074 38.0322C102.658 44.1815 69.7405 67.5427 45.7449 108.016C45.2197 108.902 44.2819 109.414 43.3066 109.458L43.3003 109.464Z" fill="#020772"/>
<path d="M125.971 266.306C125.84 266.306 125.709 266.306 125.578 266.3C123.739 266.144 80.3497 262.311 60.0553 247.409C39.492 232.313 29.126 219.815 33.1962 197.059C33.4775 195.492 35.0093 194.437 36.6223 194.706C38.2354 194.974 39.3107 196.466 39.0356 198.033C35.4469 218.111 44.1061 228.468 63.6377 242.808C80.606 255.269 116.975 259.62 124.665 260.413C126.203 258.546 126.447 256.848 126.353 255.706C119.613 255.15 98.4871 253.053 83.8383 247.602C66.5075 241.153 48.9703 223.417 46.2068 217.655C43.6309 212.292 45.0252 200.406 45.1877 199.063C45.3878 197.484 46.8508 196.354 48.4826 196.547C50.1081 196.735 51.2648 198.164 51.0647 199.744C50.5145 204.17 50.1644 212.28 51.5711 215.208C53.3467 218.91 69.3709 236.047 85.9641 242.221C102.388 248.333 128.61 250.1 128.872 250.118C129.916 250.187 130.848 250.786 131.317 251.698C131.467 251.985 134.868 258.821 127.916 265.476C127.391 265.982 126.697 266.269 125.971 266.3V266.306Z" fill="#020772"/>
<path d="M263.443 66.1763C262.574 66.2138 261.699 65.8829 261.086 65.2024C260.855 64.9464 237.059 39.2254 198.996 40.9235C159.889 42.6653 124.877 54.4458 124.527 54.5644C123.214 55.0139 121.764 54.5144 121.032 53.3657L117.331 47.541C116.474 46.1926 116.906 44.4133 118.3 43.5768C119.694 42.7402 121.52 43.1522 122.376 44.507L124.846 48.4026C133.336 45.7493 164.491 36.697 198.734 35.1737C233.752 33.613 256.947 53.0349 263.599 59.4339C267.613 56.1626 276.329 47.8719 276.122 37.7521C270.483 33.5818 240.598 13.186 192.838 10.7575C147.341 8.44133 120.732 22.3382 114.042 26.3711L115.999 33.1448C116.443 34.6743 115.524 36.2662 113.949 36.7033C112.373 37.134 110.735 36.2475 110.297 34.718L107.753 25.9154C107.421 24.7667 107.853 23.5368 108.841 22.8189C110.004 21.9761 138.019 2.19212 193.157 5.00146C248.219 7.80455 279.605 33.0137 280.912 34.0812C281.512 34.5682 281.881 35.2674 281.949 36.029C283.494 53.0411 265.738 65.165 264.981 65.6706C264.512 65.989 263.975 66.1576 263.431 66.1763H263.443Z" fill="#020772"/>
<path d="M316.449 110.97C315.324 111.02 314.217 110.439 313.673 109.396C291.384 66.5697 270.59 58.7535 270.383 58.6786C268.858 58.1355 268.064 56.4873 268.614 54.9953C269.17 53.5032 270.846 52.7228 272.378 53.2472C273.309 53.5656 295.423 61.5566 318.962 106.781C319.7 108.198 319.112 109.933 317.656 110.651C317.268 110.845 316.855 110.945 316.449 110.963V110.97Z" fill="#020772"/>
<path d="M321.113 215.42C320.431 215.452 319.756 215.252 319.2 214.846C318.487 214.322 318.055 213.516 318.024 212.642C316.105 155.569 296.417 114.266 296.223 113.86C295.854 113.092 295.848 112.212 296.21 111.438C296.573 110.67 297.261 110.089 298.099 109.858C301.137 109.015 328.021 101.898 336.055 111.556C340.313 116.669 346.515 138.251 350.541 155.182C353.192 166.344 359.069 192.946 356.337 198.883C352.423 207.411 326.802 214.078 321.707 215.333C321.513 215.383 321.313 215.408 321.119 215.42H321.113ZM302.994 114.559C307.539 125.16 321.575 161.388 323.801 208.828C334.999 205.763 349.103 200.525 350.929 196.548C351.754 194.544 350.804 181.827 344.714 156.262C339.857 135.86 334.273 118.586 331.447 115.183C327.834 110.838 313.648 112.081 303 114.559H302.994Z" fill="#020772"/>
<path d="M354.118 193.27C352.686 193.333 351.379 192.377 351.085 190.967C350.766 189.406 351.804 187.889 353.405 187.57C353.505 187.552 364.027 185.348 366.29 178.218C368.81 170.277 360.082 130.766 355.424 124.672C352.079 120.302 341.088 121.464 337.499 122.219C335.893 122.562 334.33 121.57 333.986 120.015C333.642 118.461 334.661 116.931 336.255 116.594C338.05 116.213 353.974 113.11 360.182 121.233C366.009 128.861 375.106 169.953 371.949 179.904C368.641 190.324 355.137 193.095 354.568 193.214C354.411 193.245 354.261 193.264 354.111 193.27H354.118Z" fill="#020772"/>
<path d="M340.964 121.707C339.707 121.763 338.5 121.027 338.05 119.809C337.887 119.372 321.257 75.6589 276.542 46.5729C275.185 45.6864 274.822 43.901 275.735 42.5774C276.648 41.2539 278.486 40.8981 279.849 41.7846C326.24 71.9631 342.939 115.989 343.627 117.849C344.183 119.341 343.383 120.995 341.845 121.539C341.557 121.638 341.264 121.695 340.97 121.707H340.964Z" fill="#020772"/>
<path d="M135.993 271.076C135.812 271.082 135.625 271.089 135.437 271.089C130.36 271.126 125.346 268.548 123.239 264.821C122.451 263.429 122.977 261.674 124.415 260.906C125.853 260.138 127.653 260.644 128.435 262.036C129.485 263.903 132.549 265.345 135.412 265.326C137.075 265.32 139.332 264.827 140.583 262.554C142.677 258.753 141.452 253.128 140.357 249.975C137.994 249.813 135.675 249.657 134.243 249.569C133.474 250.73 132.242 252.716 131.236 254.426C130.423 255.806 128.61 256.287 127.191 255.494C125.771 254.701 125.284 252.94 126.103 251.561C130.367 244.35 130.961 243.807 132.73 243.732C132.942 243.719 133.33 243.707 142.665 244.356C143.752 244.431 144.709 245.08 145.153 246.048C145.359 246.504 150.217 257.254 145.803 265.264C143.865 268.785 140.307 270.876 135.987 271.07L135.993 271.076Z" fill="#020772"/>
<path d="M162.59 271.458C153.437 271.864 140.895 269.479 140.308 269.367C138.701 269.061 137.663 267.544 137.988 265.983C138.313 264.423 139.87 263.411 141.477 263.717C141.627 263.748 156.444 266.57 164.616 265.521C168.511 265.022 171.993 263.118 174.169 260.29C176.113 257.761 176.857 254.721 176.339 251.487C175.369 245.538 168.011 242.291 153.837 241.555C144.709 241.08 143.69 247.254 143.652 247.517C143.421 249.09 141.914 250.189 140.301 249.97C138.682 249.752 137.557 248.291 137.788 246.718C138.382 242.678 142.571 235.212 154.169 235.805C160.558 236.136 180.015 237.141 182.197 250.576C182.966 255.314 181.803 259.984 178.921 263.73C175.795 267.8 170.862 270.534 165.385 271.234C164.51 271.346 163.572 271.421 162.603 271.465L162.59 271.458Z" fill="#020772"/>
<path d="M189.256 219.871V243.732C189.256 243.732 213.645 247.577 229.613 235.372" stroke="#00126A" stroke-width="6" stroke-miterlimit="10" stroke-linecap="round"/>
</g>
<defs>
<clipPath id="clip0_1121_17806">
<rect width="375" height="301" fill="white"/>
</clipPath>
</defs>
</svg>
